<?xml version="1.0" encoding="utf-8"?>
<!-- Generator: Adobe Illustrator 19.1.0, SVG Export Plug-In . SVG Version: 6.00 Build 0)  -->
<svg version="1.1" id="Layer_1" xmlns="http://www.w3.org/2000/svg" xmlns:xlink="http://www.w3.org/1999/xlink" x="0px" y="0px"
	 viewBox="7215 -126 1958.6 303" style="enable-background:new 7215 -126 1958.6 303;" xml:space="preserve">
<style type="text/css">
	.st0{fill:none;stroke:#50C3CC;stroke-width:2;stroke-linecap:round;stroke-linejoin:round;}
	.st1{fill:none;stroke:#50C3CC;stroke-width:2;stroke-linecap:round;stroke-linejoin:round;stroke-dasharray:0,7.041;}
	.st2{fill:none;stroke:#50C3CC;stroke-width:2;stroke-linecap:round;stroke-linejoin:round;stroke-dasharray:0,7.355;}
	.st3{fill:none;stroke:#50C3CC;stroke-width:2;stroke-linecap:round;stroke-linejoin:round;stroke-dasharray:0,7.2242;}
	.st4{fill:none;stroke:#50C3CC;stroke-width:2;stroke-linecap:round;stroke-linejoin:round;stroke-dasharray:0,7.1942;}
	.st5{fill:none;stroke:#50C3CC;stroke-width:2;stroke-linecap:round;stroke-linejoin:round;stroke-dasharray:0,7.2179;}
	.st6{fill:none;stroke:#FFFFFF;stroke-width:3;stroke-linecap:square;stroke-miterlimit:10;}
	.st7{fill:#FFFFFF;stroke:#614767;stroke-width:0.75;stroke-miterlimit:10;}
	.st8{fill:#00AF86;stroke:#614767;stroke-width:0.75;stroke-miterlimit:10;}
	.st9{fill:none;stroke:#50C3CC;stroke-width:2;stroke-linecap:round;stroke-linejoin:round;stroke-dasharray:0,6.9651;}
	.st10{fill:none;stroke:#50C3CC;stroke-width:2;stroke-linecap:round;stroke-linejoin:round;stroke-dasharray:0,7.1503;}
	.st11{fill:none;stroke:#50C3CC;stroke-width:2;stroke-linecap:round;stroke-linejoin:round;stroke-dasharray:0,6.9434;}
	.st12{fill:none;stroke:#00B288;stroke-width:3;stroke-miterlimit:10;}
	.st13{fill:none;stroke:#F69679;stroke-width:3;stroke-miterlimit:10;}
	.st14{fill:none;stroke:#00B48D;stroke-width:3;stroke-miterlimit:10;}
	.st15{fill:none;stroke:#50C3CC;stroke-width:2;stroke-linecap:round;stroke-linejoin:round;stroke-dasharray:0,7.0406;}
	.st16{fill:none;stroke:#50C3CC;stroke-width:2;stroke-linecap:round;stroke-linejoin:round;stroke-dasharray:0,7.1176;}
	.st17{fill:none;stroke:#50C3CC;stroke-width:2;stroke-linecap:round;stroke-linejoin:round;stroke-dasharray:0,7.0532;}
	.st18{fill:none;stroke:#50C3CC;stroke-width:2;stroke-linecap:round;stroke-linejoin:round;stroke-dasharray:0,7.0853;}
	.st19{fill:none;stroke:#50C3CC;stroke-width:2;stroke-linecap:round;stroke-linejoin:round;stroke-dasharray:0,7.0122;}
	.st20{fill:none;stroke:#50C3CC;stroke-width:2;stroke-linecap:round;stroke-linejoin:round;stroke-dasharray:0,7.0654;}
</style>
<g>
	<g>
		<g id="XMLID_4_">
			<g>
				<line class="st0" x1="8163.5" y1="-46.3" x2="8163.5" y2="-46.3"/>
				<line class="st1" x1="8163.5" y1="-39.2" x2="8163.5" y2="55.8"/>
				<line class="st0" x1="8163.5" y1="59.4" x2="8163.5" y2="59.4"/>
			</g>
		</g>
	</g>
	<g>
		<g id="XMLID_19_">
			<g>
				<line class="st0" x1="8023.3" y1="-67.6" x2="8023.3" y2="-67.6"/>
				<line class="st2" x1="8023.3" y1="-60.3" x2="8023.3" y2="-27.2"/>
				<line class="st0" x1="8023.3" y1="-23.5" x2="8023.3" y2="-23.5"/>
			</g>
		</g>
	</g>
	<g>
		<g id="XMLID_11_">
			<g>
				<line class="st0" x1="8326.1" y1="-68.5" x2="8326.1" y2="-68.5"/>
				<line class="st3" x1="8326.1" y1="-61.3" x2="8326.1" y2="-50.4"/>
				<line class="st0" x1="8326.1" y1="-46.8" x2="8326.1" y2="-46.8"/>
			</g>
		</g>
	</g>
	<g>
		<g id="XMLID_15_">
			<g>
				<line class="st0" x1="8326.1" y1="-75" x2="8326.1" y2="-75"/>
				<line class="st4" x1="8318.9" y1="-75" x2="8214.6" y2="-75"/>
				<line class="st0" x1="8211" y1="-75" x2="8211" y2="-75"/>
			</g>
		</g>
	</g>
	<g>
		<g id="XMLID_17_">
			<g>
				<line class="st0" x1="8117.1" y1="-75" x2="8117.1" y2="-75"/>
				<line class="st5" x1="8109.9" y1="-75" x2="8026.9" y2="-75"/>
				<line class="st0" x1="8023.3" y1="-75" x2="8023.3" y2="-75"/>
			</g>
		</g>
	</g>
	<g>
		<g>
			<path class="st6" d="M8155.4-70.5h-16.9c-6.6,0-11.9-5.3-11.9-11.9l0,0c0-6.6,5.3-11.9,11.9-11.9h14.3"/>
			<path class="st6" d="M8141-94.4L8141-94.4c0-7,5.6-12.6,12.6-12.6h12.5c6.8,0,12.3,5.5,12.3,12.3l0,0c0,6.8-5.5,12.3-12.3,12.3
				h-0.7"/>
			<path class="st6" d="M8178.3-94.7h8.5c6.7,0,12.1,5.4,12.1,12.1l0,0c0,6.7-5.4,12.1-12.1,12.1h-10.3"/>
			<path class="st6" d="M8187.8-70.5L8187.8-70.5c0,6.8-5.5,12.3-12.3,12.3h-14.4c-6.8,0-12.3-5.5-12.3-12.3l0,0"/>
		</g>
	</g>
</g>
<g>
	<g>
		<path class="st7" d="M8888.8-83.1V-93c0-7.7-6.2-13.9-13.9-13.9S8861-100.7,8861-93v9.9h-9.9v47.7h47.7v-47.7H8888.8z M8865-93
			c0-5.5,4.5-9.9,9.9-9.9c5.5,0,9.9,4.5,9.9,9.9v9.9h-19.9L8865-93L8865-93z M8894.8-79.1v31.8h-39.7v-31.8H8894.8z M8855.1-39.4v-4
			h39.7v4H8855.1z"/>
		<path class="st8" d="M8880.9-67.2c0-3.3-2.7-6-6-6s-6,2.7-6,6c0,2.6,1.7,4.8,4,5.6v8.3h4v-8.3
			C8879.2-62.4,8880.9-64.6,8880.9-67.2z M8874.9-65.2c-1.1,0-2-0.9-2-2s0.9-2,2-2s2,0.9,2,2S8876-65.2,8874.9-65.2z"/>
	</g>
	<g id="XMLID_21_">
		<g>
			<line class="st0" x1="8732.4" y1="-68.3" x2="8732.4" y2="-68.3"/>
			<line class="st9" x1="8732.4" y1="-61.4" x2="8732.4" y2="95.3"/>
			<line class="st0" x1="8732.4" y1="98.8" x2="8732.4" y2="98.8"/>
		</g>
	</g>
	<g id="XMLID_28_">
		<g>
			<line class="st0" x1="9020.2" y1="-68.3" x2="9020.2" y2="-68.3"/>
			<line class="st9" x1="9020.2" y1="-62.3" x2="9020.2" y2="72.3"/>
			<line class="st0" x1="9020.2" y1="75.3" x2="9020.2" y2="75.3"/>
		</g>
	</g>
	<g id="XMLID_23_">
		<g>
			<line class="st0" x1="8732.2" y1="-75.1" x2="8732.2" y2="-75.1"/>
			<line class="st10" x1="8739.4" y1="-75.1" x2="8835.9" y2="-75.1"/>
			<line class="st0" x1="8839.5" y1="-75.1" x2="8839.5" y2="-75.1"/>
		</g>
	</g>
	<g id="XMLID_25_">
		<g>
			<line class="st0" x1="8909.2" y1="-75.1" x2="8909.2" y2="-75.1"/>
			<line class="st11" x1="8916.1" y1="-75.1" x2="9016.8" y2="-75.1"/>
			<line class="st0" x1="9020.3" y1="-75.1" x2="9020.3" y2="-75.1"/>
		</g>
	</g>
</g>
<g>
	<g>
		<g>
			<circle class="st12" cx="7527.7" cy="-70.4" r="25"/>
			<circle class="st6" cx="7527.7" cy="-70.4" r="20.4"/>
			<line class="st13" x1="7527.7" y1="-70.4" x2="7537.7" y2="-84.7"/>
			<g>
				<line class="st14" x1="7527.7" y1="-102.8" x2="7527.7" y2="-97.9"/>
				<line class="st14" x1="7523.2" y1="-102.8" x2="7523.2" y2="-97.9"/>
				<line class="st14" x1="7532.2" y1="-102.8" x2="7532.2" y2="-97.9"/>
			</g>
			<path class="st14" d="M7537.2-101.6L7537.2-101.6c0-2.2-1.7-3.9-3.9-3.9h-11.2c-2.2,0-3.9,1.7-3.9,3.9l0,0"/>
			<g>
				<line class="st14" x1="7545.5" y1="-96" x2="7551.3" y2="-90.2"/>
				<line class="st14" x1="7509.9" y1="-96" x2="7504" y2="-90.2"/>
			</g>
			<line class="st6" x1="7527.7" y1="-90.8" x2="7527.7" y2="-86.3"/>
			<line class="st6" x1="7527.7" y1="-54.5" x2="7527.7" y2="-50"/>
			<line class="st6" x1="7507.3" y1="-70.4" x2="7511.8" y2="-70.4"/>
			<line class="st6" x1="7543.6" y1="-70.4" x2="7548.1" y2="-70.4"/>
		</g>
	</g>
	<g>
		<g id="XMLID_1_">
			<g>
				<line class="st0" x1="7651.8" y1="-69.6" x2="7651.8" y2="-69.6"/>
				<line class="st15" x1="7651.8" y1="-62.5" x2="7651.8" y2="67.7"/>
				<line class="st0" x1="7651.8" y1="71.2" x2="7651.8" y2="71.2"/>
			</g>
		</g>
	</g>
	<g>
		<g id="XMLID_3_">
			<g>
				<line class="st0" x1="7698.3" y1="-69.6" x2="7698.3" y2="-69.6"/>
				<line class="st16" x1="7698.3" y1="-62.5" x2="7698.3" y2="-37.6"/>
				<line class="st0" x1="7698.3" y1="-34" x2="7698.3" y2="-34"/>
			</g>
		</g>
	</g>
	<g>
		<g id="XMLID_12_">
			<g>
				<line class="st0" x1="7381.3" y1="-69.1" x2="7381.3" y2="-69.1"/>
				<line class="st17" x1="7381.3" y1="-62" x2="7381.3" y2="47.3"/>
				<line class="st0" x1="7381.3" y1="50.8" x2="7381.3" y2="50.8"/>
			</g>
		</g>
	</g>
	<g>
		<g id="XMLID_9_">
			<g>
				<line class="st0" x1="7423.9" y1="-68.4" x2="7423.9" y2="-68.4"/>
				<line class="st18" x1="7423.9" y1="-61.3" x2="7423.9" y2="20.1"/>
				<line class="st0" x1="7423.9" y1="23.7" x2="7423.9" y2="23.7"/>
			</g>
		</g>
	</g>
	<g>
		<g id="XMLID_5_">
			<g>
				<line class="st0" x1="7697.5" y1="-75.2" x2="7697.5" y2="-75.2"/>
				<line class="st19" x1="7690.5" y1="-75.2" x2="7567.8" y2="-75.2"/>
				<line class="st0" x1="7564.3" y1="-75.2" x2="7564.3" y2="-75.2"/>
			</g>
		</g>
	</g>
	<g>
		<g id="XMLID_7_">
			<g>
				<line class="st0" x1="7487.4" y1="-75.2" x2="7487.4" y2="-75.2"/>
				<line class="st20" x1="7480.3" y1="-75.2" x2="7384.9" y2="-75.2"/>
				<line class="st0" x1="7381.4" y1="-75.2" x2="7381.4" y2="-75.2"/>
			</g>
		</g>
	</g>
</g>
</svg>
