<?xml version="1.0" encoding="utf-8"?>
<!-- Generator: Adobe Illustrator 19.1.0, SVG Export Plug-In . SVG Version: 6.00 Build 0)  -->
<svg version="1.1" id="Layer_1" xmlns="http://www.w3.org/2000/svg" xmlns:xlink="http://www.w3.org/1999/xlink" x="0px" y="0px"
	 viewBox="7215 -126 1958.6 303" style="enable-background:new 7215 -126 1958.6 303;" xml:space="preserve">
<style type="text/css">
	.st0{fill:none;stroke:#FFFFFF;stroke-width:3;stroke-miterlimit:10;}
	.st1{fill:none;stroke:#50C3CC;stroke-width:2;stroke-linecap:round;stroke-linejoin:round;}
	.st2{fill:none;stroke:#50C3CC;stroke-width:2;stroke-linecap:round;stroke-linejoin:round;stroke-dasharray:0,7.041;}
	.st3{fill:none;stroke:#FFFFFF;stroke-width:3;stroke-linecap:square;stroke-miterlimit:10;}
	.st4{fill:none;stroke:#00B48D;stroke-width:3;stroke-linecap:square;stroke-miterlimit:10;}
	.st5{fill:none;stroke:#56C5D0;stroke-width:3;stroke-linecap:square;stroke-miterlimit:10;}
	.st6{fill:none;stroke:#6A817C;stroke-width:3;stroke-linecap:square;stroke-miterlimit:10;}
	.st7{fill:none;stroke:#F69679;stroke-width:3;stroke-linecap:square;stroke-miterlimit:10;}
	.st8{fill:none;stroke:#C6C9C9;stroke-width:3;stroke-linecap:square;stroke-miterlimit:10;}
	.st9{fill:none;stroke:#F69679;stroke-width:3;stroke-miterlimit:10;}
	.st10{fill:none;stroke:#00B388;stroke-width:3;stroke-linecap:square;stroke-miterlimit:10;}
	.st11{fill:none;stroke:#F68D70;stroke-width:3;stroke-linecap:square;stroke-miterlimit:10;}
	.st12{fill:#FFFFFF;stroke:#C6C9C9;stroke-miterlimit:10;}
	.st13{fill:none;stroke:#50C3CC;stroke-width:2;stroke-linecap:round;stroke-linejoin:round;stroke-dasharray:0,7.1665;}
	.st14{fill:none;stroke:#50C3CC;stroke-width:2;stroke-linecap:round;stroke-linejoin:round;stroke-dasharray:0,6.9656;}
	.st15{fill:none;stroke:#50C3CC;stroke-width:2;stroke-linecap:round;stroke-linejoin:round;stroke-dasharray:0,7.1953;}
	.st16{fill:none;stroke:#50C3CC;stroke-width:2;stroke-linecap:round;stroke-linejoin:round;stroke-dasharray:0,7.3771;}
	.st17{fill:none;stroke:#6A817C;stroke-width:4;stroke-linecap:square;stroke-miterlimit:10;}
	.st18{fill:none;stroke:#17181B;stroke-width:3;stroke-linecap:square;stroke-miterlimit:10;}
	.st19{fill:none;stroke:#F59278;stroke-width:3;stroke-linecap:square;stroke-miterlimit:10;}
	.st20{fill:#50C3CC;}
	.st21{fill:none;stroke:#00B288;stroke-width:3;stroke-miterlimit:10;}
	.st22{fill:none;stroke:#00B48D;stroke-width:3;stroke-miterlimit:10;}
	.st23{fill:none;stroke:#17181B;stroke-width:4;stroke-miterlimit:10;}
	.st24{fill:none;stroke:#F59278;stroke-width:4;stroke-miterlimit:10;}
	.st25{fill:none;stroke:#56C5D0;stroke-width:3;stroke-miterlimit:10;}
	.st26{fill:none;stroke:#6A817C;stroke-width:3;stroke-miterlimit:10;}
	.st27{fill:#FFFFFF;}
	.st28{fill:#614767;}
	.st29{fill:none;stroke:#C6C9C9;stroke-width:3;stroke-miterlimit:10;}
	.st30{fill:none;stroke:#00B38C;stroke-width:3;stroke-miterlimit:10;}
	.st31{fill:none;stroke:#50C3CC;stroke-width:2;stroke-linecap:round;stroke-linejoin:round;stroke-dasharray:0,7.1158;}
	.st32{fill:none;stroke:#50C3CC;stroke-width:2;stroke-linecap:round;stroke-linejoin:round;stroke-dasharray:0,6.961;}
	.st33{fill:none;stroke:#50C3CC;stroke-width:2;stroke-linecap:round;stroke-linejoin:round;stroke-dasharray:0,6.9318;}
	.st34{fill:none;stroke:#50C3CC;stroke-width:2;stroke-linecap:round;stroke-linejoin:round;stroke-dasharray:0,7.0097;}
	.st35{fill:#FFFFFF;stroke:#614767;stroke-width:0.75;stroke-miterlimit:10;}
	.st36{fill:#00AF86;stroke:#614767;stroke-width:0.75;stroke-miterlimit:10;}
	.st37{fill:none;stroke:#80766E;stroke-width:3;stroke-linecap:square;stroke-miterlimit:10;}
	.st38{fill:#614767;stroke:#614767;stroke-width:3;stroke-linecap:square;stroke-miterlimit:10;}
	.st39{fill:none;stroke:#00B28B;stroke-width:3;stroke-linecap:square;stroke-miterlimit:10;}
	.st40{fill:none;}
	.st41{fill:none;stroke:#F69677;stroke-width:3;stroke-miterlimit:10;}
</style>
<g>
	<line class="st0" x1="7215" y1="175.9" x2="9174.7" y2="175.9"/>
</g>
<g>
	<g>
		<g id="XMLID_273_">
			<g>
				<line class="st1" x1="8163" y1="-46.3" x2="8163" y2="-46.3"/>
				<line class="st2" x1="8163" y1="-39.2" x2="8163" y2="55.8"/>
				<line class="st1" x1="8163" y1="59.4" x2="8163" y2="59.4"/>
			</g>
		</g>
	</g>
	<g>
		<g>
			<path class="st3" d="M8154.9-70.5l-16.9,0c-6.6,0-11.9-5.3-11.9-11.9v0c0-6.6,5.3-11.9,11.9-11.9l14.3,0"/>
			<path class="st3" d="M8140.5-94.4L8140.5-94.4c0-7,5.6-12.6,12.6-12.6l12.5,0c6.8,0,12.3,5.5,12.3,12.3v0
				c0,6.8-5.5,12.3-12.3,12.3h-0.7"/>
			<path class="st3" d="M8177.8-94.7l8.5,0c6.7,0,12.1,5.4,12.1,12.1v0c0,6.7-5.4,12.1-12.1,12.1l-10.3,0"/>
			<path class="st3" d="M8187.3-70.5L8187.3-70.5c0,6.8-5.5,12.3-12.3,12.3l-14.4,0c-6.8,0-12.3-5.5-12.3-12.3v0"/>
		</g>
	</g>
	<g>
		<g>
			<polyline class="st4" points="7998.3,160.6 7998.3,113.1 8023,113.1 8023,160.6 			"/>
			<line class="st5" x1="7996.2" y1="100.2" x2="8025.1" y2="100.2"/>
		</g>
		<g>
			<polyline class="st3" points="8034.4,160.6 8034.4,113.1 8063.7,113.1 			"/>
			<line class="st5" x1="8055.9" y1="131.9" x2="8051.9" y2="131.9"/>
			<line class="st5" x1="8055.9" y1="141.4" x2="8051.9" y2="141.4"/>
			<line class="st5" x1="8055.9" y1="150.8" x2="8051.9" y2="150.8"/>
		</g>
	</g>
	<polyline class="st6" points="8063.2,104 8063.2,-32.1 8005.9,0.8 8005.9,89.2 	"/>
	<g>
		<line class="st5" x1="8042.3" y1="4.3" x2="8052" y2="4.3"/>
		<line class="st5" x1="8042.3" y1="66.9" x2="8052" y2="66.9"/>
		<line class="st5" x1="8042.3" y1="98.2" x2="8052" y2="98.2"/>
		<line class="st5" x1="8042.3" y1="82.5" x2="8052" y2="82.5"/>
		<line class="st5" x1="8042.3" y1="51.2" x2="8052" y2="51.2"/>
		<line class="st5" x1="8042.3" y1="35.6" x2="8052" y2="35.6"/>
		<line class="st5" x1="8042.3" y1="19.9" x2="8052" y2="19.9"/>
	</g>
	<g>
		<polyline class="st7" points="8076.3,160.6 8076.3,-22.2 8128.5,-22.2 8128.5,33.6 		"/>
		<polyline class="st6" points="8144.8,48.7 8094.4,48.7 8094.4,160.6 		"/>
	</g>
	<polyline class="st8" points="8301.5,96.4 8301.5,-23.5 8351.9,-23.5 8351.9,160.6 	"/>
	<line class="st4" x1="8301.5" y1="-37.9" x2="8377.7" y2="-37.9"/>
	<polyline class="st6" points="8365.8,-23.5 8377.7,-23.5 8377.7,160.6 	"/>
	<g>
		<line class="st9" x1="8325.2" y1="9" x2="8325.2" y2="3.1"/>
		<line class="st9" x1="8337.4" y1="9" x2="8337.4" y2="3.1"/>
		<line class="st9" x1="8312.9" y1="9" x2="8312.9" y2="3.1"/>
	</g>
	<g>
		<line class="st7" x1="8325.2" y1="34.1" x2="8325.2" y2="28.2"/>
		<line class="st7" x1="8337.4" y1="34.1" x2="8337.4" y2="28.2"/>
		<line class="st7" x1="8312.9" y1="34.1" x2="8312.9" y2="28.2"/>
	</g>
	<g>
		<line class="st7" x1="8325.2" y1="59.2" x2="8325.2" y2="53.3"/>
		<line class="st7" x1="8337.4" y1="59.2" x2="8337.4" y2="53.3"/>
		<line class="st7" x1="8312.9" y1="59.2" x2="8312.9" y2="53.3"/>
	</g>
	<g>
		<line class="st7" x1="8325.2" y1="84.3" x2="8325.2" y2="78.4"/>
		<line class="st7" x1="8337.4" y1="84.3" x2="8337.4" y2="78.4"/>
		<line class="st7" x1="8312.9" y1="84.3" x2="8312.9" y2="78.4"/>
	</g>
	<g>
		<line id="XMLID_272_" class="st8" x1="8306.5" y1="160.6" x2="8306.5" y2="144"/>
		<circle id="XMLID_271_" class="st4" cx="8306.5" cy="129.3" r="14.8"/>
	</g>
	<polyline id="XMLID_270_" class="st7" points="8189.7,31.3 8189.5,-7.2 8223.8,-7.2 8223.8,31.3 	"/>
	<g>
		<line id="XMLID_269_" class="st10" x1="7956.6" y1="147.8" x2="7956.6" y2="160.6"/>
		<polygon id="XMLID_268_" class="st4" points="7945.5,146.8 7967.7,146.7 7956.4,109.8 		"/>
	</g>
	<g>
		<polyline class="st3" points="8277.6,160.6 8277.6,67.1 8208.7,67.1 8189.5,67.1 		"/>
		<polyline class="st5" points="8225.3,160.6 8225.3,134.4 8251.4,134.4 8251.4,160.6 		"/>
		<g>
			<g>
				<line class="st11" x1="8237" y1="102.4" x2="8237" y2="96.4"/>
				<line class="st11" x1="8224.7" y1="102.4" x2="8224.7" y2="96.4"/>
				<line class="st11" x1="8261.5" y1="102.4" x2="8261.5" y2="96.4"/>
				<line class="st11" x1="8249.3" y1="102.4" x2="8249.3" y2="96.4"/>
			</g>
			<g>
				<line class="st11" x1="8237" y1="114.1" x2="8237" y2="108.2"/>
				<line class="st11" x1="8224.7" y1="114.1" x2="8224.7" y2="108.2"/>
				<line class="st11" x1="8261.5" y1="114.1" x2="8261.5" y2="108.2"/>
				<line class="st11" x1="8249.3" y1="114.1" x2="8249.3" y2="108.2"/>
			</g>
			<g>
				<line class="st11" x1="8237" y1="90.5" x2="8237" y2="84.6"/>
				<line class="st11" x1="8224.7" y1="90.5" x2="8224.7" y2="84.6"/>
				<line class="st11" x1="8261.5" y1="90.5" x2="8261.5" y2="84.6"/>
				<line class="st11" x1="8249.3" y1="90.5" x2="8249.3" y2="84.6"/>
			</g>
		</g>
		<rect x="8189.5" y="43.7" class="st5" width="88.1" height="10"/>
	</g>
	<g>
		<path class="st12" d="M8132.4,142.3v-33.5V142.3z"/>
		<line class="st8" x1="8132.4" y1="108.7" x2="8132.4" y2="142.3"/>
		<path class="st12" d="M8144.8,142.3v-33.5V142.3z"/>
		<line class="st8" x1="8144.8" y1="108.7" x2="8144.8" y2="142.3"/>
		<path class="st12" d="M8157.3,142.3v-33.5V142.3z"/>
		<line class="st8" x1="8157.3" y1="108.7" x2="8157.3" y2="142.3"/>
		<path class="st12" d="M8169.7,142.3l0-33.5L8169.7,142.3z"/>
		<line class="st8" x1="8169.7" y1="108.7" x2="8169.7" y2="142.3"/>
		<path class="st12" d="M8182.2,142.3v-33.5V142.3z"/>
		<line class="st8" x1="8182.2" y1="108.7" x2="8182.2" y2="142.3"/>
		<path class="st12" d="M8194.6,142.3l0-33.5L8194.6,142.3z"/>
		<line class="st8" x1="8194.6" y1="108.7" x2="8194.6" y2="142.3"/>
		<polygon class="st6" points="8163,74.2 8130.9,87.5 8130.9,90 8163,90 8195.1,90 8195.1,87.5 		"/>
		<g>
			<line class="st8" x1="8132.4" y1="99" x2="8132.4" y2="101"/>
			<line class="st8" x1="8144.8" y1="99" x2="8144.8" y2="101"/>
			<line class="st8" x1="8157.3" y1="99" x2="8157.3" y2="101"/>
			<line class="st8" x1="8169.7" y1="99" x2="8169.7" y2="101"/>
			<line class="st8" x1="8182.2" y1="99" x2="8182.2" y2="101"/>
			<line class="st8" x1="8194.6" y1="99" x2="8194.6" y2="101"/>
		</g>
		<rect x="8121.9" y="151.6" class="st8" width="82.2" height="9"/>
	</g>
	<g>
		<g>
			<line class="st1" x1="8210.5" y1="-75.2" x2="8210.5" y2="-75.2"/>
			<line class="st13" x1="8217.7" y1="-75.2" x2="8321.6" y2="-75.2"/>
			<line class="st1" x1="8325.2" y1="-75.2" x2="8325.2" y2="-75.2"/>
			<line class="st14" x1="8325.2" y1="-68.2" x2="8325.2" y2="-50.8"/>
			<line class="st1" x1="8325.2" y1="-47.3" x2="8325.2" y2="-47.3"/>
		</g>
	</g>
	<g>
		<g>
			<line class="st1" x1="8116.5" y1="-75.2" x2="8116.5" y2="-75.2"/>
			<line class="st15" x1="8109.3" y1="-75.2" x2="8026.6" y2="-75.2"/>
			<line class="st1" x1="8023" y1="-75.2" x2="8023" y2="-75.2"/>
			<line class="st16" x1="8023" y1="-67.8" x2="8023" y2="-27.2"/>
			<line class="st1" x1="8023" y1="-23.5" x2="8023" y2="-23.5"/>
		</g>
	</g>
	<path class="st17" d="M7458.6,158.6"/>
	<path class="st17" d="M7388.6,158.6"/>
	<path class="st17" d="M7349.4,158.6"/>
	<path class="st17" d="M7566.9,158.6"/>
	<g>
		<path id="XMLID_267_" class="st18" d="M7449.6,113.5"/>
		<path id="XMLID_266_" class="st18" d="M7453.6,112.9"/>
		<polygon class="st4" points="7508.6,120.1 7527.4,120.1 7533.7,126.4 7527.4,132.8 7508.6,132.8 		"/>
		<polyline class="st7" points="7476,129.2 7495.4,129.2 7495.4,160.6 		"/>
		<line class="st7" x1="7518.4" y1="142.4" x2="7518.4" y2="160.6"/>
		<polygon class="st4" points="7331.8,122.9 7313,122.9 7306.7,129.2 7313,135.5 7331.8,135.5 		"/>
		<line class="st7" x1="7322" y1="144.1" x2="7322" y2="160.6"/>
		<polyline class="st6" points="7399.2,160.6 7399.2,79.6 7379.6,60 7360,79.6 7360,160.6 		"/>
		<g>
			<g>
				<line class="st5" x1="7389.8" y1="125.5" x2="7389.8" y2="122.3"/>
				<line class="st5" x1="7369.5" y1="125.5" x2="7369.5" y2="122.3"/>
				<line class="st5" x1="7379.6" y1="125.5" x2="7379.6" y2="122.3"/>
			</g>
		</g>
		<g>
			<g>
				<line class="st5" x1="7389.8" y1="97.1" x2="7389.8" y2="93.8"/>
				<line class="st5" x1="7369.5" y1="97.1" x2="7369.5" y2="93.8"/>
				<line class="st5" x1="7379.6" y1="97.1" x2="7379.6" y2="93.8"/>
			</g>
			<g>
				<line class="st5" x1="7389.8" y1="112" x2="7389.8" y2="108.8"/>
				<line class="st5" x1="7369.5" y1="112" x2="7369.5" y2="108.8"/>
				<line class="st5" x1="7379.6" y1="112" x2="7379.6" y2="108.8"/>
			</g>
		</g>
		<path id="XMLID_264_" class="st18" d="M7567.1,113.5"/>
		<polyline class="st6" points="7547.5,160.6 7547.5,112.4 7567.1,92.8 7586.7,112.4 7586.7,160.6 		"/>
		<path id="XMLID_263_" class="st18" d="M7571.2,112.9"/>
		<polyline class="st7" points="7578.7,90.4 7578.7,85.3 7586.7,85.3 7586.7,98.2 		"/>
		<g>
			<line class="st5" x1="7557" y1="122" x2="7557" y2="118.8"/>
			<line class="st5" x1="7577.3" y1="122" x2="7577.3" y2="118.8"/>
			<line class="st5" x1="7567.1" y1="122" x2="7567.1" y2="118.8"/>
		</g>
		<g>
			<line class="st5" x1="7557" y1="137" x2="7557" y2="133.8"/>
			<line class="st5" x1="7577.3" y1="137" x2="7577.3" y2="133.8"/>
			<line class="st5" x1="7567.1" y1="137" x2="7567.1" y2="133.8"/>
		</g>
		<line class="st7" x1="7577.3" y1="160.6" x2="7577.3" y2="150.5"/>
		<line class="st7" x1="7389.8" y1="160.6" x2="7389.8" y2="150.5"/>
		<g>
			<path class="st6" d="M7431.3,160.6"/>
			<path id="XMLID_262_" class="st18" d="M7448,113.5"/>
			<polyline class="st6" points="7428.4,160.6 7428.4,112.4 7448,92.8 7467.6,112.4 7467.6,160.6 			"/>
			<path id="XMLID_261_" class="st18" d="M7452.1,112.9"/>
			<path class="st6" d="M7467.7,160.6"/>
			<g>
				<line class="st3" x1="7437.8" y1="122" x2="7437.8" y2="118.8"/>
				<line class="st3" x1="7458.1" y1="122" x2="7458.1" y2="118.8"/>
				<line class="st3" x1="7448" y1="122" x2="7448" y2="118.8"/>
			</g>
			<g>
				<line class="st3" x1="7437.8" y1="137" x2="7437.8" y2="133.8"/>
				<line class="st3" x1="7458.1" y1="137" x2="7458.1" y2="133.8"/>
				<line class="st3" x1="7448" y1="137" x2="7448" y2="133.8"/>
			</g>
			<line class="st7" x1="7437.9" y1="160.6" x2="7437.9" y2="150.5"/>
			<path class="st6" d="M7467.7,160.6"/>
		</g>
		<path id="XMLID_260_" class="st18" d="M7438.6,47"/>
		<polyline id="XMLID_259_" class="st10" points="7442.5,81.2 7442.5,36 7416.1,36 7416.1,160.6 		"/>
		<g id="XMLID_257_">
			<line id="XMLID_258_" class="st19" x1="7424" y1="65" x2="7428" y2="65"/>
		</g>
		<g id="XMLID_255_">
			<line id="XMLID_256_" class="st19" x1="7424" y1="55.5" x2="7427.9" y2="55.5"/>
		</g>
		<g id="XMLID_252_">
			<line id="XMLID_253_" class="st19" x1="7423.9" y1="46" x2="7427.9" y2="45.9"/>
		</g>
		<polyline id="XMLID_251_" class="st5" points="7465.3,75.1 7465.1,47.8 7496.1,66.7 7496.1,108.8 		"/>
		<g>
			<g>
				<polyline class="st7" points="7727,160.6 7727,-2 7681.3,-2 7681.3,76.9 				"/>
				<line class="st4" x1="7727" y1="-16.9" x2="7681.3" y2="-16.9"/>
				<line class="st6" x1="7711.9" y1="6.6" x2="7711.9" y2="160.6"/>
				<line class="st6" x1="7697.2" y1="6.6" x2="7697.2" y2="160.6"/>
			</g>
			<g>
				<path class="st12" d="M7677.9,142v-29.4V142z"/>
				<line class="st8" x1="7677.9" y1="112.6" x2="7677.9" y2="142"/>
				<path class="st12" d="M7667,142v-29.4V142z"/>
				<line class="st8" x1="7667" y1="112.6" x2="7667" y2="142"/>
				<path class="st12" d="M7656.1,142l0-29.4L7656.1,142z"/>
				<line class="st8" x1="7656.1" y1="112.6" x2="7656.1" y2="142"/>
				<path class="st12" d="M7645.2,142l0-29.4L7645.2,142z"/>
				<line class="st8" x1="7645.2" y1="112.6" x2="7645.2" y2="142"/>
				<path class="st12" d="M7634.3,142v-29.4V142z"/>
				<line class="st8" x1="7634.3" y1="112.6" x2="7634.3" y2="142"/>
				<path class="st12" d="M7623.4,142v-29.4V142z"/>
				<line class="st8" x1="7623.4" y1="112.6" x2="7623.4" y2="142"/>
				<polygon class="st6" points="7651.1,82.4 7679.2,94 7679.2,96.2 7651.1,96.2 7623,96.2 7623,94 				"/>
				<g>
					<line class="st8" x1="7677.9" y1="104.1" x2="7677.9" y2="105.8"/>
					<line class="st8" x1="7667" y1="104.1" x2="7667" y2="105.8"/>
					<line class="st8" x1="7656.1" y1="104.1" x2="7656.1" y2="105.8"/>
					<line class="st8" x1="7645.2" y1="104.1" x2="7645.2" y2="105.8"/>
					<line class="st8" x1="7634.3" y1="104.1" x2="7634.3" y2="105.8"/>
					<line class="st8" x1="7623.4" y1="104.1" x2="7623.4" y2="105.8"/>
				</g>
				<rect x="7615.1" y="150.1" class="st8" width="72" height="10.5"/>
			</g>
		</g>
	</g>
	<path class="st20" d="M7380,50.1c0-0.6,0.4-1,1-1l0,0c0.5,0,1,0.4,1,1l0,0c0,0.5-0.5,1-1,1l0,0C7380.5,51.1,7380,50.6,7380,50.1z
		 M7380,43.1c0-0.6,0.4-1,1-1l0,0c0.5,0,1,0.4,1,1l0,0c0,0.5-0.5,1-1,1l0,0C7380.5,44.1,7380,43.6,7380,43.1z M7380,36.1
		c0-0.6,0.4-1,1-1l0,0c0.5,0,1,0.4,1,1l0,0c0,0.5-0.5,1-1,1l0,0C7380.5,37.1,7380,36.6,7380,36.1z M7380,29.1c0-0.6,0.4-1,1-1l0,0
		c0.5,0,1,0.4,1,1l0,0c0,0.5-0.5,1-1,1l0,0C7380.5,30.1,7380,29.6,7380,29.1z M7380,22.1c0-0.6,0.4-1,1-1l0,0c0.5,0,1,0.4,1,1l0,0
		c0,0.5-0.5,1-1,1l0,0C7380.5,23.1,7380,22.6,7380,22.1z M7380,15.1c0-0.6,0.4-1,1-1l0,0c0.5,0,1,0.4,1,1l0,0c0,0.5-0.5,1-1,1l0,0
		C7380.5,16.1,7380,15.6,7380,15.1z M7380,8.1c0-0.6,0.4-1,1-1l0,0c0.5,0,1,0.4,1,1l0,0c0,0.5-0.5,1-1,1l0,0
		C7380.5,9.1,7380,8.6,7380,8.1z M7380,1.1c0-0.6,0.4-1,1-1l0,0c0.5,0,1,0.4,1,1l0,0c0,0.5-0.5,1-1,1l0,0
		C7380.5,2.1,7380,1.6,7380,1.1z M7380-5.9c0-0.6,0.4-1,1-1l0,0c0.5,0,1,0.4,1,1l0,0c0,0.5-0.5,1-1,1l0,0
		C7380.5-4.9,7380-5.4,7380-5.9z M7380-12.9c0-0.6,0.4-1,1-1l0,0c0.5,0,1,0.4,1,1l0,0c0,0.5-0.5,1-1,1l0,0
		C7380.5-11.9,7380-12.4,7380-12.9z M7380-19.9c0-0.6,0.4-1,1-1l0,0c0.5,0,1,0.4,1,1l0,0c0,0.5-0.5,1-1,1l0,0
		C7380.5-18.9,7380-19.4,7380-19.9z M7380-26.9c0-0.6,0.4-1,1-1l0,0c0.5,0,1,0.4,1,1l0,0c0,0.5-0.5,1-1,1l0,0
		C7380.5-25.9,7380-26.4,7380-26.9z M7380-33.9c0-0.6,0.4-1,1-1l0,0c0.5,0,1,0.4,1,1l0,0c0,0.5-0.5,1-1,1l0,0
		C7380.5-32.9,7380-33.4,7380-33.9z M7696.9-34.3c0-0.6,0.4-1,1-1l0,0c0.5,0,1,0.4,1,1l0,0c0,0.5-0.5,1-1,1l0,0
		C7697.3-33.3,7696.9-33.7,7696.9-34.3z M7380-40.9c0-0.6,0.4-1,1-1l0,0c0.5,0,1,0.4,1,1l0,0c0,0.5-0.5,1-1,1l0,0
		C7380.5-39.9,7380-40.4,7380-40.9z M7696.9-41.3c0-0.6,0.4-1,1-1l0,0c0.5,0,1,0.4,1,1l0,0c0,0.5-0.5,1-1,1l0,0
		C7697.3-40.3,7696.9-40.7,7696.9-41.3z M7380-47.9c0-0.6,0.4-1,1-1l0,0c0.5,0,1,0.4,1,1l0,0c0,0.5-0.5,1-1,1l0,0
		C7380.5-46.9,7380-47.4,7380-47.9z M7696.9-48.3c0-0.6,0.4-1,1-1l0,0c0.5,0,1,0.4,1,1l0,0c0,0.5-0.5,1-1,1l0,0
		C7697.3-47.3,7696.9-47.7,7696.9-48.3z M7380-54.9c0-0.6,0.4-1,1-1l0,0c0.5,0,1,0.4,1,1l0,0c0,0.5-0.5,1-1,1l0,0
		C7380.5-53.9,7380-54.4,7380-54.9z M7696.9-55.3c0-0.6,0.4-1,1-1l0,0c0.5,0,1,0.4,1,1l0,0c0,0.5-0.5,1-1,1l0,0
		C7697.3-54.3,7696.9-54.7,7696.9-55.3z M7380-61.9c0-0.6,0.4-1,1-1l0,0c0.5,0,1,0.4,1,1l0,0c0,0.5-0.5,1-1,1l0,0
		C7380.5-60.9,7380-61.4,7380-61.9z M7696.9-62.3c0-0.6,0.4-1,1-1l0,0c0.5,0,1,0.4,1,1l0,0c0,0.5-0.5,1-1,1l0,0
		C7697.3-61.3,7696.9-61.7,7696.9-62.3z M7380-68.9c0-0.6,0.4-1,1-1l0,0c0.5,0,1,0.4,1,1l0,0c0,0.5-0.5,1-1,1l0,0
		C7380.5-67.9,7380-68.4,7380-68.9z M7696.9-69.3c0-0.6,0.4-1,1-1l0,0c0.5,0,1,0.4,1,1l0,0c0,0.5-0.5,1-1,1l0,0
		C7697.3-68.3,7696.9-68.7,7696.9-69.3z M7695.8-75.2c0-0.6,0.4-1,1-1l0,0c0.5,0,1,0.4,1,1l0,0c0,0.5-0.5,1-1,1l0,0
		C7696.2-74.2,7695.8-74.6,7695.8-75.2z M7688.8-75.2c0-0.6,0.4-1,1-1l0,0c0.5,0,1,0.4,1,1l0,0c0,0.5-0.5,1-1,1l0,0
		C7689.2-74.2,7688.8-74.6,7688.8-75.2z M7681.8-75.2c0-0.6,0.4-1,1-1l0,0c0.5,0,1,0.4,1,1l0,0c0,0.5-0.5,1-1,1l0,0
		C7682.2-74.2,7681.8-74.6,7681.8-75.2z M7674.8-75.2c0-0.6,0.5-1,1-1l0,0c0.5,0,1,0.4,1,1l0,0c0,0.5-0.5,1-1,1l0,0
		C7675.2-74.2,7674.8-74.6,7674.8-75.2z M7667.8-75.2c0-0.6,0.4-1,1-1l0,0c0.5,0,1,0.4,1,1l0,0c0,0.5-0.5,1-1,1l0,0
		C7668.2-74.2,7667.8-74.6,7667.8-75.2z M7660.8-75.2c0-0.6,0.5-1,1-1l0,0c0.5,0,1,0.4,1,1l0,0c0,0.5-0.5,1-1,1l0,0
		C7661.2-74.2,7660.8-74.6,7660.8-75.2z M7653.8-75.2c0-0.6,0.4-1,1-1l0,0c0.5,0,1,0.4,1,1l0,0c0,0.5-0.5,1-1,1l0,0
		C7654.2-74.2,7653.8-74.6,7653.8-75.2z M7646.8-75.2c0-0.6,0.5-1,1-1l0,0c0.5,0,1,0.4,1,1l0,0c0,0.5-0.5,1-1,1l0,0
		C7647.2-74.2,7646.8-74.6,7646.8-75.2z M7639.8-75.2c0-0.6,0.4-1,1-1l0,0c0.5,0,1,0.4,1,1l0,0c0,0.5-0.5,1-1,1l0,0
		C7640.2-74.2,7639.8-74.6,7639.8-75.2z M7632.8-75.2c0-0.6,0.5-1,1-1l0,0c0.5,0,1,0.4,1,1l0,0c0,0.5-0.5,1-1,1l0,0
		C7633.2-74.2,7632.8-74.6,7632.8-75.2z M7625.8-75.2c0-0.6,0.4-1,1-1l0,0c0.5,0,1,0.4,1,1l0,0c0,0.5-0.5,1-1,1l0,0
		C7626.2-74.2,7625.8-74.6,7625.8-75.2z M7618.8-75.2c0-0.6,0.5-1,1-1l0,0c0.5,0,1,0.4,1,1l0,0c0,0.5-0.5,1-1,1l0,0
		C7619.2-74.2,7618.8-74.6,7618.8-75.2z M7611.8-75.2c0-0.6,0.4-1,1-1l0,0c0.5,0,1,0.4,1,1l0,0c0,0.5-0.5,1-1,1l0,0
		C7612.2-74.2,7611.8-74.6,7611.8-75.2z M7604.8-75.2c0-0.6,0.5-1,1-1l0,0c0.5,0,1,0.4,1,1l0,0c0,0.5-0.5,1-1,1l0,0
		C7605.2-74.2,7604.8-74.6,7604.8-75.2z M7597.8-75.2c0-0.6,0.4-1,1-1l0,0c0.5,0,1,0.4,1,1l0,0c0,0.5-0.5,1-1,1l0,0
		C7598.2-74.2,7597.8-74.6,7597.8-75.2z M7590.8-75.2c0-0.6,0.5-1,1-1l0,0c0.5,0,1,0.4,1,1l0,0c0,0.5-0.5,1-1,1l0,0
		C7591.2-74.2,7590.8-74.6,7590.8-75.2z M7583.8-75.2c0-0.6,0.4-1,1-1l0,0c0.5,0,1,0.4,1,1l0,0c0,0.5-0.5,1-1,1l0,0
		C7584.2-74.2,7583.8-74.6,7583.8-75.2z M7576.8-75.2c0-0.6,0.5-1,1-1l0,0c0.5,0,1,0.4,1,1l0,0c0,0.5-0.5,1-1,1l0,0
		C7577.2-74.2,7576.8-74.6,7576.8-75.2z M7569.8-75.2c0-0.6,0.4-1,1-1l0,0c0.5,0,1,0.4,1,1l0,0c0,0.5-0.5,1-1,1l0,0
		C7570.2-74.2,7569.8-74.6,7569.8-75.2z M7562.8-75.2c0-0.6,0.5-1,1-1l0,0c0.5,0,1,0.4,1,1l0,0c0,0.5-0.5,1-1,1l0,0
		C7563.2-74.2,7562.8-74.6,7562.8-75.2z M7485.8-75.2c0-0.6,0.4-1,1-1l0,0c0.5,0,1,0.4,1,1l0,0c0,0.5-0.5,1-1,1l0,0
		C7486.2-74.2,7485.8-74.6,7485.8-75.2z M7478.8-75.2c0-0.6,0.5-1,1-1l0,0c0.5,0,1,0.4,1,1l0,0c0,0.5-0.5,1-1,1l0,0
		C7479.2-74.2,7478.8-74.6,7478.8-75.2z M7471.8-75.2c0-0.6,0.4-1,1-1l0,0c0.5,0,1,0.4,1,1l0,0c0,0.5-0.5,1-1,1l0,0
		C7472.2-74.2,7471.8-74.6,7471.8-75.2z M7464.8-75.2c0-0.6,0.5-1,1-1l0,0c0.5,0,1,0.4,1,1l0,0c0,0.5-0.5,1-1,1l0,0
		C7465.2-74.2,7464.8-74.6,7464.8-75.2z M7457.8-75.2c0-0.6,0.4-1,1-1l0,0c0.5,0,1,0.4,1,1l0,0c0,0.5-0.5,1-1,1l0,0
		C7458.2-74.2,7457.8-74.6,7457.8-75.2z M7450.8-75.2c0-0.6,0.5-1,1-1l0,0c0.5,0,1,0.4,1,1l0,0c0,0.5-0.5,1-1,1l0,0
		C7451.2-74.2,7450.8-74.6,7450.8-75.2z M7443.8-75.2c0-0.6,0.4-1,1-1l0,0c0.5,0,1,0.4,1,1l0,0c0,0.5-0.5,1-1,1l0,0
		C7444.2-74.2,7443.8-74.6,7443.8-75.2z M7436.8-75.2c0-0.6,0.5-1,1-1l0,0c0.5,0,1,0.4,1,1l0,0c0,0.5-0.5,1-1,1l0,0
		C7437.2-74.2,7436.8-74.6,7436.8-75.2z M7429.8-75.2c0-0.6,0.4-1,1-1l0,0c0.5,0,1,0.4,1,1l0,0c0,0.5-0.5,1-1,1l0,0
		C7430.2-74.2,7429.8-74.6,7429.8-75.2z M7422.8-75.2c0-0.6,0.5-1,1-1l0,0c0.5,0,1,0.4,1,1l0,0c0,0.5-0.5,1-1,1l0,0
		C7423.2-74.2,7422.8-74.6,7422.8-75.2z M7415.8-75.2c0-0.6,0.4-1,1-1l0,0c0.5,0,1,0.4,1,1l0,0c0,0.5-0.5,1-1,1l0,0
		C7416.2-74.2,7415.8-74.6,7415.8-75.2z M7408.8-75.2c0-0.6,0.5-1,1-1l0,0c0.5,0,1,0.4,1,1l0,0c0,0.5-0.5,1-1,1l0,0
		C7409.2-74.2,7408.8-74.6,7408.8-75.2z M7401.8-75.2c0-0.6,0.4-1,1-1l0,0c0.5,0,1,0.4,1,1l0,0c0,0.5-0.5,1-1,1l0,0
		C7402.2-74.2,7401.8-74.6,7401.8-75.2z M7394.8-75.2c0-0.6,0.5-1,1-1l0,0c0.6,0,1,0.4,1,1l0,0c0,0.5-0.5,1-1,1l0,0
		C7395.2-74.2,7394.8-74.6,7394.8-75.2z M7387.8-75.2c0-0.6,0.4-1,1-1l0,0c0.5,0,1,0.4,1,1l0,0c0,0.5-0.5,1-1,1l0,0
		C7388.2-74.2,7387.8-74.6,7387.8-75.2z M7380.8-75.2c0-0.6,0.5-1,1-1l0,0c0.6,0,1,0.4,1,1l0,0c0,0.5-0.5,1-1,1l0,0
		C7381.2-74.2,7380.8-74.6,7380.8-75.2z"/>
	<path class="st20" d="M7422.9,24.7c0-0.6,0.4-1,1-1l0,0c0.5,0,1,0.4,1,1l0,0c0,0.5-0.5,1-1,1l0,0
		C7423.4,25.7,7422.9,25.2,7422.9,24.7z M7422.9,17.7c0-0.6,0.4-1,1-1l0,0c0.5,0,1,0.4,1,1l0,0c0,0.5-0.5,1-1,1l0,0
		C7423.4,18.7,7422.9,18.2,7422.9,17.7z M7422.9,10.7c0-0.6,0.4-1,1-1l0,0c0.5,0,1,0.4,1,1l0,0c0,0.5-0.5,1-1,1l0,0
		C7423.4,11.7,7422.9,11.2,7422.9,10.7z M7422.9,3.7c0-0.6,0.4-1,1-1l0,0c0.5,0,1,0.4,1,1l0,0c0,0.6-0.5,1-1,1l0,0
		C7423.4,4.7,7422.9,4.2,7422.9,3.7z M7422.9-3.3c0-0.6,0.4-1,1-1l0,0c0.5,0,1,0.4,1,1l0,0c0,0.5-0.5,1-1,1l0,0
		C7423.4-2.3,7422.9-2.8,7422.9-3.3z M7422.9-10.3c0-0.6,0.4-1,1-1l0,0c0.5,0,1,0.4,1,1l0,0c0,0.6-0.5,1-1,1l0,0
		C7423.4-9.3,7422.9-9.8,7422.9-10.3z M7422.9-17.3c0-0.6,0.4-1,1-1l0,0c0.5,0,1,0.4,1,1l0,0c0,0.5-0.5,1-1,1l0,0
		C7423.4-16.3,7422.9-16.8,7422.9-17.3z M7422.9-24.3c0-0.6,0.4-1,1-1l0,0c0.5,0,1,0.4,1,1l0,0c0,0.6-0.5,1-1,1l0,0
		C7423.4-23.3,7422.9-23.8,7422.9-24.3z M7422.9-31.3c0-0.6,0.4-1,1-1l0,0c0.5,0,1,0.4,1,1l0,0c0,0.5-0.5,1-1,1l0,0
		C7423.4-30.3,7422.9-30.8,7422.9-31.3z M7422.9-38.3c0-0.6,0.4-1,1-1l0,0c0.5,0,1,0.4,1,1l0,0c0,0.6-0.5,1-1,1l0,0
		C7423.4-37.3,7422.9-37.8,7422.9-38.3z M7422.9-45.3c0-0.6,0.4-1,1-1l0,0c0.5,0,1,0.4,1,1l0,0c0,0.5-0.5,1-1,1l0,0
		C7423.4-44.3,7422.9-44.8,7422.9-45.3z M7422.9-52.3c0-0.6,0.4-1,1-1l0,0c0.5,0,1,0.4,1,1l0,0c0,0.5-0.5,1-1,1l0,0
		C7423.4-51.3,7422.9-51.8,7422.9-52.3z M7422.9-59.3c0-0.6,0.4-1,1-1l0,0c0.5,0,1,0.4,1,1l0,0c0,0.5-0.5,1-1,1l0,0
		C7423.4-58.3,7422.9-58.8,7422.9-59.3z M7422.9-66.3c0-0.6,0.4-1,1-1l0,0c0.5,0,1,0.4,1,1l0,0c0,0.5-0.5,1-1,1l0,0
		C7423.4-65.3,7422.9-65.8,7422.9-66.3z"/>
	<path class="st20" d="M7650.1,71.5c0-0.5,0.5-1,1-1l0,0c0.6,0,1,0.5,1,1l0,0c0,0.6-0.4,1-1,1l0,0
		C7650.5,72.5,7650.1,72,7650.1,71.5z M7650.1,64.5c0-0.5,0.5-1,1-1l0,0c0.6,0,1,0.5,1,1l0,0c0,0.6-0.4,1-1,1l0,0
		C7650.5,65.5,7650.1,65,7650.1,64.5z M7650.1,57.5c0-0.5,0.5-1,1-1l0,0c0.6,0,1,0.5,1,1l0,0c0,0.6-0.4,1-1,1l0,0
		C7650.5,58.5,7650.1,58,7650.1,57.5z M7650.1,50.5c0-0.5,0.5-1,1-1l0,0c0.6,0,1,0.5,1,1l0,0c0,0.6-0.4,1-1,1l0,0
		C7650.5,51.5,7650.1,51,7650.1,50.5z M7650.1,43.5c0-0.5,0.5-1,1-1l0,0c0.6,0,1,0.5,1,1l0,0c0,0.6-0.4,1-1,1l0,0
		C7650.5,44.5,7650.1,44,7650.1,43.5z M7650.1,36.5c0-0.5,0.5-1,1-1l0,0c0.6,0,1,0.5,1,1l0,0c0,0.6-0.4,1-1,1l0,0
		C7650.5,37.5,7650.1,37,7650.1,36.5z M7650.1,29.5c0-0.5,0.5-1,1-1l0,0c0.6,0,1,0.5,1,1l0,0c0,0.6-0.4,1-1,1l0,0
		C7650.5,30.5,7650.1,30,7650.1,29.5z M7650.1,22.5c0-0.5,0.5-1,1-1l0,0c0.6,0,1,0.5,1,1l0,0c0,0.6-0.4,1-1,1l0,0
		C7650.5,23.5,7650.1,23,7650.1,22.5z M7650.1,15.5c0-0.5,0.5-1,1-1l0,0c0.6,0,1,0.5,1,1l0,0c0,0.6-0.4,1-1,1l0,0
		C7650.5,16.5,7650.1,16,7650.1,15.5z M7650.1,8.5c0-0.5,0.5-1,1-1l0,0c0.6,0,1,0.5,1,1l0,0c0,0.6-0.4,1-1,1l0,0
		C7650.5,9.5,7650.1,9,7650.1,8.5z M7650.1,1.5c0-0.5,0.5-1,1-1l0,0c0.6,0,1,0.5,1,1l0,0c0,0.6-0.4,1-1,1l0,0
		C7650.5,2.5,7650.1,2,7650.1,1.5z M7650.1-5.5c0-0.5,0.5-1,1-1l0,0c0.6,0,1,0.5,1,1l0,0c0,0.6-0.4,1-1,1l0,0
		C7650.5-4.5,7650.1-5,7650.1-5.5z M7650.1-12.5c0-0.5,0.5-1,1-1l0,0c0.6,0,1,0.5,1,1l0,0c0,0.6-0.4,1-1,1l0,0
		C7650.5-11.5,7650.1-12,7650.1-12.5z M7650.1-19.5c0-0.5,0.5-1,1-1l0,0c0.6,0,1,0.5,1,1l0,0c0,0.6-0.4,1-1,1l0,0
		C7650.5-18.5,7650.1-19,7650.1-19.5z M7650.1-26.5c0-0.5,0.5-1,1-1l0,0c0.6,0,1,0.5,1,1l0,0c0,0.6-0.4,1-1,1l0,0
		C7650.5-25.5,7650.1-26,7650.1-26.5z M7650.1-33.5c0-0.5,0.5-1,1-1l0,0c0.6,0,1,0.5,1,1l0,0c0,0.6-0.4,1-1,1l0,0
		C7650.5-32.5,7650.1-33,7650.1-33.5z M7650.1-40.5c0-0.5,0.5-1,1-1l0,0c0.6,0,1,0.5,1,1l0,0c0,0.6-0.4,1-1,1l0,0
		C7650.5-39.5,7650.1-40,7650.1-40.5z M7650.1-47.5c0-0.5,0.5-1,1-1l0,0c0.6,0,1,0.5,1,1l0,0c0,0.6-0.4,1-1,1l0,0
		C7650.5-46.5,7650.1-47,7650.1-47.5z M7650.1-54.5c0-0.5,0.5-1,1-1l0,0c0.6,0,1,0.5,1,1l0,0c0,0.6-0.4,1-1,1l0,0
		C7650.5-53.5,7650.1-54,7650.1-54.5z M7650.1-61.5c0-0.5,0.5-1,1-1l0,0c0.6,0,1,0.5,1,1l0,0c0,0.6-0.4,1-1,1l0,0
		C7650.5-60.5,7650.1-61,7650.1-61.5z M7650.1-68.5c0-0.5,0.5-1,1-1l0,0c0.6,0,1,0.5,1,1l0,0c0,0.6-0.4,1-1,1l0,0
		C7650.5-67.5,7650.1-68,7650.1-68.5z"/>
	<g>
		<g>
			<circle class="st21" cx="7527.2" cy="-70.4" r="25"/>
			<circle class="st3" cx="7527.2" cy="-70.4" r="20.4"/>
			<line class="st9" x1="7527.2" y1="-70.4" x2="7537.2" y2="-84.7"/>
			<g>
				<line class="st22" x1="7527.2" y1="-102.8" x2="7527.2" y2="-97.9"/>
				<line class="st22" x1="7522.7" y1="-102.8" x2="7522.7" y2="-97.9"/>
				<line class="st22" x1="7531.7" y1="-102.8" x2="7531.7" y2="-97.9"/>
			</g>
			<path class="st22" d="M7536.7-101.6L7536.7-101.6c0-2.2-1.7-3.9-3.9-3.9l-11.2,0c-2.2,0-3.9,1.7-3.9,3.9l0,0"/>
			<g>
				<line class="st22" x1="7545" y1="-96" x2="7550.8" y2="-90.2"/>
				<line class="st22" x1="7509.4" y1="-96" x2="7503.5" y2="-90.2"/>
			</g>
			<line class="st3" x1="7527.2" y1="-90.8" x2="7527.2" y2="-86.3"/>
			<line class="st3" x1="7527.2" y1="-54.5" x2="7527.2" y2="-50"/>
			<line class="st3" x1="7506.8" y1="-70.4" x2="7511.3" y2="-70.4"/>
			<line class="st3" x1="7543.1" y1="-70.4" x2="7547.6" y2="-70.4"/>
		</g>
	</g>
	<g>
		<g>
			<polyline class="st7" points="8944.1,160.3 8944.1,-13.3 8989.5,-13.3 8989.5,87.4 			"/>
			<line class="st4" x1="8944.1" y1="-20.7" x2="8989.5" y2="-20.7"/>
			<line class="st4" x1="8944.1" y1="-28.1" x2="8989.5" y2="-28.1"/>
			<line class="st6" x1="8966.8" y1="-4.8" x2="8966.8" y2="160.3"/>
		</g>
		<g>
			<path class="st12" d="M8992.8,144.3v-29.2V144.3z"/>
			<line class="st8" x1="8992.8" y1="115.1" x2="8992.8" y2="144.3"/>
			<path class="st12" d="M9003.7,144.3v-29.2V144.3z"/>
			<line class="st8" x1="9003.7" y1="115.1" x2="9003.7" y2="144.3"/>
			<path class="st12" d="M9014.5,144.3v-29.2V144.3z"/>
			<line class="st8" x1="9014.5" y1="115.1" x2="9014.5" y2="144.3"/>
			<path class="st12" d="M9025.4,144.3v-29.2V144.3z"/>
			<line class="st8" x1="9025.4" y1="115.1" x2="9025.4" y2="144.3"/>
			<path class="st12" d="M9036.2,144.3v-29.2V144.3z"/>
			<line class="st8" x1="9036.2" y1="115.1" x2="9036.2" y2="144.3"/>
			<path class="st12" d="M9047,144.3v-29.2V144.3z"/>
			<line class="st8" x1="9047" y1="115.1" x2="9047" y2="144.3"/>
			<polygon class="st6" points="9019.5,85.1 8991.6,96.6 8991.6,98.8 9019.5,98.8 9047.4,98.8 9047.4,96.6 			"/>
			<g>
				<line class="st8" x1="8992.8" y1="106.7" x2="8992.8" y2="108.3"/>
				<line class="st8" x1="9003.7" y1="106.7" x2="9003.7" y2="108.3"/>
				<line class="st8" x1="9014.5" y1="106.7" x2="9014.5" y2="108.3"/>
				<line class="st8" x1="9025.4" y1="106.7" x2="9025.4" y2="108.3"/>
				<line class="st8" x1="9036.2" y1="106.7" x2="9036.2" y2="108.3"/>
				<line class="st8" x1="9047" y1="106.7" x2="9047" y2="108.3"/>
			</g>
			<rect x="8983.7" y="152.4" class="st8" width="71.5" height="7.9"/>
		</g>
	</g>
	<path id="XMLID_250_" class="st23" d="M8838.6,62.3"/>
	<polyline id="XMLID_249_" class="st6" points="8842.9,104.4 8842.9,50 8813.5,50 8813.5,104.4 	"/>
	<g id="XMLID_247_">
		<line id="XMLID_248_" class="st24" x1="8830.6" y1="82.2" x2="8835" y2="82.2"/>
	</g>
	<g id="XMLID_245_">
		<line id="XMLID_246_" class="st24" x1="8822.3" y1="82.3" x2="8826.7" y2="82.2"/>
	</g>
	<g id="XMLID_243_">
		<line id="XMLID_244_" class="st24" x1="8830.5" y1="71.6" x2="8834.9" y2="71.6"/>
	</g>
	<g id="XMLID_241_">
		<line id="XMLID_242_" class="st24" x1="8822.3" y1="71.7" x2="8826.7" y2="71.7"/>
	</g>
	<g id="XMLID_239_">
		<line id="XMLID_240_" class="st24" x1="8830.4" y1="61" x2="8834.9" y2="61"/>
	</g>
	<g id="XMLID_237_">
		<line id="XMLID_238_" class="st24" x1="8822.2" y1="61.1" x2="8826.6" y2="61.1"/>
	</g>
	<polyline id="XMLID_236_" class="st25" points="8865.4,104.4 8865.3,14 8899.6,35.1 8899.6,128 	"/>
	<line id="XMLID_235_" class="st24" x1="8874.8" y1="44.3" x2="8874.7" y2="34.5"/>
	<line class="st25" x1="8774.4" y1="101.6" x2="8802.5" y2="101.6"/>
	<line class="st25" x1="8774.4" y1="91.9" x2="8802.5" y2="91.9"/>
	<polyline class="st26" points="8910.5,128 8910.5,46.4 8932.4,46.4 	"/>
	<g>
		<path class="st27" d="M8570.5,150.8v-12.6V150.8z"/>
		<line class="st0" x1="8570.5" y1="150.8" x2="8570.5" y2="138.2"/>
		<path class="st27" d="M8560.6,134.7c0-5.5,4.4-9.9,9.9-9.9c5.5,0,9.9,4.4,9.9,9.9s-4.4,9.9-9.9,9.9
			C8565,144.5,8560.6,140.1,8560.6,134.7"/>
		<circle class="st0" cx="8570.5" cy="134.7" r="9.9"/>
		<path class="st28" d="M8556.3,134.7c0-7.8,6.3-14.2,14.2-14.2s14.2,6.3,14.2,14.2c0,7.8-6.3,14.2-14.2,14.2
			C8562.7,148.8,8556.3,142.5,8556.3,134.7"/>
		<line class="st29" x1="8570.5" y1="161.2" x2="8570.5" y2="144.5"/>
		<circle class="st30" cx="8570.5" cy="134.7" r="9.9"/>
	</g>
	<g>
		<g>
			<line class="st1" x1="8838.6" y1="-75.2" x2="8838.6" y2="-75.2"/>
			<line class="st31" x1="8831.5" y1="-75.2" x2="8735.4" y2="-75.2"/>
			<line class="st1" x1="8731.8" y1="-75.2" x2="8731.8" y2="-75.2"/>
			<line class="st32" x1="8731.8" y1="-68.2" x2="8731.8" y2="95.4"/>
			<line class="st1" x1="8731.8" y1="98.8" x2="8731.8" y2="98.8"/>
		</g>
	</g>
	<g>
		<g>
			<line class="st1" x1="8908.6" y1="-75.2" x2="8908.6" y2="-75.2"/>
			<line class="st33" x1="8915.5" y1="-75.2" x2="9016" y2="-75.2"/>
			<line class="st1" x1="9019.5" y1="-75.2" x2="9019.5" y2="-75.2"/>
			<line class="st34" x1="9019.5" y1="-68.2" x2="9019.5" y2="61.5"/>
			<line class="st1" x1="9019.5" y1="65" x2="9019.5" y2="65"/>
		</g>
	</g>
	<g>
		<circle class="st7" cx="8925.3" cy="146.8" r="3.4"/>
		<circle class="st6" cx="8905.1" cy="146.8" r="3.4"/>
		<circle class="st5" cx="8885" cy="146.8" r="3.4"/>
	</g>
	<g>
		<path class="st35" d="M8888.3-83.1V-93c0-7.7-6.2-13.9-13.9-13.9c-7.7,0-13.9,6.2-13.9,13.9v9.9l-9.9,0v47.7l47.7,0l0-47.7
			L8888.3-83.1z M8864.5-93c0-5.5,4.5-9.9,9.9-9.9c5.5,0,9.9,4.5,9.9,9.9v9.9l-19.9,0V-93z M8894.3-79.1v31.8l-39.7,0v-31.8
			L8894.3-79.1z M8854.6-39.4v-4l39.7,0v4L8854.6-39.4z"/>
		<path class="st36" d="M8880.4-67.2c0-3.3-2.7-6-6-6c-3.3,0-6,2.7-6,6c0,2.6,1.7,4.8,4,5.6v8.3l4,0v-8.3
			C8878.7-62.4,8880.4-64.6,8880.4-67.2z M8874.4-65.2c-1.1,0-2-0.9-2-2s0.9-2,2-2c1.1,0,2,0.9,2,2
			C8876.4-66.1,8875.5-65.2,8874.4-65.2z"/>
	</g>
	<g>
		<polyline class="st5" points="8670.3,160.3 8670.3,135.4 8778.8,135.4 8778.8,160.3 		"/>
		<polyline class="st3" points="8795,160.3 8795,145.4 8808.7,145.4 8808.7,160.3 		"/>
		<polyline class="st7" points="8660.2,160.3 8660.2,125.3 8861.6,125.3 8861.6,160.3 		"/>
		<line class="st3" x1="8816.6" y1="135.4" x2="8787.6" y2="135.4"/>
		<polyline class="st37" points="8827,135.8 8851.3,135.8 8851.3,148.7 		"/>
		<line class="st8" x1="8650.2" y1="114.7" x2="8870.4" y2="114.7"/>
		<g>
			<path class="st27" d="M8710.3,150.2l0-12.1L8710.3,150.2z"/>
			<line class="st3" x1="8710.3" y1="150.2" x2="8710.3" y2="138.1"/>
			<path class="st27" d="M8700.8,134.7c0-5.3,4.3-9.5,9.5-9.5c5.3,0,9.5,4.3,9.5,9.5s-4.3,9.5-9.5,9.5
				C8705,144.2,8700.8,139.9,8700.8,134.7"/>
			<circle class="st3" cx="8710.3" cy="134.7" r="9.5"/>
			<path class="st38" d="M8695,134.7c0-8.4,6.8-15.3,15.3-15.3c8.4,0,15.3,6.8,15.3,15.3c0,8.4-6.8,15.3-15.3,15.3
				C8701.9,149.9,8695,143.1,8695,134.7"/>
			<line class="st8" x1="8710.3" y1="160.3" x2="8710.3" y2="144.2"/>
			<circle class="st39" cx="8710.3" cy="134.7" r="9.5"/>
		</g>
		<g>
			<path class="st27" d="M8752.5,150.2v-12.1V150.2z"/>
			<line class="st3" x1="8752.5" y1="150.2" x2="8752.5" y2="138.1"/>
			<path class="st27" d="M8742.9,134.7c0-5.3,4.3-9.5,9.5-9.5c5.3,0,9.5,4.3,9.5,9.5c0,5.3-4.3,9.5-9.5,9.5
				C8747.2,144.2,8742.9,139.9,8742.9,134.7"/>
			<circle class="st3" cx="8752.5" cy="134.7" r="9.5"/>
			<path class="st38" d="M8737.2,134.7c0-8.4,6.8-15.3,15.3-15.3c8.4,0,15.3,6.8,15.3,15.3s-6.8,15.3-15.3,15.3
				C8744,149.9,8737.2,143.1,8737.2,134.7"/>
			<line class="st8" x1="8752.5" y1="160.3" x2="8752.5" y2="144.2"/>
			<circle class="st39" cx="8752.5" cy="134.7" r="9.5"/>
		</g>
	</g>
	<g>
		<path class="st40" d="M9071.8,134.7c0-5.5,4.4-9.9,9.9-9.9c5.5,0,9.9,4.4,9.9,9.9c0,5.5-4.4,9.9-9.9,9.9
			C9076.3,144.5,9071.8,140.1,9071.8,134.7"/>
		<line class="st29" x1="9081.7" y1="161.2" x2="9081.7" y2="144.5"/>
		<circle class="st30" cx="9081.7" cy="134.7" r="9.9"/>
	</g>
	<g>
		<path class="st40" d="M9125.7,134.7c0-5.5,4.4-9.9,9.9-9.9s9.9,4.4,9.9,9.9c0,5.5-4.4,9.9-9.9,9.9
			C9130.2,144.5,9125.7,140.1,9125.7,134.7"/>
		<line class="st29" x1="9135.6" y1="161.2" x2="9135.6" y2="144.5"/>
		<circle class="st30" cx="9135.6" cy="134.7" r="9.9"/>
	</g>
	<line class="st7" x1="8086.2" y1="-7.6" x2="8086.2" y2="33.2"/>
	<g>
		<polyline class="st4" points="8429.9,89.6 8429.9,75.6 8467.6,75.6 8467.6,160.3 		"/>
	</g>
	<rect x="8396.4" y="133" class="st41" width="15.8" height="27.5"/>
	<g>
		<rect x="8420.6" y="103.3" class="st3" width="15.8" height="57.2"/>
	</g>
	<rect x="8477.9" y="146.2" class="st6" width="67.9" height="14.1"/>
	<line class="st6" x1="8477.9" y1="136.9" x2="8545.8" y2="136.9"/>
	<line class="st5" x1="8396.4" y1="118.5" x2="8412.2" y2="118.5"/>
	<g>
		<polyline class="st4" points="8574.6,99.4 8629,99.4 8629,122.6 8629,161.2 		"/>
	</g>
	<polyline class="st21" points="7757.5,113.4 7757.5,95.5 7823.7,95.5 7823.7,160.6 	"/>
	<g>
		<g>
			<g>
				<line class="st26" x1="7797" y1="113.7" x2="7797" y2="108.2"/>
				<line class="st26" x1="7808.9" y1="113.7" x2="7808.9" y2="108.2"/>
				<line class="st26" x1="7773.1" y1="113.7" x2="7773.1" y2="108.2"/>
				<line class="st26" x1="7785" y1="113.7" x2="7785" y2="108.2"/>
			</g>
		</g>
	</g>
	<line class="st25" x1="8458.2" y1="103.8" x2="8454.3" y2="103.8"/>
	<line class="st25" x1="8458.2" y1="113.1" x2="8454.3" y2="113.1"/>
	<line class="st25" x1="8458.2" y1="122.3" x2="8454.3" y2="122.3"/>
	<polyline class="st5" points="8565.7,111.2 8565.7,78 8511.9,78 8511.9,125.5 	"/>
	<g>
		<line class="st6" x1="8555.7" y1="91.7" x2="8523.9" y2="91.7"/>
		<line class="st6" x1="8555.7" y1="106.9" x2="8523.9" y2="106.9"/>
	</g>
	<g>
		<polyline class="st6" points="7736,125.5 7783.1,125.5 7783.1,131.8 7736,131.8 		"/>
		<line class="st6" x1="7783.1" y1="139.3" x2="7783.1" y2="160.6"/>
	</g>
	<polyline class="st8" points="7920.9,160.6 7920.9,110 7886.2,82.1 7886.2,107.9 	"/>
	<g>
		<line id="XMLID_205_" class="st29" x1="7910" y1="129.5" x2="7909.9" y2="119"/>
	</g>
	<polyline class="st7" points="7892.8,160.6 7892.8,122.3 7835,122.3 7835,160.6 	"/>
	<line class="st5" x1="7847" y1="141.5" x2="7847" y2="160.6"/>
	<g>
		<line id="XMLID_204_" class="st29" x1="7240.1" y1="149.1" x2="7240.2" y2="160.6"/>
		<polygon id="XMLID_203_" class="st22" points="7230.9,149.1 7249.4,149 7240,118.2 		"/>
	</g>
	<g>
		<line id="XMLID_202_" class="st29" x1="7282.3" y1="149" x2="7282.3" y2="160.6"/>
		<polygon id="XMLID_201_" class="st22" points="7275.4,149.1 7289.2,149 7282.2,125.9 		"/>
	</g>
</g>
</svg>
