<?xml version="1.0" encoding="utf-8"?>
<!-- Generator: Adobe Illustrator 20.0.0, SVG Export Plug-In . SVG Version: 6.00 Build 0)  -->
<svg version="1.1" id="Layer_1" xmlns="http://www.w3.org/2000/svg" xmlns:xlink="http://www.w3.org/1999/xlink" x="0px" y="0px"
	 viewBox="0 0 1958.6 342.3" style="enable-background:new 0 0 1958.6 342.3;" xml:space="preserve">
<style type="text/css">
	.st0{fill:none;stroke:#00B48D;stroke-width:4;stroke-linecap:square;stroke-miterlimit:10;}
	.st1{fill:none;stroke:#56C5D0;stroke-width:4;stroke-linecap:square;stroke-miterlimit:10;}
	.st2{fill:none;stroke:#FFFFFF;stroke-width:4;stroke-linecap:square;stroke-miterlimit:10;}
	.st3{fill:none;stroke:#6A817C;stroke-width:4;stroke-linecap:square;stroke-miterlimit:10;}
	.st4{fill:none;stroke:#F69679;stroke-width:4;stroke-linecap:square;stroke-miterlimit:10;}
	.st5{fill:none;stroke:#C6C9C9;stroke-width:4;stroke-linecap:square;stroke-miterlimit:10;}
	.st6{fill:none;stroke:#F69679;stroke-width:4;stroke-miterlimit:10;}
	.st7{fill:none;stroke:#00B388;stroke-width:4;stroke-linecap:square;stroke-miterlimit:10;}
	.st8{fill:none;stroke:#F68D70;stroke-width:4;stroke-linecap:square;stroke-miterlimit:10;}
	.st9{fill:#FFFFFF;stroke:#C6C9C9;stroke-width:4;stroke-miterlimit:10;}
	.st10{fill:none;stroke:#17181B;stroke-width:4;stroke-linecap:square;stroke-miterlimit:10;}
	.st11{fill:none;stroke:#F59278;stroke-width:4;stroke-linecap:square;stroke-miterlimit:10;}
	.st12{fill:none;stroke:#17181B;stroke-width:4;stroke-miterlimit:10;}
	.st13{fill:none;stroke:#F59278;stroke-width:4;stroke-miterlimit:10;}
	.st14{fill:none;stroke:#56C5D0;stroke-width:4;stroke-miterlimit:10;}
	.st15{fill:none;stroke:#6A817C;stroke-width:4;stroke-miterlimit:10;}
	.st16{fill:#FFFFFF;}
	.st17{fill:none;stroke:#FFFFFF;stroke-width:4;stroke-miterlimit:10;}
	.st18{fill:#614767;}
	.st19{fill:none;stroke:#C6C9C9;stroke-width:4;stroke-miterlimit:10;}
	.st20{fill:none;stroke:#00B38C;stroke-width:4;stroke-miterlimit:10;}
	.st21{fill:none;stroke:#80766E;stroke-width:4;stroke-linecap:square;stroke-miterlimit:10;}
	.st22{fill:#614767;stroke:#614767;stroke-width:4;stroke-linecap:square;stroke-miterlimit:10;}
	.st23{fill:none;stroke:#00B28B;stroke-width:4;stroke-linecap:square;stroke-miterlimit:10;}
	.st24{fill:none;}
	.st25{fill:none;stroke:#F69677;stroke-width:4;stroke-miterlimit:10;}
	.st26{fill:none;stroke:#00B288;stroke-width:4;stroke-miterlimit:10;}
	.st27{fill:none;stroke:#00B48D;stroke-width:4;stroke-miterlimit:10;}
	.st28{fill:none;stroke:#FFFFFF;stroke-width:3.9;stroke-miterlimit:10;}
	.st29{fill:none;stroke:#67506C;stroke-width:4;stroke-linecap:square;stroke-miterlimit:10;}
</style>
<g>
	<g>
		<g>
			<polyline class="st0" points="824.5,242.1 824.5,202.4 845.1,202.4 845.1,242.1 			"/>
			<line class="st1" x1="822.7" y1="191.6" x2="846.8" y2="191.6"/>
		</g>
		<g>
			<polyline class="st2" points="854.7,242.1 854.7,202.4 879.2,202.4 			"/>
			<line class="st1" x1="872.6" y1="218.1" x2="869.3" y2="218.1"/>
			<line class="st1" x1="872.6" y1="226" x2="869.3" y2="226"/>
			<line class="st1" x1="872.6" y1="233.9" x2="869.3" y2="233.9"/>
		</g>
	</g>
	<polyline class="st3" points="878.8,194.7 878.8,80.9 830.9,108.5 830.9,182.4 	"/>
	<g>
		<line class="st1" x1="861.3" y1="111.4" x2="869.3" y2="111.4"/>
		<line class="st1" x1="861.3" y1="163.7" x2="869.3" y2="163.7"/>
		<line class="st1" x1="861.3" y1="189.9" x2="869.3" y2="189.9"/>
		<line class="st1" x1="861.3" y1="176.8" x2="869.3" y2="176.8"/>
		<line class="st1" x1="861.3" y1="150.7" x2="869.3" y2="150.7"/>
		<line class="st1" x1="861.3" y1="137.6" x2="869.3" y2="137.6"/>
		<line class="st1" x1="861.3" y1="124.5" x2="869.3" y2="124.5"/>
	</g>
	<g>
		<polyline class="st4" points="889.7,242.1 889.7,89.3 933.3,89.3 933.3,135.9 		"/>
		<polyline class="st3" points="947,148.6 904.8,148.6 904.8,242.1 		"/>
	</g>
	<polyline class="st5" points="1078,188.5 1078,88.1 1120.1,88.1 1120.1,242.1 	"/>
	<line class="st0" x1="1078" y1="76.1" x2="1141.7" y2="76.1"/>
	<polyline class="st3" points="1131.7,88.1 1141.7,88.1 1141.7,242.1 	"/>
	<g>
		<line class="st6" x1="1097.8" y1="115.4" x2="1097.8" y2="110.4"/>
		<line class="st6" x1="1108" y1="115.4" x2="1108" y2="110.4"/>
		<line class="st6" x1="1087.5" y1="115.4" x2="1087.5" y2="110.4"/>
	</g>
	<g>
		<line class="st4" x1="1097.8" y1="136.4" x2="1097.8" y2="131.4"/>
		<line class="st4" x1="1108" y1="136.4" x2="1108" y2="131.4"/>
		<line class="st4" x1="1087.5" y1="136.4" x2="1087.5" y2="131.4"/>
	</g>
	<g>
		<line class="st4" x1="1097.8" y1="157.3" x2="1097.8" y2="152.4"/>
		<line class="st4" x1="1108" y1="157.3" x2="1108" y2="152.4"/>
		<line class="st4" x1="1087.5" y1="157.3" x2="1087.5" y2="152.4"/>
	</g>
	<g>
		<line class="st4" x1="1097.8" y1="178.3" x2="1097.8" y2="173.3"/>
		<line class="st4" x1="1108" y1="178.3" x2="1108" y2="173.3"/>
		<line class="st4" x1="1087.5" y1="178.3" x2="1087.5" y2="173.3"/>
	</g>
	<g>
		<line id="XMLID_579_" class="st5" x1="1082.2" y1="242.1" x2="1082.2" y2="228.3"/>
		<circle id="XMLID_578_" class="st0" cx="1082.2" cy="215.9" r="12.4"/>
	</g>
	<polyline id="XMLID_577_" class="st4" points="984.5,134 984.3,101.8 1013,101.8 1013,134 	"/>
	<g>
		<line id="XMLID_575_" class="st7" x1="789.6" y1="231.4" x2="789.6" y2="242.1"/>
		<polygon id="XMLID_485_" class="st0" points="780.3,230.6 798.8,230.5 789.4,199.6 		"/>
	</g>
	<g>
		<polyline class="st2" points="1058,242.1 1058,163.9 1000.4,163.9 984.3,163.9 		"/>
		<polyline class="st1" points="1014.3,242.1 1014.3,220.2 1036.1,220.2 1036.1,242.1 		"/>
		<g>
			<g>
				<line class="st8" x1="1024.1" y1="193.4" x2="1024.1" y2="188.5"/>
				<line class="st8" x1="1013.8" y1="193.4" x2="1013.8" y2="188.5"/>
				<line class="st8" x1="1044.6" y1="193.4" x2="1044.6" y2="188.5"/>
				<line class="st8" x1="1034.3" y1="193.4" x2="1034.3" y2="188.5"/>
			</g>
			<g>
				<line class="st8" x1="1024.1" y1="203.3" x2="1024.1" y2="198.3"/>
				<line class="st8" x1="1013.8" y1="203.3" x2="1013.8" y2="198.3"/>
				<line class="st8" x1="1044.6" y1="203.3" x2="1044.6" y2="198.3"/>
				<line class="st8" x1="1034.3" y1="203.3" x2="1034.3" y2="198.3"/>
			</g>
			<g>
				<line class="st8" x1="1024.1" y1="183.5" x2="1024.1" y2="178.6"/>
				<line class="st8" x1="1013.8" y1="183.5" x2="1013.8" y2="178.6"/>
				<line class="st8" x1="1044.6" y1="183.5" x2="1044.6" y2="178.6"/>
				<line class="st8" x1="1034.3" y1="183.5" x2="1034.3" y2="178.6"/>
			</g>
		</g>
		
			<rect x="984.3" y="144.4" transform="matrix(-1 -3.617991e-09 3.617991e-09 -1 2042.291 297.1275)" class="st1" width="73.7" height="8.3"/>
	</g>
	<g>
		<path class="st9" d="M936.6,226.8l0-28L936.6,226.8z"/>
		<line class="st5" x1="936.6" y1="198.7" x2="936.6" y2="226.8"/>
		<path class="st9" d="M947,226.8v-28V226.8z"/>
		<line class="st5" x1="947" y1="198.7" x2="947" y2="226.8"/>
		<path class="st9" d="M957.4,226.8l0-28L957.4,226.8z"/>
		<line class="st5" x1="957.4" y1="198.7" x2="957.4" y2="226.8"/>
		<path class="st9" d="M967.8,226.8l0-28L967.8,226.8z"/>
		<line class="st5" x1="967.8" y1="198.7" x2="967.8" y2="226.8"/>
		<path class="st9" d="M978.2,226.8l0-28L978.2,226.8z"/>
		<line class="st5" x1="978.2" y1="198.7" x2="978.2" y2="226.8"/>
		<path class="st9" d="M988.6,226.8l0-28L988.6,226.8z"/>
		<line class="st5" x1="988.6" y1="198.7" x2="988.6" y2="226.8"/>
		<polygon class="st3" points="962.2,169.9 935.3,181 935.3,183.1 962.2,183.1 989,183.1 989,181 		"/>
		<g>
			<line class="st5" x1="936.6" y1="190.6" x2="936.6" y2="192.2"/>
			<line class="st5" x1="947" y1="190.6" x2="947" y2="192.2"/>
			<line class="st5" x1="957.4" y1="190.6" x2="957.4" y2="192.2"/>
			<line class="st5" x1="967.8" y1="190.6" x2="967.8" y2="192.2"/>
			<line class="st5" x1="978.2" y1="190.6" x2="978.2" y2="192.2"/>
			<line class="st5" x1="988.6" y1="190.6" x2="988.6" y2="192.2"/>
		</g>
		<rect x="927.8" y="234.6" class="st5" width="68.8" height="7.6"/>
	</g>
	<path class="st3" d="M239.7,240.4"/>
	<path class="st3" d="M181.2,240.4"/>
	<path class="st3" d="M148.4,240.4"/>
	<path class="st3" d="M330.2,240.4"/>
	<g>
		<path id="XMLID_409_" class="st10" d="M232.1,202.8"/>
		<path id="XMLID_408_" class="st10" d="M235.5,202.2"/>
		<polygon class="st0" points="281.5,208.3 297.2,208.3 302.5,213.5 297.2,218.8 281.5,218.8 		"/>
		<polyline class="st4" points="254.2,215.8 270.5,215.8 270.5,242.1 		"/>
		<line class="st4" x1="289.7" y1="226.9" x2="289.7" y2="242.1"/>
		<polygon class="st0" points="133.7,210.6 118,210.6 112.7,215.8 118,221.1 133.7,221.1 		"/>
		<line class="st4" x1="125.5" y1="228.3" x2="125.5" y2="242.1"/>
		<polyline class="st3" points="190,242.1 190,174.4 173.7,158 157.3,174.4 157.3,242.1 		"/>
		<g>
			<g>
				<line class="st1" x1="182.1" y1="212.8" x2="182.1" y2="210.1"/>
				<line class="st1" x1="165.2" y1="212.8" x2="165.2" y2="210.1"/>
				<line class="st1" x1="173.7" y1="212.8" x2="173.7" y2="210.1"/>
			</g>
		</g>
		<g>
			<g>
				<line class="st1" x1="182.1" y1="189" x2="182.1" y2="186.2"/>
				<line class="st1" x1="165.2" y1="189" x2="165.2" y2="186.2"/>
				<line class="st1" x1="173.7" y1="189" x2="173.7" y2="186.2"/>
			</g>
			<g>
				<line class="st1" x1="182.1" y1="201.5" x2="182.1" y2="198.8"/>
				<line class="st1" x1="165.2" y1="201.5" x2="165.2" y2="198.8"/>
				<line class="st1" x1="173.7" y1="201.5" x2="173.7" y2="198.8"/>
			</g>
		</g>
		<path id="XMLID_407_" class="st10" d="M330.4,202.8"/>
		<polyline class="st3" points="314,242.1 314,201.8 330.4,185.4 346.8,201.8 346.8,242.1 		"/>
		<path id="XMLID_406_" class="st10" d="M333.8,202.2"/>
		<polyline class="st4" points="340.1,183.4 340.1,179.1 346.8,179.1 346.8,190 		"/>
		<g>
			<line class="st1" x1="321.9" y1="209.9" x2="321.9" y2="207.1"/>
			<line class="st1" x1="338.9" y1="209.9" x2="338.9" y2="207.1"/>
			<line class="st1" x1="330.4" y1="209.9" x2="330.4" y2="207.1"/>
		</g>
		<g>
			<line class="st1" x1="321.9" y1="222.4" x2="321.9" y2="219.7"/>
			<line class="st1" x1="338.9" y1="222.4" x2="338.9" y2="219.7"/>
			<line class="st1" x1="330.4" y1="222.4" x2="330.4" y2="219.7"/>
		</g>
		<line class="st4" x1="338.9" y1="242.1" x2="338.9" y2="233.7"/>
		<line class="st4" x1="182.1" y1="242.1" x2="182.1" y2="233.7"/>
		<g>
			<path class="st3" d="M216.8,242.1"/>
			<path id="XMLID_405_" class="st10" d="M230.8,202.8"/>
			<polyline class="st3" points="214.4,242.1 214.4,201.8 230.8,185.4 247.2,201.8 247.2,242.1 			"/>
			<path id="XMLID_404_" class="st10" d="M234.2,202.2"/>
			<path class="st3" d="M247.3,242.1"/>
			<g>
				<line class="st2" x1="222.3" y1="209.9" x2="222.3" y2="207.1"/>
				<line class="st2" x1="239.3" y1="209.9" x2="239.3" y2="207.1"/>
				<line class="st2" x1="230.8" y1="209.9" x2="230.8" y2="207.1"/>
			</g>
			<g>
				<line class="st2" x1="222.3" y1="222.4" x2="222.3" y2="219.7"/>
				<line class="st2" x1="239.3" y1="222.4" x2="239.3" y2="219.7"/>
				<line class="st2" x1="230.8" y1="222.4" x2="230.8" y2="219.7"/>
			</g>
			<line class="st4" x1="222.4" y1="242.1" x2="222.4" y2="233.7"/>
			<path class="st3" d="M247.3,242.1"/>
		</g>
		<path id="XMLID_299_" class="st10" d="M223,147.2"/>
		<polyline id="XMLID_298_" class="st7" points="226.2,175.7 226.2,137.9 204.2,137.9 204.2,242.1 		"/>
		<g id="XMLID_294_">
			<line id="XMLID_295_" class="st11" x1="210.8" y1="162.2" x2="214.1" y2="162.2"/>
		</g>
		<g id="XMLID_290_">
			<line id="XMLID_291_" class="st11" x1="210.7" y1="154.2" x2="214.1" y2="154.2"/>
		</g>
		<g id="XMLID_286_">
			<line id="XMLID_287_" class="st11" x1="210.7" y1="146.2" x2="214" y2="146.2"/>
		</g>
		<polyline id="XMLID_285_" class="st1" points="245.3,170.6 245.2,147.8 271,163.6 271,198.8 		"/>
		<g>
			<g>
				<polyline class="st4" points="464.1,242.1 464.1,106.2 425.9,106.2 425.9,172.1 				"/>
				<line class="st0" x1="464.1" y1="93.7" x2="425.9" y2="93.7"/>
				<line class="st3" x1="451.5" y1="113.4" x2="451.5" y2="242.1"/>
				<line class="st3" x1="439.2" y1="113.4" x2="439.2" y2="242.1"/>
			</g>
			<g>
				<path class="st9" d="M423,226.5V202V226.5z"/>
				<line class="st5" x1="423" y1="202" x2="423" y2="226.5"/>
				<path class="st9" d="M413.9,226.5V202V226.5z"/>
				<line class="st5" x1="413.9" y1="202" x2="413.9" y2="226.5"/>
				<path class="st9" d="M404.8,226.5V202V226.5z"/>
				<line class="st5" x1="404.8" y1="202" x2="404.8" y2="226.5"/>
				<path class="st9" d="M395.7,226.5V202V226.5z"/>
				<line class="st5" x1="395.7" y1="202" x2="395.7" y2="226.5"/>
				<path class="st9" d="M386.6,226.5V202V226.5z"/>
				<line class="st5" x1="386.6" y1="202" x2="386.6" y2="226.5"/>
				<path class="st9" d="M377.5,226.5V202V226.5z"/>
				<line class="st5" x1="377.5" y1="202" x2="377.5" y2="226.5"/>
				<polygon class="st3" points="400.6,176.7 424.1,186.4 424.1,188.3 400.6,188.3 377.1,188.3 377.1,186.4 				"/>
				<g>
					<line class="st5" x1="423" y1="194.9" x2="423" y2="196.3"/>
					<line class="st5" x1="413.9" y1="194.9" x2="413.9" y2="196.3"/>
					<line class="st5" x1="404.8" y1="194.9" x2="404.8" y2="196.3"/>
					<line class="st5" x1="395.7" y1="194.9" x2="395.7" y2="196.3"/>
					<line class="st5" x1="386.6" y1="194.9" x2="386.6" y2="196.3"/>
					<line class="st5" x1="377.5" y1="194.9" x2="377.5" y2="196.3"/>
				</g>
				
					<rect x="370.5" y="233.4" transform="matrix(-1 -1.081070e-07 1.081070e-07 -1 801.2296 475.4938)" class="st5" width="60.2" height="8.8"/>
			</g>
		</g>
	</g>
	<g>
		<g>
			<polyline class="st4" points="1735.3,241.8 1735.3,96.7 1773.2,96.7 1773.2,180.9 			"/>
			<line class="st0" x1="1735.3" y1="90.5" x2="1773.2" y2="90.5"/>
			<line class="st0" x1="1735.3" y1="84.3" x2="1773.2" y2="84.3"/>
			<line class="st3" x1="1754.3" y1="103.8" x2="1754.3" y2="241.8"/>
		</g>
		<g>
			<path class="st9" d="M1776.1,228.5v-24.4V228.5z"/>
			<line class="st5" x1="1776.1" y1="204.1" x2="1776.1" y2="228.5"/>
			<path class="st9" d="M1785.1,228.5v-24.4V228.5z"/>
			<line class="st5" x1="1785.1" y1="204.1" x2="1785.1" y2="228.5"/>
			<path class="st9" d="M1794.2,228.5v-24.4V228.5z"/>
			<line class="st5" x1="1794.2" y1="204.1" x2="1794.2" y2="228.5"/>
			<path class="st9" d="M1803.2,228.5v-24.4V228.5z"/>
			<line class="st5" x1="1803.2" y1="204.1" x2="1803.2" y2="228.5"/>
			<path class="st9" d="M1812.3,228.5v-24.4V228.5z"/>
			<line class="st5" x1="1812.3" y1="204.1" x2="1812.3" y2="228.5"/>
			<path class="st9" d="M1821.4,228.5v-24.4V228.5z"/>
			<line class="st5" x1="1821.4" y1="204.1" x2="1821.4" y2="228.5"/>
			<polygon class="st3" points="1798.3,179 1775,188.6 1775,190.5 1798.3,190.5 1821.7,190.5 1821.7,188.6 			"/>
			<g>
				<line class="st5" x1="1776.1" y1="197" x2="1776.1" y2="198.4"/>
				<line class="st5" x1="1785.1" y1="197" x2="1785.1" y2="198.4"/>
				<line class="st5" x1="1794.2" y1="197" x2="1794.2" y2="198.4"/>
				<line class="st5" x1="1803.2" y1="197" x2="1803.2" y2="198.4"/>
				<line class="st5" x1="1812.3" y1="197" x2="1812.3" y2="198.4"/>
				<line class="st5" x1="1821.4" y1="197" x2="1821.4" y2="198.4"/>
			</g>
			<rect x="1768.4" y="235.3" class="st5" width="59.8" height="6.6"/>
		</g>
	</g>
	<path id="XMLID_442_" class="st12" d="M1647.1,159.9"/>
	<polyline id="XMLID_441_" class="st3" points="1650.7,195.1 1650.7,149.6 1626.1,149.6 1626.1,195.1 	"/>
	<g id="XMLID_439_">
		<line id="XMLID_440_" class="st13" x1="1640.4" y1="176.6" x2="1644.1" y2="176.6"/>
	</g>
	<g id="XMLID_437_">
		<line id="XMLID_438_" class="st13" x1="1633.5" y1="176.6" x2="1637.2" y2="176.6"/>
	</g>
	<g id="XMLID_428_">
		<line id="XMLID_429_" class="st13" x1="1640.3" y1="167.7" x2="1644" y2="167.7"/>
	</g>
	<g id="XMLID_426_">
		<line id="XMLID_427_" class="st13" x1="1633.4" y1="167.8" x2="1637.1" y2="167.7"/>
	</g>
	<g id="XMLID_424_">
		<line id="XMLID_425_" class="st13" x1="1640.3" y1="158.9" x2="1644" y2="158.8"/>
	</g>
	<g id="XMLID_422_">
		<line id="XMLID_423_" class="st13" x1="1633.4" y1="158.9" x2="1637.1" y2="158.9"/>
	</g>
	<polyline id="XMLID_421_" class="st14" points="1669.5,195.1 1669.4,119.5 1698.1,137.1 1698.1,214.8 	"/>
	<line id="XMLID_265_" class="st13" x1="1677.4" y1="144.8" x2="1677.3" y2="136.7"/>
	<line class="st14" x1="1593.4" y1="192.7" x2="1616.9" y2="192.7"/>
	<line class="st14" x1="1593.4" y1="184.7" x2="1616.9" y2="184.7"/>
	<polyline class="st15" points="1707.2,214.8 1707.2,146.7 1725.6,146.7 	"/>
	<g>
		<path class="st16" d="M1422.9,233.9v-10.5V233.9z"/>
		<line class="st17" x1="1422.9" y1="233.9" x2="1422.9" y2="223.4"/>
		<path class="st16" d="M1414.7,220.4c0-4.6,3.7-8.3,8.3-8.3c4.6,0,8.3,3.7,8.3,8.3s-3.7,8.3-8.3,8.3
			C1418.4,228.7,1414.7,225,1414.7,220.4"/>
		<circle class="st17" cx="1422.9" cy="220.4" r="8.3"/>
		<path class="st18" d="M1411.1,220.4c0-6.5,5.3-11.8,11.8-11.8c6.5,0,11.8,5.3,11.8,11.8c0,6.5-5.3,11.8-11.8,11.8
			C1416.4,232.3,1411.1,227,1411.1,220.4"/>
		<line class="st19" x1="1422.9" y1="242.6" x2="1422.9" y2="228.7"/>
		<circle class="st20" cx="1422.9" cy="220.4" r="8.3"/>
	</g>
	<g>
		<circle class="st4" cx="1719.6" cy="230.5" r="2.9"/>
		<circle class="st3" cx="1702.7" cy="230.5" r="2.9"/>
		<circle class="st1" cx="1685.9" cy="230.5" r="2.9"/>
	</g>
	<g>
		<polyline class="st1" points="1506.4,241.8 1506.4,221 1597.1,221 1597.1,241.8 		"/>
		<polyline class="st2" points="1610.7,241.8 1610.7,229.4 1622.1,229.4 1622.1,241.8 		"/>
		<polyline class="st4" points="1498,241.8 1498,212.6 1666.3,212.6 1666.3,241.8 		"/>
		<line class="st2" x1="1628.7" y1="221" x2="1604.5" y2="221"/>
		<polyline class="st21" points="1637.4,221.3 1657.7,221.3 1657.7,232.1 		"/>
		<line class="st5" x1="1489.6" y1="203.7" x2="1673.7" y2="203.7"/>
		<g>
			<path class="st16" d="M1539.8,233.4l0-10.1L1539.8,233.4z"/>
			<line class="st2" x1="1539.8" y1="233.4" x2="1539.8" y2="223.3"/>
			<path class="st16" d="M1531.8,220.4c0-4.4,3.6-8,8-8c4.4,0,8,3.6,8,8c0,4.4-3.6,8-8,8C1535.4,228.4,1531.8,224.8,1531.8,220.4"/>
			<circle class="st2" cx="1539.8" cy="220.4" r="8"/>
			<path class="st22" d="M1527.1,220.4c0-7,5.7-12.8,12.8-12.8c7,0,12.8,5.7,12.8,12.8s-5.7,12.8-12.8,12.8
				C1532.8,233.2,1527.1,227.5,1527.1,220.4"/>
			<line class="st5" x1="1539.8" y1="241.8" x2="1539.8" y2="228.4"/>
			<circle class="st23" cx="1539.8" cy="220.4" r="8"/>
		</g>
		<g>
			<path class="st16" d="M1575.1,233.4v-10.1V233.4z"/>
			<line class="st2" x1="1575.1" y1="233.4" x2="1575.1" y2="223.3"/>
			<path class="st16" d="M1567.1,220.4c0-4.4,3.6-8,8-8c4.4,0,8,3.6,8,8c0,4.4-3.6,8-8,8C1570.7,228.4,1567.1,224.8,1567.1,220.4"/>
			<circle class="st2" cx="1575.1" cy="220.4" r="8"/>
			<path class="st22" d="M1562.3,220.4c0-7,5.7-12.8,12.8-12.8c7,0,12.8,5.7,12.8,12.8s-5.7,12.8-12.8,12.8
				C1568,233.2,1562.3,227.5,1562.3,220.4"/>
			<line class="st5" x1="1575.1" y1="241.8" x2="1575.1" y2="228.4"/>
			<circle class="st23" cx="1575.1" cy="220.4" r="8"/>
		</g>
	</g>
	<g>
		<path class="st24" d="M1842.1,220.4c0-4.6,3.7-8.3,8.3-8.3c4.6,0,8.3,3.7,8.3,8.3s-3.7,8.3-8.3,8.3
			C1845.8,228.7,1842.1,225,1842.1,220.4"/>
		<line class="st19" x1="1850.4" y1="242.6" x2="1850.4" y2="228.7"/>
		<circle class="st20" cx="1850.4" cy="220.4" r="8.3"/>
	</g>
	<g>
		<path class="st24" d="M1887.2,220.4c0-4.6,3.7-8.3,8.3-8.3c4.6,0,8.3,3.7,8.3,8.3s-3.7,8.3-8.3,8.3
			C1890.9,228.7,1887.2,225,1887.2,220.4"/>
		<line class="st19" x1="1895.4" y1="242.6" x2="1895.4" y2="228.7"/>
		<circle class="st20" cx="1895.4" cy="220.4" r="8.3"/>
	</g>
	<line class="st4" x1="898" y1="101.5" x2="898" y2="135.6"/>
	<g>
		<polyline class="st0" points="1185.3,182.8 1185.3,171 1216.9,171 1216.9,241.8 		"/>
	</g>
	<rect x="1157.3" y="219.1" class="st25" width="13.2" height="23"/>
	<g>
		<rect x="1177.6" y="194.2" class="st2" width="13.3" height="47.9"/>
	</g>
	<rect x="1345.5" y="230" class="st3" width="56.8" height="11.8"/>
	<line class="st3" x1="1345.5" y1="222.3" x2="1402.3" y2="222.3"/>
	<line class="st1" x1="1157.3" y1="206.9" x2="1170.5" y2="206.9"/>
	<g>
		<polyline class="st0" points="1426.3,190.9 1471.8,190.9 1471.8,210.4 1471.8,242.6 		"/>
	</g>
	<polyline class="st26" points="489.6,202.7 489.6,187.7 544.9,187.7 544.9,242.1 	"/>
	<g>
		<g>
			<g>
				<line class="st15" x1="522.6" y1="202.9" x2="522.6" y2="198.3"/>
				<line class="st15" x1="532.6" y1="202.9" x2="532.6" y2="198.3"/>
				<line class="st15" x1="502.6" y1="202.9" x2="502.6" y2="198.3"/>
				<line class="st15" x1="512.6" y1="202.9" x2="512.6" y2="198.3"/>
			</g>
		</g>
	</g>
	<line class="st14" x1="1209" y1="194.6" x2="1205.7" y2="194.6"/>
	<line class="st14" x1="1209" y1="202.4" x2="1205.7" y2="202.4"/>
	<line class="st14" x1="1209" y1="210.1" x2="1205.7" y2="210.1"/>
	<polyline class="st1" points="1418.9,200.8 1418.9,173.1 1373.9,173.1 1373.9,212.8 	"/>
	<g>
		<line class="st3" x1="1410.6" y1="184.5" x2="1384" y2="184.5"/>
		<line class="st3" x1="1410.6" y1="197.2" x2="1384" y2="197.2"/>
	</g>
	<g>
		<polyline class="st3" points="471.6,212.7 511,212.7 511,218 471.6,218 		"/>
		<line class="st3" x1="511" y1="224.3" x2="511" y2="242.1"/>
	</g>
	<polyline class="st5" points="626.3,242.1 626.3,199.8 597.2,176.4 597.2,198 	"/>
	<g>
		<line id="XMLID_306_" class="st19" x1="617.1" y1="216.1" x2="617.1" y2="207.3"/>
	</g>
	<polyline class="st4" points="602.8,242.1 602.8,210.1 554.4,210.1 554.4,242.1 	"/>
	<line class="st1" x1="564.4" y1="226.1" x2="564.4" y2="242.1"/>
	<g>
		<line id="XMLID_293_" class="st19" x1="42" y1="232.5" x2="42.1" y2="242.1"/>
		<polygon id="XMLID_292_" class="st27" points="34.3,232.5 49.8,232.4 41.9,206.7 		"/>
	</g>
	<g>
		<line id="XMLID_308_" class="st19" x1="72.6" y1="232.4" x2="72.7" y2="242.1"/>
		<polygon id="XMLID_307_" class="st27" points="66.8,232.5 78.4,232.4 72.5,213.1 		"/>
	</g>
	<line class="st28" x1="1" y1="251.3" x2="1957.7" y2="251.3"/>
	<g>
		<line id="XMLID_458_" class="st19" x1="93.6" y1="232.4" x2="93.6" y2="242.1"/>
		<polygon id="XMLID_457_" class="st27" points="87.7,232.5 99.4,232.4 93.4,213.1 		"/>
	</g>
	<g>
		<polyline class="st1" points="1312.9,204.1 1312.9,186.6 1337.2,186.6 1337.2,242.7 		"/>
	</g>
	<g>
		<line id="XMLID_474_" class="st5" x1="1312.1" y1="241.4" x2="1312.1" y2="234"/>
		<circle id="XMLID_473_" class="st27" cx="1312.1" cy="224.5" r="9.5"/>
	</g>
	<polyline id="XMLID_472_" class="st0" points="704.3,242 704.3,200 764,200 764,242 	"/>
	<g>
		<g>
			<line id="XMLID_471_" class="st1" x1="711.3" y1="208.5" x2="715.2" y2="208.5"/>
			<line id="XMLID_470_" class="st1" x1="711.3" y1="216" x2="715.2" y2="216"/>
			<line id="XMLID_469_" class="st1" x1="711.3" y1="223.6" x2="715.2" y2="223.6"/>
		</g>
		<g>
			<line id="XMLID_468_" class="st1" x1="720.7" y1="208.5" x2="724.5" y2="208.5"/>
			<line id="XMLID_466_" class="st1" x1="720.7" y1="216" x2="724.5" y2="216"/>
			<line id="XMLID_465_" class="st1" x1="720.7" y1="223.6" x2="724.5" y2="223.6"/>
		</g>
		<g>
			<line id="XMLID_464_" class="st1" x1="730" y1="208.5" x2="733.8" y2="208.5"/>
			<line id="XMLID_463_" class="st1" x1="730" y1="216" x2="733.8" y2="216"/>
			<line id="XMLID_462_" class="st1" x1="730" y1="223.6" x2="733.8" y2="223.6"/>
		</g>
	</g>
	<g>
		<g>
			<g>
				<line class="st3" x1="1278.9" y1="215.7" x2="1278.9" y2="211.1"/>
				<line class="st3" x1="1258.9" y1="215.7" x2="1258.9" y2="211.1"/>
				<line class="st3" x1="1268.9" y1="215.7" x2="1268.9" y2="211.1"/>
			</g>
		</g>
	</g>
	<polyline id="XMLID_461_" class="st5" points="1254.8,199.1 1291,199.1 1291,241.4 	"/>
	<polyline id="XMLID_460_" class="st3" points="1227.1,241.4 1227.1,164.7 1247.7,164.7 1247.7,241.4 	"/>
	<line class="st0" x1="1237.4" y1="148.6" x2="1237.4" y2="241.4"/>
	<g>
		<polyline class="st1" points="670.6,220.4 659.5,220.4 659.5,242 		"/>
		<polyline class="st5" points="678.6,242 678.6,209.4 636.9,209.4 		"/>
	</g>
	<polyline id="XMLID_459_" class="st1" points="678.2,200.6 678.2,179.8 695.7,179.8 695.7,242 	"/>
	<line class="st29" x1="686.9" y1="201.8" x2="686.9" y2="194.7"/>
	<line class="st0" x1="1229.4" y1="141.8" x2="1243.9" y2="141.8"/>
</g>
</svg>
