<?xml version="1.0" encoding="utf-8"?>
<!-- Generator: Adobe Illustrator 20.0.0, SVG Export Plug-In . SVG Version: 6.00 Build 0)  -->
<svg version="1.1" id="Layer_1" xmlns="http://www.w3.org/2000/svg" xmlns:xlink="http://www.w3.org/1999/xlink" x="0px" y="0px"
	 viewBox="0 0 1958.6 342.3" style="enable-background:new 0 0 1958.6 342.3;" xml:space="preserve">
<style type="text/css">
	
		.st0{fill:none;stroke:#50C3CC;stroke-width:4;stroke-linecap:round;stroke-linejoin:round;stroke-miterlimit:10;stroke-dasharray:0,7;}
	.st1{fill:none;stroke:#00B288;stroke-width:4;stroke-miterlimit:10;}
	.st2{fill:none;stroke:#FFFFFF;stroke-width:4;stroke-linecap:square;stroke-miterlimit:10;}
	.st3{fill:none;stroke:#F69679;stroke-width:4;stroke-miterlimit:10;}
	.st4{fill:none;stroke:#00B48D;stroke-width:4;stroke-miterlimit:10;}
	.st5{fill:none;stroke:#50C3CC;stroke-width:4;stroke-linecap:round;stroke-linejoin:round;}
	.st6{fill:none;stroke:#50C3CC;stroke-width:4;stroke-linecap:round;stroke-linejoin:round;stroke-dasharray:0,6.7928;}
	.st7{fill:none;stroke:#50C3CC;stroke-width:4;stroke-linecap:round;stroke-linejoin:round;stroke-dasharray:0,7.94;}
	.st8{fill:none;stroke:#50C3CC;stroke-width:4;stroke-linecap:round;stroke-linejoin:round;stroke-dasharray:0,6.8486;}
	.st9{fill:none;stroke:#50C3CC;stroke-width:4;stroke-linecap:round;stroke-linejoin:round;stroke-dasharray:0,7.1334;}
	.st10{fill:none;stroke:#50C3CC;stroke-width:4;stroke-linecap:round;stroke-linejoin:round;stroke-dasharray:0,7.1316;}
	.st11{fill:#FFFFFF;stroke:#614767;stroke-width:0.5;stroke-miterlimit:10;}
	.st12{fill:#00AF86;}
</style>
<g>
	<line class="st0" x1="210.5" y1="123.4" x2="210.5" y2="46.6"/>
	<line class="st0" x1="174.2" y1="144.6" x2="174.2" y2="43.9"/>
	<line class="st0" x1="440.4" y1="75.2" x2="440.4" y2="34.9"/>
	<line class="st0" x1="335.6" y1="39.9" x2="438.8" y2="39.9"/>
	<line class="st0" x1="174.1" y1="39.9" x2="263.6" y2="39.9"/>
	<line class="st0" x1="400.4" y1="162.5" x2="400.4" y2="45"/>
	<g>
		<g>
			<circle class="st1" cx="296.8" cy="44" r="20.9"/>
			<circle class="st2" cx="296.8" cy="44" r="17.1"/>
			<line class="st3" x1="296.8" y1="44" x2="305.2" y2="32"/>
			<g>
				<line class="st4" x1="296.8" y1="16.8" x2="296.8" y2="20.9"/>
				<line class="st4" x1="293.1" y1="16.8" x2="293.1" y2="20.9"/>
				<line class="st4" x1="300.6" y1="16.8" x2="300.6" y2="20.9"/>
			</g>
			<path class="st4" d="M304.8,17.8L304.8,17.8c0-1.8-1.5-3.3-3.3-3.3l-9.4,0c-1.8,0-3.3,1.5-3.3,3.3v0"/>
			<g>
				<line class="st4" x1="311.7" y1="22.5" x2="316.6" y2="27.4"/>
				<line class="st4" x1="281.9" y1="22.5" x2="277" y2="27.4"/>
			</g>
			<line class="st2" x1="296.8" y1="26.9" x2="296.8" y2="30.7"/>
			<line class="st2" x1="296.8" y1="57.2" x2="296.8" y2="61"/>
			<line class="st2" x1="279.8" y1="44" x2="283.5" y2="44"/>
			<line class="st2" x1="310.1" y1="44" x2="313.9" y2="44"/>
		</g>
	</g>
</g>
<g>
	<g>
		<g id="XMLID_60_">
			<g>
				<line class="st5" x1="963.9" y1="67.1" x2="963.9" y2="67.1"/>
				<line class="st6" x1="963.9" y1="73.9" x2="963.9" y2="152"/>
				<line class="st5" x1="963.9" y1="155.4" x2="963.9" y2="155.4"/>
			</g>
		</g>
	</g>
	<g>
		<g id="XMLID_1_">
			<g>
				<line class="st5" x1="1099.6" y1="50.5" x2="1099.6" y2="50.5"/>
				<line class="st7" x1="1099.6" y1="58.4" x2="1099.6" y2="62.4"/>
				<line class="st5" x1="1099.6" y1="66.3" x2="1099.6" y2="66.3"/>
			</g>
		</g>
	</g>
	<g>
		<g id="XMLID_2_">
			<g>
				<line class="st5" x1="1099.6" y1="43.1" x2="1099.6" y2="43.1"/>
				<line class="st8" x1="1092.7" y1="43.1" x2="1007.1" y2="43.1"/>
				<line class="st5" x1="1003.7" y1="43.1" x2="1003.7" y2="43.1"/>
			</g>
		</g>
	</g>
	<g>
		<g>
			<path class="st2" d="M957.2,46.9l-14.2,0c-5.5,0-10-4.5-10-10v0c0-5.5,4.5-10,10-10l12,0"/>
			<path class="st2" d="M945.1,26.9L945.1,26.9c0-5.8,4.7-10.5,10.5-10.5l10.4,0c5.7,0,10.3,4.6,10.3,10.3v0
				c0,5.7-4.6,10.3-10.3,10.3h-0.6"/>
			<path class="st2" d="M976.4,26.6h7.1c5.6,0,10.1,4.5,10.1,10.1v0c0,5.6-4.5,10.1-10.1,10.1h-8.6"/>
			<path class="st2" d="M984.3,46.9L984.3,46.9c0,5.7-4.6,10.3-10.3,10.3l-12,0c-5.7,0-10.3-4.6-10.3-10.3v0"/>
		</g>
	</g>
	<g>
		<g id="XMLID_7_">
			<g>
				<line class="st5" x1="846.8" y1="50.3" x2="846.8" y2="50.3"/>
				<line class="st9" x1="846.8" y1="57.5" x2="846.8" y2="82.4"/>
				<line class="st5" x1="846.8" y1="86" x2="846.8" y2="86"/>
			</g>
		</g>
	</g>
	<g>
		<g id="XMLID_4_">
			<g>
				<line class="st5" x1="846.8" y1="42.7" x2="846.8" y2="42.7"/>
				<line class="st10" x1="854" y1="42.7" x2="921.7" y2="42.7"/>
				<line class="st5" x1="925.3" y1="42.7" x2="925.3" y2="42.7"/>
			</g>
		</g>
	</g>
</g>
<g>
	<line class="st0" x1="1555.7" y1="46.7" x2="1555.7" y2="196.6"/>
	<line class="st0" x1="1797" y1="53.5" x2="1797" y2="166.4"/>
	<line class="st0" x1="1796.9" y1="45.3" x2="1704.6" y2="45.3"/>
	<line class="st0" x1="1646.6" y1="46.8" x2="1558.3" y2="46.8"/>
	<g>
		<path class="st11" d="M1668.2,31.7c0-4.6,3.7-8.3,8.3-8.3c4.6,0,8.3,3.7,8.3,8.3V40h-16.6V31.7z M1693.1,43.3v26.6l-33.2,0V43.3
			L1693.1,43.3z M1659.9,76.5v-3.3l33.2,0v3.3H1659.9z M1688.1,40v-8.3c0-6.4-5.2-11.6-11.6-11.6c-6.4,0-11.6,5.2-11.6,11.6V40h-8.3
			v39.9h39.9V40H1688.1z"/>
		<path class="st12" d="M1681.5,53.3c0-2.7-2.2-5-5-5c-2.7,0-5,2.2-5,5c0,2.2,1.4,4,3.3,4.7v7h3.3v-7
			C1680.1,57.3,1681.5,55.4,1681.5,53.3z M1676.5,54.9c-0.9,0-1.7-0.7-1.7-1.7s0.7-1.7,1.7-1.7c0.9,0,1.7,0.7,1.7,1.7
			C1678.2,54.2,1677.4,54.9,1676.5,54.9z"/>
	</g>
</g>
</svg>
