<?xml version="1.0" encoding="utf-8"?>
<!-- Generator: Adobe Illustrator 20.0.0, SVG Export Plug-In . SVG Version: 6.00 Build 0)  -->
<svg version="1.1" id="Layer_1" xmlns="http://www.w3.org/2000/svg" xmlns:xlink="http://www.w3.org/1999/xlink" x="0px" y="0px"
	 viewBox="0 0 4195 340.3" style="enable-background:new 0 0 4195 340.3;" xml:space="preserve">
<style type="text/css">
	.st0{fill:none;stroke:#231F1F;stroke-width:4;stroke-miterlimit:10;}
	.st1{fill:#FFFFFF;}
	.st2{fill:none;stroke:#000000;stroke-width:4;stroke-linecap:square;stroke-miterlimit:10;}
	.st3{fill:none;stroke:#6A817C;stroke-width:4;stroke-linecap:square;stroke-miterlimit:10;}
	.st4{fill:none;stroke:#56C5D0;stroke-width:4;stroke-linecap:square;stroke-miterlimit:10;}
	.st5{fill:none;stroke:#F69677;stroke-width:4;stroke-miterlimit:10;}
	.st6{fill:none;stroke:#231F1F;stroke-width:4;stroke-linecap:square;stroke-miterlimit:10;}
	.st7{fill:none;stroke:#56C5D0;stroke-width:4;stroke-miterlimit:10;}
	.st8{fill:none;stroke:#F69679;stroke-width:4;stroke-linecap:square;stroke-miterlimit:10;}
	.st9{fill:none;stroke:#231F20;stroke-width:4;stroke-linecap:square;stroke-miterlimit:10;}
	.st10{fill:none;stroke:#231F20;stroke-width:4;stroke-miterlimit:10;}
	.st11{fill:none;stroke:#00B48D;stroke-width:4;stroke-linecap:square;stroke-miterlimit:10;}
	.st12{fill:none;stroke:#F69677;stroke-width:4;stroke-linecap:square;stroke-miterlimit:10;}
	.st13{fill:none;stroke:#00B388;stroke-width:4;stroke-miterlimit:10;}
	.st14{fill:none;stroke:#00B48D;stroke-width:4;stroke-miterlimit:10;}
	.st15{fill:none;stroke:#17181B;stroke-width:4;stroke-miterlimit:10;}
	.st16{fill:#F69677;}
	.st17{fill:#56C5D0;}
	.st18{fill:none;stroke:#17181B;stroke-width:4;stroke-linecap:square;stroke-miterlimit:10;}
	.st19{fill:none;stroke:#C6C9C9;stroke-width:4;stroke-linecap:square;stroke-miterlimit:10;}
	.st20{fill:#FFFFFF;stroke:#6A817C;stroke-width:4;stroke-miterlimit:10;}
	.st21{fill:none;stroke:#F69679;stroke-width:4;stroke-miterlimit:10;}
	.st22{fill:none;stroke:#67506C;stroke-width:4;stroke-linecap:square;stroke-miterlimit:10;}
	.st23{fill:none;stroke:#162532;stroke-width:4;stroke-linecap:square;stroke-miterlimit:10;}
	.st24{fill:none;stroke:#F68D70;stroke-width:4;stroke-linecap:square;stroke-miterlimit:10;}
	.st25{fill:none;stroke:#6A817C;stroke-width:4;stroke-miterlimit:10;}
	.st26{fill:none;stroke:#F59278;stroke-width:4;stroke-linecap:square;stroke-miterlimit:10;}
	.st27{fill:none;stroke:#6A817C;stroke-width:6;stroke-miterlimit:10;}
	.st28{fill:none;stroke:#00B388;stroke-width:4;stroke-linecap:square;stroke-miterlimit:10;}
	.st29{fill:none;stroke:#000000;stroke-width:4;stroke-miterlimit:10;}
	.st30{fill:#FFFFFF;stroke:#C6C9C9;stroke-width:4;stroke-miterlimit:10;}
	.st31{fill:none;stroke:#C6C9C9;stroke-width:4;stroke-miterlimit:10;}
	.st32{fill:none;stroke:#CACCCE;stroke-width:4;stroke-miterlimit:10;}
	.st33{clip-path:url(#SVGID_2_);fill:none;stroke:#00B48D;stroke-width:4;stroke-miterlimit:10;}
	.st34{clip-path:url(#SVGID_2_);fill:none;stroke:#2B4356;stroke-width:4;stroke-miterlimit:10;}
	.st35{clip-path:url(#SVGID_4_);fill:none;stroke:#CACCCE;stroke-width:4;stroke-miterlimit:10;}
	.st36{clip-path:url(#SVGID_6_);fill:none;stroke:#CACCCE;stroke-width:4;stroke-miterlimit:10;}
	.st37{fill:none;stroke:#C6C9C9;stroke-width:3;stroke-linecap:square;stroke-miterlimit:10;}
	.st38{clip-path:url(#SVGID_8_);fill:none;stroke:#CACCCE;stroke-width:4;stroke-miterlimit:10;}
	.st39{fill:none;stroke:#00B288;stroke-width:4;stroke-miterlimit:10;}
	.st40{fill:none;stroke:#56C5D0;stroke-width:6;stroke-miterlimit:10;}
	.st41{clip-path:url(#XMLID_4_);fill:#FFFFFF;stroke:#F68D70;stroke-width:4;stroke-miterlimit:10;}
	.st42{fill:none;stroke:#F68D70;stroke-width:4;stroke-miterlimit:10;}
	.st43{clip-path:url(#XMLID_5_);fill:#FFFFFF;stroke:#231F20;stroke-width:4;stroke-miterlimit:10;}
	.st44{fill:none;stroke:#231F20;stroke-width:6;stroke-miterlimit:10;}
	.st45{fill:#FFFFFF;stroke:#17181B;stroke-width:4;stroke-miterlimit:10;}
</style>
<g>
	<g>
		<line class="st0" x1="3705.4" y1="236.5" x2="4194" y2="236.5"/>
		<line class="st0" x1="3417.2" y1="236.5" x2="3581" y2="236.5"/>
		<line class="st0" x1="-0.3" y1="236.5" x2="1797.1" y2="236.5"/>
	</g>
	<path class="st1" d="M1514.6,214.8v-22.4V214.8z"/>
	<line class="st2" x1="1514.6" y1="192.4" x2="1514.6" y2="214.8"/>
	<path class="st1" d="M1522.9,214.8v-22.4V214.8z"/>
	<line class="st2" x1="1522.9" y1="192.4" x2="1522.9" y2="214.8"/>
	<path class="st1" d="M1531.2,214.8v-22.4V214.8z"/>
	<line class="st2" x1="1531.2" y1="192.4" x2="1531.2" y2="214.8"/>
	<path class="st1" d="M1539.5,214.8v-22.4V214.8z"/>
	<line class="st2" x1="1539.5" y1="192.4" x2="1539.5" y2="214.8"/>
	<path class="st1" d="M1547.8,214.8v-22.4V214.8z"/>
	<line class="st2" x1="1547.8" y1="192.4" x2="1547.8" y2="214.8"/>
	<path class="st1" d="M1556.1,214.8v-22.4V214.8z"/>
	<line class="st2" x1="1556.1" y1="192.4" x2="1556.1" y2="214.8"/>
	<polygon class="st3" points="1535,169.4 1513.6,178.2 1513.6,179.9 1535,179.9 1556.4,179.9 1556.4,178.2 	"/>
	<g>
		<polyline class="st4" points="1237.3,188.5 1237.3,170.9 1261.6,170.9 1261.6,227 		"/>
	</g>
	<rect x="1467" y="204" class="st5" width="13.2" height="23"/>
	<g>
		<polyline class="st6" points="1270.9,227 1270.9,188.2 1294.9,188.2 		"/>
		<line class="st7" x1="1295.9" y1="203.6" x2="1292.7" y2="203.6"/>
		<line class="st7" x1="1295.9" y1="211.3" x2="1292.7" y2="211.3"/>
		<line class="st7" x1="1295.9" y1="219" x2="1292.7" y2="219"/>
	</g>
	<g>
		<rect x="1487.3" y="179.2" class="st7" width="13.3" height="47.9"/>
	</g>
	<rect x="1366.7" y="185.1" class="st3" width="60.8" height="11.8"/>
	<line class="st3" x1="1366.7" y1="204.8" x2="1366.7" y2="227"/>
	<line class="st3" x1="1427.5" y1="204.8" x2="1427.5" y2="227"/>
	<polyline class="st3" points="1417.1,179.2 1417.1,156.2 1460.3,156.2 1460.3,227 	"/>
	<polyline class="st8" points="1407.8,227 1407.8,205.6 1386.4,205.6 1386.4,227 	"/>
	<polyline class="st4" points="1578.4,227 1578.4,213.8 1565.1,213.8 	"/>
	<polyline class="st9" points="1318.7,228.6 1318.7,207.2 1310.4,207.2 1310.4,163.5 1366.7,163.5 1366.7,179.1 	"/>
	<polyline class="st4" points="1353.1,227 1353.1,205.6 1331.8,205.6 1331.8,227 	"/>
	<g>
		<g>
			<line class="st10" x1="1449.1" y1="179.2" x2="1449.1" y2="174.3"/>
			<line class="st10" x1="1429" y1="179.2" x2="1429" y2="174.3"/>
			<line class="st10" x1="1439.1" y1="179.2" x2="1439.1" y2="174.3"/>
		</g>
		<g>
			<line class="st10" x1="1449.1" y1="168.4" x2="1449.1" y2="163.5"/>
			<line class="st10" x1="1429" y1="168.4" x2="1429" y2="163.5"/>
			<line class="st10" x1="1439.1" y1="168.4" x2="1439.1" y2="163.5"/>
		</g>
		<g>
			<line class="st10" x1="1449.1" y1="190" x2="1449.1" y2="185.1"/>
		</g>
	</g>
	<g>
		<g>
			<line class="st4" x1="1343.5" y1="178.3" x2="1343.5" y2="173.5"/>
			<line class="st4" x1="1353.6" y1="178.3" x2="1353.6" y2="173.5"/>
			<line class="st4" x1="1323.5" y1="178.3" x2="1323.5" y2="173.5"/>
			<line class="st4" x1="1333.5" y1="178.3" x2="1333.5" y2="173.5"/>
		</g>
	</g>
	<line class="st3" x1="1417.1" y1="149.5" x2="1460.3" y2="149.5"/>
	<rect x="1310.4" y="147" class="st4" width="56.3" height="8.2"/>
	<g>
		<line class="st2" x1="1514.6" y1="185.9" x2="1514.6" y2="187.2"/>
		<line class="st2" x1="1522.9" y1="185.9" x2="1522.9" y2="187.2"/>
		<line class="st2" x1="1531.2" y1="185.9" x2="1531.2" y2="187.2"/>
		<line class="st2" x1="1539.5" y1="185.9" x2="1539.5" y2="187.2"/>
		<line class="st2" x1="1547.8" y1="185.9" x2="1547.8" y2="187.2"/>
		<line class="st2" x1="1556.1" y1="185.9" x2="1556.1" y2="187.2"/>
	</g>
	<rect x="1507.6" y="221" class="st2" width="54.9" height="6"/>
	<polyline class="st4" points="1390.4,173.3 1390.4,65.5 1417.3,92.4 1417.3,140.6 	"/>
	<g>
		<line class="st4" x1="1406.8" y1="95.3" x2="1399" y2="95.3"/>
		<line class="st4" x1="1406.8" y1="146.4" x2="1399" y2="146.4"/>
		<line class="st4" x1="1406.8" y1="171.9" x2="1399" y2="171.9"/>
		<line class="st4" x1="1406.8" y1="159.1" x2="1399" y2="159.1"/>
		<line class="st4" x1="1406.8" y1="133.6" x2="1399" y2="133.6"/>
		<line class="st4" x1="1406.8" y1="120.8" x2="1399" y2="120.8"/>
		<line class="st4" x1="1406.8" y1="108" x2="1399" y2="108"/>
	</g>
	<rect x="1440.9" y="30.1" class="st11" width="36.5" height="8.3"/>
	<line class="st12" x1="1450.1" y1="24.1" x2="1468.2" y2="24.1"/>
	<line class="st12" x1="1450.1" y1="44.4" x2="1468.2" y2="44.4"/>
	<line class="st11" x1="1459.1" y1="18.2" x2="1459.1" y2="8.6"/>
	<line class="st9" x1="1459.1" y1="140.6" x2="1459.1" y2="50.2"/>
	<polyline class="st9" points="1493.9,169.5 1493.9,102.4 1535,102.4 1535,159.8 	"/>
	<polyline class="st3" points="1542.1,136.9 1551.5,136.9 1551.5,161.9 	"/>
	<g>
		<line class="st13" x1="1523.9" y1="131.5" x2="1523.9" y2="126.6"/>
		<line class="st13" x1="1503.9" y1="131.5" x2="1503.9" y2="126.6"/>
		<line class="st13" x1="1513.9" y1="131.5" x2="1513.9" y2="126.6"/>
	</g>
	<g>
		<line class="st13" x1="1523.9" y1="152" x2="1523.9" y2="147.1"/>
		<line class="st13" x1="1503.9" y1="152" x2="1503.9" y2="147.1"/>
		<line class="st13" x1="1513.9" y1="152" x2="1513.9" y2="147.1"/>
	</g>
	<g>
		<polyline class="st8" points="1565.1,193.8 1590.6,193.8 1590.6,213.3 1590.6,227 		"/>
		<line class="st8" x1="1565.1" y1="185.7" x2="1590.6" y2="185.7"/>
	</g>
	<g>
		<path class="st0" d="M1332.4,125.2v-15.8c0-19.6-5.4-38.8-15.6-55.5l-0.8-1.3c-1.1-1.8-3.8-1.8-4.9,0l-0.8,1.3
			c-10.2,16.7-15.6,35.9-15.6,55.5v72.2"/>
		<line class="st14" x1="1299.8" y1="118.9" x2="1319.4" y2="138.5"/>
		<line class="st14" x1="1299.8" y1="100" x2="1323.2" y2="123.5"/>
		<line class="st14" x1="1327.8" y1="118.9" x2="1308.2" y2="138.5"/>
		<line class="st14" x1="1327.8" y1="100" x2="1304.4" y2="123.5"/>
		<polyline class="st14" points="1310.6,73.1 1323.2,85.7 1299.8,109.1 		"/>
		<polyline class="st14" points="1317,73.1 1304.4,85.7 1327.8,109.1 		"/>
	</g>
	<g>
		<line id="XMLID_111_" class="st15" x1="1236.4" y1="229" x2="1236.4" y2="218.3"/>
		<circle id="XMLID_104_" class="st14" cx="1236.4" cy="208.9" r="9.5"/>
	</g>
	<g>
		<g>
			<path class="st16" d="M44.8,211.8v12h-3.5v-12H44.8 M48.8,207.8H37.3v20h11.5V207.8L48.8,207.8z"/>
		</g>
		<line class="st7" x1="37.3" y1="202.5" x2="48.8" y2="202.5"/>
		<g>
			<g>
				<path class="st17" d="M74.4,190.1v33.7H62.5v-33.7H74.4 M78.4,186.1H58.5v41.7h19.9V186.1L78.4,186.1z"/>
			</g>
			<line class="st7" x1="74" y1="207.4" x2="62.8" y2="207.4"/>
			<line class="st7" x1="74" y1="194" x2="62.8" y2="194"/>
			<line class="st7" x1="74" y1="200.7" x2="62.8" y2="200.7"/>
		</g>
	</g>
	<g>
		<g>
			<path class="st17" d="M469.2,206v17.8v0h-3.1V206H469.2 M473.2,202h-11.1v25.8h7.2h3.9v-4V202L473.2,202z"/>
		</g>
		<polyline class="st6" points="439.4,227.8 439.4,195.2 489.2,195.2 		"/>
	</g>
	<polyline class="st3" points="474,189 474,95.9 451.5,118.4 451.5,182.6 	"/>
	<g>
		<line class="st4" x1="462.6" y1="123.2" x2="468.9" y2="123.2"/>
		<line class="st4" x1="462.6" y1="166" x2="468.9" y2="166"/>
		<line class="st4" x1="462.6" y1="187.4" x2="468.9" y2="187.4"/>
		<line class="st4" x1="462.6" y1="176.7" x2="468.9" y2="176.7"/>
		<line class="st4" x1="462.6" y1="155.3" x2="468.9" y2="155.3"/>
		<line class="st4" x1="462.6" y1="144.6" x2="468.9" y2="144.6"/>
		<line class="st4" x1="462.6" y1="133.9" x2="468.9" y2="133.9"/>
	</g>
	<polyline class="st8" points="594.7,227.8 594.7,89.9 632.5,89.9 632.5,175.5 	"/>
	<line class="st11" x1="593.7" y1="84.1" x2="634.2" y2="84.1"/>
	<line class="st3" x1="607.2" y1="96.6" x2="607.2" y2="227.8"/>
	<polyline class="st9" points="774.3,190.2 774.3,101.8 808.8,101.8 808.8,227.8 	"/>
	<line class="st4" x1="782.2" y1="113.4" x2="801.7" y2="113.4"/>
	<line class="st4" x1="782.2" y1="129.6" x2="801.7" y2="129.6"/>
	<line class="st4" x1="782.2" y1="162" x2="801.7" y2="162"/>
	<line class="st4" x1="782.2" y1="145.8" x2="801.7" y2="145.8"/>
	<line class="st9" x1="774.3" y1="95.4" x2="808.8" y2="95.4"/>
	<polyline class="st3" points="817.1,154.3 837.2,154.3 837.2,227.8 	"/>
	<line class="st4" x1="782.2" y1="178" x2="801.7" y2="178"/>
	<line class="st4" x1="795.5" y1="210.1" x2="801.7" y2="210.1"/>
	<line class="st4" x1="785.8" y1="193.9" x2="801.7" y2="193.9"/>
	<g>
		<line id="XMLID_149_" class="st18" x1="775.7" y1="227.8" x2="775.7" y2="216.4"/>
		<circle id="XMLID_148_" class="st11" cx="775.7" cy="206.3" r="10.1"/>
	</g>
	<g>
		<line id="XMLID_147_" class="st18" x1="743.9" y1="227.8" x2="743.9" y2="216.4"/>
		<circle id="XMLID_146_" class="st11" cx="743.9" cy="206.3" r="10.1"/>
	</g>
	<polyline id="XMLID_145_" class="st8" points="678.7,227.8 678.5,112.2 716.3,131.3 716.3,147.1 	"/>
	<line id="XMLID_143_" class="st19" x1="690.8" y1="147.1" x2="690.8" y2="138.3"/>
	<line id="XMLID_142_" class="st19" x1="690.8" y1="167.9" x2="690.8" y2="159"/>
	<g>
		<line id="XMLID_139_" class="st18" x1="497.3" y1="220" x2="497.4" y2="227.8"/>
		<polygon id="XMLID_138_" class="st11" points="491.1,220.1 503.5,220 497.2,199.4 		"/>
	</g>
	<g>
		<path class="st16" d="M296.8,216.6v7.2h-3.5v-7.2H296.8 M300.8,212.6h-11.5v15.2h11.5V212.6L300.8,212.6z"/>
	</g>
	
		<rect x="701.2" y="155.1" transform="matrix(-1 -1.081006e-07 1.081006e-07 -1 1458.0635 317.0347)" class="st4" width="55.7" height="6.8"/>
	<polyline id="XMLID_136_" class="st11" points="630.8,227.8 630.8,183.4 667.3,183.4 667.3,227.8 	"/>
	<g>
		<g>
			<line id="XMLID_135_" class="st4" x1="637.8" y1="191.8" x2="641.7" y2="191.8"/>
			<line id="XMLID_134_" class="st4" x1="637.8" y1="199.4" x2="641.7" y2="199.4"/>
			<line id="XMLID_133_" class="st4" x1="637.8" y1="206.9" x2="641.7" y2="206.9"/>
		</g>
		<g>
			<line id="XMLID_132_" class="st4" x1="647.2" y1="191.8" x2="651" y2="191.8"/>
			<line id="XMLID_131_" class="st4" x1="647.2" y1="199.4" x2="651" y2="199.4"/>
			<line id="XMLID_130_" class="st4" x1="647.2" y1="206.9" x2="651" y2="206.9"/>
		</g>
		<g>
			<line id="XMLID_129_" class="st4" x1="656.5" y1="191.8" x2="660.3" y2="191.8"/>
			<line id="XMLID_128_" class="st4" x1="656.5" y1="199.4" x2="660.3" y2="199.4"/>
			<line id="XMLID_127_" class="st4" x1="656.5" y1="206.9" x2="660.3" y2="206.9"/>
		</g>
	</g>
	<g>
		<g>
			<line id="XMLID_126_" class="st3" x1="709.2" y1="181.4" x2="713" y2="181.4"/>
			<line id="XMLID_125_" class="st3" x1="709.2" y1="189" x2="713" y2="189"/>
		</g>
	</g>
	<g>
		<g>
			<line id="XMLID_123_" class="st3" x1="720.8" y1="181.4" x2="724.6" y2="181.4"/>
			<line id="XMLID_122_" class="st3" x1="720.8" y1="189" x2="724.6" y2="189"/>
		</g>
	</g>
	<g>
		<g>
			<line id="XMLID_118_" class="st3" x1="708.6" y1="198" x2="712.4" y2="198"/>
			<line id="XMLID_110_" class="st3" x1="708.6" y1="205.6" x2="712.4" y2="205.6"/>
		</g>
	</g>
	<g>
		<g>
			<line id="XMLID_106_" class="st3" x1="720.2" y1="198" x2="724.1" y2="198"/>
			<line id="XMLID_105_" class="st3" x1="720.2" y1="205.6" x2="724.1" y2="205.6"/>
		</g>
	</g>
	<polyline class="st4" points="756.9,190.2 756.9,169.9 701.2,169.9 701.2,227.8 	"/>
	<g>
		<rect x="516.1" y="191.3" class="st3" width="71" height="11.9"/>
		<line class="st3" x1="516.1" y1="208.5" x2="516.1" y2="227.8"/>
		<line class="st3" x1="587.1" y1="208.5" x2="587.1" y2="227.8"/>
		<polyline class="st8" points="562.8,227.8 562.8,209.2 544.2,209.2 544.2,227.8 		"/>
		<line class="st8" x1="553.5" y1="227.8" x2="553.5" y2="217.1"/>
	</g>
	<polyline class="st4" points="523.4,181 523.4,129.2 587.1,129.2 587.1,181 	"/>
	<line class="st3" x1="587.1" y1="123" x2="523.4" y2="123"/>
	<polyline class="st8" points="534.8,112.4 534.8,49.3 497.3,49.3 497.3,181 	"/>
	<line class="st11" x1="527.7" y1="61" x2="504.4" y2="61"/>
	<line class="st11" x1="527.7" y1="89.9" x2="504.4" y2="89.9"/>
	<rect x="504.4" y="71.5" class="st3" width="23.3" height="6.3"/>
	<g>
		<g>
			<g>
				<line class="st3" x1="564.8" y1="144.4" x2="564.8" y2="139.8"/>
				<line class="st3" x1="574.8" y1="144.4" x2="574.8" y2="139.8"/>
				<line class="st3" x1="544.8" y1="144.4" x2="544.8" y2="139.8"/>
				<line class="st3" x1="554.8" y1="144.4" x2="554.8" y2="139.8"/>
				<line class="st3" x1="534.8" y1="144.4" x2="534.8" y2="139.8"/>
			</g>
		</g>
		<g>
			<g>
				<line class="st3" x1="564.8" y1="159.8" x2="564.8" y2="155.3"/>
				<line class="st3" x1="574.8" y1="159.8" x2="574.8" y2="155.3"/>
				<line class="st3" x1="544.8" y1="159.8" x2="544.8" y2="155.3"/>
				<line class="st3" x1="554.8" y1="159.8" x2="554.8" y2="155.3"/>
				<line class="st3" x1="534.8" y1="159.8" x2="534.8" y2="155.3"/>
			</g>
		</g>
		<g>
			<g>
				<line class="st3" x1="564.8" y1="175.3" x2="564.8" y2="170.7"/>
				<line class="st3" x1="574.8" y1="175.3" x2="574.8" y2="170.7"/>
				<line class="st3" x1="544.8" y1="175.3" x2="544.8" y2="170.7"/>
				<line class="st3" x1="554.8" y1="175.3" x2="554.8" y2="170.7"/>
				<line class="st3" x1="534.8" y1="175.3" x2="534.8" y2="170.7"/>
			</g>
		</g>
	</g>
	<polyline class="st9" points="690.3,101.9 690.3,55.4 666.9,55.4 666.9,175.5 	"/>
	<line class="st11" x1="678.6" y1="101.8" x2="678.6" y2="47"/>
	<polyline class="st3" points="274.5,227.8 274.5,206.8 302.6,206.8 	"/>
	<line class="st3" x1="619.2" y1="96.6" x2="619.2" y2="175.5"/>
	<g>
		<polygon class="st14" points="4123.3,227.4 4014.7,227.4 4069,171.1 		"/>
		<g>
			<polygon class="st20" points="4150.4,227.4 4105.6,227.4 4128,204.2 			"/>
		</g>
	</g>
	<line class="st7" x1="3895.3" y1="79" x2="3895.3" y2="66.3"/>
	<g>
		<polyline class="st21" points="3862.5,147.3 3860,26.8 3817.5,26.8 3815,195.2 		"/>
		<line class="st14" x1="3838.8" y1="3.9" x2="3838.8" y2="22"/>
		<polyline class="st14" points="3850.4,37.5 3838.8,121.8 3827.1,37.5 		"/>
		<g>
			<line id="XMLID_289_" class="st15" x1="3991.1" y1="217.7" x2="3991.2" y2="227.4"/>
			<polygon id="XMLID_2_" class="st14" points="3985.3,217.8 3996.9,217.7 3991,198.4 			"/>
		</g>
		<g>
			<line id="XMLID_314_" class="st15" x1="3964.6" y1="227.4" x2="3964.6" y2="216.2"/>
			<circle id="XMLID_313_" class="st14" cx="3964.6" cy="206.1" r="10"/>
		</g>
		<polyline class="st22" points="3917.2,227.4 3917.2,171.1 3964.6,171.1 3964.6,187.7 		"/>
		<polyline class="st23" points="3903,227.4 3903,134.9 3928.9,134.9 3928.9,163 		"/>
		<polyline class="st3" points="3846.2,227.4 3846.2,155.8 3894.6,155.8 3894.6,227.4 		"/>
		<polyline class="st7" points="3879.3,147.3 3879.3,106.6 3905.2,106.6 3905.2,124.7 		"/>
		<polyline class="st7" points="3897.4,98.5 3897.4,83.2 3905.4,79 3913.4,83.2 3913.4,123.2 		"/>
		<line class="st14" x1="3821.6" y1="22" x2="3855.9" y2="22"/>
		<polyline class="st24" points="3783.2,227.4 3783.2,136.1 3803.2,136.1 		"/>
		<polyline class="st4" points="3835.9,227.4 3835.9,201.1 3793,201.1 		"/>
		<polyline class="st3" points="3736,163.7 3757.1,163.1 3757.1,227.4 		"/>
		<polyline class="st11" points="3766.4,227.4 3766.4,113.8 3791.3,99.4 3791.5,129.8 		"/>
		<g>
			<g>
				<g>
					<line id="XMLID_330_" class="st25" x1="3857.7" y1="167.7" x2="3861.5" y2="167.7"/>
					<line id="XMLID_329_" class="st25" x1="3857.7" y1="175.3" x2="3861.5" y2="175.3"/>
					<line id="XMLID_328_" class="st25" x1="3857.7" y1="182.9" x2="3861.5" y2="182.9"/>
				</g>
			</g>
			<g>
				<g>
					<line id="XMLID_327_" class="st25" x1="3869.4" y1="167.7" x2="3873.2" y2="167.7"/>
					<line id="XMLID_326_" class="st25" x1="3869.4" y1="175.3" x2="3873.2" y2="175.3"/>
					<line id="XMLID_325_" class="st25" x1="3869.4" y1="182.9" x2="3873.2" y2="182.9"/>
				</g>
			</g>
			<g>
				<g>
					<line id="XMLID_324_" class="st25" x1="3881" y1="167.7" x2="3884.8" y2="167.7"/>
					<line id="XMLID_323_" class="st25" x1="3881" y1="175.3" x2="3884.8" y2="175.3"/>
					<line id="XMLID_322_" class="st25" x1="3881" y1="182.9" x2="3884.8" y2="182.9"/>
				</g>
			</g>
		</g>
		<line class="st9" x1="3793" y1="211.8" x2="3827.1" y2="211.8"/>
		<line class="st14" x1="3791.5" y1="142.8" x2="3791.5" y2="193.8"/>
		<g>
			<g id="XMLID_333_">
				<line id="XMLID_334_" class="st26" x1="3916.4" y1="160.6" x2="3919.7" y2="160.5"/>
			</g>
			<g id="XMLID_331_">
				<line id="XMLID_332_" class="st26" x1="3916.3" y1="152.6" x2="3919.7" y2="152.6"/>
			</g>
			<g id="XMLID_320_">
				<line id="XMLID_321_" class="st26" x1="3916.3" y1="144.6" x2="3919.6" y2="144.6"/>
			</g>
		</g>
		<line class="st22" x1="3928.9" y1="227.4" x2="3928.9" y2="211.3"/>
	</g>
	<line class="st27" x1="3074" y1="10.6" x2="3074" y2="281.6"/>
	<g>
		<g>
			<line id="XMLID_336_" class="st18" x1="3536.8" y1="228.6" x2="3536.8" y2="221.3"/>
			<circle id="XMLID_335_" class="st11" cx="3536.8" cy="214.8" r="6.5"/>
		</g>
		<g>
			<polyline class="st28" points="3484.4,227.6 3484.4,200 3490.4,196.4 3490.4,127.2 3514.8,127.2 3514.8,181.3 			"/>
			<polyline class="st28" points="3495,121.5 3495,110.8 3510.1,110.8 3510.1,121.5 			"/>
			<line class="st28" x1="3510.1" y1="106.2" x2="3495" y2="106.2"/>
			<line class="st28" x1="3502.6" y1="106.2" x2="3502.6" y2="86.2"/>
			<line class="st28" x1="3502.6" y1="134.1" x2="3502.6" y2="181.3"/>
		</g>
		<polyline class="st3" points="3476.2,227.6 3476.2,155.2 3466.6,155.2 3466.6,172.8 		"/>
		<polyline class="st4" points="3466.6,227.6 3466.6,183 3448,183 		"/>
		<g>
			<line class="st22" x1="3458.4" y1="214.9" x2="3458.4" y2="212.5"/>
			<line class="st22" x1="3458.4" y1="194.5" x2="3458.4" y2="192.1"/>
			<line class="st22" x1="3458.4" y1="205.2" x2="3458.4" y2="202.9"/>
		</g>
		<polyline class="st2" points="3528.3,189.5 3506.6,189.5 3506.6,227.6 		"/>
		<polyline class="st24" points="3566.2,228.6 3566.2,174.6 3536.8,174.6 3536.8,201.8 		"/>
		<g>
			<g>
				<g>
					<line class="st4" x1="3544.2" y1="185.4" x2="3544.2" y2="183.1"/>
					<line class="st4" x1="3558.8" y1="185.4" x2="3558.8" y2="183.1"/>
					<line class="st4" x1="3551.5" y1="185.4" x2="3551.5" y2="183.1"/>
				</g>
				<g>
					<line class="st4" x1="3544.2" y1="196.2" x2="3544.2" y2="193.8"/>
					<line class="st4" x1="3558.8" y1="196.2" x2="3558.8" y2="193.8"/>
					<line class="st4" x1="3551.5" y1="196.2" x2="3551.5" y2="193.8"/>
				</g>
			</g>
		</g>
		<line class="st4" x1="3528.3" y1="197.2" x2="3512.5" y2="197.2"/>
	</g>
	<polyline class="st11" points="822.7,142.1 822.7,112.3 827.1,112.3 827.1,98.6 845.6,83.6 864,98.6 864,112.3 868.4,112.3 
		868.4,227.8 	"/>
	<g>
		<g>
			<g>
				<line class="st3" x1="1191.2" y1="200" x2="1191.2" y2="195.4"/>
				<line class="st3" x1="1171.3" y1="200" x2="1171.3" y2="195.4"/>
				<line class="st3" x1="1181.3" y1="200" x2="1181.3" y2="195.4"/>
			</g>
		</g>
	</g>
	<g>
		<polyline class="st4" points="282.7,175.5 299.8,14.4 322.5,227.8 		"/>
		<line class="st4" x1="298.2" y1="95.3" x2="290.5" y2="175.3"/>
	</g>
	<g>
		<line class="st8" x1="856.6" y1="123.5" x2="848.8" y2="123.5"/>
		<line class="st8" x1="856.6" y1="174.6" x2="848.8" y2="174.6"/>
		<line class="st8" x1="856.6" y1="200.1" x2="848.8" y2="200.1"/>
		<line class="st8" x1="856.6" y1="187.4" x2="848.8" y2="187.4"/>
		<line class="st8" x1="856.6" y1="161.8" x2="848.8" y2="161.8"/>
		<line class="st8" x1="856.6" y1="149" x2="848.8" y2="149"/>
		<line class="st8" x1="856.6" y1="136.3" x2="848.8" y2="136.3"/>
	</g>
	<polyline id="XMLID_302_" class="st9" points="1167.1,183.4 1215.4,183.4 1215.4,227.8 	"/>
	<polyline id="XMLID_297_" class="st3" points="1139.4,227.8 1139.4,151 1160.1,151 1160.1,227.8 	"/>
	<line class="st11" x1="1149.7" y1="142.1" x2="1149.7" y2="227.8"/>
	<polyline id="XMLID_296_" class="st22" points="1098.9,227.8 1098.9,189.4 1086.7,177.6 1074.9,189.4 1074.9,227.8 	"/>
	<line class="st4" x1="1082.9" y1="228" x2="1082.9" y2="214.5"/>
	<polyline id="XMLID_316_" class="st3" points="1060.4,160.1 1125.4,160.1 1125.4,227.8 	"/>
	<g>
		<line class="st4" x1="1115.9" y1="183.1" x2="1111.1" y2="183.1"/>
		<line class="st4" x1="1115.9" y1="196.5" x2="1111.1" y2="196.5"/>
		<line class="st4" x1="1115.9" y1="169.6" x2="1111.1" y2="169.6"/>
	</g>
	<path class="st19" d="M1721.2,174.3V48h1.7V32.1c0-7.4,6-23.3,13.3-23.3l11.2,0c7.4,0,13.3,16,13.3,23.3V48h1.7V227"/>
	<g>
		<polyline class="st8" points="1616.4,176.6 1616.4,169.5 1641.2,156.3 1641.2,150.3 1641.2,74.8 1650.6,70.6 1650.6,93.8 
			1665.1,103.1 1665.1,227 		"/>
		<line class="st8" x1="1641.2" y1="80.6" x2="1641.2" y2="59.1"/>
		<line class="st8" x1="1650.6" y1="76.8" x2="1650.6" y2="55.3"/>
	</g>
	<polyline id="XMLID_303_" class="st9" points="1701.9,227 1701.9,189.4 1738.3,189.4 1738.3,227 	"/>
	<line class="st4" x1="1701.9" y1="182.4" x2="1738.3" y2="182.4"/>
	<polyline id="XMLID_317_" class="st11" points="1674.1,227 1674.1,155.1 1695.1,155.1 1695.1,227 	"/>
	<polyline id="XMLID_337_" class="st8" points="1578.4,179.2 1578.4,147.1 1603.2,147.1 1603.2,227 	"/>
	<polyline id="XMLID_338_" class="st3" points="1611.3,227.6 1611.3,183.2 1655.2,183.2 1655.2,227.6 	"/>
	<g>
		<line class="st29" x1="1589" y1="157.2" x2="1585.8" y2="157.2"/>
		<line class="st29" x1="1589" y1="164.9" x2="1585.8" y2="164.9"/>
		<line class="st29" x1="1589" y1="172.6" x2="1585.8" y2="172.6"/>
	</g>
	<rect x="1616.4" y="189.9" class="st4" width="33.1" height="8.9"/>
	<line class="st22" x1="1616.4" y1="204.8" x2="1649.5" y2="204.8"/>
	<line id="XMLID_150_" class="st9" x1="1686.6" y1="168.2" x2="1686.6" y2="161.9"/>
	<line id="XMLID_117_" class="st9" x1="1686.6" y1="183.1" x2="1686.6" y2="176.8"/>
	<line id="XMLID_116_" class="st9" x1="1686.6" y1="197.9" x2="1686.5" y2="191.6"/>
	<g>
		<line class="st13" x1="1751.8" y1="61.5" x2="1751.8" y2="56.7"/>
		<line class="st13" x1="1731.8" y1="61.5" x2="1731.8" y2="56.7"/>
		<line class="st13" x1="1741.8" y1="61.5" x2="1741.8" y2="56.7"/>
	</g>
	<g>
		<line class="st13" x1="1751.8" y1="74.5" x2="1751.8" y2="69.7"/>
		<line class="st13" x1="1731.8" y1="74.5" x2="1731.8" y2="69.7"/>
		<line class="st13" x1="1741.8" y1="74.5" x2="1741.8" y2="69.7"/>
	</g>
	<g>
		<line class="st13" x1="1751.8" y1="100.5" x2="1751.8" y2="95.7"/>
		<line class="st13" x1="1731.8" y1="100.5" x2="1731.8" y2="95.7"/>
		<line class="st13" x1="1741.8" y1="100.5" x2="1741.8" y2="95.7"/>
	</g>
	<g>
		<line class="st13" x1="1751.8" y1="87.5" x2="1751.8" y2="82.7"/>
		<line class="st13" x1="1731.8" y1="87.5" x2="1731.8" y2="82.7"/>
		<line class="st13" x1="1741.8" y1="87.5" x2="1741.8" y2="82.7"/>
	</g>
	<g>
		<line class="st13" x1="1751.8" y1="113.5" x2="1751.8" y2="108.7"/>
		<line class="st13" x1="1731.8" y1="113.5" x2="1731.8" y2="108.7"/>
		<line class="st13" x1="1741.8" y1="113.5" x2="1741.8" y2="108.7"/>
	</g>
	<g>
		<line class="st13" x1="1751.8" y1="126.5" x2="1751.8" y2="121.7"/>
		<line class="st13" x1="1731.8" y1="126.5" x2="1731.8" y2="121.7"/>
		<line class="st13" x1="1741.8" y1="126.5" x2="1741.8" y2="121.7"/>
	</g>
	<g>
		<line class="st13" x1="1751.8" y1="152.5" x2="1751.8" y2="147.7"/>
		<line class="st13" x1="1731.8" y1="152.5" x2="1731.8" y2="147.7"/>
		<line class="st13" x1="1741.8" y1="152.5" x2="1741.8" y2="147.7"/>
	</g>
	<g>
		<line class="st13" x1="1751.8" y1="139.5" x2="1751.8" y2="134.7"/>
		<line class="st13" x1="1731.8" y1="139.5" x2="1731.8" y2="134.7"/>
		<line class="st13" x1="1741.8" y1="139.5" x2="1741.8" y2="134.7"/>
	</g>
	<polyline class="st8" points="1730.8,205.6 1717.8,205.6 1717.8,227 	"/>
	<polyline class="st3" points="209,175.5 199.4,132.7 199.4,99.2 192.7,99.2 186,77.6 179.2,99.2 172.5,99.2 172.5,132.7 
		160.6,186.1 	"/>
	<g>
		<line class="st28" x1="181.1" y1="112.3" x2="187.3" y2="112.3"/>
		<line class="st28" x1="181.1" y1="155.1" x2="187.3" y2="155.1"/>
		<line class="st28" x1="181.1" y1="144.4" x2="187.3" y2="144.4"/>
		<line class="st28" x1="181.1" y1="133.7" x2="187.3" y2="133.7"/>
		<line class="st28" x1="181.1" y1="123" x2="187.3" y2="123"/>
	</g>
	<polyline id="XMLID_151_" class="st22" points="178.3,227.8 178.3,182.6 236.2,182.6 236.2,189.8 	"/>
	<g>
		<line id="XMLID_153_" class="st18" x1="236.2" y1="227.8" x2="236.2" y2="216.4"/>
		<circle id="XMLID_152_" class="st11" cx="236.2" cy="206.3" r="10.1"/>
	</g>
	<g>
		<line id="XMLID_155_" class="st18" x1="155.3" y1="227.8" x2="155.3" y2="216.4"/>
		<circle id="XMLID_154_" class="st11" cx="155.3" cy="206.3" r="10.1"/>
	</g>
	<polyline id="XMLID_156_" class="st11" points="218,175.5 218,152.4 267.9,152.4 267.9,227.8 	"/>
	<line class="st8" x1="229" y1="175.8" x2="229" y2="159.5"/>
	<line class="st8" x1="235.7" y1="175.9" x2="235.7" y2="159.6"/>
	<g>
		<line id="XMLID_158_" class="st18" x1="118.1" y1="227.8" x2="118.1" y2="216.4"/>
		<circle id="XMLID_157_" class="st11" cx="118.1" cy="206.3" r="10.1"/>
	</g>
	<g>
		<polyline class="st8" points="208.9,227.8 208.9,209.2 190.3,209.2 		"/>
		<line class="st8" x1="199.6" y1="227.8" x2="199.6" y2="217.1"/>
	</g>
	<line class="st8" x1="274.6" y1="199.4" x2="303.5" y2="199.4"/>
	<polyline id="XMLID_160_" class="st11" points="92.7,227.8 92.7,152.1 128.3,152.1 128.3,190.1 	"/>
	<line class="st11" x1="92.7" y1="144.4" x2="128.3" y2="144.4"/>
	<line class="st11" x1="96" y1="138.3" x2="125" y2="138.3"/>
	<line class="st11" x1="110.5" y1="137" x2="110.5" y2="122.2"/>
	<rect x="98.8" y="159.6" class="st3" width="23.3" height="6.3"/>
	<polyline id="XMLID_161_" class="st22" points="74.5,177.3 74.5,100.9 98.4,100.9 98.4,129.6 	"/>
	<line class="st25" x1="2535.2" y1="137.6" x2="2535.2" y2="42.2"/>
	<polyline class="st25" points="3005.1,42.2 3005.1,219.8 2925.7,219.8 	"/>
	<line class="st25" x1="2500.4" y1="31.1" x2="2500.4" y2="137.6"/>
	<line class="st25" x1="2507.7" y1="31.1" x2="2507.7" y2="137.6"/>
	<line class="st25" x1="2514.9" y1="31.1" x2="2514.9" y2="137.6"/>
	<line class="st25" x1="2522.1" y1="31.1" x2="2522.1" y2="137.6"/>
	<path class="st25" d="M2500.4,13.1c3.4,0,6.2,2.8,6.2,6.2l9.4,0c0-3.4,2.8-6.2,6.2-6.2"/>
	<path class="st25" d="M2842.1,231.2l-46.5,0c0,3.4-2.8,6.2-6.2,6.2v36.6c3.4,0,6.2,2.8,6.2,6.2l45.8,0"/>
	<path class="st25" d="M2930.4,280.1l68.5,0c0-3.4,2.8-6.2,6.2-6.2v-36.6c-3.4,0-6.2-2.8-6.2-6.2l-72.6,0"/>
	<line class="st25" x1="3018.2" y1="31.1" x2="3018.2" y2="219.8"/>
	<line class="st25" x1="3025.4" y1="31.1" x2="3025.4" y2="219.8"/>
	<line class="st25" x1="3032.6" y1="31.1" x2="3032.6" y2="219.8"/>
	<line class="st25" x1="3039.9" y1="31.1" x2="3039.9" y2="219.8"/>
	<path class="st25" d="M3018.2,13.1c3.4,0,6.2,2.8,6.2,6.2l9.4,0c0-3.4,2.8-6.2,6.2-6.2"/>
	<path class="st25" d="M3039.9,273.9v-36.6c-3.4,0-6.2-2.8-6.2-6.2h-9.4c0,3.4-2.8,6.2-6.2,6.2v36.6c3.4,0,6.2,2.8,6.2,6.2h9.4
		C3033.7,276.7,3036.5,273.9,3039.9,273.9z"/>
	<path class="st30" d="M2565.5,11.2l0,17.8c3.8,3.8,9,6.1,14.8,6.1s11-2.3,14.8-6.1V11.2"/>
	<path class="st31" d="M2530.9,11.2V29c3.8,3.8,9,6.1,14.8,6.1s11-2.3,14.8-6.1V11.2"/>
	<path class="st30" d="M2995.2,36.1c5.8,0,11-2.3,14.8-6.1l0-17.8"/>
	<line class="st30" x1="2980.4" y1="11.2" x2="2980.4" y2="18.6"/>
	<line class="st31" x1="2975.5" y1="18.6" x2="2975.5" y2="11.2"/>
	<line class="st31" x1="2945.8" y1="11.2" x2="2945.8" y2="18.6"/>
	<path class="st32" d="M2982.6,147.7h4.9V130c-7.9,0-13.2,8.9-16.5,8.9h-6.7v8.8h8c0,0,4.8-8.8,9.5-8.8"/>
	<line class="st32" x1="2967.8" y1="128.5" x2="2967.8" y2="134.6"/>
	<path class="st32" d="M2761.7,178.7c0-4.5-1.1-7.1-2.9-10.7c0,0,0.2-5.9,2.9-8l10.2,12c0,0,8.4,0.5,9.6,5.4h-11.4"/>
	<path class="st32" d="M2594.7,121c0-4.5,1.1-7.1,2.9-10.7c0,0-0.2-5.9-2.9-8l-10.2,12c0,0-8.4,0.5-9.6,5.4l11.4,0"/>
	<path class="st32" d="M2794,150.8c0-3.1,1.8-5.5,9-8c7.2-2.6,5.9-11.6,5.9-11.6l-3.3-37.9l13.1,0c0,0-0.6,22.6-0.3,40.6
		c0.1,6.4,1.4,13.3,1.4,16.8"/>
	<path class="st32" d="M2807.4,150.8c0-2.6-0.3-2.1,6.7-4v4"/>
	<path class="st32" d="M2939.2,193v8.5l21.8,0c0,0-0.1-3.5-3.5-4.2c-2.5-0.6-10.3-0.4-10.3-4.2"/>
	<line class="st32" x1="2937.8" y1="189.8" x2="2948.3" y2="189.8"/>
	<line class="st32" x1="2937.8" y1="185.3" x2="2948.3" y2="185.3"/>
	<polyline class="st32" points="2752.6,213.5 2752.6,182.5 2787.3,182.5 2787.3,214.2 	"/>
	<polyline class="st32" points="2927.1,206.3 2997.5,206.3 2997.5,214.2 	"/>
	<polyline class="st32" points="2781.9,155.5 2826.3,155.5 2826.3,214.2 	"/>
	<polyline class="st32" points="2961.3,191.1 2961.3,153 2993.5,153 2993.5,201.5 	"/>
	<polyline class="st32" points="2565.4,176.7 2565.4,124.5 2602.1,124.5 	"/>
	<polyline class="st25" points="2030.4,215.7 2030.4,280.1 2069.6,280.1 	"/>
	<polyline class="st25" points="2143,280.1 2375.1,280.1 2375.1,40.1 2204,40.1 	"/>
	<line class="st27" x1="1982" y1="281.6" x2="1982" y2="10.6"/>
	<line class="st25" x1="2403.5" y1="53.8" x2="2432.5" y2="53.8"/>
	<line class="st25" x1="2407.8" y1="46.8" x2="2428.2" y2="46.8"/>
	<line class="st25" x1="2412.4" y1="40.2" x2="2423.6" y2="40.2"/>
	<line class="st25" x1="2432.5" y1="119" x2="2403.5" y2="119"/>
	<line class="st25" x1="2428.2" y1="126" x2="2407.8" y2="126"/>
	<line class="st25" x1="2423.6" y1="132.6" x2="2412.4" y2="132.6"/>
	<g>
		<defs>
			<rect id="SVGID_1_" x="2407.8" y="58.1" width="20.4" height="56.2"/>
		</defs>
		<clipPath id="SVGID_2_">
			<use xlink:href="#SVGID_1_"  style="overflow:visible;"/>
		</clipPath>
		<line class="st33" x1="2401" y1="68.1" x2="2437" y2="32.1"/>
		<line class="st34" x1="2401" y1="82.1" x2="2437" y2="46.1"/>
		<line class="st33" x1="2401" y1="96.1" x2="2437" y2="60.1"/>
		<line class="st34" x1="2401" y1="110" x2="2437" y2="74"/>
		<line class="st33" x1="2401" y1="124" x2="2437" y2="88"/>
		<line class="st34" x1="2401" y1="138" x2="2437" y2="102"/>
		<line class="st33" x1="2401" y1="151.9" x2="2437" y2="115.9"/>
		<line class="st34" x1="2401" y1="165.9" x2="2437" y2="129.9"/>
	</g>
	<polyline class="st32" points="2204,103.1 2341.5,103.1 2341.5,70.2 2204,70.2 	"/>
	<line class="st32" x1="2326.2" y1="46.3" x2="2326.2" y2="64.1"/>
	<polyline class="st32" points="2349,272.3 2349,192.1 2313.6,192.1 2313.6,272.3 	"/>
	<polyline class="st32" points="2187.2,272.3 2187.2,201.3 2148,201.3 	"/>
	<polyline class="st32" points="2238.4,272.3 2238.4,176.1 2197.4,176.1 2197.4,272.3 	"/>
	<path class="st32" d="M2148,172.3h27.2l5.3,18.7c0,0-5.1,2.5-14.4,3.1c-1.4,0.1-16.5,0.2-18.1,0.2"/>
	<g>
		<defs>
			<rect id="SVGID_3_" x="2147" y="156.1" width="25.5" height="12.6"/>
		</defs>
		<clipPath id="SVGID_4_">
			<use xlink:href="#SVGID_3_"  style="overflow:visible;"/>
		</clipPath>
		<ellipse class="st35" cx="2159.6" cy="175" rx="9.1" ry="14.4"/>
	</g>
	<g>
		<defs>
			<rect id="SVGID_5_" x="2318.5" y="140.7" width="25.5" height="22.5"/>
		</defs>
		<clipPath id="SVGID_6_">
			<use xlink:href="#SVGID_5_"  style="overflow:visible;"/>
		</clipPath>
		<ellipse class="st36" cx="2331.1" cy="160.9" rx="9.1" ry="14.4"/>
	</g>
	<polygon class="st32" points="2321.7,186.4 2341.1,186.4 2343.9,167.2 2318.9,167.2 	"/>
	<rect x="2204.8" y="155.6" class="st32" width="28.2" height="14.8"/>
	<line class="st27" x1="2465.2" y1="10.6" x2="2465.2" y2="137.6"/>
	<polyline id="XMLID_3_" class="st11" points="404.7,227.8 404.7,161.8 441.2,161.8 	"/>
	<g>
		<g>
			<line id="XMLID_10_" class="st3" x1="416.2" y1="173.1" x2="420" y2="173.1"/>
			<line id="XMLID_9_" class="st3" x1="416.2" y1="180.6" x2="420" y2="180.6"/>
		</g>
	</g>
	<g>
		<g>
			<line id="XMLID_8_" class="st3" x1="415.6" y1="189.7" x2="419.4" y2="189.7"/>
			<line id="XMLID_7_" class="st3" x1="415.6" y1="197.2" x2="419.4" y2="197.2"/>
		</g>
	</g>
	<polyline id="XMLID_11_" class="st22" points="386.3,227.8 386.3,121.9 410.2,121.9 410.2,150.6 	"/>
	<g>
		<polyline class="st4" points="364.2,206.2 353.1,206.2 353.1,227.8 		"/>
		<polyline class="st6" points="372.2,227.8 372.2,195.2 330.5,195.2 		"/>
	</g>
	<polyline id="XMLID_12_" class="st4" points="354.8,188.3 354.8,158.6 372.3,158.6 372.3,188.3 	"/>
	<line class="st22" x1="363.6" y1="187.6" x2="363.6" y2="173.5"/>
	<line class="st37" x1="1734.9" y1="8.4" x2="1734.9" y2="1.9"/>
	<line class="st37" x1="1748.7" y1="8.4" x2="1748.7" y2="1.9"/>
	<polyline class="st32" points="2304.5,229 2260.4,229 2260.4,272.3 	"/>
	<polygon class="st32" points="2265.8,223.6 2296.7,223.6 2293.7,202.3 2268.8,202.3 	"/>
	<g>
		<defs>
			<rect id="SVGID_7_" x="2268.5" y="185.6" width="25.5" height="12.6"/>
		</defs>
		<clipPath id="SVGID_8_">
			<use xlink:href="#SVGID_7_"  style="overflow:visible;"/>
		</clipPath>
		<ellipse class="st38" cx="2281.1" cy="204.5" rx="9.1" ry="14.4"/>
	</g>
	<line class="st31" x1="2871.7" y1="29" x2="2871.7" y2="11.2"/>
	<path class="st31" d="M2842.1,11.2l0,17.8c1.3,1.3,2.8,2.5,4.5,3.4"/>
	<path class="st31" d="M2807.5,11.2V29c3.8,3.8,9,6.1,14.8,6.1c5.8,0,11-2.3,14.8-6.1l0-17.8"/>
	<path class="st31" d="M2772.9,11.2V29c3.8,3.8,9,6.1,14.8,6.1c5.8,0,11-2.3,14.8-6.1V11.2"/>
	<path class="st31" d="M2738.3,11.2V29c3.8,3.8,9,6.1,14.8,6.1s11-2.3,14.8-6.1V11.2"/>
	<path class="st31" d="M2724.2,34.4c3.5-1,6.7-2.8,9.2-5.4l0-17.8"/>
	<line class="st31" x1="2703.8" y1="11.2" x2="2703.8" y2="26"/>
	<line class="st31" x1="2698.8" y1="26" x2="2698.8" y2="11.2"/>
	<path class="st31" d="M2669.2,11.2V29c3.8,3.8,9,6.1,14.8,6.1"/>
	<path class="st31" d="M2634.6,11.2V29c3.8,3.8,9,6.1,14.8,6.1s11-2.3,14.8-6.1V11.2"/>
	<path class="st31" d="M2600,11.2V29c3.8,3.8,9,6.1,14.8,6.1c5.8,0,11-2.3,14.8-6.1l0-17.8"/>
	<line class="st31" x1="2940.9" y1="18.6" x2="2940.9" y2="11.2"/>
	<path class="st31" d="M2911.2,11.2V29c1.6,1.5,3.3,2.8,5.3,3.8"/>
	<path class="st31" d="M2898.4,34c3-1,5.7-2.8,7.9-4.9V11.2"/>
	<line class="st31" x1="2876.6" y1="11.2" x2="2876.6" y2="29"/>
	<path class="st25" d="M2764.6,280.1l7.2,0c0-3.4,2.8-6.2,6.2-6.2l0-36.6c-3.4,0-6.2-2.8-6.2-6.2l-41,0"/>
	<line class="st25" x1="2644.1" y1="231.2" x2="2613.7" y2="231.2"/>
	<line class="st25" x1="2644.1" y1="219.8" x2="2613.7" y2="219.8"/>
	<line class="st25" x1="2841.4" y1="219.8" x2="2726.5" y2="219.8"/>
	<line class="st7" x1="1050.4" y1="101.7" x2="1050.4" y2="89.1"/>
	<polyline class="st22" points="973.6,192.6 973.6,136.3 1021,136.3 1021,152.9 	"/>
	<polyline class="st23" points="959.4,192.6 959.4,100.1 985.3,100.1 985.3,128.2 	"/>
	<polyline class="st7" points="1034.3,163.8 1034.3,129.4 1060.2,129.4 1060.2,147.5 	"/>
	<polyline class="st7" points="1052.4,121.3 1052.4,105.9 1060.4,101.7 1068.4,105.9 1068.4,145.9 	"/>
	<g>
		<polyline class="st24" points="926.2,227.8 926.2,136.4 946.2,136.4 		"/>
		<polyline class="st4" points="985.9,227.8 985.9,201.5 936,201.5 		"/>
		<polyline class="st3" points="879,164.1 900.1,163.5 900.1,227.8 		"/>
		<polyline class="st11" points="909.4,227.8 909.4,114.1 934.3,99.8 934.5,130.2 		"/>
		<line class="st9" x1="936" y1="212.2" x2="977.1" y2="212.2"/>
		<line class="st14" x1="934.5" y1="143.2" x2="934.5" y2="194.1"/>
	</g>
	<g>
		<g id="XMLID_455_">
			<line id="XMLID_456_" class="st26" x1="972.8" y1="125.8" x2="976.1" y2="125.7"/>
		</g>
		<g id="XMLID_453_">
			<line id="XMLID_454_" class="st26" x1="972.8" y1="117.8" x2="976.1" y2="117.8"/>
		</g>
		<g id="XMLID_451_">
			<line id="XMLID_452_" class="st26" x1="972.7" y1="109.8" x2="976.1" y2="109.8"/>
		</g>
	</g>
	<line class="st22" x1="985.3" y1="192.6" x2="985.3" y2="176.5"/>
	<g>
		<g>
			<line id="XMLID_107_" class="st18" x1="1029.4" y1="227.8" x2="1029.4" y2="220.5"/>
			<circle id="XMLID_13_" class="st11" cx="1029.4" cy="214" r="6.5"/>
		</g>
		<polyline class="st2" points="1020.9,188.6 999.2,188.6 999.2,226.8 		"/>
		<polyline class="st24" points="1058.8,227.8 1058.8,173.7 1029.4,173.7 1029.4,201 		"/>
		<g>
			<g>
				<g>
					<line class="st4" x1="1036.8" y1="184.6" x2="1036.8" y2="182.3"/>
					<line class="st4" x1="1051.4" y1="184.6" x2="1051.4" y2="182.3"/>
					<line class="st4" x1="1044.1" y1="184.6" x2="1044.1" y2="182.3"/>
				</g>
				<g>
					<line class="st4" x1="1036.8" y1="195.3" x2="1036.8" y2="193"/>
					<line class="st4" x1="1051.4" y1="195.3" x2="1051.4" y2="193"/>
					<line class="st4" x1="1044.1" y1="195.3" x2="1044.1" y2="193"/>
				</g>
			</g>
		</g>
		<line class="st4" x1="1020.9" y1="196.4" x2="1005.2" y2="196.4"/>
	</g>
	<polyline class="st3" points="1769.7,130.4 1779.1,130.4 1779.1,226.2 	"/>
</g>
<g>
	<path id="XMLID_58_" class="st39" d="M2884.1,91.1"/>
	<path id="XMLID_57_" class="st39" d="M2889.4,103.6"/>
	<path id="XMLID_54_" class="st40" d="M2863.4,105.3c0,6.9,1.5,15.6,3,21.8c2.7,11.1,6.4,27.1,6.4,27.1l-19.8,75h55.8L2896.1,102"/>
	<g>
		<path id="XMLID_53_" class="st10" d="M2890.2,236.4c1.7,17.1,17.1,86.1,17.1,86.1h9.3l-8.3-87.9"/>
	</g>
	<path id="XMLID_52_" class="st10" d="M2861.9,101.2c0-9.2,4.7-12.7,15.7-12.4c0.9,0,21.7,1.1,35,1.7c7.1,0.4,14.2-1.2,20.5-4.4
		l27.5-15.4c2.3-1.3,3.6-3.6,3.6-6.2v-5.5"/>
	<g id="XMLID_49_">
		<defs>
			<polygon id="XMLID_50_" points="2896.1,52.9 2876.3,52.9 2864,68 2856.7,68 2856.7,30.4 2896.1,30.4 			"/>
		</defs>
		<clipPath id="XMLID_4_">
			<use xlink:href="#XMLID_50_"  style="overflow:visible;"/>
		</clipPath>
		<circle id="XMLID_51_" class="st41" cx="2876.3" cy="52.3" r="13.1"/>
	</g>
	<line id="XMLID_48_" class="st42" x1="2878.5" y1="50.7" x2="2888.6" y2="50.7"/>
	<path id="XMLID_47_" class="st42" d="M2867.3,42.9l-2-1.6c-6.2-4.9-15.3-0.5-15.3,7.4v10.3c0,4.7-1.8,10.7-8.5,12.4
		c0,0,1.7,9.2,12.2,9.2c6.9,0,10.5-5.3,10.5-8.1"/>
	<g id="XMLID_44_">
		<defs>
			<path id="XMLID_45_" d="M2869.6,80.7l5.8-24.6c7.6,0,13.2,0,17.4,0l-2.4,33.2L2869.6,80.7z"/>
		</defs>
		<clipPath id="XMLID_5_">
			<use xlink:href="#XMLID_45_"  style="overflow:visible;"/>
		</clipPath>
		<path id="XMLID_46_" class="st43" d="M2873.6,81.7l3-7.6c7.9,1.7,12.5-4.3,12.5-11.4c0-2.5,0-11.7,0-14.6"/>
	</g>
	<line id="XMLID_43_" class="st44" x1="2919.8" y1="331.3" x2="2905.6" y2="331.3"/>
	<g>
		<path id="XMLID_42_" class="st10" d="M2878.8,236.4c-1.7,17.1-17.1,86.1-17.1,86.1h-9.3l8.3-87.9"/>
	</g>
	<line id="XMLID_41_" class="st44" x1="2849.2" y1="331.3" x2="2863.4" y2="331.3"/>
	<line class="st7" x1="2955.2" y1="65.8" x2="2955.2" y2="46.5"/>
	<path class="st45" d="M2906,101.2l17.2,16.9c4.9,4.8,5.2,12.6,0.6,17.7l-15.3,17.3"/>
</g>
</svg>
