<?xml version="1.0" encoding="utf-8"?>
<!-- Generator: Adobe Illustrator 19.1.0, SVG Export Plug-In . SVG Version: 6.00 Build 0)  -->
<svg version="1.1" id="Layer_1" xmlns="http://www.w3.org/2000/svg" xmlns:xlink="http://www.w3.org/1999/xlink" x="0px" y="0px"
	 viewBox="3041 -126 4195 303" style="enable-background:new 3041 -126 4195 303;" xml:space="preserve">
<style type="text/css">
	.st0{fill:#FFFFFF;}
	.st1{fill:none;stroke:#000000;stroke-width:3;stroke-linecap:square;stroke-miterlimit:10;}
	.st2{fill:none;stroke:#6A817C;stroke-width:3;stroke-linecap:square;stroke-miterlimit:10;}
	.st3{fill:none;stroke:#56C5D0;stroke-width:3;stroke-linecap:square;stroke-miterlimit:10;}
	.st4{fill:none;stroke:#F69677;stroke-width:3;stroke-miterlimit:10;}
	.st5{fill:none;stroke:#231F1F;stroke-width:3;stroke-linecap:square;stroke-miterlimit:10;}
	.st6{fill:none;stroke:#56C5D0;stroke-width:3;stroke-miterlimit:10;}
	.st7{fill:none;stroke:#F69679;stroke-width:3;stroke-linecap:square;stroke-miterlimit:10;}
	.st8{fill:none;stroke:#231F20;stroke-width:3;stroke-linecap:square;stroke-miterlimit:10;}
	.st9{fill:none;stroke:#231F20;stroke-width:3;stroke-miterlimit:10;}
	.st10{fill:none;stroke:#00B48D;stroke-width:3;stroke-linecap:square;stroke-miterlimit:10;}
	.st11{fill:none;stroke:#F69677;stroke-width:3;stroke-linecap:square;stroke-miterlimit:10;}
	.st12{fill:none;stroke:#00B388;stroke-width:3;stroke-miterlimit:10;}
	.st13{fill:none;stroke:#231F1F;stroke-width:3;stroke-miterlimit:10;}
	.st14{fill:none;stroke:#00B48D;stroke-width:3;stroke-miterlimit:10;}
	.st15{fill:none;stroke:#17181B;stroke-width:3;stroke-miterlimit:10;}
	.st16{fill:#F69677;}
	.st17{fill:#56C5D0;}
	.st18{fill:none;stroke:#17181B;stroke-width:3;stroke-linecap:square;stroke-miterlimit:10;}
	.st19{fill:none;stroke:#C6C9C9;stroke-width:3;stroke-linecap:square;stroke-miterlimit:10;}
	.st20{fill:#FFFFFF;stroke:#6A817C;stroke-width:3;stroke-miterlimit:10;}
	.st21{fill:none;stroke:#F69679;stroke-width:3;stroke-miterlimit:10;}
	.st22{fill:none;stroke:#67506C;stroke-width:3;stroke-linecap:square;stroke-miterlimit:10;}
	.st23{fill:none;stroke:#162532;stroke-width:3;stroke-linecap:square;stroke-miterlimit:10;}
	.st24{fill:none;stroke:#F68D70;stroke-width:3;stroke-linecap:square;stroke-miterlimit:10;}
	.st25{fill:none;stroke:#6A817C;stroke-width:3;stroke-miterlimit:10;}
	.st26{fill:none;stroke:#F59278;stroke-width:3;stroke-linecap:square;stroke-miterlimit:10;}
	.st27{fill:none;stroke:#00B388;stroke-width:3;stroke-linecap:square;stroke-miterlimit:10;}
	.st28{fill:none;stroke:#000000;stroke-width:3;stroke-miterlimit:10;}
	.st29{fill:#FFFFFF;stroke:#C6C9C9;stroke-miterlimit:10;}
	.st30{fill:none;stroke:#C6C9C9;stroke-width:3;stroke-miterlimit:10;}
	.st31{fill:none;stroke:#CACCCE;stroke-width:3;stroke-miterlimit:10;}
	.st32{fill:none;stroke:#00B288;stroke-width:3;stroke-miterlimit:10;}
	.st33{clip-path:url(#XMLID_2_);fill:#FFFFFF;stroke:#F68D70;stroke-width:3;stroke-miterlimit:10;}
	.st34{fill:none;stroke:#F68D70;stroke-width:3;stroke-miterlimit:10;}
	.st35{clip-path:url(#XMLID_3_);fill:#FFFFFF;stroke:#231F20;stroke-width:3;stroke-miterlimit:10;}
	.st36{fill:#FFFFFF;stroke:#17181B;stroke-width:3;stroke-miterlimit:10;}
	.st37{clip-path:url(#SVGID_2_);fill:none;stroke:#00B48D;stroke-width:3;stroke-miterlimit:10;}
	.st38{clip-path:url(#SVGID_2_);fill:none;stroke:#2B4356;stroke-width:3;stroke-miterlimit:10;}
	.st39{clip-path:url(#SVGID_4_);fill:none;stroke:#CACCCE;stroke-width:3;stroke-miterlimit:10;}
	.st40{clip-path:url(#SVGID_6_);fill:none;stroke:#CACCCE;stroke-width:3;stroke-miterlimit:10;}
	.st41{fill:#FFFFFF;stroke:#00B48D;stroke-width:3;stroke-miterlimit:10;}
</style>
<path class="st0" d="M4603.9,147.2v-26.8V147.2z"/>
<line class="st1" x1="4603.9" y1="120.4" x2="4603.9" y2="147.2"/>
<path class="st0" d="M4613.9,147.2v-26.8V147.2z"/>
<line class="st1" x1="4613.9" y1="120.4" x2="4613.9" y2="147.2"/>
<path class="st0" d="M4623.8,147.2l0-26.8L4623.8,147.2z"/>
<line class="st1" x1="4623.8" y1="120.4" x2="4623.8" y2="147.2"/>
<path class="st0" d="M4633.8,147.2v-26.8V147.2z"/>
<line class="st1" x1="4633.8" y1="120.4" x2="4633.8" y2="147.2"/>
<path class="st0" d="M4643.7,147.2v-26.8V147.2z"/>
<line class="st1" x1="4643.7" y1="120.4" x2="4643.7" y2="147.2"/>
<path class="st0" d="M4653.6,147.2v-26.8V147.2z"/>
<line class="st1" x1="4653.6" y1="120.4" x2="4653.6" y2="147.2"/>
<polygon class="st2" points="4628.4,92.9 4602.8,103.4 4602.8,105.5 4628.4,105.5 4654,105.5 4654,103.4 "/>
<g>
	<polyline class="st3" points="4272.2,115.7 4272.2,94.7 4301.3,94.7 4301.3,161.9 	"/>
</g>
<rect x="4547" y="134.3" class="st4" width="15.8" height="27.5"/>
<g>
	<polyline class="st5" points="4312.5,161.9 4312.5,115.4 4341.2,115.4 	"/>
	<line class="st6" x1="4342.4" y1="133.8" x2="4338.5" y2="133.8"/>
	<line class="st6" x1="4342.4" y1="143" x2="4338.5" y2="143"/>
	<line class="st6" x1="4342.4" y1="152.2" x2="4338.5" y2="152.2"/>
</g>
<g>
	<rect x="4571.2" y="104.6" class="st6" width="15.8" height="57.2"/>
</g>
<rect x="4427" y="111.8" class="st2" width="72.8" height="14.1"/>
<line class="st2" x1="4427" y1="135.3" x2="4427" y2="161.9"/>
<line class="st2" x1="4499.8" y1="135.3" x2="4499.8" y2="161.9"/>
<polyline class="st2" points="4487.3,104.6 4487.3,77.1 4539.1,77.1 4539.1,161.9 "/>
<polyline class="st7" points="4476.2,161.9 4476.2,136.3 4450.6,136.3 4450.6,161.9 "/>
<polyline class="st3" points="4680.2,161.9 4680.2,146 4664.4,146 "/>
<polyline class="st8" points="4369.6,163.7 4369.6,138.2 4359.7,138.2 4359.7,85.8 4427,85.8 4427,104.6 "/>
<polyline class="st3" points="4410.8,161.9 4410.8,136.3 4385.3,136.3 4385.3,161.9 "/>
<g>
	<g>
		<line class="st9" x1="4525.6" y1="104.6" x2="4525.6" y2="98.8"/>
		<line class="st9" x1="4501.6" y1="104.6" x2="4501.6" y2="98.8"/>
		<line class="st9" x1="4513.6" y1="104.6" x2="4513.6" y2="98.8"/>
	</g>
	<g>
		<line class="st9" x1="4525.6" y1="91.7" x2="4525.6" y2="85.9"/>
		<line class="st9" x1="4501.6" y1="91.7" x2="4501.6" y2="85.9"/>
		<line class="st9" x1="4513.6" y1="91.7" x2="4513.6" y2="85.9"/>
	</g>
	<g>
		<line class="st9" x1="4525.6" y1="117.6" x2="4525.6" y2="111.8"/>
	</g>
</g>
<g>
	<g>
		<line class="st3" x1="4399.4" y1="103.6" x2="4399.4" y2="97.8"/>
		<line class="st3" x1="4411.4" y1="103.6" x2="4411.4" y2="97.8"/>
		<line class="st3" x1="4375.4" y1="103.6" x2="4375.4" y2="97.8"/>
		<line class="st3" x1="4387.4" y1="103.6" x2="4387.4" y2="97.8"/>
	</g>
</g>
<line class="st2" x1="4487.3" y1="69.2" x2="4539.1" y2="69.2"/>
<rect x="4359.7" y="66.1" class="st3" width="67.3" height="9.8"/>
<g>
	<line class="st1" x1="4603.9" y1="112.7" x2="4603.9" y2="114.2"/>
	<line class="st1" x1="4613.9" y1="112.7" x2="4613.9" y2="114.2"/>
	<line class="st1" x1="4623.8" y1="112.7" x2="4623.8" y2="114.2"/>
	<line class="st1" x1="4633.8" y1="112.7" x2="4633.8" y2="114.2"/>
	<line class="st1" x1="4643.7" y1="112.7" x2="4643.7" y2="114.2"/>
	<line class="st1" x1="4653.6" y1="112.7" x2="4653.6" y2="114.2"/>
</g>
<rect x="4595.6" y="154.6" class="st1" width="65.6" height="7.2"/>
<polyline class="st3" points="4455.4,97.6 4455.4,-31.3 4487.6,0.8 4487.6,58.5 "/>
<g>
	<line class="st3" x1="4475" y1="4.3" x2="4465.7" y2="4.3"/>
	<line class="st3" x1="4475" y1="65.4" x2="4465.7" y2="65.4"/>
	<line class="st3" x1="4475" y1="95.9" x2="4465.7" y2="95.9"/>
	<line class="st3" x1="4475" y1="80.6" x2="4465.7" y2="80.6"/>
	<line class="st3" x1="4475" y1="50.1" x2="4465.7" y2="50.1"/>
	<line class="st3" x1="4475" y1="34.8" x2="4465.7" y2="34.8"/>
	<line class="st3" x1="4475" y1="19.5" x2="4465.7" y2="19.5"/>
</g>
<rect x="4515.8" y="-73.7" class="st10" width="43.7" height="9.9"/>
<line class="st11" x1="4526.8" y1="-80.9" x2="4548.4" y2="-80.9"/>
<line class="st11" x1="4526.8" y1="-56.6" x2="4548.4" y2="-56.6"/>
<line class="st10" x1="4537.6" y1="-87.9" x2="4537.6" y2="-99.4"/>
<line class="st8" x1="4537.6" y1="58.5" x2="4537.6" y2="-49.6"/>
<polyline class="st8" points="4579.2,93 4579.2,12.8 4628.4,12.8 4628.4,81.5 "/>
<polyline class="st2" points="4636.8,54.1 4648.1,54.1 4648.1,83.9 "/>
<g>
	<line class="st12" x1="4615.1" y1="47.6" x2="4615.1" y2="41.8"/>
	<line class="st12" x1="4591.1" y1="47.6" x2="4591.1" y2="41.8"/>
	<line class="st12" x1="4603.1" y1="47.6" x2="4603.1" y2="41.8"/>
</g>
<g>
	<line class="st12" x1="4615.1" y1="72.1" x2="4615.1" y2="66.3"/>
	<line class="st12" x1="4591.1" y1="72.1" x2="4591.1" y2="66.3"/>
	<line class="st12" x1="4603.1" y1="72.1" x2="4603.1" y2="66.3"/>
</g>
<g>
	<polyline class="st7" points="4664.4,122.1 4694.9,122.1 4694.9,145.4 4694.9,161.9 	"/>
	<line class="st7" x1="4664.4" y1="112.5" x2="4694.9" y2="112.5"/>
</g>
<g>
	<path class="st13" d="M4386.1,40V21.2c0-23.4-6.5-46.4-18.7-66.3l-1-1.6c-1.4-2.2-4.6-2.2-5.9,0l-1,1.6
		c-12.2,20-18.7,42.9-18.7,66.3v86.3"/>
	<line class="st14" x1="4347" y1="32.5" x2="4370.5" y2="55.9"/>
	<line class="st14" x1="4347" y1="9.9" x2="4375.1" y2="38"/>
	<line class="st14" x1="4380.6" y1="32.5" x2="4357.1" y2="55.9"/>
	<line class="st14" x1="4380.6" y1="9.9" x2="4352.5" y2="38"/>
	<polyline class="st14" points="4360,-22.3 4375.1,-7.2 4347,20.8 	"/>
	<polyline class="st14" points="4367.6,-22.3 4352.5,-7.2 4380.6,20.8 	"/>
</g>
<g>
	<line id="XMLID_234_" class="st15" x1="4271.2" y1="164.2" x2="4271.2" y2="151.5"/>
	<circle id="XMLID_233_" class="st14" cx="4271.2" cy="140.1" r="11.3"/>
</g>
<g>
	<g>
		<path class="st16" d="M3076.6,141.8h7.8v17.9l-7.8,0V141.8 M3073.6,138.8v23.9l13.8,0v-23.9H3073.6L3073.6,138.8z"/>
	</g>
	<line class="st6" x1="3073.6" y1="132.5" x2="3087.4" y2="132.5"/>
	<g>
		<g>
			<path class="st17" d="M3102,115.9l17.8,0v43.8l-17.8,0V115.9 M3099,112.9v49.8l23.8,0v-49.8L3099,112.9L3099,112.9z"/>
		</g>
		<line class="st6" x1="3117.5" y1="138.4" x2="3104.2" y2="138.4"/>
		<line class="st6" x1="3117.5" y1="122.4" x2="3104.2" y2="122.4"/>
		<line class="st6" x1="3117.5" y1="130.4" x2="3104.2" y2="130.4"/>
	</g>
</g>
<g>
	<g>
		<path class="st17" d="M3584.7,134.9l7.3,0v23v1.8h-1.7h-5.6L3584.7,134.9 M3581.7,131.9l0,30.9h8.6h4.7v-4.8v-26L3581.7,131.9
			L3581.7,131.9z"/>
	</g>
	<polyline class="st5" points="3554.5,162.7 3554.5,123.8 3614.1,123.8 	"/>
</g>
<polyline class="st2" points="3596,116.4 3596,5 3569,31.9 3569,108.7 "/>
<g>
	<line class="st3" x1="3582.3" y1="37.7" x2="3589.8" y2="37.7"/>
	<line class="st3" x1="3582.3" y1="88.9" x2="3589.8" y2="88.9"/>
	<line class="st3" x1="3582.3" y1="114.5" x2="3589.8" y2="114.5"/>
	<line class="st3" x1="3582.3" y1="101.7" x2="3589.8" y2="101.7"/>
	<line class="st3" x1="3582.3" y1="76.1" x2="3589.8" y2="76.1"/>
	<line class="st3" x1="3582.3" y1="63.3" x2="3589.8" y2="63.3"/>
	<line class="st3" x1="3582.3" y1="50.5" x2="3589.8" y2="50.5"/>
</g>
<polyline class="st7" points="3740.3,162.7 3740.3,-2.2 3785.5,-2.2 3785.5,100.3 "/>
<line class="st10" x1="3739.1" y1="-9.1" x2="3787.5" y2="-9.1"/>
<line class="st2" x1="3755.2" y1="5.9" x2="3755.2" y2="162.7"/>
<polyline class="st8" points="3955.1,117.8 3955.1,12 3996.3,12 3996.3,162.7 "/>
<line class="st3" x1="3964.5" y1="25.9" x2="3987.9" y2="25.9"/>
<line class="st3" x1="3964.5" y1="45.3" x2="3987.9" y2="45.3"/>
<line class="st3" x1="3964.5" y1="84" x2="3987.9" y2="84"/>
<line class="st3" x1="3964.5" y1="64.7" x2="3987.9" y2="64.7"/>
<line class="st8" x1="3955.1" y1="4.4" x2="3996.3" y2="4.4"/>
<polyline class="st2" points="4006.3,74.9 4030.3,74.9 4030.3,162.7 "/>
<line class="st3" x1="3964.5" y1="103.2" x2="3987.9" y2="103.2"/>
<line class="st3" x1="3980.4" y1="141.6" x2="3987.9" y2="141.6"/>
<line class="st3" x1="3968.9" y1="122.3" x2="3987.9" y2="122.3"/>
<g>
	<line id="XMLID_232_" class="st18" x1="3956.8" y1="162.7" x2="3956.8" y2="149.1"/>
	<circle id="XMLID_231_" class="st10" cx="3956.8" cy="137.1" r="12.1"/>
</g>
<g>
	<line id="XMLID_230_" class="st18" x1="3918.7" y1="162.7" x2="3918.7" y2="149.1"/>
	<circle id="XMLID_229_" class="st10" cx="3918.7" cy="137.1" r="12.1"/>
</g>
<polyline id="XMLID_228_" class="st7" points="3840.8,162.7 3840.5,24.5 3885.8,47.3 3885.8,66.3 "/>
<line id="XMLID_227_" class="st19" x1="3855.2" y1="66.2" x2="3855.2" y2="55.7"/>
<line id="XMLID_226_" class="st19" x1="3855.2" y1="91.1" x2="3855.2" y2="80.5"/>
<g>
	<line id="XMLID_225_" class="st18" x1="3623.9" y1="153.5" x2="3623.9" y2="162.7"/>
	<polygon id="XMLID_224_" class="st10" points="3616.4,153.5 3631.3,153.4 3623.7,128.8 	"/>
</g>
<g>
	<path class="st16" d="M3378.1,147.6l7.8,0l0,12.1h-7.8V147.6 M3375.1,144.6v18.1l13.8,0l0-18.1L3375.1,144.6L3375.1,144.6z"/>
</g>
<rect x="3867.6" y="75.8" class="st3" width="66.7" height="8.2"/>
<polyline id="XMLID_223_" class="st10" points="3783.5,162.7 3783.5,109.7 3827.1,109.7 3827.1,162.7 "/>
<g>
	<g>
		<line id="XMLID_222_" class="st3" x1="3791.9" y1="119.7" x2="3796.5" y2="119.7"/>
		<line id="XMLID_221_" class="st3" x1="3791.9" y1="128.8" x2="3796.5" y2="128.8"/>
		<line id="XMLID_220_" class="st3" x1="3791.9" y1="137.8" x2="3796.5" y2="137.8"/>
	</g>
	<g>
		<line id="XMLID_219_" class="st3" x1="3803" y1="119.7" x2="3807.6" y2="119.7"/>
		<line id="XMLID_218_" class="st3" x1="3803" y1="128.8" x2="3807.6" y2="128.8"/>
		<line id="XMLID_217_" class="st3" x1="3803" y1="137.8" x2="3807.6" y2="137.8"/>
	</g>
	<g>
		<line id="XMLID_216_" class="st3" x1="3814.2" y1="119.7" x2="3818.8" y2="119.7"/>
		<line id="XMLID_215_" class="st3" x1="3814.2" y1="128.8" x2="3818.8" y2="128.8"/>
		<line id="XMLID_214_" class="st3" x1="3814.2" y1="137.8" x2="3818.8" y2="137.8"/>
	</g>
</g>
<g>
	<g>
		<line id="XMLID_213_" class="st2" x1="3877.2" y1="107.3" x2="3881.8" y2="107.3"/>
		<line id="XMLID_212_" class="st2" x1="3877.2" y1="116.4" x2="3881.8" y2="116.4"/>
	</g>
</g>
<g>
	<g>
		<line id="XMLID_211_" class="st2" x1="3891.2" y1="107.3" x2="3895.7" y2="107.3"/>
		<line id="XMLID_210_" class="st2" x1="3891.2" y1="116.4" x2="3895.7" y2="116.4"/>
	</g>
</g>
<g>
	<g>
		<line id="XMLID_209_" class="st2" x1="3876.5" y1="127.2" x2="3881.1" y2="127.2"/>
		<line id="XMLID_208_" class="st2" x1="3876.5" y1="136.2" x2="3881.1" y2="136.2"/>
	</g>
</g>
<g>
	<g>
		<line id="XMLID_207_" class="st2" x1="3890.4" y1="127.2" x2="3895" y2="127.2"/>
		<line id="XMLID_206_" class="st2" x1="3890.4" y1="136.2" x2="3895" y2="136.2"/>
	</g>
</g>
<polyline class="st3" points="3934.3,117.8 3934.3,93.5 3867.6,93.5 3867.6,162.7 "/>
<g>
	<rect x="3646.3" y="119.1" class="st2" width="84.9" height="14.2"/>
	<line class="st2" x1="3646.3" y1="139.6" x2="3646.3" y2="162.7"/>
	<line class="st2" x1="3731.2" y1="139.6" x2="3731.2" y2="162.7"/>
	<polyline class="st7" points="3702.2,162.7 3702.2,140.5 3679.9,140.5 3679.9,162.7 	"/>
	<line class="st7" x1="3691" y1="162.7" x2="3691" y2="150"/>
</g>
<polyline class="st3" points="3655,106.8 3655,44.8 3731.2,44.9 3731.2,106.8 "/>
<line class="st2" x1="3731.2" y1="37.4" x2="3655" y2="37.4"/>
<polyline class="st7" points="3668.7,24.7 3668.7,-50.8 3623.9,-50.8 3623.9,106.8 "/>
<line class="st10" x1="3660.2" y1="-36.7" x2="3632.3" y2="-36.7"/>
<line class="st10" x1="3660.2" y1="-2.2" x2="3632.3" y2="-2.2"/>
<rect x="3632.3" y="-24.1" class="st2" width="27.9" height="7.5"/>
<g>
	<g>
		<g>
			<line class="st2" x1="3704.5" y1="63" x2="3704.5" y2="57.5"/>
			<line class="st2" x1="3716.4" y1="63" x2="3716.4" y2="57.5"/>
			<line class="st2" x1="3680.6" y1="63" x2="3680.6" y2="57.5"/>
			<line class="st2" x1="3692.6" y1="63" x2="3692.6" y2="57.5"/>
			<line class="st2" x1="3668.7" y1="63" x2="3668.7" y2="57.5"/>
		</g>
	</g>
	<g>
		<g>
			<line class="st2" x1="3704.5" y1="81.5" x2="3704.5" y2="76"/>
			<line class="st2" x1="3716.4" y1="81.5" x2="3716.4" y2="76"/>
			<line class="st2" x1="3680.6" y1="81.5" x2="3680.6" y2="76"/>
			<line class="st2" x1="3692.6" y1="81.5" x2="3692.6" y2="76"/>
			<line class="st2" x1="3668.7" y1="81.5" x2="3668.7" y2="76"/>
		</g>
	</g>
	<g>
		<g>
			<line class="st2" x1="3704.5" y1="100" x2="3704.5" y2="94.5"/>
			<line class="st2" x1="3716.4" y1="100" x2="3716.4" y2="94.5"/>
			<line class="st2" x1="3680.6" y1="100" x2="3680.6" y2="94.5"/>
			<line class="st2" x1="3692.6" y1="100" x2="3692.6" y2="94.5"/>
			<line class="st2" x1="3668.7" y1="100" x2="3668.7" y2="94.5"/>
		</g>
	</g>
</g>
<polyline class="st8" points="3854.6,12.2 3854.6,-43.4 3826.6,-43.4 3826.6,100.3 "/>
<line class="st10" x1="3840.6" y1="12" x2="3840.6" y2="-53.4"/>
<polyline class="st2" points="3357.3,162.7 3357.3,137.7 3390.9,137.7 "/>
<line class="st2" x1="3769.5" y1="5.9" x2="3769.5" y2="100.3"/>
<g>
	<polygon class="st14" points="7181.5,162.3 7051.6,162.3 7116.6,95 	"/>
	<g>
		<polygon class="st20" points="7213.9,162.3 7160.3,162.3 7187.1,134.6 		"/>
	</g>
</g>
<line class="st6" x1="6908.8" y1="-15.2" x2="6908.8" y2="-30.3"/>
<g>
	<polyline class="st21" points="6869.6,66.5 6866.6,-77.6 6815.8,-77.6 6812.8,123.7 	"/>
	<line class="st14" x1="6841.2" y1="-105" x2="6841.2" y2="-83.3"/>
	<polyline class="st14" points="6855.1,-64.8 6841.2,36 6827.2,-64.8 	"/>
	<g>
		<line id="XMLID_177_" class="st15" x1="7023.4" y1="150.7" x2="7023.4" y2="162.3"/>
		<polygon id="XMLID_176_" class="st14" points="7016.5,150.8 7030.3,150.7 7023.3,127.6 		"/>
	</g>
	<g>
		<line id="XMLID_175_" class="st15" x1="6991.7" y1="162.3" x2="6991.7" y2="148.9"/>
		<circle id="XMLID_174_" class="st14" cx="6991.7" cy="136.9" r="12"/>
	</g>
	<polyline class="st22" points="6935,162.3 6935,95 6991.7,95 6991.7,114.8 	"/>
	<polyline class="st23" points="6918,162.3 6918,51.7 6949,51.7 6949,85.3 	"/>
	<polyline class="st2" points="6850,162.3 6850,76.7 6908,76.7 6908,162.3 	"/>
	<polyline class="st6" points="6889.6,66.5 6889.6,17.8 6920.6,17.8 6920.6,39.5 	"/>
	<polyline class="st6" points="6911.3,8.2 6911.3,-10.2 6920.8,-15.2 6930.4,-10.2 6930.4,37.7 	"/>
	<line class="st14" x1="6820.7" y1="-83.4" x2="6861.7" y2="-83.4"/>
	<polyline class="st24" points="6774.7,162.3 6774.7,53.1 6798.7,53.1 	"/>
	<polyline class="st3" points="6837.8,162.3 6837.8,130.9 6786.5,130.9 	"/>
	<polyline class="st2" points="6718.3,86.1 6743.6,85.4 6743.6,162.3 	"/>
	<polyline class="st10" points="6754.7,162.3 6754.7,26.4 6784.4,9.2 6784.7,45.6 	"/>
	<g>
		<g>
			<g>
				<line id="XMLID_173_" class="st25" x1="6863.9" y1="90.9" x2="6868.4" y2="90.9"/>
				<line id="XMLID_172_" class="st25" x1="6863.9" y1="100" x2="6868.4" y2="100"/>
				<line id="XMLID_171_" class="st25" x1="6863.9" y1="109" x2="6868.4" y2="109"/>
			</g>
		</g>
		<g>
			<g>
				<line id="XMLID_170_" class="st25" x1="6877.8" y1="90.9" x2="6882.3" y2="90.9"/>
				<line id="XMLID_169_" class="st25" x1="6877.8" y1="100" x2="6882.3" y2="100"/>
				<line id="XMLID_168_" class="st25" x1="6877.8" y1="109" x2="6882.3" y2="109"/>
			</g>
		</g>
		<g>
			<g>
				<line id="XMLID_167_" class="st25" x1="6891.7" y1="90.9" x2="6896.2" y2="90.9"/>
				<line id="XMLID_166_" class="st25" x1="6891.7" y1="100" x2="6896.2" y2="100"/>
				<line id="XMLID_165_" class="st25" x1="6891.7" y1="109" x2="6896.2" y2="109"/>
			</g>
		</g>
	</g>
	<line class="st8" x1="6786.5" y1="143.7" x2="6827.2" y2="143.7"/>
	<line class="st14" x1="6784.7" y1="61.2" x2="6784.7" y2="122.1"/>
	<g>
		<g id="XMLID_163_">
			<line id="XMLID_164_" class="st26" x1="6934" y1="82.3" x2="6938" y2="82.3"/>
		</g>
		<g id="XMLID_159_">
			<line id="XMLID_162_" class="st26" x1="6934" y1="72.8" x2="6938" y2="72.8"/>
		</g>
		<g id="XMLID_141_">
			<line id="XMLID_144_" class="st26" x1="6933.9" y1="63.3" x2="6937.9" y2="63.3"/>
		</g>
	</g>
	<line class="st22" x1="6949" y1="162.3" x2="6949" y2="143.1"/>
</g>
<line class="st2" x1="6077.3" y1="-105.3" x2="6077.3" y2="163.7"/>
<g>
	<g>
		<line id="XMLID_140_" class="st18" x1="6525.5" y1="163.7" x2="6525.5" y2="153.6"/>
		<circle id="XMLID_137_" class="st10" cx="6525.5" cy="144.5" r="9.1"/>
	</g>
	<g>
		<polyline class="st27" points="6452.2,162.3 6452.2,123.7 6460.7,118.7 6460.7,22.1 6494.7,22.1 6494.7,97.7 		"/>
		<polyline class="st27" points="6467.1,14.1 6467.1,-0.8 6488.3,-0.8 6488.3,14.1 		"/>
		<line class="st27" x1="6488.3" y1="-7.2" x2="6467.1" y2="-7.2"/>
		<line class="st27" x1="6477.7" y1="-7.3" x2="6477.7" y2="-35.1"/>
		<line class="st27" x1="6477.7" y1="31.7" x2="6477.7" y2="97.7"/>
	</g>
	<polyline class="st2" points="6440.8,162.3 6440.8,61.2 6427.4,61.2 6427.4,85.8 	"/>
	<polyline class="st3" points="6427.4,162.3 6427.4,100 6401.4,100 	"/>
	<g>
		<line class="st22" x1="6415.9" y1="144.5" x2="6415.9" y2="141.3"/>
		<line class="st22" x1="6415.9" y1="116.1" x2="6415.9" y2="112.8"/>
		<line class="st22" x1="6415.9" y1="131" x2="6415.9" y2="127.8"/>
	</g>
	<polyline class="st1" points="6513.6,109 6483.3,109 6483.3,162.3 	"/>
	<polyline class="st24" points="6566.5,163.7 6566.5,88.3 6525.5,88.3 6525.5,126.3 	"/>
	<g>
		<g>
			<g>
				<line class="st3" x1="6535.9" y1="103.4" x2="6535.9" y2="100.2"/>
				<line class="st3" x1="6556.1" y1="103.4" x2="6556.1" y2="100.2"/>
				<line class="st3" x1="6546" y1="103.4" x2="6546" y2="100.2"/>
			</g>
			<g>
				<line class="st3" x1="6535.9" y1="118.4" x2="6535.9" y2="115.2"/>
				<line class="st3" x1="6556.1" y1="118.4" x2="6556.1" y2="115.2"/>
				<line class="st3" x1="6546" y1="118.4" x2="6546" y2="115.2"/>
			</g>
		</g>
	</g>
	<line class="st3" x1="6513.6" y1="119.9" x2="6491.6" y2="119.9"/>
</g>
<polyline class="st10" points="4013,60.3 4013,24.6 4018.2,24.6 4018.2,8.2 4040.3,-9.7 4062.4,8.2 4062.4,24.6 4067.6,24.6 
	4067.6,162.7 "/>
<g>
	<g>
		<g>
			<line class="st2" x1="4217.2" y1="129.5" x2="4217.2" y2="124"/>
			<line class="st2" x1="4193.3" y1="129.5" x2="4193.3" y2="124"/>
			<line class="st2" x1="4205.3" y1="129.5" x2="4205.3" y2="124"/>
		</g>
	</g>
</g>
<g>
	<polyline class="st3" points="3367.2,100.3 3387.6,-92.4 3414.7,162.7 	"/>
	<line class="st3" x1="3385.6" y1="4.3" x2="3376.4" y2="100"/>
</g>
<g>
	<line class="st7" x1="4053.6" y1="38" x2="4044.2" y2="38"/>
	<line class="st7" x1="4053.6" y1="99.1" x2="4044.2" y2="99.1"/>
	<line class="st7" x1="4053.6" y1="129.7" x2="4044.2" y2="129.7"/>
	<line class="st7" x1="4053.6" y1="114.4" x2="4044.2" y2="114.4"/>
	<line class="st7" x1="4053.6" y1="83.9" x2="4044.2" y2="83.9"/>
	<line class="st7" x1="4053.6" y1="68.6" x2="4044.2" y2="68.6"/>
	<line class="st7" x1="4053.6" y1="53.3" x2="4044.2" y2="53.3"/>
</g>
<polyline id="XMLID_124_" class="st8" points="4188.4,109.7 4246.1,109.7 4246.1,162.7 "/>
<polyline id="XMLID_121_" class="st2" points="4155.2,162.7 4155.2,71 4179.9,71 4179.9,162.7 "/>
<line class="st10" x1="4167.6" y1="60.3" x2="4167.6" y2="162.7"/>
<polyline id="XMLID_120_" class="st22" points="4106.8,162.7 4106.8,116.9 4092.2,102.7 4078.1,116.8 4078.1,162.7 "/>
<line class="st3" x1="4095.2" y1="164.2" x2="4095.2" y2="148"/>
<polyline id="XMLID_119_" class="st2" points="4095.2,81.8 4138.5,81.8 4138.5,162.7 "/>
<g>
	<line class="st3" x1="4127.1" y1="109.3" x2="4121.3" y2="109.3"/>
	<line class="st3" x1="4127.1" y1="125.3" x2="4121.3" y2="125.3"/>
	<line class="st3" x1="4127.1" y1="93.2" x2="4121.3" y2="93.2"/>
</g>
<g>
	<polyline class="st7" points="4725.7,101.6 4725.7,93 4755.3,77.3 4755.3,70.1 4755.3,-20.2 4766.6,-25.2 4766.6,2.4 4783.9,13.7 
		4783.9,161.9 	"/>
	<line class="st7" x1="4755.3" y1="-13.3" x2="4755.3" y2="-39"/>
	<line class="st7" x1="4766.6" y1="-17.8" x2="4766.6" y2="-43.5"/>
</g>
<polyline id="XMLID_114_" class="st10" points="4794.7,161.9 4794.7,75.9 4819.9,75.9 4819.9,161.9 "/>
<polyline id="XMLID_113_" class="st7" points="4680.2,104.6 4680.2,66.3 4709.9,66.3 4709.9,161.9 "/>
<polyline id="XMLID_112_" class="st2" points="4719.6,162.5 4719.6,109.4 4772.1,109.4 4772.1,162.5 "/>
<g>
	<line class="st28" x1="4693" y1="78.3" x2="4689.1" y2="78.3"/>
	<line class="st28" x1="4693" y1="87.6" x2="4689.1" y2="87.6"/>
	<line class="st28" x1="4693" y1="96.8" x2="4689.1" y2="96.8"/>
</g>
<rect x="4725.7" y="117.4" class="st3" width="39.6" height="10.6"/>
<line class="st22" x1="4725.7" y1="135.3" x2="4765.3" y2="135.3"/>
<line id="XMLID_108_" class="st8" x1="4809.7" y1="91.5" x2="4809.7" y2="84"/>
<line id="XMLID_103_" class="st8" x1="4809.7" y1="109.3" x2="4809.6" y2="101.7"/>
<line id="XMLID_102_" class="st8" x1="4809.6" y1="127" x2="4809.6" y2="119.5"/>
<polyline class="st2" points="3279,100.3 3267.5,49 3267.5,9 3259.5,9 3251.5,-16.9 3243.4,9 3235.4,9 3235.4,49 3221.1,112.9 "/>
<g>
	<line class="st27" x1="3245.6" y1="24.6" x2="3253.1" y2="24.6"/>
	<line class="st27" x1="3245.6" y1="75.8" x2="3253.1" y2="75.8"/>
	<line class="st27" x1="3245.6" y1="63" x2="3253.1" y2="63"/>
	<line class="st27" x1="3245.6" y1="50.2" x2="3253.1" y2="50.2"/>
	<line class="st27" x1="3245.6" y1="37.4" x2="3253.1" y2="37.4"/>
</g>
<polyline id="XMLID_101_" class="st22" points="3242.3,162.7 3242.3,108.7 3311.5,108.7 3311.5,117.3 "/>
<g>
	<line id="XMLID_100_" class="st18" x1="3311.5" y1="162.7" x2="3311.5" y2="149.1"/>
	<circle id="XMLID_99_" class="st10" cx="3311.5" cy="137.1" r="12.1"/>
</g>
<g>
	<line id="XMLID_98_" class="st18" x1="3214.7" y1="162.7" x2="3214.7" y2="149.1"/>
	<circle id="XMLID_97_" class="st10" cx="3214.7" cy="137.1" r="12.1"/>
</g>
<polyline id="XMLID_96_" class="st10" points="3289.8,100.3 3289.8,72.6 3349.4,72.6 3349.4,162.7 "/>
<line class="st7" x1="3302.9" y1="100.5" x2="3302.9" y2="81.1"/>
<line class="st7" x1="3311" y1="100.7" x2="3311" y2="81.2"/>
<g>
	<line id="XMLID_95_" class="st18" x1="3170.3" y1="162.7" x2="3170.3" y2="149.1"/>
	<circle id="XMLID_94_" class="st10" cx="3170.3" cy="137.1" r="12.1"/>
</g>
<g>
	<polyline class="st7" points="3278.9,162.7 3278.9,140.5 3256.7,140.5 	"/>
	<line class="st7" x1="3267.8" y1="162.7" x2="3267.8" y2="150"/>
</g>
<line class="st7" x1="3357.5" y1="128.8" x2="3392.1" y2="128.8"/>
<polyline id="XMLID_93_" class="st10" points="3139.9,162.7 3139.9,72.3 3182.5,72.3 3182.5,117.7 "/>
<line class="st10" x1="3139.9" y1="63" x2="3182.5" y2="63"/>
<line class="st10" x1="3143.9" y1="55.7" x2="3178.5" y2="55.7"/>
<line class="st10" x1="3161.2" y1="54.1" x2="3161.2" y2="36.4"/>
<rect x="3147.3" y="81.2" class="st2" width="27.9" height="7.5"/>
<polyline id="XMLID_92_" class="st22" points="3118.1,102.3 3118.1,11 3146.7,11 3146.7,45.3 "/>
<g>
	<polyline class="st25" points="5874.9,91.5 5823.3,91.5 5823.3,-67.8 	"/>
	<polyline class="st25" points="6011.8,-67.8 6011.8,91.5 5941.1,91.5 	"/>
	<line class="st25" x1="5794.5" y1="-76.9" x2="5794.5" y2="91.5"/>
	<line class="st25" x1="5800.5" y1="-76.9" x2="5800.5" y2="91.5"/>
	<line class="st25" x1="5806.5" y1="-76.9" x2="5806.5" y2="91.5"/>
	<line class="st25" x1="5812.5" y1="-76.9" x2="5812.5" y2="91.5"/>
	<path class="st25" d="M5794.5-91.8c2.8,0,5.1,2.3,5.1,5.1l7.8,0c0-2.8,2.3-5.1,5.1-5.1"/>
	<path class="st25" d="M5812.5,149.5l0-43.5c-2.8,0-5.1-2.3-5.1-5.1l-7.8,0c0,2.8-2.3,5.1-5.1,5.1v43.5c2.8,0,5.1,2.3,5.1,5.1l7.8,0
		C5807.4,151.8,5809.7,149.5,5812.5,149.5z"/>
	<path class="st25" d="M5872.3,100.9l-44.3,0c0,2.8-2.3,5.1-5.1,5.1l0,43.5c2.8,0,5.1,2.3,5.1,5.1l43.3,0"/>
	<path class="st25" d="M5945,154.6l61.6,0c0-2.8,2.3-5.1,5.1-5.1V106c-2.8,0-5.1-2.3-5.1-5.1l-65,0"/>
	<line class="st25" x1="6022.6" y1="-76.9" x2="6022.6" y2="91.5"/>
	<line class="st25" x1="6028.5" y1="-76.9" x2="6028.5" y2="91.5"/>
	<line class="st25" x1="6034.5" y1="-76.9" x2="6034.5" y2="91.5"/>
	<line class="st25" x1="6040.5" y1="-76.9" x2="6040.5" y2="91.5"/>
	<path class="st25" d="M6022.6-91.8c2.8,0,5.1,2.3,5.1,5.1l7.8,0c0-2.8,2.3-5.1,5.1-5.1"/>
	<path class="st25" d="M6040.5,149.5V106c-2.8,0-5.1-2.3-5.1-5.1l-7.8,0c0,2.8-2.3,5.1-5.1,5.1v43.5c2.8,0,5.1,2.3,5.1,5.1l7.8,0
		C6035.4,151.8,6037.7,149.5,6040.5,149.5z"/>
	<path class="st29" d="M5819.7-92.3l0,14.7c3.1,3.1,7.5,5,12.3,5s9.1-1.9,12.3-5l0-14.7"/>
	<path class="st30" d="M5819.7-92.3l0,14.7c3.1,3.1,7.5,5,12.3,5c4.8,0,9.1-1.9,12.3-5l0-14.7"/>
	<line class="st29" x1="5872.8" y1="-85.5" x2="5872.8" y2="-92.3"/>
	<path class="st29" d="M5848.3-92.3v14.7c3.1,3.1,7.5,5,12.3,5"/>
	<line class="st30" x1="5872.8" y1="-85.5" x2="5872.8" y2="-92.3"/>
	<path class="st30" d="M5848.3-92.3v14.7c3.1,3.1,7.5,5,12.3,5"/>
	<line class="st29" x1="5901.4" y1="-85.5" x2="5901.4" y2="-92.3"/>
	<line class="st29" x1="5876.9" y1="-92.3" x2="5876.9" y2="-85.5"/>
	<line class="st30" x1="5901.4" y1="-85.5" x2="5901.4" y2="-92.3"/>
	<line class="st30" x1="5876.9" y1="-92.3" x2="5876.9" y2="-85.5"/>
	<path class="st29" d="M5917.8-72.5c4.8,0,9.1-1.9,12.3-5l0-14.7"/>
	<line class="st29" x1="5905.5" y1="-92.3" x2="5905.5" y2="-85.5"/>
	<path class="st30" d="M5917.8-72.5c4.8,0,9.1-1.9,12.3-5l0-14.7"/>
	<line class="st30" x1="5905.5" y1="-92.3" x2="5905.5" y2="-85.5"/>
	<line class="st29" x1="5958.6" y1="-82.5" x2="5958.6" y2="-92.3"/>
	<path class="st29" d="M5934.1-92.3v14.7c3.1,3.1,7.5,5,12.3,5"/>
	<line class="st30" x1="5958.6" y1="-82.5" x2="5958.6" y2="-92.3"/>
	<path class="st30" d="M5934.1-92.3v14.7c3.1,3.1,7.5,5,12.3,5"/>
	<path class="st29" d="M5975-72.5c4.8,0,9.1-1.9,12.3-5v-14.7"/>
	<line class="st29" x1="5962.7" y1="-92.3" x2="5962.7" y2="-82.5"/>
	<path class="st30" d="M5975-72.5c4.8,0,9.1-1.9,12.3-5v-14.7"/>
	<line class="st30" x1="5962.7" y1="-92.3" x2="5962.7" y2="-82.5"/>
	<path class="st29" d="M5991.3-92.3l0,14.7c3.1,3.1,7.5,5,12.3,5c4.8,0,9.1-1.9,12.3-5l0-14.7"/>
	<path class="st30" d="M5991.3-92.3l0,14.7c3.1,3.1,7.5,5,12.3,5s9.1-1.9,12.3-5v-14.7"/>
	<path class="st31" d="M5993.2,45l4.1,0V30.4c-6.5,0-10.9,7.3-13.7,7.3l-5.5,0V45l6.6,0c0,0,3.9-7.2,7.9-7.2"/>
	<line class="st31" x1="5980.9" y1="29.2" x2="5980.9" y2="34.2"/>
	<path class="st31" d="M5844.3,49.3c0-3.7-0.9-5.8-2.4-8.8c0,0,0.2-4.9,2.4-6.6l8.4,10c0,0,7,0.4,7.9,4.5l-9.4,0"/>
	<path class="st31" d="M5872.5-5.9c0-3.7,0.9-5.8,2.4-8.8c0,0-0.2-4.9-2.4-6.6l-8.4,10c0,0-7,0.4-7.9,4.5l9.4,0"/>
	<path class="st31" d="M5940.9,36.8c0-2.6,1.5-4.5,7.4-6.6c5.9-2.1,4.9-9.6,4.9-9.6l-2.8-31.3l10.8,0c0,0-0.5,18.7-0.2,33.6
		c0.1,5.3,1.2,11,1.2,13.9"/>
	<path class="st31" d="M5952,36.8c0-2.1-0.2-1.7,5.5-3.3v3.3"/>
	<path class="st31" d="M5962.2,69.3v7l18,0c0,0-0.1-2.9-2.9-3.5c-2.1-0.5-8.5-0.3-8.5-3.5"/>
	<line class="st31" x1="5961.1" y1="66.7" x2="5969.8" y2="66.7"/>
	<line class="st31" x1="5961.1" y1="63" x2="5969.8" y2="63"/>
	<polyline class="st31" points="5836.8,86.3 5836.8,52.4 5865.4,52.4 5865.4,86.9 	"/>
	<polyline class="st31" points="5953.1,80.4 6005.5,80.4 6005.5,86.9 	"/>
	<polyline class="st31" points="5930.9,40.7 5967.7,40.7 5967.7,58.2 	"/>
	<polyline class="st31" points="5975.5,67.8 5975.5,49.5 6002.1,49.5 6002.1,76.4 	"/>
	<polyline class="st31" points="5848.2,25.5 5848.2,-3 5878.6,-3 	"/>
</g>
<g>
	<g id="_x3C_Group_x3E__2_">
		<g>
			<path id="XMLID_91_" class="st32" d="M5903.6-35.6"/>
			<path id="XMLID_90_" class="st32" d="M5908-25.2"/>
			<g id="XMLID_88_">
				<polyline id="XMLID_89_" class="st6" points="5913.5,-26.5 5924.1,78.6 5896.5,78.6 				"/>
			</g>
			<path id="XMLID_87_" class="st6" d="M5886.4-23.8c0,5.7,1.3,12.9,2.5,18c2.2,9.1,5.3,22.4,5.3,22.4l-16.3,62l27.6,0"/>
			<g>
				<path id="XMLID_86_" class="st9" d="M5908.6,84.6c1.4,14.1,14.1,71.2,14.1,71.2l7.7,0l-6.9-72.7"/>
			</g>
			<path id="XMLID_85_" class="st9" d="M5885.3-27.2c0-7.6,3.8-10.5,13-10.3c0.7,0,17.9,0.9,28.9,1.4c5.9,0.3,11.7-1,17-3.7
				l22.7-12.8c1.9-1,3-3,3-5.2v-4.5"/>
			<g id="XMLID_82_">
				<defs>
					<polygon id="XMLID_83_" points="5913.5,-67.1 5897.1,-67.1 5887,-54.7 5880.9,-54.7 5880.9,-85.8 5913.5,-85.8 					"/>
				</defs>
				<clipPath id="XMLID_2_">
					<use xlink:href="#XMLID_83_"  style="overflow:visible;"/>
				</clipPath>
				<circle id="XMLID_84_" class="st33" cx="5897.2" cy="-67.6" r="10.8"/>
			</g>
			<line id="XMLID_81_" class="st34" x1="5898.9" y1="-69" x2="5907.3" y2="-69"/>
			<path id="XMLID_80_" class="st34" d="M5889.7-75.4l-1.6-1.3c-5.1-4.1-12.7-0.4-12.7,6.1v8.5c0,3.9-1.5,8.8-7.1,10.3
				c0,0,1.4,7.6,10.1,7.6c5.7,0,8.7-4.4,8.7-6.7"/>
			<g id="XMLID_77_">
				<defs>
					<path id="XMLID_78_" d="M5891.6-44.2l4.8-20.3c6.3,0,10.9,0,14.4,0l-2,27.5L5891.6-44.2z"/>
				</defs>
				<clipPath id="XMLID_3_">
					<use xlink:href="#XMLID_78_"  style="overflow:visible;"/>
				</clipPath>
				<path id="XMLID_79_" class="st35" d="M5894.9-43.4l2.5-6.3c6.6,1.4,10.3-3.6,10.3-9.4c0-2,0-9.7,0-12.1"/>
			</g>
		</g>
		<line id="XMLID_76_" class="st9" x1="5933.1" y1="163" x2="5921.3" y2="163"/>
		<g>
			<path id="XMLID_75_" class="st9" d="M5899.2,84.6c-1.4,14.1-14.1,71.2-14.1,71.2l-7.7,0l6.9-72.7"/>
		</g>
		<line id="XMLID_74_" class="st9" x1="5874.7" y1="163" x2="5886.5" y2="163"/>
	</g>
	<line class="st6" x1="5962.4" y1="-56.5" x2="5962.4" y2="-72.5"/>
	<path class="st36" d="M5921.7-27.2l14.2,14c4,4,4.3,10.4,0.5,14.7l-12.6,14.3"/>
</g>
<g>
	<polyline class="st25" points="5501,142 5375.2,142 5375.2,-83.4 5682,-83.4 	"/>
	<line class="st25" x1="5314.4" y1="163.7" x2="5314.4" y2="23.6"/>
	<line class="st25" x1="5340.3" y1="-65.5" x2="5364.4" y2="-65.5"/>
	<line class="st25" x1="5343.9" y1="-71.3" x2="5360.8" y2="-71.3"/>
	<line class="st25" x1="5347.7" y1="-76.7" x2="5357" y2="-76.7"/>
	<line class="st25" x1="5364.4" y1="-11.6" x2="5340.3" y2="-11.6"/>
	<line class="st25" x1="5360.8" y1="-5.8" x2="5343.9" y2="-5.8"/>
	<line class="st25" x1="5357" y1="-0.3" x2="5347.7" y2="-0.3"/>
	<g>
		<defs>
			<rect id="SVGID_1_" x="5343.9" y="-61.9" width="16.8" height="46.5"/>
		</defs>
		<clipPath id="SVGID_2_">
			<use xlink:href="#SVGID_1_"  style="overflow:visible;"/>
		</clipPath>
		<line class="st37" x1="5338.3" y1="-53.6" x2="5368.1" y2="-83.4"/>
		<line class="st38" x1="5338.3" y1="-42.1" x2="5368.1" y2="-71.9"/>
		<line class="st37" x1="5338.3" y1="-30.5" x2="5368.1" y2="-60.3"/>
		<line class="st38" x1="5338.3" y1="-19" x2="5368.1" y2="-48.8"/>
		<line class="st37" x1="5338.3" y1="-7.4" x2="5368.1" y2="-37.2"/>
		<line class="st38" x1="5338.3" y1="4.1" x2="5368.1" y2="-25.7"/>
		<line class="st37" x1="5338.3" y1="15.7" x2="5368.1" y2="-14.1"/>
		<line class="st38" x1="5338.3" y1="27.2" x2="5368.1" y2="-2.5"/>
	</g>
	<g>
		<polyline class="st31" points="5655.7,-19.8 5403,-19.8 5403,-58.6 5669.1,-58.6 		"/>
		<line class="st31" x1="5415.7" y1="-78.3" x2="5415.7" y2="-63.5"/>
		<line class="st31" x1="5640.6" y1="-78.3" x2="5640.6" y2="-63.5"/>
		<polyline class="st31" points="5394.5,135.5 5394.5,59.3 5423.8,59.3 5423.8,135.5 		"/>
		<polyline class="st31" points="5484.5,135.5 5484.5,40.8 5505.5,40.8 		"/>
		<polyline class="st31" points="5432.9,135.5 5432.9,76.2 5466.8,76.2 5466.8,135.5 		"/>
		<path class="st31" d="M5519.4,16.8l-25,0l-4.4,15.5c0,0,5.6,2.7,15.6,2.7"/>
	</g>
	<g>
		<defs>
			<rect id="SVGID_3_" x="5494.9" y="3.4" width="21.1" height="10.4"/>
		</defs>
		<clipPath id="SVGID_4_">
			<use xlink:href="#SVGID_3_"  style="overflow:visible;"/>
		</clipPath>
		<ellipse class="st39" cx="5505.6" cy="19" rx="7.6" ry="11.9"/>
	</g>
	<g>
		<defs>
			<rect id="SVGID_5_" x="5398.6" y="16.8" width="21.1" height="18.6"/>
		</defs>
		<clipPath id="SVGID_6_">
			<use xlink:href="#SVGID_5_"  style="overflow:visible;"/>
		</clipPath>
		<ellipse class="st40" cx="5409.3" cy="33.5" rx="7.6" ry="11.9"/>
	</g>
	<polygon class="st31" points="5417.1,54.6 5401.1,54.6 5398.7,38.7 5419.4,38.7 	"/>
	<rect x="5437.4" y="59.3" class="st31" width="23.3" height="12.3"/>
</g>
<line class="st2" x1="5760.6" y1="-105.3" x2="5760.6" y2="122.1"/>
<line class="st25" x1="5314.4" y1="-59.2" x2="5314.4" y2="-105.3"/>
<g>
	<line id="XMLID_59_" class="st25" x1="5112.5" y1="163.7" x2="5112.5" y2="17.6"/>
	<circle class="st41" cx="5112.5" cy="-30.7" r="77.8"/>
</g>
<polyline id="XMLID_58_" class="st10" points="3513.1,162.7 3513.1,83.9 3556.7,83.9 "/>
<g>
	<g>
		<line id="XMLID_57_" class="st2" x1="3526.8" y1="97.3" x2="3531.4" y2="97.3"/>
		<line id="XMLID_56_" class="st2" x1="3526.8" y1="106.3" x2="3531.4" y2="106.3"/>
	</g>
</g>
<g>
	<g>
		<line id="XMLID_55_" class="st2" x1="3526.1" y1="117.2" x2="3530.7" y2="117.2"/>
		<line id="XMLID_54_" class="st2" x1="3526.1" y1="126.2" x2="3530.7" y2="126.2"/>
	</g>
</g>
<polyline id="XMLID_53_" class="st22" points="3491,162.7 3491,36.2 3519.6,36.2 3519.6,70.4 "/>
<g>
	<polyline class="st3" points="3464.6,136.9 3451.4,136.9 3451.4,162.7 	"/>
	<polyline class="st5" points="3474.2,162.7 3474.2,123.8 3424.3,123.8 	"/>
</g>
<polyline id="XMLID_52_" class="st3" points="3453.4,115.6 3453.4,80 3474.3,80 3474.3,115.6 "/>
<line class="st22" x1="3463.9" y1="114.7" x2="3463.9" y2="97.8"/>
<g>
	<line class="st13" x1="3029.5" y1="176" x2="7236" y2="176"/>
</g>
</svg>
