<?xml version="1.0" encoding="UTF-8" standalone="no"?>
<svg width="4210px" height="289px" viewBox="0 0 4210 289" version="1.1" xmlns="http://www.w3.org/2000/svg" xmlns:xlink="http://www.w3.org/1999/xlink">
    <!-- Generator: Sketch 39.1 (31720) - http://www.bohemiancoding.com/sketch -->
    <title>bg_copy</title>
    <desc>Created with Sketch.</desc>
    <defs></defs>
    <g id="Page-1" stroke="none" stroke-width="1" fill="none" fill-rule="evenodd">
        <g id="bg" transform="translate(1.000000, 1.000000)">
            <polygon id="Shape" fill="#FFFFFF" points="1574.9 256.2 1574.9 229.4"></polygon>
            <path d="M1574.9,229.4 L1574.9,256.2" id="Shape" stroke="#000000" stroke-width="3"></path>
            <polygon id="Shape" fill="#FFFFFF" points="1584.9 256.2 1584.9 229.4"></polygon>
            <path d="M1584.9,229.4 L1584.9,256.2" id="Shape" stroke="#000000" stroke-width="3"></path>
            <polygon id="Shape" fill="#FFFFFF" points="1594.8 256.2 1594.8 229.4"></polygon>
            <path d="M1594.8,229.4 L1594.8,256.2" id="Shape" stroke="#000000" stroke-width="3"></path>
            <polygon id="Shape" fill="#FFFFFF" points="1604.8 256.2 1604.8 229.4"></polygon>
            <path d="M1604.8,229.4 L1604.8,256.2" id="Shape" stroke="#000000" stroke-width="3"></path>
            <polygon id="Shape" fill="#FFFFFF" points="1614.7 256.2 1614.7 229.4"></polygon>
            <path d="M1614.7,229.4 L1614.7,256.2" id="Shape" stroke="#000000" stroke-width="3"></path>
            <polygon id="Shape" fill="#FFFFFF" points="1624.6 256.2 1624.6 229.4"></polygon>
            <path d="M1624.6,229.4 L1624.6,256.2" id="Shape" stroke="#000000" stroke-width="3"></path>
            <polygon id="Shape" stroke="#6A817C" stroke-width="3" points="1599.4 201.9 1573.8 212.4 1573.8 214.5 1599.4 214.5 1625 214.5 1625 212.4"></polygon>
            <polyline id="Shape" stroke="#56C5D0" stroke-width="3" points="1243.2 224.7 1243.2 203.7 1272.3 203.7 1272.3 270.9"></polyline>
            <rect id="Rectangle-path" stroke="#F69677" stroke-width="3" x="1518" y="243.3" width="15.8" height="27.5"></rect>
            <g id="Group" transform="translate(1283.000000, 224.000000)" stroke-width="3">
                <polyline id="Shape" stroke="#231F1F" points="0.5 46.9 0.5 0.4 29.2 0.4"></polyline>
                <path d="M30.4,18.8 L26.5,18.8" id="Shape" stroke="#56C5D0"></path>
                <path d="M30.4,28 L26.5,28" id="Shape" stroke="#56C5D0"></path>
                <path d="M30.4,37.2 L26.5,37.2" id="Shape" stroke="#56C5D0"></path>
            </g>
            <rect id="Rectangle-path" stroke="#56C5D0" stroke-width="3" x="1542.2" y="213.6" width="15.8" height="57.2"></rect>
            <rect id="Rectangle-path" stroke="#6A817C" stroke-width="3" x="1398" y="220.8" width="72.8" height="14.1"></rect>
            <path d="M1398,244.3 L1398,270.9" id="Shape" stroke="#6A817C" stroke-width="3"></path>
            <path d="M1470.8,244.3 L1470.8,270.9" id="Shape" stroke="#6A817C" stroke-width="3"></path>
            <polyline id="Shape" stroke="#6A817C" stroke-width="3" points="1458.3 213.6 1458.3 186.1 1510.1 186.1 1510.1 270.9"></polyline>
            <polyline id="Shape" stroke="#F69679" stroke-width="3" points="1447.2 270.9 1447.2 245.3 1421.6 245.3 1421.6 270.9"></polyline>
            <polyline id="Shape" stroke="#56C5D0" stroke-width="3" points="1651.2 270.9 1651.2 255 1635.4 255"></polyline>
            <polyline id="Shape" stroke="#231F20" stroke-width="3" points="1340.6 272.7 1340.6 247.2 1330.7 247.2 1330.7 194.8 1398 194.8 1398 213.6"></polyline>
            <polyline id="Shape" stroke="#56C5D0" stroke-width="3" points="1381.8 270.9 1381.8 245.3 1356.3 245.3 1356.3 270.9"></polyline>
            <g id="Group" transform="translate(1472.000000, 194.000000)" stroke="#231F20" stroke-width="3">
                <g transform="translate(0.000000, 13.000000)" id="Shape">
                    <path d="M24.6,6.6 L24.6,0.8"></path>
                    <path d="M0.6,6.6 L0.6,0.8"></path>
                    <path d="M12.6,6.6 L12.6,0.8"></path>
                </g>
                <g id="Shape">
                    <path d="M24.6,6.7 L24.6,0.9"></path>
                    <path d="M0.6,6.7 L0.6,0.9"></path>
                    <path d="M12.6,6.7 L12.6,0.9"></path>
                </g>
                <path d="M24.6,32.6 L24.6,26.8" id="Shape"></path>
            </g>
            <g id="Group" transform="translate(1346.000000, 206.000000)" stroke="#56C5D0" stroke-width="3">
                <path d="M24.4,6.6 L24.4,0.8" id="Shape"></path>
                <path d="M36.4,6.6 L36.4,0.8" id="Shape"></path>
                <path d="M0.4,6.6 L0.4,0.8" id="Shape"></path>
                <path d="M12.4,6.6 L12.4,0.8" id="Shape"></path>
            </g>
            <path d="M1458.3,178.2 L1510.1,178.2" id="Shape" stroke="#6A817C" stroke-width="3"></path>
            <rect id="Rectangle-path" stroke="#56C5D0" stroke-width="3" x="1330.7" y="175.1" width="67.3" height="9.8"></rect>
            <g id="Group" transform="translate(1574.000000, 221.000000)" stroke="#000000" stroke-width="3">
                <path d="M0.9,0.7 L0.9,2.2" id="Shape"></path>
                <path d="M10.9,0.7 L10.9,2.2" id="Shape"></path>
                <path d="M20.8,0.7 L20.8,2.2" id="Shape"></path>
                <path d="M30.8,0.7 L30.8,2.2" id="Shape"></path>
                <path d="M40.7,0.7 L40.7,2.2" id="Shape"></path>
                <path d="M50.6,0.7 L50.6,2.2" id="Shape"></path>
            </g>
            <rect id="Rectangle-path" stroke="#000000" stroke-width="3" x="1566.6" y="263.6" width="65.6" height="7.2"></rect>
            <polyline id="Shape" stroke="#56C5D0" stroke-width="3" points="1426.4 206.6 1426.4 77.7 1458.6 109.8 1458.6 167.5"></polyline>
            <g id="Group" transform="translate(1436.000000, 113.000000)" stroke="#56C5D0" stroke-width="3">
                <path d="M10,0.3 L0.7,0.3" id="Shape"></path>
                <path d="M10,61.4 L0.7,61.4" id="Shape"></path>
                <path d="M10,91.9 L0.7,91.9" id="Shape"></path>
                <path d="M10,76.6 L0.7,76.6" id="Shape"></path>
                <path d="M10,46.1 L0.7,46.1" id="Shape"></path>
                <path d="M10,30.8 L0.7,30.8" id="Shape"></path>
                <path d="M10,15.5 L0.7,15.5" id="Shape"></path>
            </g>
            <rect id="Rectangle-path" stroke="#00B48D" stroke-width="3" x="1486.8" y="35.3" width="43.7" height="9.9"></rect>
            <path d="M1497.8,28.1 L1519.4,28.1" id="Shape" stroke="#F69677" stroke-width="3"></path>
            <path d="M1497.8,52.4 L1519.4,52.4" id="Shape" stroke="#F69677" stroke-width="3"></path>
            <path d="M1508.6,21.1 L1508.6,9.6" id="Shape" stroke="#00B48D" stroke-width="3"></path>
            <path d="M1508.6,167.5 L1508.6,59.4" id="Shape" stroke="#231F20" stroke-width="3"></path>
            <polyline id="Shape" stroke="#231F20" stroke-width="3" points="1550.2 202 1550.2 121.8 1599.4 121.8 1599.4 190.5"></polyline>
            <polyline id="Shape" stroke="#6A817C" stroke-width="3" points="1607.8 163.1 1619.1 163.1 1619.1 192.9"></polyline>
            <g id="Group" transform="translate(1562.000000, 150.000000)" stroke="#00B388" stroke-width="3">
                <path d="M24.1,6.6 L24.1,0.8" id="Shape"></path>
                <path d="M0.1,6.6 L0.1,0.8" id="Shape"></path>
                <path d="M12.1,6.6 L12.1,0.8" id="Shape"></path>
            </g>
            <g id="Group" transform="translate(1562.000000, 175.000000)" stroke="#00B388" stroke-width="3">
                <path d="M24.1,6.1 L24.1,0.3" id="Shape"></path>
                <path d="M0.1,6.1 L0.1,0.3" id="Shape"></path>
                <path d="M12.1,6.1 L12.1,0.3" id="Shape"></path>
            </g>
            <g id="Group" transform="translate(1635.000000, 221.000000)" stroke-width="3" stroke="#F69679">
                <polyline id="Shape" points="0.4 10.1 30.9 10.1 30.9 33.4 30.9 49.9"></polyline>
                <path d="M0.4,0.5 L30.9,0.5" id="Shape"></path>
            </g>
            <g id="Group" transform="translate(1311.000000, 60.000000)" stroke-width="3">
                <path d="M46.1,89 L46.1,70.2 C46.1,46.8 39.6,23.8 27.4,3.9 L26.4,2.3 C25,0.1 21.8,0.1 20.5,2.3 L19.5,3.9 C7.3,23.9 0.8,46.8 0.8,70.2 L0.8,156.5" id="Shape" stroke="#231F1F"></path>
                <path d="M7,81.5 L30.5,104.9" id="Shape" stroke="#00B48D"></path>
                <path d="M7,58.9 L35.1,87" id="Shape" stroke="#00B48D"></path>
                <path d="M40.6,81.5 L17.1,104.9" id="Shape" stroke="#00B48D"></path>
                <path d="M40.6,58.9 L12.5,87" id="Shape" stroke="#00B48D"></path>
                <polyline id="Shape" stroke="#00B48D" points="20 26.7 35.1 41.8 7 69.8"></polyline>
                <polyline id="Shape" stroke="#00B48D" points="27.6 26.7 12.5 41.8 40.6 69.8"></polyline>
            </g>
            <g id="Group" transform="translate(1230.000000, 237.000000)" stroke-width="3">
                <path d="M12.2,36.2 L12.2,23.5" id="XMLID_234_" stroke="#17181B"></path>
                <circle id="XMLID_233_" stroke="#00B48D" cx="12.2" cy="12.1" r="11.3"></circle>
            </g>
            <g id="Group" transform="translate(44.000000, 221.000000)">
                <path d="M3.6,29.8 L11.4,29.8 L11.4,47.7 L3.6,47.7 L3.6,29.8 L3.6,29.8 Z M0.6,26.8 L0.6,50.7 L14.4,50.7 L14.4,26.8 L0.6,26.8 L0.6,26.8 L0.6,26.8 Z" id="Shape" fill="#F69677"></path>
                <path d="M0.6,20.5 L14.4,20.5" id="Shape" stroke="#56C5D0" stroke-width="3"></path>
                <g transform="translate(26.000000, 0.000000)" id="Shape">
                    <path d="M3,3.9 L20.8,3.9 L20.8,47.7 L3,47.7 L3,3.9 L3,3.9 Z M0,0.9 L0,50.7 L23.8,50.7 L23.8,0.9 L0,0.9 L0,0.9 L0,0.9 Z" fill="#56C5D0"></path>
                    <path d="M18.5,26.4 L5.2,26.4" stroke="#56C5D0" stroke-width="3"></path>
                    <path d="M18.5,10.4 L5.2,10.4" stroke="#56C5D0" stroke-width="3"></path>
                    <path d="M18.5,18.4 L5.2,18.4" stroke="#56C5D0" stroke-width="3"></path>
                </g>
            </g>
            <g id="Group" transform="translate(525.000000, 232.000000)">
                <path d="M30.7,11.9 L38,11.9 L38,34.9 L38,36.7 L36.3,36.7 L30.7,36.7 L30.7,11.9 L30.7,11.9 Z M27.7,8.9 L27.7,39.8 L36.3,39.8 L41,39.8 L41,35 L41,9 L27.7,8.9 L27.7,8.9 L27.7,8.9 Z" id="Shape" fill="#56C5D0"></path>
                <polyline id="Shape" stroke="#231F1F" stroke-width="3" points="0.5 39.7 0.5 0.8 60.1 0.8"></polyline>
            </g>
            <polyline id="Shape" stroke="#6A817C" stroke-width="3" points="567 225.4 567 114 540 140.9 540 217.7"></polyline>
            <g id="Group" transform="translate(553.000000, 146.000000)" stroke="#56C5D0" stroke-width="3">
                <path d="M0.3,0.7 L7.8,0.7" id="Shape"></path>
                <path d="M0.3,51.9 L7.8,51.9" id="Shape"></path>
                <path d="M0.3,77.5 L7.8,77.5" id="Shape"></path>
                <path d="M0.3,64.7 L7.8,64.7" id="Shape"></path>
                <path d="M0.3,39.1 L7.8,39.1" id="Shape"></path>
                <path d="M0.3,26.3 L7.8,26.3" id="Shape"></path>
                <path d="M0.3,13.5 L7.8,13.5" id="Shape"></path>
            </g>
            <polyline id="Shape" stroke="#F69679" stroke-width="3" points="711.3 271.7 711.3 106.8 756.5 106.8 756.5 209.3"></polyline>
            <path d="M710.1,99.9 L758.5,99.9" id="Shape" stroke="#00B48D" stroke-width="3"></path>
            <path d="M726.2,114.9 L726.2,271.7" id="Shape" stroke="#6A817C" stroke-width="3"></path>
            <polyline id="Shape" stroke="#231F20" stroke-width="3" points="926.1 226.8 926.1 121 967.3 121 967.3 271.7"></polyline>
            <path d="M935.5,134.9 L958.9,134.9" id="Shape" stroke="#56C5D0" stroke-width="3"></path>
            <path d="M935.5,154.3 L958.9,154.3" id="Shape" stroke="#56C5D0" stroke-width="3"></path>
            <path d="M935.5,193 L958.9,193" id="Shape" stroke="#56C5D0" stroke-width="3"></path>
            <path d="M935.5,173.7 L958.9,173.7" id="Shape" stroke="#56C5D0" stroke-width="3"></path>
            <path d="M926.1,113.4 L967.3,113.4" id="Shape" stroke="#231F20" stroke-width="3"></path>
            <polyline id="Shape" stroke="#6A817C" stroke-width="3" points="977.3 183.9 1001.3 183.9 1001.3 271.7"></polyline>
            <path d="M935.5,212.2 L958.9,212.2" id="Shape" stroke="#56C5D0" stroke-width="3"></path>
            <path d="M951.4,250.6 L958.9,250.6" id="Shape" stroke="#56C5D0" stroke-width="3"></path>
            <path d="M939.9,231.3 L958.9,231.3" id="Shape" stroke="#56C5D0" stroke-width="3"></path>
            <g id="Group" transform="translate(915.000000, 234.000000)" stroke-width="3">
                <path d="M12.8,37.7 L12.8,24.1" id="XMLID_232_" stroke="#17181B"></path>
                <circle id="XMLID_231_" stroke="#00B48D" cx="12.8" cy="12.1" r="12.1"></circle>
            </g>
            <g id="Group" transform="translate(877.000000, 234.000000)" stroke-width="3">
                <path d="M12.7,37.7 L12.7,24.1" id="XMLID_230_" stroke="#17181B"></path>
                <circle id="XMLID_229_" stroke="#00B48D" cx="12.7" cy="12.1" r="12.1"></circle>
            </g>
            <polyline id="XMLID_228_" stroke="#F69679" stroke-width="3" points="811.8 271.7 811.5 133.5 856.8 156.3 856.8 175.3"></polyline>
            <path d="M826.2,175.2 L826.2,164.7" id="XMLID_227_" stroke="#C6C9C9" stroke-width="3"></path>
            <path d="M826.2,200.1 L826.2,189.5" id="XMLID_226_" stroke="#C6C9C9" stroke-width="3"></path>
            <g id="Group" transform="translate(587.000000, 237.000000)" stroke-width="3">
                <path d="M7.9,25.5 L7.9,34.7" id="XMLID_225_" stroke="#17181B"></path>
                <polygon id="XMLID_224_" stroke="#00B48D" points="0.4 25.5 15.3 25.4 7.7 0.8"></polygon>
            </g>
            <path d="M349.1,256.6 L356.9,256.6 L356.9,268.7 L349.1,268.7 L349.1,256.6 L349.1,256.6 Z M346.1,253.6 L346.1,271.7 L359.9,271.7 L359.9,253.6 L346.1,253.6 L346.1,253.6 L346.1,253.6 Z" id="Shape" fill="#F69677"></path>
            <rect id="Rectangle-path" stroke="#56C5D0" stroke-width="3" x="838.6" y="184.8" width="66.7" height="8.2"></rect>
            <polyline id="XMLID_223_" stroke="#00B48D" stroke-width="3" points="754.5 271.7 754.5 218.7 798.1 218.7 798.1 271.7"></polyline>
            <g id="Group" transform="translate(762.000000, 228.000000)" stroke-width="3" stroke="#56C5D0">
                <g>
                    <path d="M0.9,0.7 L5.5,0.7" id="XMLID_222_"></path>
                    <path d="M0.9,9.8 L5.5,9.8" id="XMLID_221_"></path>
                    <path d="M0.9,18.8 L5.5,18.8" id="XMLID_220_"></path>
                </g>
                <g transform="translate(12.000000, 0.000000)">
                    <path d="M0,0.7 L4.6,0.7" id="XMLID_219_"></path>
                    <path d="M0,9.8 L4.6,9.8" id="XMLID_218_"></path>
                    <path d="M0,18.8 L4.6,18.8" id="XMLID_217_"></path>
                </g>
                <g transform="translate(23.000000, 0.000000)">
                    <path d="M0.2,0.7 L4.8,0.7" id="XMLID_216_"></path>
                    <path d="M0.2,9.8 L4.8,9.8" id="XMLID_215_"></path>
                    <path d="M0.2,18.8 L4.8,18.8" id="XMLID_214_"></path>
                </g>
            </g>
            <g id="Group" transform="translate(848.000000, 216.000000)" stroke="#6A817C" stroke-width="3">
                <path d="M0.2,0.3 L4.8,0.3" id="XMLID_213_"></path>
                <path d="M0.2,9.4 L4.8,9.4" id="XMLID_212_"></path>
            </g>
            <g id="Group" transform="translate(862.000000, 216.000000)" stroke="#6A817C" stroke-width="3">
                <path d="M0.2,0.3 L4.7,0.3" id="XMLID_211_"></path>
                <path d="M0.2,9.4 L4.7,9.4" id="XMLID_210_"></path>
            </g>
            <g id="Group" transform="translate(847.000000, 236.000000)" stroke="#6A817C" stroke-width="3">
                <path d="M0.5,0.2 L5.1,0.2" id="XMLID_209_"></path>
                <path d="M0.5,9.2 L5.1,9.2" id="XMLID_208_"></path>
            </g>
            <g id="Group" transform="translate(861.000000, 236.000000)" stroke="#6A817C" stroke-width="3">
                <path d="M0.4,0.2 L5,0.2" id="XMLID_207_"></path>
                <path d="M0.4,9.2 L5,9.2" id="XMLID_206_"></path>
            </g>
            <polyline id="Shape" stroke="#56C5D0" stroke-width="3" points="905.3 226.8 905.3 202.5 838.6 202.5 838.6 271.7"></polyline>
            <g id="Group" transform="translate(617.000000, 228.000000)" stroke-width="3">
                <rect id="Rectangle-path" stroke="#6A817C" x="0.3" y="0.1" width="84.9" height="14.2"></rect>
                <path d="M0.3,20.6 L0.3,43.7" id="Shape" stroke="#6A817C"></path>
                <path d="M85.2,20.6 L85.2,43.7" id="Shape" stroke="#6A817C"></path>
                <polyline id="Shape" stroke="#F69679" points="56.2 43.7 56.2 21.5 33.9 21.5 33.9 43.7"></polyline>
                <path d="M45,43.7 L45,31" id="Shape" stroke="#F69679"></path>
            </g>
            <polyline id="Shape" stroke="#56C5D0" stroke-width="3" points="626 215.8 626 153.8 702.2 153.9 702.2 215.8"></polyline>
            <path d="M702.2,146.4 L626,146.4" id="Shape" stroke="#6A817C" stroke-width="3"></path>
            <polyline id="Shape" stroke="#F69679" stroke-width="3" points="639.7 133.7 639.7 58.2 594.9 58.2 594.9 215.8"></polyline>
            <path d="M631.2,72.3 L603.3,72.3" id="Shape" stroke="#00B48D" stroke-width="3"></path>
            <path d="M631.2,106.8 L603.3,106.8" id="Shape" stroke="#00B48D" stroke-width="3"></path>
            <rect id="Rectangle-path" stroke="#6A817C" stroke-width="3" x="603.3" y="84.9" width="27.9" height="7.5"></rect>
            <g id="Group" transform="translate(639.000000, 166.000000)" stroke-width="3" stroke="#6A817C">
                <g id="Shape">
                    <path d="M36.5,6 L36.5,0.5"></path>
                    <path d="M48.4,6 L48.4,0.5"></path>
                    <path d="M12.6,6 L12.6,0.5"></path>
                    <path d="M24.6,6 L24.6,0.5"></path>
                    <path d="M0.7,6 L0.7,0.5"></path>
                </g>
                <g transform="translate(0.000000, 19.000000)" id="Shape">
                    <path d="M36.5,5.5 L36.5,0"></path>
                    <path d="M48.4,5.5 L48.4,0"></path>
                    <path d="M12.6,5.5 L12.6,0"></path>
                    <path d="M24.6,5.5 L24.6,0"></path>
                    <path d="M0.7,5.5 L0.7,0"></path>
                </g>
                <g transform="translate(0.000000, 37.000000)" id="Shape">
                    <path d="M36.5,6 L36.5,0.5"></path>
                    <path d="M48.4,6 L48.4,0.5"></path>
                    <path d="M12.6,6 L12.6,0.5"></path>
                    <path d="M24.6,6 L24.6,0.5"></path>
                    <path d="M0.7,6 L0.7,0.5"></path>
                </g>
            </g>
            <polyline id="Shape" stroke="#231F20" stroke-width="3" points="825.6 121.2 825.6 65.6 797.6 65.6 797.6 209.3"></polyline>
            <path d="M811.6,121 L811.6,55.6" id="Shape" stroke="#00B48D" stroke-width="3"></path>
            <polyline id="Shape" stroke="#6A817C" stroke-width="3" points="328.3 271.7 328.3 246.7 361.9 246.7"></polyline>
            <path d="M740.5,114.9 L740.5,209.3" id="Shape" stroke="#6A817C" stroke-width="3"></path>
            <g id="Group" transform="translate(4022.000000, 204.000000)" stroke-width="3">
                <polygon id="Shape" stroke="#00B48D" points="130.5 67.3 0.6 67.3 65.6 0"></polygon>
                <polygon id="Shape" stroke="#6A817C" fill="#FFFFFF" points="162.9 67.3 109.3 67.3 136.1 39.6"></polygon>
            </g>
            <path d="M3879.8,93.8 L3879.8,78.7" id="Shape" stroke="#56C5D0" stroke-width="3"></path>
            <g id="Group" transform="translate(3689.000000, 4.000000)" stroke-width="3">
                <polyline id="Shape" stroke="#F69679" points="151.6 171.5 148.6 27.4 97.8 27.4 94.8 228.7"></polyline>
                <path d="M123.2,0 L123.2,21.7" id="Shape" stroke="#00B48D"></path>
                <polyline id="Shape" stroke="#00B48D" points="137.1 40.2 123.2 141 109.2 40.2"></polyline>
                <g transform="translate(298.000000, 232.000000)">
                    <path d="M7.4,23.7 L7.4,35.3" id="XMLID_177_" stroke="#17181B"></path>
                    <polygon id="XMLID_176_" stroke="#00B48D" points="0.5 23.8 14.3 23.7 7.3 0.6"></polygon>
                </g>
                <g transform="translate(261.000000, 229.000000)">
                    <path d="M12.7,38.3 L12.7,24.9" id="XMLID_175_" stroke="#17181B"></path>
                    <circle id="XMLID_174_" stroke="#00B48D" cx="12.7" cy="12.9" r="12"></circle>
                </g>
                <polyline id="Shape" stroke="#67506C" points="217 267.3 217 200 273.7 200 273.7 219.8"></polyline>
                <polyline id="Shape" stroke="#162532" points="200 267.3 200 156.7 231 156.7 231 190.3"></polyline>
                <polyline id="Shape" stroke="#6A817C" points="132 267.3 132 181.7 190 181.7 190 267.3"></polyline>
                <polyline id="Shape" stroke="#56C5D0" points="171.6 171.5 171.6 122.8 202.6 122.8 202.6 144.5"></polyline>
                <polyline id="Shape" stroke="#56C5D0" points="193.3 113.2 193.3 94.8 202.8 89.8 212.4 94.8 212.4 142.7"></polyline>
                <path d="M102.7,21.6 L143.7,21.6" id="Shape" stroke="#00B48D"></path>
                <polyline id="Shape" stroke="#F68D70" points="56.7 267.3 56.7 158.1 80.7 158.1"></polyline>
                <polyline id="Shape" stroke="#56C5D0" points="119.8 267.3 119.8 235.9 68.5 235.9"></polyline>
                <polyline id="Shape" stroke="#6A817C" points="0.3 191.1 25.6 190.4 25.6 267.3"></polyline>
                <polyline id="Shape" stroke="#00B48D" points="36.7 267.3 36.7 131.4 66.4 114.2 66.7 150.6"></polyline>
                <g transform="translate(145.000000, 195.000000)" stroke="#6A817C">
                    <g>
                        <path d="M0.9,0.9 L5.4,0.9" id="XMLID_173_"></path>
                        <path d="M0.9,10 L5.4,10" id="XMLID_172_"></path>
                        <path d="M0.9,19 L5.4,19" id="XMLID_171_"></path>
                    </g>
                    <g transform="translate(14.000000, 0.000000)">
                        <path d="M0.8,0.9 L5.3,0.9" id="XMLID_170_"></path>
                        <path d="M0.8,10 L5.3,10" id="XMLID_169_"></path>
                        <path d="M0.8,19 L5.3,19" id="XMLID_168_"></path>
                    </g>
                    <g transform="translate(28.000000, 0.000000)">
                        <path d="M0.7,0.9 L5.2,0.9" id="XMLID_167_"></path>
                        <path d="M0.7,10 L5.2,10" id="XMLID_166_"></path>
                        <path d="M0.7,19 L5.2,19" id="XMLID_165_"></path>
                    </g>
                </g>
                <path d="M68.5,248.7 L109.2,248.7" id="Shape" stroke="#231F20"></path>
                <path d="M66.7,166.2 L66.7,227.1" id="Shape" stroke="#00B48D"></path>
                <g transform="translate(215.000000, 168.000000)" stroke="#F59278">
                    <g id="XMLID_163_" transform="translate(1.000000, 19.000000)">
                        <path d="M0,0.3 L4,0.3" id="XMLID_164_"></path>
                    </g>
                    <g id="XMLID_159_" transform="translate(1.000000, 9.000000)">
                        <path d="M0,0.8 L4,0.8" id="XMLID_162_"></path>
                    </g>
                    <g id="XMLID_141_">
                        <path d="M0.9,0.3 L4.9,0.3" id="XMLID_144_"></path>
                    </g>
                </g>
                <path d="M231,267.3 L231,248.1" id="Shape" stroke="#67506C"></path>
            </g>
            <path d="M3048.3,3.7 L3048.3,272.7" id="Shape" stroke="#6A817C" stroke-width="3"></path>
            <g id="Group" transform="translate(3372.000000, 73.000000)" stroke-width="3">
                <g transform="translate(115.000000, 171.000000)">
                    <path d="M9.5,28.7 L9.5,18.6" id="XMLID_140_" stroke="#17181B"></path>
                    <circle id="XMLID_137_" stroke="#00B48D" cx="9.5" cy="9.5" r="9.1"></circle>
                </g>
                <g transform="translate(51.000000, 0.000000)" id="Shape" stroke="#00B388">
                    <polyline points="0.2 198.3 0.2 159.7 8.7 154.7 8.7 58.1 42.7 58.1 42.7 133.7"></polyline>
                    <polyline points="15.1 50.1 15.1 35.2 36.3 35.2 36.3 50.1"></polyline>
                    <path d="M36.3,28.8 L15.1,28.8"></path>
                    <path d="M25.7,28.7 L25.7,0.9"></path>
                    <path d="M25.7,67.7 L25.7,133.7"></path>
                </g>
                <polyline id="Shape" stroke="#6A817C" points="39.8 198.3 39.8 97.2 26.4 97.2 26.4 121.8"></polyline>
                <polyline id="Shape" stroke="#56C5D0" points="26.4 198.3 26.4 136 0.4 136"></polyline>
                <g transform="translate(14.000000, 148.000000)" id="Shape" stroke="#67506C">
                    <path d="M0.9,32.5 L0.9,29.3"></path>
                    <path d="M0.9,4.1 L0.9,0.8"></path>
                    <path d="M0.9,19 L0.9,15.8"></path>
                </g>
                <polyline id="Shape" stroke="#000000" points="112.6 145 82.3 145 82.3 198.3"></polyline>
                <polyline id="Shape" stroke="#F68D70" points="165.5 199.7 165.5 124.3 124.5 124.3 124.5 162.3"></polyline>
                <g transform="translate(134.000000, 136.000000)" id="Shape" stroke="#56C5D0">
                    <g>
                        <path d="M0.9,3.4 L0.9,0.2"></path>
                        <path d="M21.1,3.4 L21.1,0.2"></path>
                        <path d="M11,3.4 L11,0.2"></path>
                    </g>
                    <g transform="translate(0.000000, 15.000000)">
                        <path d="M0.9,3.4 L0.9,0.2"></path>
                        <path d="M21.1,3.4 L21.1,0.2"></path>
                        <path d="M11,3.4 L11,0.2"></path>
                    </g>
                </g>
                <path d="M112.6,155.9 L90.6,155.9" id="Shape" stroke="#56C5D0"></path>
            </g>
            <polyline id="Shape" stroke="#00B48D" stroke-width="3" points="984 169.3 984 133.6 989.2 133.6 989.2 117.2 1011.3 99.3 1033.4 117.2 1033.4 133.6 1038.6 133.6 1038.6 271.7"></polyline>
            <g id="Group" transform="translate(1164.000000, 233.000000)" stroke="#6A817C" stroke-width="3">
                <path d="M24.2,5.5 L24.2,0" id="Shape"></path>
                <path d="M0.3,5.5 L0.3,0" id="Shape"></path>
                <path d="M12.3,5.5 L12.3,0" id="Shape"></path>
            </g>
            <g id="Group" transform="translate(338.000000, 16.000000)" stroke-width="3" stroke="#56C5D0">
                <polyline id="Shape" points="0.2 193.3 20.6 0.6 47.7 255.7"></polyline>
                <path d="M18.6,97.3 L9.4,193" id="Shape"></path>
            </g>
            <g id="Group" transform="translate(1015.000000, 147.000000)" stroke="#F69679" stroke-width="3">
                <path d="M9.6,0 L0.2,0" id="Shape"></path>
                <path d="M9.6,61.1 L0.2,61.1" id="Shape"></path>
                <path d="M9.6,91.7 L0.2,91.7" id="Shape"></path>
                <path d="M9.6,76.4 L0.2,76.4" id="Shape"></path>
                <path d="M9.6,45.9 L0.2,45.9" id="Shape"></path>
                <path d="M9.6,30.6 L0.2,30.6" id="Shape"></path>
                <path d="M9.6,15.3 L0.2,15.3" id="Shape"></path>
            </g>
            <polyline id="XMLID_124_" stroke="#231F20" stroke-width="3" points="1159.4 218.7 1217.1 218.7 1217.1 271.7"></polyline>
            <polyline id="XMLID_121_" stroke="#6A817C" stroke-width="3" points="1126.2 271.7 1126.2 180 1150.9 180 1150.9 271.7"></polyline>
            <path d="M1138.6,169.3 L1138.6,271.7" id="Shape" stroke="#00B48D" stroke-width="3"></path>
            <polyline id="XMLID_120_" stroke="#67506C" stroke-width="3" points="1077.8 271.7 1077.8 225.9 1063.2 211.7 1049.1 225.8 1049.1 271.7"></polyline>
            <path d="M1066.2,273.2 L1066.2,257" id="Shape" stroke="#56C5D0" stroke-width="3"></path>
            <polyline id="XMLID_119_" stroke="#6A817C" stroke-width="3" points="1066.2 190.8 1109.5 190.8 1109.5 271.7"></polyline>
            <g id="Group" transform="translate(1092.000000, 202.000000)" stroke="#56C5D0" stroke-width="3">
                <path d="M6.1,16.3 L0.3,16.3" id="Shape"></path>
                <path d="M6.1,32.3 L0.3,32.3" id="Shape"></path>
                <path d="M6.1,0.2 L0.3,0.2" id="Shape"></path>
            </g>
            <g id="Group" transform="translate(1696.000000, 65.000000)" stroke-width="3" stroke="#F69679">
                <polyline id="Shape" points="0.7 145.6 0.7 137 30.3 121.3 30.3 114.1 30.3 23.8 41.6 18.8 41.6 46.4 58.9 57.7 58.9 205.9"></polyline>
                <path d="M30.3,30.7 L30.3,5" id="Shape"></path>
                <path d="M41.6,26.2 L41.6,0.5" id="Shape"></path>
            </g>
            <polyline id="XMLID_114_" stroke="#00B48D" stroke-width="3" points="1765.7 270.9 1765.7 184.9 1790.9 184.9 1790.9 270.9"></polyline>
            <polyline id="XMLID_113_" stroke="#F69679" stroke-width="3" points="1651.2 213.6 1651.2 175.3 1680.9 175.3 1680.9 270.9"></polyline>
            <polyline id="XMLID_112_" stroke="#6A817C" stroke-width="3" points="1690.6 271.5 1690.6 218.4 1743.1 218.4 1743.1 271.5"></polyline>
            <g id="Group" transform="translate(1660.000000, 187.000000)" stroke="#000000" stroke-width="3">
                <path d="M4,0.3 L0.1,0.3" id="Shape"></path>
                <path d="M4,9.6 L0.1,9.6" id="Shape"></path>
                <path d="M4,18.8 L0.1,18.8" id="Shape"></path>
            </g>
            <rect id="Rectangle-path" stroke="#56C5D0" stroke-width="3" x="1696.7" y="226.4" width="39.6" height="10.6"></rect>
            <path d="M1696.7,244.3 L1736.3,244.3" id="Shape" stroke="#67506C" stroke-width="3"></path>
            <path d="M1780.7,200.5 L1780.7,193" id="XMLID_108_" stroke="#231F20" stroke-width="3"></path>
            <path d="M1780.7,218.3 L1780.6,210.7" id="XMLID_103_" stroke="#231F20" stroke-width="3"></path>
            <path d="M1780.6,236 L1780.6,228.5" id="XMLID_102_" stroke="#231F20" stroke-width="3"></path>
            <polyline id="Shape" stroke="#6A817C" stroke-width="3" points="250 209.3 238.5 158 238.5 118 230.5 118 222.5 92.1 214.4 118 206.4 118 206.4 158 192.1 221.9"></polyline>
            <g id="Group" transform="translate(216.000000, 133.000000)" stroke="#00B388" stroke-width="3">
                <path d="M0.6,0.6 L8.1,0.6" id="Shape"></path>
                <path d="M0.6,51.8 L8.1,51.8" id="Shape"></path>
                <path d="M0.6,39 L8.1,39" id="Shape"></path>
                <path d="M0.6,26.2 L8.1,26.2" id="Shape"></path>
                <path d="M0.6,13.4 L8.1,13.4" id="Shape"></path>
            </g>
            <polyline id="XMLID_101_" stroke="#67506C" stroke-width="3" points="213.3 271.7 213.3 217.7 282.5 217.7 282.5 226.3"></polyline>
            <g id="Group" transform="translate(270.000000, 234.000000)" stroke-width="3">
                <path d="M12.5,37.7 L12.5,24.1" id="XMLID_100_" stroke="#17181B"></path>
                <circle id="XMLID_99_" stroke="#00B48D" cx="12.5" cy="12.1" r="12.1"></circle>
            </g>
            <g id="Group" transform="translate(173.000000, 234.000000)" stroke-width="3">
                <path d="M12.7,37.7 L12.7,24.1" id="XMLID_98_" stroke="#17181B"></path>
                <circle id="XMLID_97_" stroke="#00B48D" cx="12.7" cy="12.1" r="12.1"></circle>
            </g>
            <polyline id="XMLID_96_" stroke="#00B48D" stroke-width="3" points="260.8 209.3 260.8 181.6 320.4 181.6 320.4 271.7"></polyline>
            <path d="M273.9,209.5 L273.9,190.1" id="Shape" stroke="#F69679" stroke-width="3"></path>
            <path d="M282,209.7 L282,190.2" id="Shape" stroke="#F69679" stroke-width="3"></path>
            <g id="Group" transform="translate(129.000000, 234.000000)" stroke-width="3">
                <path d="M12.3,37.7 L12.3,24.1" id="XMLID_95_" stroke="#17181B"></path>
                <circle id="XMLID_94_" stroke="#00B48D" cx="12.3" cy="12.1" r="12.1"></circle>
            </g>
            <g id="Group" transform="translate(227.000000, 249.000000)" stroke-width="3" stroke="#F69679">
                <polyline id="Shape" points="22.9 22.7 22.9 0.5 0.7 0.5"></polyline>
                <path d="M11.8,22.7 L11.8,10" id="Shape"></path>
            </g>
            <path d="M328.5,237.8 L363.1,237.8" id="Shape" stroke="#F69679" stroke-width="3"></path>
            <polyline id="XMLID_93_" stroke="#00B48D" stroke-width="3" points="110.9 271.7 110.9 181.3 153.5 181.3 153.5 226.7"></polyline>
            <path d="M110.9,172 L153.5,172" id="Shape" stroke="#00B48D" stroke-width="3"></path>
            <path d="M114.9,164.7 L149.5,164.7" id="Shape" stroke="#00B48D" stroke-width="3"></path>
            <path d="M132.2,163.1 L132.2,145.4" id="Shape" stroke="#00B48D" stroke-width="3"></path>
            <rect id="Rectangle-path" stroke="#6A817C" stroke-width="3" x="118.3" y="190.2" width="27.9" height="7.5"></rect>
            <polyline id="XMLID_92_" stroke="#67506C" stroke-width="3" points="89.1 211.3 89.1 120 117.7 120 117.7 154.3"></polyline>
            <g id="Group" transform="translate(2765.000000, 16.000000)">
                <polyline id="Shape" stroke="#6A817C" stroke-width="3" points="80.9 184.5 29.3 184.5 29.3 25.2"></polyline>
                <polyline id="Shape" stroke="#6A817C" stroke-width="3" points="217.8 25.2 217.8 184.5 147.1 184.5"></polyline>
                <path d="M0.5,16.1 L0.5,184.5" id="Shape" stroke="#6A817C" stroke-width="3"></path>
                <path d="M6.5,16.1 L6.5,184.5" id="Shape" stroke="#6A817C" stroke-width="3"></path>
                <path d="M12.5,16.1 L12.5,184.5" id="Shape" stroke="#6A817C" stroke-width="3"></path>
                <path d="M18.5,16.1 L18.5,184.5" id="Shape" stroke="#6A817C" stroke-width="3"></path>
                <path d="M0.5,1.2 C3.3,1.2 5.6,3.5 5.6,6.3 L13.4,6.3 C13.4,3.5 15.7,1.2 18.5,1.2" id="Shape" stroke="#6A817C" stroke-width="3"></path>
                <path d="M18.5,242.5 L18.5,199 C15.7,199 13.4,196.7 13.4,193.9 L5.6,193.9 C5.6,196.7 3.3,199 0.5,199 L0.5,242.5 C3.3,242.5 5.6,244.8 5.6,247.6 L13.4,247.6 C13.4,244.8 15.7,242.5 18.5,242.5 L18.5,242.5 Z" id="Shape" stroke="#6A817C" stroke-width="3"></path>
                <path d="M78.3,193.9 L34,193.9 C34,196.7 31.7,199 28.9,199 L28.9,242.5 C31.7,242.5 34,244.8 34,247.6 L77.3,247.6" id="Shape" stroke="#6A817C" stroke-width="3"></path>
                <path d="M151,247.6 L212.6,247.6 C212.6,244.8 214.9,242.5 217.7,242.5 L217.7,199 C214.9,199 212.6,196.7 212.6,193.9 L147.6,193.9" id="Shape" stroke="#6A817C" stroke-width="3"></path>
                <path d="M228.6,16.1 L228.6,184.5" id="Shape" stroke="#6A817C" stroke-width="3"></path>
                <path d="M234.5,16.1 L234.5,184.5" id="Shape" stroke="#6A817C" stroke-width="3"></path>
                <path d="M240.5,16.1 L240.5,184.5" id="Shape" stroke="#6A817C" stroke-width="3"></path>
                <path d="M246.5,16.1 L246.5,184.5" id="Shape" stroke="#6A817C" stroke-width="3"></path>
                <path d="M228.6,1.2 C231.4,1.2 233.7,3.5 233.7,6.3 L241.5,6.3 C241.5,3.5 243.8,1.2 246.6,1.2" id="Shape" stroke="#6A817C" stroke-width="3"></path>
                <path d="M246.5,242.5 L246.5,199 C243.7,199 241.4,196.7 241.4,193.9 L233.6,193.9 C233.6,196.7 231.3,199 228.5,199 L228.5,242.5 C231.3,242.5 233.6,244.8 233.6,247.6 L241.4,247.6 C241.4,244.8 243.7,242.5 246.5,242.5 L246.5,242.5 Z" id="Shape" stroke="#6A817C" stroke-width="3"></path>
                <path d="M25.7,0.7 L25.7,15.4 C28.8,18.5 33.2,20.4 38,20.4 C42.8,20.4 47.1,18.5 50.3,15.4 L50.3,0.7" id="Shape" stroke="#C6C9C9" fill="#FFFFFF"></path>
                <path d="M25.7,0.7 L25.7,15.4 C28.8,18.5 33.2,20.4 38,20.4 C42.8,20.4 47.1,18.5 50.3,15.4 L50.3,0.7" id="Shape" stroke="#C6C9C9" stroke-width="3"></path>
                <path d="M78.8,7.5 L78.8,0.7" id="Shape" stroke="#C6C9C9" fill="#FFFFFF"></path>
                <path d="M54.3,0.7 L54.3,15.4 C57.4,18.5 61.8,20.4 66.6,20.4" id="Shape" stroke="#C6C9C9" fill="#FFFFFF"></path>
                <path d="M78.8,7.5 L78.8,0.7" id="Shape" stroke="#C6C9C9" stroke-width="3"></path>
                <path d="M54.3,0.7 L54.3,15.4 C57.4,18.5 61.8,20.4 66.6,20.4" id="Shape" stroke="#C6C9C9" stroke-width="3"></path>
                <path d="M107.4,7.5 L107.4,0.7" id="Shape" stroke="#C6C9C9" fill="#FFFFFF"></path>
                <path d="M82.9,0.7 L82.9,7.5" id="Shape" stroke="#C6C9C9" fill="#FFFFFF"></path>
                <path d="M107.4,7.5 L107.4,0.7" id="Shape" stroke="#C6C9C9" stroke-width="3"></path>
                <path d="M82.9,0.7 L82.9,7.5" id="Shape" stroke="#C6C9C9" stroke-width="3"></path>
                <path d="M123.8,20.5 C128.6,20.5 132.9,18.6 136.1,15.5 L136.1,0.8" id="Shape" stroke="#C6C9C9" fill="#FFFFFF"></path>
                <path d="M111.5,0.7 L111.5,7.5" id="Shape" stroke="#C6C9C9" fill="#FFFFFF"></path>
                <path d="M123.8,20.5 C128.6,20.5 132.9,18.6 136.1,15.5 L136.1,0.8" id="Shape" stroke="#C6C9C9" stroke-width="3"></path>
                <path d="M111.5,0.7 L111.5,7.5" id="Shape" stroke="#C6C9C9" stroke-width="3"></path>
                <path d="M164.6,10.5 L164.6,0.7" id="Shape" stroke="#C6C9C9" fill="#FFFFFF"></path>
                <path d="M140.1,0.7 L140.1,15.4 C143.2,18.5 147.6,20.4 152.4,20.4" id="Shape" stroke="#C6C9C9" fill="#FFFFFF"></path>
                <path d="M164.6,10.5 L164.6,0.7" id="Shape" stroke="#C6C9C9" stroke-width="3"></path>
                <path d="M140.1,0.7 L140.1,15.4 C143.2,18.5 147.6,20.4 152.4,20.4" id="Shape" stroke="#C6C9C9" stroke-width="3"></path>
                <path d="M181,20.5 C185.8,20.5 190.1,18.6 193.3,15.5 L193.3,0.8" id="Shape" stroke="#C6C9C9" fill="#FFFFFF"></path>
                <path d="M168.7,0.7 L168.7,10.5" id="Shape" stroke="#C6C9C9" fill="#FFFFFF"></path>
                <path d="M181,20.5 C185.8,20.5 190.1,18.6 193.3,15.5 L193.3,0.8" id="Shape" stroke="#C6C9C9" stroke-width="3"></path>
                <path d="M168.7,0.7 L168.7,10.5" id="Shape" stroke="#C6C9C9" stroke-width="3"></path>
                <path d="M197.3,0.7 L197.3,15.4 C200.4,18.5 204.8,20.4 209.6,20.4 C214.4,20.4 218.7,18.5 221.9,15.4 L221.9,0.7" id="Shape" stroke="#C6C9C9" fill="#FFFFFF"></path>
                <path d="M197.3,0.7 L197.3,15.4 C200.4,18.5 204.8,20.4 209.6,20.4 C214.4,20.4 218.7,18.5 221.9,15.4 L221.9,0.7" id="Shape" stroke="#C6C9C9" stroke-width="3"></path>
                <path d="M199.2,138 L203.3,138 L203.3,123.4 C196.8,123.4 192.4,130.7 189.6,130.7 L184.1,130.7 L184.1,138 L190.7,138 C190.7,138 194.6,130.8 198.6,130.8" id="Shape" stroke="#CACCCE" stroke-width="3"></path>
                <path d="M186.9,122.2 L186.9,127.2" id="Shape" stroke="#CACCCE" stroke-width="3"></path>
                <path d="M50.3,142.3 C50.3,138.6 49.4,136.5 47.9,133.5 C47.9,133.5 48.1,128.6 50.3,126.9 L58.7,136.9 C58.7,136.9 65.7,137.3 66.6,141.4 L57.2,141.4" id="Shape" stroke="#CACCCE" stroke-width="3"></path>
                <path d="M78.5,87.1 C78.5,83.4 79.4,81.3 80.9,78.3 C80.9,78.3 80.7,73.4 78.5,71.7 L70.1,81.7 C70.1,81.7 63.1,82.1 62.2,86.2 L71.6,86.2" id="Shape" stroke="#CACCCE" stroke-width="3"></path>
                <path d="M146.9,129.8 C146.9,127.2 148.4,125.3 154.3,123.2 C160.2,121.1 159.2,113.6 159.2,113.6 L156.4,82.3 L167.2,82.3 C167.2,82.3 166.7,101 167,115.9 C167.1,121.2 168.2,126.9 168.2,129.8" id="Shape" stroke="#CACCCE" stroke-width="3"></path>
                <path d="M158,129.8 C158,127.7 157.8,128.1 163.5,126.5 L163.5,129.8" id="Shape" stroke="#CACCCE" stroke-width="3"></path>
                <path d="M168.2,162.3 L168.2,169.3 L186.2,169.3 C186.2,169.3 186.1,166.4 183.3,165.8 C181.2,165.3 174.8,165.5 174.8,162.3" id="Shape" stroke="#CACCCE" stroke-width="3"></path>
                <path d="M167.1,159.7 L175.8,159.7" id="Shape" stroke="#CACCCE" stroke-width="3"></path>
                <path d="M167.1,156 L175.8,156" id="Shape" stroke="#CACCCE" stroke-width="3"></path>
                <polyline id="Shape" stroke="#CACCCE" stroke-width="3" points="42.8 179.3 42.8 145.4 71.4 145.4 71.4 179.9"></polyline>
                <polyline id="Shape" stroke="#CACCCE" stroke-width="3" points="159.1 173.4 211.5 173.4 211.5 179.9"></polyline>
                <polyline id="Shape" stroke="#CACCCE" stroke-width="3" points="136.9 133.7 173.7 133.7 173.7 151.2"></polyline>
                <polyline id="Shape" stroke="#CACCCE" stroke-width="3" points="181.5 160.8 181.5 142.5 208.1 142.5 208.1 169.4"></polyline>
                <polyline id="Shape" stroke="#CACCCE" stroke-width="3" points="54.2 118.5 54.2 90 84.6 90"></polyline>
            </g>
            <g id="Group" transform="translate(2839.000000, 30.000000)" stroke-width="3">
                <g id="_x3C_Group_x3E__2_">
                    <g id="Group">
                        <g id="XMLID_88_" transform="translate(28.000000, 52.000000)" stroke="#56C5D0">
                            <polyline id="XMLID_89_" points="17.5 0.5 28.1 105.6 0.5 105.6"></polyline>
                        </g>
                        <path d="M18.4,55.2 C18.4,60.9 19.7,68.1 20.9,73.2 C23.1,82.3 26.2,95.6 26.2,95.6 L9.9,157.6 L37.5,157.6" id="XMLID_87_" stroke="#56C5D0"></path>
                        <path d="M40.6,163.6 C42,177.7 54.7,234.8 54.7,234.8 L62.4,234.8 L55.5,162.1" id="XMLID_86_" stroke="#231F20"></path>
                        <path d="M17.3,51.8 C17.3,44.2 21.1,41.3 30.3,41.5 C31,41.5 48.2,42.4 59.2,42.9 C65.1,43.2 70.9,41.9 76.2,39.2 L98.9,26.4 C100.8,25.4 101.9,23.4 101.9,21.2 L101.9,16.7" id="XMLID_85_" stroke="#231F20"></path>
                        <g id="XMLID_82_" transform="translate(18.000000, 0.000000)" stroke="#F68D70" fill="#FFFFFF">
                            <circle id="XMLID_84_" cx="11.2" cy="11.4" r="10.8"></circle>
                        </g>
                        <path d="M30.9,10 L39.3,10" id="XMLID_81_" stroke="#F68D70"></path>
                        <path d="M21.7,3.6 L20.1,2.3 C15,-1.8 7.4,1.9 7.4,8.4 L7.4,16.9 C7.4,20.8 5.9,25.7 0.3,27.2 C0.3,27.2 1.7,34.8 10.4,34.8 C16.1,34.8 19.1,30.4 19.1,28.1" id="XMLID_80_" stroke="#F68D70"></path>
                        <g id="XMLID_77_" transform="translate(26.000000, 7.000000)" stroke="#231F20" fill="#FFFFFF">
                            <path d="M0.9,28.6 L3.4,22.3 C10,23.7 13.7,18.7 13.7,12.9 L13.7,0.8" id="XMLID_79_"></path>
                        </g>
                    </g>
                    <path d="M65.1,242 L53.3,242" id="XMLID_76_" stroke="#231F20"></path>
                    <path d="M31.2,163.6 C29.8,177.7 17.1,234.8 17.1,234.8 L9.4,234.8 L16.3,162.1" id="XMLID_75_" stroke="#231F20"></path>
                    <path d="M6.7,242 L18.5,242" id="XMLID_74_" stroke="#231F20"></path>
                </g>
                <path d="M94.4,22.5 L94.4,6.5" id="Shape" stroke="#56C5D0"></path>
                <path d="M53.7,51.8 L67.9,65.8 C71.9,69.8 72.2,76.2 68.4,80.5 L55.8,94.8" id="Shape" stroke="#17181B" fill="#FFFFFF"></path>
            </g>
            <g id="Group" transform="translate(2285.000000, 25.000000)" stroke-width="3">
                <polyline id="Shape" stroke="#6A817C" points="187 226 61.2 226 61.2 0.6 368 0.6"></polyline>
                <path d="M0.4,247.7 L0.4,107.6" id="Shape" stroke="#6A817C"></path>
                <path d="M26.3,18.5 L50.4,18.5" id="Shape" stroke="#6A817C"></path>
                <path d="M29.9,12.7 L46.8,12.7" id="Shape" stroke="#6A817C"></path>
                <path d="M33.7,7.3 L43,7.3" id="Shape" stroke="#6A817C"></path>
                <path d="M50.4,72.4 L26.3,72.4" id="Shape" stroke="#6A817C"></path>
                <path d="M46.8,78.2 L29.9,78.2" id="Shape" stroke="#6A817C"></path>
                <path d="M43,83.7 L33.7,83.7" id="Shape" stroke="#6A817C"></path>
                <g transform="translate(24.000000, 0.000000)" id="Shape">
                    <path d="M0.3,30.4 L30.1,0.6" stroke="#00B48D"></path>
                    <path d="M0.3,41.9 L30.1,12.1" stroke="#2B4356"></path>
                    <path d="M0.3,53.5 L30.1,23.7" stroke="#00B48D"></path>
                    <path d="M0.3,65 L30.1,35.2" stroke="#2B4356"></path>
                    <path d="M0.3,76.6 L30.1,46.8" stroke="#00B48D"></path>
                    <path d="M0.3,88.1 L30.1,58.3" stroke="#2B4356"></path>
                    <path d="M0.3,99.7 L30.1,69.9" stroke="#00B48D"></path>
                    <path d="M0.3,111.2 L30.1,81.5" stroke="#2B4356"></path>
                </g>
                <g transform="translate(80.000000, 5.000000)" id="Shape" stroke="#CACCCE">
                    <polyline points="261.7 59.2 9 59.2 9 20.4 275.1 20.4"></polyline>
                    <path d="M21.7,0.7 L21.7,15.5"></path>
                    <path d="M246.6,0.7 L246.6,15.5"></path>
                    <polyline points="0.5 214.5 0.5 138.3 29.8 138.3 29.8 214.5"></polyline>
                    <polyline points="90.5 214.5 90.5 119.8 111.5 119.8"></polyline>
                    <polyline points="38.9 214.5 38.9 155.2 72.8 155.2 72.8 214.5"></polyline>
                    <path d="M125.4,95.8 L100.4,95.8 L96,111.3 C96,111.3 101.6,114 111.6,114"></path>
                </g>
                <ellipse id="Oval" stroke="#CACCCE" cx="191.6" cy="103" rx="7.6" ry="11.9"></ellipse>
                <ellipse id="Oval" stroke="#CACCCE" cx="95.3" cy="117.5" rx="7.6" ry="11.9"></ellipse>
                <polygon id="Shape" stroke="#CACCCE" points="103.1 138.6 87.1 138.6 84.7 122.7 105.4 122.7"></polygon>
                <rect id="Rectangle-path" stroke="#CACCCE" x="123.4" y="143.3" width="23.3" height="12.3"></rect>
            </g>
            <path d="M2731.6,3.7 L2731.6,231.1" id="Shape" stroke="#6A817C" stroke-width="3"></path>
            <path d="M2285.4,49.8 L2285.4,3.7" id="Shape" stroke="#6A817C" stroke-width="3"></path>
            <g id="Group" transform="translate(2005.000000, 0.000000)" stroke-width="3">
                <path d="M78.5,272.7 L78.5,126.6" id="XMLID_59_" stroke="#6A817C"></path>
                <circle id="Oval" stroke="#00B48D" fill="#FFFFFF" cx="78.5" cy="78.3" r="77.8"></circle>
            </g>
            <polyline id="XMLID_58_" stroke="#00B48D" stroke-width="3" points="484.1 271.7 484.1 192.9 527.7 192.9"></polyline>
            <g id="Group" transform="translate(497.000000, 206.000000)" stroke="#6A817C" stroke-width="3">
                <path d="M0.8,0.3 L5.4,0.3" id="XMLID_57_"></path>
                <path d="M0.8,9.3 L5.4,9.3" id="XMLID_56_"></path>
            </g>
            <g id="Group" transform="translate(497.000000, 226.000000)" stroke="#6A817C" stroke-width="3">
                <path d="M0.1,0.2 L4.7,0.2" id="XMLID_55_"></path>
                <path d="M0.1,9.2 L4.7,9.2" id="XMLID_54_"></path>
            </g>
            <polyline id="XMLID_53_" stroke="#67506C" stroke-width="3" points="462 271.7 462 145.2 490.6 145.2 490.6 179.4"></polyline>
            <g id="Group" transform="translate(395.000000, 232.000000)" stroke-width="3">
                <polyline id="Shape" stroke="#56C5D0" points="40.6 13.9 27.4 13.9 27.4 39.7"></polyline>
                <polyline id="Shape" stroke="#231F1F" points="50.2 39.7 50.2 0.8 0.3 0.8"></polyline>
            </g>
            <polyline id="XMLID_52_" stroke="#56C5D0" stroke-width="3" points="424.4 224.6 424.4 189 445.3 189 445.3 224.6"></polyline>
            <path d="M434.9,223.7 L434.9,206.8" id="Shape" stroke="#67506C" stroke-width="3"></path>
            <path d="M0.5,285 L4207,285" id="Shape" stroke="#231F1F" stroke-width="3"></path>
        </g>
    </g>
</svg>