<?xml version="1.0" encoding="utf-8"?>
<!-- Generator: Adobe Illustrator 20.0.0, SVG Export Plug-In . SVG Version: 6.00 Build 0)  -->
<svg version="1.1" id="Layer_1" xmlns="http://www.w3.org/2000/svg" xmlns:xlink="http://www.w3.org/1999/xlink" x="0px" y="0px"
	 viewBox="0 0 4195 340.3" style="enable-background:new 0 0 4195 340.3;" xml:space="preserve">
<style type="text/css">
	.st0{fill:#FFFFFF;stroke:#56C5D0;stroke-width:6;stroke-miterlimit:10;}
	.st1{fill:none;stroke:#56C5D0;stroke-width:6;stroke-miterlimit:10;}
	.st2{fill:none;stroke:#F68D70;stroke-width:6;stroke-linecap:square;stroke-miterlimit:10;}
	.st3{fill:none;stroke:#162532;stroke-width:6;stroke-linecap:round;stroke-linejoin:round;stroke-miterlimit:10;}
	.st4{fill:none;stroke:#231F20;stroke-width:4;stroke-miterlimit:10;}
	.st5{fill:none;stroke:#F68D70;stroke-width:4;stroke-linecap:square;stroke-miterlimit:10;}
	.st6{fill:none;stroke:#F68D70;stroke-width:4;stroke-miterlimit:10;}
	.st7{fill:none;stroke:#162532;stroke-width:6;stroke-miterlimit:10;}
	.st8{fill:#FFFFFF;}
	.st9{fill:none;stroke:#162532;stroke-width:6;stroke-linecap:square;stroke-miterlimit:10;}
	.st10{clip-path:url(#XMLID_2_);fill:none;stroke:#6A817C;stroke-width:4;stroke-miterlimit:10;}
	.st11{clip-path:url(#XMLID_3_);fill:none;stroke:#231F20;stroke-width:4;stroke-miterlimit:10;}
</style>
<g>
	<g>
		<path class="st0" d="M3262.5,201.8c0,0,21.7-21.7,21.7-21.7c5-5,5-13,0-18c-2.4-2.4-5.6-3.7-8.8-3.7l-16.7,0h-44.4l-21.1,0v8.8
			c0,11.2,4.5,21.4,11.8,28.8c0,0,41.7,31.7,41.7,33.3l7.3,55.7h17.6l-2.6-59.2v-2.7c0-4-1.6-7.6-4.2-10.2l-42.3-36.8"/>
		<line class="st1" x1="3256.6" y1="178" x2="3247.9" y2="188.6"/>
	</g>
	<line class="st2" x1="3242.2" y1="140.9" x2="3242.2" y2="148.3"/>
	<path class="st2" d="M3193.3,148.3v-10.8c0-14,5.6-26.8,14.8-36l14.6-14.6l0,0c3.5-3.3,8.1-5.3,13.3-5.3"/>
	<circle class="st3" cx="3361.9" cy="275.5" r="54.5"/>
	<g>
		<g>
			<g>
				<path class="st4" d="M3269.9,120l32.7,0h8.9c9.2,0,16.6,7.4,16.6,16.6"/>
				<path class="st4" d="M3329.5,136.3"/>
			</g>
		</g>
	</g>
	<path class="st2" d="M3264.3,116.4l-14.2-14.2c-4.9-4.9-12.9-4.9-17.8,0c-4.9,4.9-4.9,12.9,0,17.8l0,0v0l0,0l0,0l14.2,14.2"/>
	<g>
		<line class="st5" x1="3321.1" y1="178" x2="3361.9" y2="275.3"/>
		<line class="st5" x1="3321.9" y1="206.8" x2="3278.8" y2="249.9"/>
		<polyline class="st6" points="3212.2,275.7 3164.2,275.7 3222.6,217.3 		"/>
		<path class="st7" d="M3208.9,244.4c6.1,8.8,9.7,19.5,9.7,31.1c0,30.1-24.4,54.5-54.5,54.5c-30.1,0-54.5-24.4-54.5-54.5
			c0-30.1,24.4-54.5,54.5-54.5c12.1,0,23.2,3.9,32.2,10.6"/>
		<polyline class="st5" points="3275.3,213.3 3318,170.6 3318,140.1 		"/>
	</g>
	<rect x="3274.7" y="242" class="st8" width="4.1" height="18.1"/>
	<line class="st6" x1="3224.3" y1="275.7" x2="3246.8" y2="275.7"/>
	<line class="st9" x1="3255.3" y1="295.4" x2="3271.6" y2="295.4"/>
	<polygon class="st8" points="3238.3,186.1 3225.5,175.1 3233.2,170.6 3229.1,173 3241.9,183.3 	"/>
	<polyline class="st0" points="3238.2,232.1 3224.3,246.5 3214.9,236.6 	"/>
	<g id="XMLID_112_">
		<defs>
			<polygon id="XMLID_113_" points="3276.6,43 3268.6,51.7 3264.7,56.4 3240,64.2 3239.2,37.5 3265.7,30.7 			"/>
		</defs>
		<clipPath id="XMLID_2_">
			<use xlink:href="#XMLID_113_"  style="overflow:visible;"/>
		</clipPath>
		<path id="XMLID_114_" class="st10" d="M3259.1,68.3c-8.8,0-16-7.2-16-16c0-8.8,7.2-16,16-16c5.1,0,9.7,2.4,12.6,6.2
			c-2.6,2.8-4.6,6-13.3,7.1c0.2,2.9,0.8,6.4,1.3,10.1"/>
	</g>
	<g id="XMLID_102_">
		<defs>
			<path id="XMLID_103_" d="M3249.9,82l9.3-26.6c6.6,0.9,16.4-6,18.7-9.4l1.3,35.9l-7.3,16.8L3249.9,82z"/>
		</defs>
		<clipPath id="XMLID_3_">
			<use xlink:href="#XMLID_103_"  style="overflow:visible;"/>
		</clipPath>
		<path id="XMLID_108_" class="st11" d="M3256.5,86.8l3.3-8.4c8.8,1.9,13.9-4.8,13.9-12.7c0-2.7,0-16.3,0-19.6"/>
	</g>
	<circle class="st5" cx="3313" cy="136.5" r="4.9"/>
	<g>
		
			<rect x="3235.9" y="124.3" transform="matrix(0.702 -0.7122 0.7122 0.702 869.1216 2346.5977)" class="st8" width="5.3" height="21"/>
	</g>
	<g>
		
			<rect x="3309.8" y="173.8" transform="matrix(0.7071 -0.7071 0.7071 0.7071 847.6066 2399.1182)" class="st8" width="20.1" height="5.3"/>
	</g>
</g>
</svg>
