<?xml version="1.0" encoding="utf-8"?>
<!-- Generator: Adobe Illustrator 19.1.0, SVG Export Plug-In . SVG Version: 6.00 Build 0)  -->
<svg version="1.1" id="Layer_1" xmlns="http://www.w3.org/2000/svg" xmlns:xlink="http://www.w3.org/1999/xlink" x="0px" y="0px"
	 viewBox="3041 -126 4195 303" style="enable-background:new 3041 -126 4195 303;" xml:space="preserve">
<style type="text/css">
	.st0{fill:#FFFFFF;stroke:#56C5D0;stroke-width:3;stroke-miterlimit:10;}
	.st1{fill:none;stroke:#56C5D0;stroke-width:3;stroke-miterlimit:10;}
	.st2{fill:none;stroke:#F68D70;stroke-width:3;stroke-linecap:square;stroke-miterlimit:10;}
	.st3{fill:none;stroke:#162532;stroke-width:3;stroke-linecap:round;stroke-linejoin:round;stroke-miterlimit:10;}
	.st4{fill:none;stroke:#231F20;stroke-width:3;stroke-miterlimit:10;}
	.st5{fill:none;stroke:#F68D70;stroke-width:3;stroke-miterlimit:10;}
	.st6{fill:none;stroke:#162532;stroke-width:3;stroke-miterlimit:10;}
	.st7{fill:#FFFFFF;}
	.st8{fill:none;stroke:#162532;stroke-width:3;stroke-linecap:square;stroke-miterlimit:10;}
	.st9{clip-path:url(#XMLID_2_);fill:none;stroke:#6A817C;stroke-width:3;stroke-miterlimit:10;}
	.st10{clip-path:url(#XMLID_3_);fill:none;stroke:#231F20;stroke-width:3;stroke-miterlimit:10;}
</style>
<g>
	<g>
		<path class="st0" d="M6238.9,57c0,0,17.9-17.9,18-18c4.1-4.1,4.1-10.8,0-14.9c-2-2-4.6-3-7.3-3.1l-13.8,0l-36.7,0l-17.4,0v7.3
			c0,9.3,3.7,17.7,9.7,23.8c0,0,34.4,26.2,34.4,27.5l6,46l14.6,0l-2.1-48.9v-2.3c0-3.3-1.3-6.3-3.5-8.5L6206,35.7"/>
		<line class="st1" x1="6234" y1="37.3" x2="6226.9" y2="46"/>
	</g>
	<line class="st2" x1="6222.1" y1="6.6" x2="6222.1" y2="12.8"/>
	<path class="st2" d="M6181.7,12.8V3.9c0-11.6,4.7-22.1,12.2-29.8l12-12l0,0c2.9-2.7,6.7-4.4,11-4.4"/>
	<circle class="st3" cx="6321.1" cy="118" r="45.1"/>
	<g>
		<g>
			<g>
				<path class="st4" d="M6245-10.7l27,0l7.4,0c7.6,0,13.7,6.1,13.7,13.7"/>
				<path class="st4" d="M6294.3,2.8"/>
			</g>
		</g>
	</g>
	<path class="st2" d="M6240.4-13.6l-11.7-11.7c-4.1-4.1-10.7-4.1-14.7,0c-4.1,4.1-4.1,10.7,0,14.7l0,0l0,0l0,0l0,0l11.7,11.7"/>
	<g>
		<line class="st2" x1="6287.3" y1="37.3" x2="6321.1" y2="117.8"/>
		<line class="st2" x1="6288" y1="61.2" x2="6252.4" y2="96.8"/>
		<polyline class="st5" points="6197.3,118.1 6157.6,118.1 6206,69.8 		"/>
		<path class="st6" d="M6194.6,92.2c5.1,7.3,8.1,16.2,8.1,25.7c0,24.9-20.2,45.1-45.1,45.1c-24.9,0-45.1-20.2-45.1-45.1
			s20.2-45.1,45.1-45.1c10,0,19.2,3.2,26.7,8.7"/>
		<polyline class="st2" points="6249.5,66.5 6284.8,31.2 6284.8,6 		"/>
	</g>
	<rect x="6249" y="90.2" class="st7" width="3.4" height="15"/>
	<line class="st5" x1="6207.3" y1="118.1" x2="6225.9" y2="118.1"/>
	<line class="st8" x1="6233" y1="134.4" x2="6246.5" y2="134.4"/>
	<polygon class="st7" points="6218.9,44 6208.3,34.9 6214.7,31.2 6211.3,33.2 6221.9,41.7 	"/>
	<polyline class="st0" points="6218.9,82 6207.3,94 6199.6,85.8 	"/>
	<g id="XMLID_662_">
		<defs>
			<polygon id="XMLID_663_" points="6250.5,-74.3 6243.9,-67.1 6240.7,-63.2 6220.3,-56.8 6219.6,-78.8 6241.6,-84.5 			"/>
		</defs>
		<clipPath id="XMLID_2_">
			<use xlink:href="#XMLID_663_"  style="overflow:visible;"/>
		</clipPath>
		<path id="XMLID_664_" class="st9" d="M6236.1-53.4c-7.3,0-13.2-5.9-13.2-13.2c0-7.3,5.9-13.2,13.2-13.2c4.2,0,8,2,10.4,5.1
			c-2.1,2.3-3.8,4.9-11,5.9c0.1,2.4,0.7,5.3,1.1,8.4"/>
	</g>
	<g id="XMLID_659_">
		<defs>
			<path id="XMLID_660_" d="M6228.5-42l7.7-22c5.5,0.8,13.5-5,15.4-7.7l1.1,29.7l-6,13.9L6228.5-42z"/>
		</defs>
		<clipPath id="XMLID_3_">
			<use xlink:href="#XMLID_660_"  style="overflow:visible;"/>
		</clipPath>
		<path id="XMLID_661_" class="st10" d="M6234-38.1l2.7-7c7.3,1.6,11.5-4,11.5-10.5c0-2.3,0-13.5,0-16.2"/>
	</g>
	<circle class="st2" cx="6280.7" cy="3" r="4.1"/>
	<g>
		
			<rect x="6210.5" y="-0.6" transform="matrix(0.7122 0.702 -0.702 0.7122 1791.1278 -4365.4033)" class="st7" width="17.3" height="4.4"/>
	</g>
	<g>
		
			<rect x="6284.1" y="27.7" transform="matrix(0.7071 0.7071 -0.7071 0.7071 1866.6759 -4434.54)" class="st7" width="4.4" height="16.6"/>
	</g>
</g>
</svg>
