<?xml version="1.0" encoding="utf-8"?>
<!-- Generator: Adobe Illustrator 19.1.0, SVG Export Plug-In . SVG Version: 6.00 Build 0)  -->
<svg version="1.1" id="Layer_1" xmlns="http://www.w3.org/2000/svg" xmlns:xlink="http://www.w3.org/1999/xlink" x="0px" y="0px"
	 viewBox="3041 -126 4195 303" style="enable-background:new 3041 -126 4195 303;" xml:space="preserve">
<style type="text/css">
	.st0{fill:none;stroke:#C6C9C9;stroke-width:3;stroke-linecap:square;stroke-miterlimit:10;}
	.st1{fill:#FFFFFF;}
	.st2{fill:#FFFFFF;stroke:#C6C9C9;stroke-width:3;stroke-linecap:square;stroke-miterlimit:10;}
	.st3{fill:#FFFFFF;stroke:#231F20;stroke-width:3;stroke-linecap:square;stroke-miterlimit:10;}
	.st4{fill:none;stroke:#56C5D0;stroke-width:3;stroke-linecap:square;stroke-miterlimit:10;}
	.st5{fill:none;stroke:#00B388;stroke-width:3;stroke-miterlimit:10;}
	.st6{fill:none;stroke:#F69679;stroke-width:3;stroke-linecap:square;stroke-miterlimit:10;}
</style>
<g>
	<line class="st0" x1="4869" y1="-99.3" x2="4869" y2="-105.7"/>
	<line class="st0" x1="4882.8" y1="-99.3" x2="4882.8" y2="-105.7"/>
	<rect x="4850" y="99.8" class="st1" width="51" height="63.2"/>
	<path class="st2" d="M4851.6,98.8V-52.3h2v-19c0-8.8,7.1-27.9,15.9-27.9h13.4c8.8,0,15.9,19.1,15.9,27.9v19h2v214.2"/>
	<polyline id="XMLID_303_" class="st3" points="4828.5,161.8 4828.5,116.8 4872.1,116.8 4872.1,161.8 	"/>
	<line class="st4" x1="4828.5" y1="108.5" x2="4872.1" y2="108.5"/>
	<g>
		<line class="st5" x1="4888.2" y1="-36.1" x2="4888.2" y2="-41.9"/>
		<line class="st5" x1="4864.2" y1="-36.1" x2="4864.2" y2="-41.9"/>
		<line class="st5" x1="4876.2" y1="-36.1" x2="4876.2" y2="-41.9"/>
	</g>
	<g>
		<line class="st5" x1="4888.2" y1="-20.5" x2="4888.2" y2="-26.3"/>
		<line class="st5" x1="4864.2" y1="-20.5" x2="4864.2" y2="-26.3"/>
		<line class="st5" x1="4876.2" y1="-20.5" x2="4876.2" y2="-26.3"/>
	</g>
	<g>
		<line class="st5" x1="4888.2" y1="10.5" x2="4888.2" y2="4.7"/>
		<line class="st5" x1="4864.2" y1="10.5" x2="4864.2" y2="4.7"/>
		<line class="st5" x1="4876.2" y1="10.5" x2="4876.2" y2="4.7"/>
	</g>
	<g>
		<line class="st5" x1="4888.2" y1="-5" x2="4888.2" y2="-10.8"/>
		<line class="st5" x1="4864.2" y1="-5" x2="4864.2" y2="-10.8"/>
		<line class="st5" x1="4876.2" y1="-5" x2="4876.2" y2="-10.8"/>
	</g>
	<g>
		<line class="st5" x1="4888.2" y1="26.1" x2="4888.2" y2="20.3"/>
		<line class="st5" x1="4864.2" y1="26.1" x2="4864.2" y2="20.3"/>
		<line class="st5" x1="4876.2" y1="26.1" x2="4876.2" y2="20.3"/>
	</g>
	<g>
		<line class="st5" x1="4888.2" y1="41.6" x2="4888.2" y2="35.8"/>
		<line class="st5" x1="4864.2" y1="41.6" x2="4864.2" y2="35.8"/>
		<line class="st5" x1="4876.2" y1="41.6" x2="4876.2" y2="35.8"/>
	</g>
	<g>
		<line class="st5" x1="4888.2" y1="72.7" x2="4888.2" y2="66.9"/>
		<line class="st5" x1="4864.2" y1="72.7" x2="4864.2" y2="66.9"/>
		<line class="st5" x1="4876.2" y1="72.7" x2="4876.2" y2="66.9"/>
	</g>
	<g>
		<line class="st5" x1="4888.2" y1="57.2" x2="4888.2" y2="51.4"/>
		<line class="st5" x1="4864.2" y1="57.2" x2="4864.2" y2="51.4"/>
		<line class="st5" x1="4876.2" y1="57.2" x2="4876.2" y2="51.4"/>
	</g>
	<polyline class="st6" points="4863,136.3 4847.5,136.3 4847.5,161.8 	"/>
</g>
</svg>
