<?xml version="1.0" encoding="utf-8"?>
<!-- Generator: Adobe Illustrator 20.0.0, SVG Export Plug-In . SVG Version: 6.00 Build 0)  -->
<svg version="1.1" id="Layer_1" xmlns="http://www.w3.org/2000/svg" xmlns:xlink="http://www.w3.org/1999/xlink" x="0px" y="0px"
	 viewBox="0 0 154.5 322" style="enable-background:new 0 0 154.5 322;" xml:space="preserve">
<style type="text/css">
	.st0{fill:#FFFFFF;}
	.st1{fill:none;stroke:#FFFFFF;stroke-width:3;stroke-miterlimit:10;}
	.st2{fill:none;}
	.st3{fill:none;stroke:#162532;stroke-width:4;stroke-miterlimit:10;}
	.st4{fill:none;stroke:#F69679;stroke-width:6;stroke-miterlimit:10;}
	.st5{fill:none;stroke:#162532;stroke-width:6;stroke-miterlimit:10;}
	.st6{clip-path:url(#SVGID_2_);fill:none;stroke:#162532;stroke-width:4;stroke-miterlimit:10;}
	.st7{clip-path:url(#SVGID_4_);}
	.st8{clip-path:url(#SVGID_6_);fill:#FFFFFF;}
	.st9{clip-path:url(#SVGID_6_);fill:none;stroke:#162532;stroke-width:4;stroke-miterlimit:10;}
	.st10{clip-path:url(#SVGID_8_);}
	.st11{clip-path:url(#SVGID_10_);fill:#FFFFFF;}
	.st12{clip-path:url(#SVGID_10_);fill:none;stroke:#F69679;stroke-width:6;stroke-miterlimit:10;}
	.st13{fill:none;stroke:#00B48D;stroke-width:6;stroke-miterlimit:10;}
</style>
<g>
	<path class="st0" d="M98.5,39.2c0,7.4-4.8,13.7-13.1,12"/>
	<path class="st1" d="M98.5,39.2c0,7.4-4.8,13.7-13.1,12"/>
	<path class="st0" d="M145.4,157.8c-1-8.6-7.6-13.4-10.2-15.2l-30.4-23.9l-1.6-9.9c2.5-3.6,5.2-8.3,5.8-13.7
		c1.2-10.2-4.6-18.1-10.1-25.6l-0.3-0.4L91.1,62c3.1-0.6,8.4-4,8.4-4L122,47.7l12.7-20.5c-4-2-22.2-7.6-29.1-8
		c-3.8-8-12-13.6-21.5-13.6c-11.4,0-21,8.1-23.2,18.9c-1-0.2-1.6-0.5-1.6-0.5c0.2,0.1-10.5-4.3-10.5-4.3l-8,17.8
		c0.9,0.5,15.7,7.5,25,7.6c-1.1,1.6-2.4,10.2-2.8,13l-2.7,2.4c-6.5,5.5-9.5,9.6-9.5,21.6l1.4,4c0,10,2.3,20.4,3.4,24.7
		c0.7,5.1-2.5,31.5-9,70.3H28v76.9c-2,3.5-3.3,7-4.9,10.4c-2.8,6.2-5.5,12-8.6,17.5L6,301l25.2,17.4L55.7,283h36.7
		c4.1,20,7.7,38,7.7,38H130l-3.9-38h8.9V181h-19.9l-5.5-33l13.5,10.6l0.5,0.4c1.6,1.1-0.8,9.2-0.8,9.2c0,0,16.6,8.3,16.6,8.3
		l4.4-8.2C145.3,165.1,145.9,161.4,145.4,157.8z"/>
	<path class="st2" d="M74.9,211.5l35,0l-17.3-105c2-2.3,5.9-7.4,6.5-12.4c0.8-6.4-3.5-12.1-8.5-18.9L62.2,85.9
		c0,7.3,1.6,16.2,3.1,22.6c2.8,11.6,6.7,28.5,6.7,28.5l-20.7,74.5l17.5,0"/>
	<path class="st3" d="M82.4,217.8L79,231.5l-47.7,64.6l-8.1-5.5c11.2-20.3,17.8-44.5,37.1-61.4l2.5-11.6"/>
	<path class="st0" d="M71.4,28.3c0-7.6,6.1-13.7,13.7-13.7c7.6,0,13.7,6.1,13.7,13.7C98.9,35.9,71.4,49.7,71.4,28.3"/>
	<path class="st3" d="M90.3,219.1c1.8,17.9,18,83.4,18,83.4l9.7,0l-8.7-85.3"/>
	<path class="st4" d="M62.2,85.9c0,7.3,1.6,16.2,3.1,22.6c2.8,11.6-14,103-14,103l35,0"/>
	<line class="st5" x1="123.4" y1="311.4" x2="106.6" y2="311.4"/>
	<line class="st5" x1="31.3" y1="306.2" x2="16.2" y2="295.9"/>
	<rect x="46.5" y="216.7" class="st0" width="71.7" height="2.8"/>
	<path class="st4" d="M90.5,75.1c5.1,6.9,9.3,12.5,8.5,18.9c-0.6,5-4.5,10.2-6.5,12.4l17.3,105l-35,0"/>
	<path class="st3" d="M84,184.4l-4.9-52.2c0,0,0.5-32.2,0.9-49.5c0.3-14.5-13.2-14.9-13.2-14.9c-4.2,3.6-6,5.3-6,13.8"/>
	<g>
		<defs>
			<polygon id="SVGID_1_" points="130.1,139.2 143.4,156.7 138.1,168.2 108,154.3 102.4,119.8 			"/>
		</defs>
		<clipPath id="SVGID_2_">
			<use xlink:href="#SVGID_1_"  style="overflow:visible;"/>
		</clipPath>
		<path class="st6" d="M134.7,164.4c0.8-1.7,1-3.6,0.8-5.4c-0.4-3.5-3-6.1-6.2-8.3l-31.8-25"/>
	</g>
	<g>
		<defs>
			<path id="SVGID_3_" d="M101.5,34.2L99,67.3L78,58.1l6.1-21.3c8-2.1,13.4-3,16.3-3c0.9,0,1.6,0.1,2,0.3"/>
		</defs>
		<clipPath id="SVGID_4_">
			<use xlink:href="#SVGID_3_"  style="overflow:visible;"/>
		</clipPath>
		<g class="st7">
			<defs>
				<rect id="SVGID_5_" x="-152.4" y="-356.2" width="1133" height="755.3"/>
			</defs>
			<clipPath id="SVGID_6_">
				<use xlink:href="#SVGID_5_"  style="overflow:visible;"/>
			</clipPath>
			<path class="st8" d="M98.5,23.9l0,15.3c0,7.4-4.8,13.7-13.1,12l-5.7,14.5L50.6,45.5l2.6-25.8L98.5,23.9z"/>
			<path class="st9" d="M98.5,23.9l0,15.3c0,7.4-4.8,13.7-13.1,12l-5.7,14.5L50.6,45.5l2.6-25.8L98.5,23.9z"/>
		</g>
	</g>
	<g>
		<defs>
			<polygon id="SVGID_7_" points="105.9,5.3 105.9,28.9 88.8,29.8 67.9,34 64.6,26 64.6,5.3 			"/>
		</defs>
		<clipPath id="SVGID_8_">
			<use xlink:href="#SVGID_7_"  style="overflow:visible;"/>
		</clipPath>
		<g class="st10">
			<defs>
				<rect id="SVGID_9_" x="-152.4" y="-356.2" width="1133" height="755.3"/>
			</defs>
			<clipPath id="SVGID_10_">
				<use xlink:href="#SVGID_9_"  style="overflow:visible;"/>
			</clipPath>
			<path class="st11" d="M71.4,28.3c0-7.6,6.1-13.7,13.7-13.7c7.6,0,13.7,6.1,13.7,13.7C98.9,35.9,71.4,49.7,71.4,28.3"/>
			<path class="st12" d="M71.4,28.3c0-7.6,6.1-13.7,13.7-13.7c7.6,0,13.7,6.1,13.7,13.7C98.9,35.9,71.4,49.7,71.4,28.3z"/>
		</g>
	</g>
	<g>
		<path class="st4" d="M55.8,31.9c0,0,9.6,5.2,27-0.5c17.4-5.6,31.1-2.9,35.4-0.6"/>
	</g>
	<rect x="38" y="190.9" class="st0" width="86.7" height="81.9"/>
	<rect x="47" y="198.7" class="st13" width="68.1" height="66.5"/>
</g>
</svg>
