<?xml version="1.0" encoding="utf-8"?>
<!-- Generator: Adobe Illustrator 20.0.0, SVG Export Plug-In . SVG Version: 6.00 Build 0)  -->
<svg version="1.1" id="Layer_1" xmlns="http://www.w3.org/2000/svg" xmlns:xlink="http://www.w3.org/1999/xlink" x="0px" y="0px"
	 viewBox="0 0 180.5 323.8" style="enable-background:new 0 0 180.5 323.8;" xml:space="preserve">
<style type="text/css">
	.st0{fill:#FFFFFF;}
	.st1{fill:#211F1F;}
	.st2{fill:none;stroke:#00B48D;stroke-width:3;stroke-miterlimit:10;}
	.st3{clip-path:url(#XMLID_2_);fill:none;stroke:#808285;stroke-width:4;stroke-miterlimit:10;}
	.st4{fill:none;stroke:#67506C;stroke-width:6;stroke-miterlimit:10;}
	.st5{clip-path:url(#XMLID_3_);fill:none;stroke:#231F20;stroke-width:6;stroke-miterlimit:10;}
	.st6{fill:none;stroke:#211F1F;stroke-width:6;stroke-miterlimit:10;}
	.st7{clip-path:url(#XMLID_4_);fill:none;stroke:#231F20;stroke-width:6;stroke-miterlimit:10;}
	.st8{clip-path:url(#XMLID_5_);fill:none;stroke:#67506C;stroke-width:6;stroke-miterlimit:10;}
	.st9{clip-path:url(#XMLID_6_);fill:#FFFFFF;stroke:#211F1F;stroke-width:4;stroke-miterlimit:10;}
</style>
<g>
	<path class="st0" d="M178,156.3c-1.3-5.8-4.8-10.7-9.8-13.8l-8.5-5.3l-26.4-19.8l-21.6-51.7l-4.8-6.2c2.9-0.6,5.8-1.9,8.2-3.8
		c5-4,7.9-10.5,7.9-17.7V17.5l-3.8-4.6c-4.7-6.1-11.9-9.5-19.6-9.5C86,3.3,74.9,14.4,74.9,28c0,7.9,3.6,15,9.4,19.5l-4.2,7.2
		C78.9,57,67.9,76.4,67.4,92.9l-19.2,64.5l-3,0.1l0.5,24l10-0.2l9.6,2.3L70,322.8h51.7l13.7-138.2c0,0-1.6-10.3-1.5-17.6l0-3.5
		l13.6,10.4l3.2-4.4l19.1,12l5.3-8.5C178.3,167.9,179.3,162,178,156.3z"/>
	<path class="st1" d="M166.7,167.6l-3.4-2.1c1.2-1.8,1.5-4,1-6.1c-0.5-2.1-1.8-3.9-3.6-5.1l2.1-3.4c2.7,1.7,4.6,4.4,5.4,7.6
		C169,161.6,168.4,164.9,166.7,167.6z"/>
	<path id="XMLID_176_" class="st2" d="M117.6,220.7"/>
	<g id="XMLID_173_">
		<defs>
			<polygon id="XMLID_174_" points="116,19 108.7,27 105.1,31.3 82.5,38.4 81.7,14 106.1,7.7 			"/>
		</defs>
		<clipPath id="XMLID_2_">
			<use xlink:href="#XMLID_174_"  style="overflow:visible;"/>
		</clipPath>
		<path id="XMLID_175_" class="st3" d="M100,42.3c-8.1,0-14.7-6.6-14.7-14.7c0-8.1,6.6-14.7,14.7-14.7c4.7,0,8.9,2.2,11.6,5.7
			c-2.4,2.5-4.2,5.5-12.2,6.6c0.2,2.6,0.8,5.9,1.2,9.3"/>
	</g>
	<path id="XMLID_172_" class="st4" d="M93.8,102.1l15,29.3l36.6,28.2l8.5-11.6l-28.9-24.6l-21.6-51.6l-14.6-12
		c0,0-11.4,19.9-11.4,34.4c0,14.5,3.8,49,3.8,49l0,34.2l31.9,0c5.9,0,10.8-4.8,10.8-10.7L124,143"/>
	<g id="XMLID_165_">
		<g id="XMLID_169_">
			<defs>
				<polygon id="XMLID_170_" points="114.9,182.2 103.1,306.8 74.2,306.9 65.3,186.1 97.9,184.2 				"/>
			</defs>
			<clipPath id="XMLID_3_">
				<use xlink:href="#XMLID_170_"  style="overflow:visible;"/>
			</clipPath>
			<polyline id="XMLID_171_" class="st5" points="81.7,182.2 82.8,301.3 93.7,301.3 111.9,146.7 			"/>
		</g>
		<line id="XMLID_168_" class="st6" x1="81.9" y1="310.9" x2="103" y2="310.9"/>
		<g id="XMLID_166_">
			<g id="XMLID_203_">
				<defs>
					<polygon id="XMLID_204_" points="128.6,182.1 116.8,306.7 87.9,306.8 79,186.1 111.6,184.1 					"/>
				</defs>
				<clipPath id="XMLID_4_">
					<use xlink:href="#XMLID_204_"  style="overflow:visible;"/>
				</clipPath>
				<polyline id="XMLID_163_" class="st7" points="101.3,301.2 107.4,301.2 125.6,146.6 				"/>
			</g>
			<line id="XMLID_167_" class="st6" x1="107" y1="310.8" x2="113.8" y2="310.8"/>
		</g>
	</g>
	<path class="st1" d="M55.5,171.2l-0.1-4c2.2,0,4.2-0.9,5.7-2.5c1.5-1.6,2.3-3.6,2.3-5.8l4-0.1c0.1,3.2-1.1,6.3-3.4,8.6
		C61.7,169.9,58.7,171.2,55.5,171.2z"/>
	<g>
		<defs>
			<polygon id="XMLID_141_" points="67.4,99.8 72,142.2 72,164.7 32.5,167 			"/>
		</defs>
		<clipPath id="XMLID_5_">
			<use xlink:href="#XMLID_141_"  style="overflow:visible;"/>
		</clipPath>
		<polyline id="XMLID_144_" class="st8" points="75.1,151.2 60.4,151.2 76.5,95.5 		"/>
	</g>
	<g id="XMLID_56_">
		<defs>
			<path id="XMLID_81_" d="M93.4,51.7l6.7-21.2c6.1,0.8,15-5.5,17.1-8.6l-3.6,45.3L93.4,51.7z"/>
		</defs>
		<clipPath id="XMLID_6_">
			<use xlink:href="#XMLID_81_"  style="overflow:visible;"/>
		</clipPath>
		<path id="XMLID_137_" class="st9" d="M97.6,56.8l3.1-7.8c8.1,1.7,12.7-4.4,12.7-11.6c0-2.5,0-12,0-14.9"/>
	</g>
	<rect x="72" y="182.1" class="st0" width="54.6" height="8.1"/>
</g>
</svg>
