<?xml version="1.0" encoding="utf-8"?>
<!-- Generator: Adobe Illustrator 20.0.0, SVG Export Plug-In . SVG Version: 6.00 Build 0)  -->
<svg version="1.1" id="Layer_1" xmlns="http://www.w3.org/2000/svg" xmlns:xlink="http://www.w3.org/1999/xlink" x="0px" y="0px"
	 viewBox="0 0 180.5 323.8" style="enable-background:new 0 0 180.5 323.8;" xml:space="preserve">
<style type="text/css">
	.st0{fill:#FFFFFF;}
	.st1{fill:#211F1F;}
	.st2{fill:none;stroke:#00B48D;stroke-width:3;stroke-miterlimit:10;}
	.st3{clip-path:url(#XMLID_2_);fill:none;stroke:#808285;stroke-width:4;stroke-miterlimit:10;}
	.st4{fill:none;stroke:#67506C;stroke-width:6;stroke-miterlimit:10;}
	.st5{clip-path:url(#XMLID_3_);fill:none;stroke:#67506C;stroke-width:6;stroke-miterlimit:10;}
	.st6{clip-path:url(#XMLID_4_);fill:#FFFFFF;stroke:#211F1F;stroke-width:4;stroke-miterlimit:10;}
	.st7{clip-path:url(#XMLID_5_);}
	.st8{clip-path:url(#XMLID_6_);fill:none;stroke:#231F20;stroke-width:6;stroke-miterlimit:10;}
	.st9{fill:none;stroke:#211F1F;stroke-width:6;stroke-miterlimit:10;}
	.st10{fill:none;stroke:#231F20;stroke-width:6;stroke-miterlimit:10;}
</style>
<g>
	<path class="st0" d="M178.4,156.3c-1.3-5.8-4.8-10.7-9.8-13.8l-8.5-5.3l-26.4-19.8l-21.6-51.7l-4.6-7.4c2.9-0.6,6-1.9,8.4-3.8
		c5-4,8.1-10.5,8.1-17.7V16.4l-4-4.6c-4.7-6.1-12-9.5-19.7-9.5c-13.6,0-24.8,11.1-24.8,24.7c0,8.1,3.7,15.3,9.7,19.8l-4.7,8.1
		C79.3,57,68.4,76.5,67.8,92.9l-19.2,64.5l-3,0.1l0.5,24l10.2-0.2c6.1-0.1,11.7-2.7,15.7-6.7v5.9c-4,11.9-8.1,25.8-12.4,39
		l-60.4,61.3l22.4,26.5c0,0,72.3-67.6,73.4-70.7c0.5-1.2,2.6-5.7,5.5-11.9c10.7,36.8,28.4,99.1,28.4,99.1l32.3-8.8l-27.1-146.9
		c0-0.5,0.1-0.9,0.1-1.4l0-3.4l13.6,10.5l3.2-4.4l19.1,12.1l5.3-8.5C178.7,168,179.7,162.1,178.4,156.3z"/>
	<path class="st1" d="M167.1,167.7l-3.4-2.1c1.2-1.8,1.5-4,1-6.1c-0.5-2.1-1.8-3.9-3.6-5.1l2.1-3.4c2.7,1.7,4.6,4.4,5.4,7.6
		C169.4,161.7,168.8,164.9,167.1,167.7z"/>
	<path id="XMLID_2250_" class="st2" d="M118,220.8"/>
	<g id="XMLID_745_">
		<defs>
			<polygon id="XMLID_747_" points="116.4,19.1 109.1,27 105.5,31.3 82.9,38.5 82.1,14 106.5,7.7 			"/>
		</defs>
		<clipPath id="XMLID_2_">
			<use xlink:href="#XMLID_747_"  style="overflow:visible;"/>
		</clipPath>
		<path id="XMLID_748_" class="st3" d="M100.4,42.3c-8.1,0-14.7-6.6-14.7-14.7c0-8.1,6.6-14.7,14.7-14.7c4.7,0,8.9,2.2,11.6,5.7
			c-2.4,2.5-4.2,5.5-12.2,6.6c0.2,2.6,0.8,5.9,1.2,9.3"/>
	</g>
	<path id="XMLID_897_" class="st4" d="M94.2,102.2l15,29.3l36.6,28.2l8.5-11.6l-28.9-24.6l-21.6-51.6l-14.6-12
		c0,0-11.4,19.9-11.4,34.4c0,14.5,3.8,49,3.8,49l0,34.2l31.9,0c5.9,0,10.8-4.8,10.8-10.7l0.2-23.5"/>
	<path class="st1" d="M55.9,171.3l-0.1-4c2.2,0,4.2-0.9,5.7-2.5c1.5-1.6,2.3-3.6,2.3-5.8l4-0.1C67.9,165.6,62.5,171.2,55.9,171.3z"
		/>
	<g>
		<defs>
			<polygon id="XMLID_877_" points="67.8,99.9 72.4,142.3 72.4,164.8 32.9,167.1 			"/>
		</defs>
		<clipPath id="XMLID_3_">
			<use xlink:href="#XMLID_877_"  style="overflow:visible;"/>
		</clipPath>
		<polyline id="XMLID_905_" class="st5" points="75.5,151.3 60.8,151.3 76.9,95.6 		"/>
	</g>
	<g id="XMLID_115_">
		<defs>
			<path id="XMLID_119_" d="M93.8,51.7l6.7-21.2c6.1,0.8,15-5.5,17.1-8.6l-3.6,45.3L93.8,51.7z"/>
		</defs>
		<clipPath id="XMLID_4_">
			<use xlink:href="#XMLID_119_"  style="overflow:visible;"/>
		</clipPath>
		<path id="XMLID_120_" class="st6" d="M98,56.8l3.1-7.8c8.1,1.7,12.7-4.4,12.7-11.6c0-2.5,0-12,0-14.9"/>
	</g>
	<g id="XMLID_121_">
		<defs>
			<rect id="XMLID_666_" x="5.6" y="186.2" width="152" height="131.5"/>
		</defs>
		<clipPath id="XMLID_5_">
			<use xlink:href="#XMLID_666_"  style="overflow:visible;"/>
		</clipPath>
		<g id="XMLID_124_" class="st7">
			<g id="XMLID_899_">
				<defs>
					<polygon id="XMLID_903_" points="94.9,150.2 128.3,150.2 154.4,301.5 126.5,309.2 99.6,221.9 117.1,184.6 					"/>
				</defs>
				<clipPath id="XMLID_6_">
					<use xlink:href="#XMLID_903_"  style="overflow:visible;"/>
				</clipPath>
				<path id="XMLID_904_" class="st8" d="M103.5,195.8c12.1,39,29.8,105.7,29.8,105.7l10.5-2.8l-23-154"/>
			</g>
			<line id="XMLID_898_" class="st9" x1="132.2" y1="311.8" x2="152.5" y2="306.3"/>
			<path id="XMLID_896_" class="st10" d="M90.2,150.2c0,9-21,73.5-21,73.5l-46.7,50.4l6.5,8c0,0,57.1-48.7,57.6-50.1
				c0.5-1.4,22.9-49,22.9-49"/>
			<line id="XMLID_884_" class="st9" x1="13.1" y1="277.1" x2="26.2" y2="293.5"/>
		</g>
	</g>
</g>
</svg>
