<?xml version="1.0" encoding="utf-8"?>
<!-- Generator: Adobe Illustrator 20.0.0, SVG Export Plug-In . SVG Version: 6.00 Build 0)  -->
<svg version="1.1" id="Layer_1" xmlns="http://www.w3.org/2000/svg" xmlns:xlink="http://www.w3.org/1999/xlink" x="0px" y="0px"
	 viewBox="0 0 180.5 323.8" style="enable-background:new 0 0 180.5 323.8;" xml:space="preserve">
<style type="text/css">
	.st0{fill:#FFFFFF;}
	.st1{fill:#211F1F;}
	.st2{fill:none;stroke:#00B48D;stroke-width:3;stroke-miterlimit:10;}
	.st3{clip-path:url(#XMLID_2_);fill:none;stroke:#808285;stroke-width:4;stroke-miterlimit:10;}
	.st4{fill:none;stroke:#67506C;stroke-width:6;stroke-miterlimit:10;}
	.st5{clip-path:url(#XMLID_3_);fill:none;stroke:#67506C;stroke-width:6;stroke-miterlimit:10;}
	.st6{clip-path:url(#XMLID_5_);fill:#FFFFFF;stroke:#211F1F;stroke-width:4;stroke-miterlimit:10;}
	.st7{clip-path:url(#XMLID_7_);fill:none;stroke:#211F1F;stroke-width:6;stroke-miterlimit:10;}
	.st8{clip-path:url(#XMLID_7_);}
	.st9{clip-path:url(#XMLID_8_);fill:none;stroke:#231F20;stroke-width:6;stroke-miterlimit:10;}
	.st10{clip-path:url(#SVGID_2_);fill:none;stroke:#231F20;stroke-width:6;stroke-miterlimit:10;}
</style>
<g>
	<path class="st0" d="M136.4,184.5l0.5,1.2l9.1-4.2c10.6-4.8,15.5-17,11.5-27.7l-0.9-2.2l-3.9-8.5l-19.1-25.4l-21.8-52.1l-4.8-5.1
		c2.9-0.6,5.8-1.9,8.2-3.8c5-4,7.9-10.5,7.9-17.7V18.6l-3.8-4.6c-4.7-6.1-11.9-9.5-19.6-9.5C86,4.5,74.9,15.6,74.9,29.2
		c0,7.7,3.5,14.6,9,19.2l-3.7,6.5c-1.3,2.3-12.8,22.5-12.8,39.5l1.1,14.9l-21.9,47.7l3,1.7l-7.5,21.6l9.4,3.3
		c2.3,0.8,4.8,1.2,7.3,1.2c3.4,0,6.6-0.7,9.6-2.2c0.9-0.4,1.7-0.9,2.5-1.5c-3.5,11.8-7.8,25.5-12,38.5L1.1,280.7l19.4,24.4
		c0,0,73-65.5,74-68.5c0.5-1.1,2.5-5.5,5.3-11.4l27.1,98.5l32-9.5L136.4,184.5z M114.8,187.2c0.2,0,0.5-0.1,0.7-0.1l0.1,0.5
		L114.8,187.2z"/>
	<path class="st1" d="M58.8,174.7c-1.3,0-2.7-0.2-4-0.7l1.3-3.8c2,0.7,4.2,0.6,6.2-0.4c1.9-0.9,3.4-2.6,4.1-4.6l3.8,1.3
		c-1.1,3.1-3.2,5.5-6.2,6.9C62.4,174.3,60.6,174.7,58.8,174.7z"/>
	<path id="XMLID_200_" class="st2" d="M117.6,220.7"/>
	<g id="XMLID_197_">
		<defs>
			<polygon id="XMLID_198_" points="116.1,19 108.7,27 105.2,31.3 82.5,38.5 81.8,14 106.2,7.7 			"/>
		</defs>
		<clipPath id="XMLID_2_">
			<use xlink:href="#XMLID_198_"  style="overflow:visible;"/>
		</clipPath>
		<path id="XMLID_199_" class="st3" d="M100.1,42.3c-8.1,0-14.7-6.6-14.7-14.7c0-8.1,6.6-14.7,14.7-14.7c4.7,0,8.9,2.2,11.6,5.7
			c-2.4,2.5-4.2,5.5-12.2,6.6c0.2,2.6,0.8,5.9,1.2,9.3"/>
	</g>
	<path id="XMLID_6_" class="st4" d="M81.2,143.2l0,34.2l31.9,0c5.9,0,10.8-4.8,10.8-10.7l-0.3-46.8l-20.1-48l-14.6-12
		c0,0-11.4,19.9-11.4,34.4"/>
	<path class="st1" d="M141.8,172.4l-1.7-3.6c4.1-1.9,5.8-6.7,4-10.7l3.6-1.7C150.6,162.5,147.9,169.7,141.8,172.4z"/>
	<g>
		<defs>
			<polygon id="XMLID_183_" points="130.5,120.5 130,153 137.5,167.7 173.8,152.2 			"/>
		</defs>
		<clipPath id="XMLID_3_">
			<use xlink:href="#XMLID_183_"  style="overflow:visible;"/>
		</clipPath>
		<polyline id="XMLID_184_" class="st5" points="128.7,156.9 141.9,150.4 102.7,107.6 		"/>
	</g>
	<g id="XMLID_179_">
		<defs>
			<path id="XMLID_180_" d="M93.5,51.7l6.7-21.2c6.1,0.8,15-5.5,17.1-8.6l-3.6,45.3L93.5,51.7z"/>
		</defs>
		<clipPath id="XMLID_5_">
			<use xlink:href="#XMLID_180_"  style="overflow:visible;"/>
		</clipPath>
		<path id="XMLID_181_" class="st6" d="M97.7,56.8l3.1-7.8c8.1,1.7,12.7-4.4,12.7-11.6c0-2.5,0-12,0-14.9"/>
	</g>
	<polyline id="XMLID_4_" class="st4" points="88.8,89.2 59.6,152.7 72.1,159.7 103,101.4 	"/>
	<g id="XMLID_187_">
		<defs>
			<rect id="XMLID_188_" x="5.3" y="186.2" width="152" height="131.5"/>
		</defs>
		<clipPath id="XMLID_7_">
			<use xlink:href="#XMLID_188_"  style="overflow:visible;"/>
		</clipPath>
		<line id="XMLID_190_" class="st7" x1="12.8" y1="277.1" x2="25.8" y2="293.4"/>
		<g id="XMLID_193_" class="st8">
			<defs>
				<polygon id="XMLID_194_" points="94.5,150.2 127.9,150.2 154,301.5 126.1,309.1 85.5,177.3 113.4,174.9 				"/>
			</defs>
			<clipPath id="XMLID_8_">
				<use xlink:href="#XMLID_194_"  style="overflow:visible;"/>
			</clipPath>
			<polyline id="XMLID_195_" class="st9" points="98.9,180.7 133,301.5 143.5,298.6 120.5,144.7 			"/>
		</g>
		<line id="XMLID_192_" class="st7" x1="131.8" y1="311.8" x2="152.2" y2="306.3"/>
		<g class="st8">
			<defs>
				<polygon id="SVGID_1_" points="74.4,306.8 -10.3,306.8 41.4,187.7 93.5,186.2 102.6,228 				"/>
			</defs>
			<clipPath id="SVGID_2_">
				<use xlink:href="#SVGID_1_"  style="overflow:visible;"/>
			</clipPath>
			<path id="XMLID_191_" class="st10" d="M89.8,150.2c0,9-21,73.5-21,73.5l-46.7,50.4l6.5,8c0,0,57.1-48.7,57.6-50.1
				c0.5-1.4,22.9-49,22.9-49"/>
		</g>
	</g>
</g>
</svg>
