<?xml version="1.0" encoding="utf-8"?>
<!-- Generator: Adobe Illustrator 19.1.0, SVG Export Plug-In . SVG Version: 6.00 Build 0)  -->
<svg version="1.1" id="Layer_1" xmlns="http://www.w3.org/2000/svg" xmlns:xlink="http://www.w3.org/1999/xlink" x="0px" y="0px"
	 viewBox="0 0 154.5 280.5" style="enable-background:new 0 0 154.5 280.5;" xml:space="preserve">
<style type="text/css">
	.st0{fill:#FFFFFF;}
	.st1{fill:#211F1F;}
	.st2{fill:#808285;}
	.st3{fill:#67506C;}
	.st4{clip-path:url(#SVGID_2_);}
	.st5{fill:#231F20;}
	.st6{fill:none;stroke:#00B48D;stroke-width:3;stroke-miterlimit:10;}
</style>
<g>
	<polygon class="st0" points="34.9,139.2 51.7,81.3 62.3,84.4 49.6,128.2 57.2,128.2 57.2,139.2 	"/>
	<g id="XMLID_10_">
		<path class="st0" d="M91.6,21.2l0.1-0.2l-2.9-3.8c-3.4-4.4-8.6-7-14.2-7c-9.9,0-17.9,8-17.9,17.9c0,8.6,6.1,15.8,14.2,17.5
			l-3.9,9.9l10.3,4l2.7-6.6c2.6-0.3,5.3-1.2,7.3-2.9c3.5-2.8,5.9-7.5,5.9-12.7V21.2H91.6z"/>
		<path class="st1" d="M75.1,54.4l-2.8-1.1l3-7.7l1.2,0.3c2.4,0.5,4.4,0.1,6-1.1c1.9-1.5,2.9-4.1,2.9-7.2V24.9h3v12.6
			c0,4-1.5,7.5-4.1,9.6c-2,1.6-4.5,2.3-7.3,2L75.1,54.4z"/>
	</g>
	<path class="st2" d="M73.7,42.1c-7.7,0-13.9-6.2-13.9-13.9s6.2-13.9,13.9-13.9c4.3,0,8.3,2,11,5.4l0.8,1l-0.9,0.9
		c-0.2,0.2-0.4,0.4-0.6,0.6c-1.7,1.9-3.7,4.1-9.2,5.1c0.1,1.1,0.3,2.3,0.5,3.6c0.1,0.9,0.3,1.8,0.4,2.8l-3,0.4
		c-0.1-0.9-0.3-1.8-0.4-2.7c-0.3-1.9-0.6-3.7-0.7-5.2l-0.1-1.4l1.4-0.2c5.2-0.7,6.9-2.3,8.5-4.1c-2-2.1-4.8-3.3-7.8-3.3
		c-6,0-10.9,4.9-10.9,10.9s4.9,10.9,10.9,10.9V42.1z"/>
	<g id="XMLID_8_">
		<g id="XMLID_9_">
			<path class="st0" d="M123.9,147.1l2.1-3.4c0.4-0.7,0.6-1.5,0.4-2.3c-0.2-0.8-0.6-1.5-1.3-1.9l-3.4-2.1l5.9-9.3l3.4,2.1
				c3.2,2,5.4,5.1,6.2,8.8c0.8,3.7,0.2,7.4-1.8,10.6l-2.1,3.4L123.9,147.1z"/>
			<path class="st1" d="M131.9,147.4l-2.5-1.6c1-1.6,1.3-3.5,0.9-5.3c-0.4-1.8-1.5-3.4-3.1-4.4l1.6-2.5c2.3,1.4,3.8,3.7,4.4,6.3
				S133.4,145.1,131.9,147.4z"/>
		</g>
	</g>
	<g id="XMLID_7_">
		<path class="st0" d="M54.2,161.2v-34.1c0-3.9-3.1-29.8-3.1-41.7c0-13.4,9.3-30,10.4-31.8l3.2-5.6l18.4,15.2l18.3,43.7l27.3,23.2
			l-13.5,18.5l-13.8-10.6l-0.1,8.8c0,8-6.6,14.5-14.6,14.5H54.2z"/>
		<path class="st3" d="M86.7,157.2H58.3l0-30.3c-0.2-2-3.2-29.5-3.2-41.5c0-12.5,9.5-29.1,9.9-29.8l0.9-1.5l14,11.5l18.3,43.6
			l25.2,21.4l-8.9,12.2l-16.9-13l-0.1,16.8C97.3,152.5,92.5,157.2,86.7,157.2z M61.3,154.2h25.4c4.2,0,7.6-3.4,7.6-7.6l0.2-19.1
			L82,117.9l-12.9-25l2.7-1.4l12.6,24.4l29.4,22.7l5.4-7.4l-23.6-20.1L77.4,67.5l-10.7-8.8c-2.3,4.4-8.6,17.2-8.6,26.8
			c0,12,3.1,40.9,3.2,41.2l0,0.2L61.3,154.2z"/>
	</g>
	<g id="XMLID_4_">
		<g id="XMLID_3_">
			<path class="st0" d="M34,143.5l4-0.1c1.7,0,3-1.4,3-3.1l-0.1-4l11-0.2l0.1,4c0.2,7.7-6,14.2-13.7,14.3l-4,0.1L34,143.5z"/>
			<path class="st1" d="M38.1,150.4l-0.1-3c3.9-0.1,7-3.3,6.9-7.2l3-0.1C48,145.7,43.6,150.3,38.1,150.4z"/>
		</g>
	</g>
	<polygon class="st3" points="54.7,135.2 40.3,135.2 52.6,92.6 53.4,100.6 44.2,132.2 54.7,132.2 	"/>
	<g>
		<defs>
			<rect id="SVGID_1_" x="-6.4" y="163.2" width="132.4" height="116.1"/>
		</defs>
		<clipPath id="SVGID_2_">
			<use xlink:href="#SVGID_1_"  style="overflow:visible;"/>
		</clipPath>
		<g class="st4">
			<polygon class="st0" points="90.1,276.1 90,265.1 99.6,138.1 99.6,138.1 60.2,161.5 60.8,190.3 64.1,267.4 64.2,267.4 
				64.2,276.3 			"/>
			
				<rect x="75.6" y="261.8" transform="matrix(8.174773e-03 1 -1 8.174773e-03 347.134 191.36)" class="st1" width="3" height="17.8"/>
			<path class="st5" d="M69.9,264.1l0-1.5c0-0.6-0.2-58.7-1.7-92.7l3-0.1c1.3,31,1.7,81.9,1.7,91.3l6.3-0.1l14.1-129.4l3,0.3
				L81.9,264L69.9,264.1z"/>
			<polygon class="st0" points="81.1,276.1 81,267.5 78.5,265.2 90.6,138.1 90.6,138.1 51.2,161.5 51.8,190.3 55.1,267.4 
				55.2,267.4 55.2,276.3 			"/>
			
				<rect x="66.6" y="261.8" transform="matrix(8.174773e-03 1 -1 8.174773e-03 338.2076 200.3597)" class="st1" width="3" height="17.8"/>
			<g id="XMLID_2_">
				<path class="st6" d="M88.6,192.4"/>
				<path class="st6" d="M88.6,192.4"/>
			</g>
			<path class="st5" d="M60.9,264.1l0-1.5c0-0.6,0-67.4-1.5-101.5l3-0.1c1.3,31,1.5,90.7,1.5,100.1l6.3-0.1l14.1-129.4l3,0.3
				L72.9,264L60.9,264.1z"/>
		</g>
	</g>
</g>
</svg>
