<?xml version="1.0" encoding="utf-8"?>
<!-- Generator: Adobe Illustrator 19.1.0, SVG Export Plug-In . SVG Version: 6.00 Build 0)  -->
<svg version="1.1" id="Layer_1" xmlns="http://www.w3.org/2000/svg" xmlns:xlink="http://www.w3.org/1999/xlink" x="0px" y="0px"
	 viewBox="0 0 154.5 280.5" style="enable-background:new 0 0 154.5 280.5;" xml:space="preserve">
<style type="text/css">
	.st0{fill:#FFFFFF;}
	.st1{fill:#162532;}
	.st2{fill:#F69679;}
	.st3{fill:none;stroke:#00B48D;stroke-width:3;stroke-miterlimit:10;}
</style>
<g>
	<g>
		<g>
			<path class="st0" d="M44.7,138.7l4,0.5c0.5,0.1,1.1,0,1.6-0.2c0.7-0.3,1.4-1.5,2-3.5l0-0.1L66,100.2l10.2,4L62.7,139
				c-0.6,2-2.5,7.6-8,10c-2.3,1-4.8,1.4-7.3,1.1l-4-0.5L44.7,138.7z"/>
			<path class="st1" d="M47.8,146.2l0.3-3c1.2,0.1,2.5,0,3.7-0.5c1.9-0.8,3.2-2.7,4.2-5.9l12.2-31.3l2.8,1.1l-12.2,31.2
				c-0.8,2.5-2.3,6.1-5.9,7.7C51.4,146.1,49.6,146.4,47.8,146.2z"/>
		</g>
	</g>
</g>
<g>
	<path class="st0" d="M99.8,99.2c2-2.7,4.5-6.9,5-11.3c0.9-7.4-3.4-13.2-7.8-19.2l-2.6-3.6L87.6,70c-3.3-7.7-11.3-9.8-14.9-9.9
		l-2.1-0.1L69,61.4c-4.3,3.6-7,6.5-7,15.6s3.9,23.5,3.9,23.5c1.3,5.2-4.9,47.2-11.5,83l-1.2,6.7H75h18h21.8L99.8,99.2z"/>
	<path class="st1" d="M85.3,162.2l-4-43.2l0-0.1c0-0.3,0.4-26.8,0.7-40.9c0.2-9.1-6.9-10.5-8.9-10.7c-2.9,2.5-4,3.7-4,9.9h-3
		c0-7.6,1.8-9.4,5.5-12.6l0.4-0.4l0.6,0c0.1,0,12.7,0.5,12.4,13.8c-0.3,13.7-0.7,39.2-0.7,40.9l4,43.1L85.3,162.2z"/>
</g>
<g>
	<path class="st0" d="M41.5,255.8l1.8-4.7c1.9-4.9,3.5-10,5.2-15.4c4.2-13.4,8.5-27.2,18.4-39.1l26.2,3.8l-35.3,63.6L41.5,255.8z"/>
	<path class="st1" d="M56.3,258.8l-9.7-4.9l0.5-1.3c2-5,3.6-10.2,5.3-15.7c4.2-13.4,8.5-27.2,18.5-38.7l0.8-9.3l3,0.3l-0.9,10.3
		l-0.3,0.4c-9.8,11.1-14.1,24.7-18.2,37.9c-1.5,4.8-3.1,9.8-4.9,14.6l4.7,2.4l31.4-56.5l1.2-11.3l3,0.3l-1.3,11.9L56.3,258.8z"/>
</g>
<g>
	<path class="st0" d="M91.6,261c-0.5-2.2-13.5-54.6-15-69.8l26.2-6.6l8.3,80.6H92.6L91.6,261z"/>
	<path class="st1" d="M95.7,261.1l-0.3-1.1c-0.5-2.2-13.4-54.4-14.9-69.2l3-0.3c1.3,13.4,12.6,59.7,14.5,67.6l5.2,0l-7.1-68.8l3-0.3
		l7.4,72.1L95.7,261.1z"/>
</g>
<g>
	<rect x="92.2" y="261.2" class="st0" width="21" height="11"/>
	<rect x="95.5" y="265.5" class="st1" width="13.9" height="3"/>
</g>
<g>
	
		<rect x="44.4" y="250.1" transform="matrix(-0.4535 0.8913 -0.8913 -0.4535 305.751 335.7737)" class="st0" width="11" height="23.1"/>
	<rect x="42.4" y="260.1" transform="matrix(0.8912 0.4537 -0.4537 0.8912 124.1336 5.8224)" class="st1" width="15.1" height="3"/>
</g>
<path class="st2" d="M110.1,186.2L95.6,98.2c1.7-2.1,4.8-6.4,5.3-10.6c0.7-5.8-2.9-10.8-7.1-16.4l-0.2-0.4l-2.4,1.8l0.2,0.3
	c4,5.4,7.1,9.6,6.5,14.3c-0.5,4-4,8.3-5,9.5l-0.5,0.7l14.2,86H79.4l0,0H61.7c2.1-12,13.4-75.2,11.2-84.3c-0.6-2.4-2.5-10.7-2.5-18.7
	h-3c0,8,2,16.7,2.6,19.2c1.9,7.6-7.7,63.8-11.6,84.8l-0.3,2h30.7l0,0H110.1z"/>
<g>
	<g>
		<g>
			<path class="st0" d="M103.8,32.9c0-1.6-0.3-3.1-0.7-4.5l-1.2-3.1c-2.8-5.5-8.5-9.2-15-9.2c-9.3,0-16.8,7.6-16.8,16.8
				c0,4.7,1.3,8.5,3.8,11.2c2.2,2.3,5.3,3.6,8.8,3.8L77,62.2l7.8,10.1l5.7-14.8c2.6-0.3,5.1-1.2,7.1-2.9c3.5-2.9,5.5-7.5,5.5-12.7
				v-6C103.2,34.9,103.8,33.9,103.8,32.9z"/>
			<path class="st2" d="M74.5,37.2C74.1,36,74,34.5,74,32.9c0-7.1,5.8-12.8,12.8-12.8s12.8,5.8,12.8,12.8h-3c0-5.4-4.4-9.8-9.8-9.8
				S77,27.5,77,32.9c0,1.7,0.2,3.1,0.7,4.3C77.9,38,74.9,38.9,74.5,37.2z"/>
		</g>
	</g>
</g>
<g>
	<g>
		<path class="st0" d="M72.1,43.2c-7.2,0-11.4-2-12.1-2.4l-3.5-1.9l2.6-4.9l2.6-4.8c0,0,6,3,10.6,3c3.4,0,7.1-0.6,11-1.9
			c6.2-2,12.4-3,18.5-3c6.1,0,11.6,1.1,15.1,2.9l3.5,1.9l-5.1,9.7l-3.5-1.9c-0.8-0.4-4.4-1.6-10.1-1.6c-4.8,0-9.8,0.8-14.9,2.5
			C81.6,42.3,76.7,43.2,72.1,43.2z"/>
		<path class="st2" d="M72.1,39.2c-6.5,0-10-1.9-10.3-2l1.4-2.6l-0.7,1.3l0.7-1.3c0.1,0,7.7,3.9,21.1-0.5c14.2-4.6,26-2.7,30.5-0.4
			l-1.4,2.7c-2.6-1.4-13.3-4.2-28.1,0.6C80.1,38.6,75.7,39.2,72.1,39.2z"/>
	</g>
</g>
<rect x="43.1" y="164.1" class="st0" width="71.7" height="67.7"/>
<rect x="50.6" y="170.5" class="st3" width="56.3" height="55"/>
<g>
	<path class="st1" d="M99.3,38.3v3.6c0,4-1.5,7.5-4.1,9.6c-2,1.6-4.5,2.3-7.3,2l-3.6,9.1l-2.8-1.1l4.5-11.4l1.2,0.3
		c2.4,0.5,4.5,0.1,6-1.2c1.9-1.5,3-4.2,3-7.3v-3.4L99.3,38.3z"/>
</g>
</svg>
