<?xml version="1.0" encoding="utf-8"?>
<!-- Generator: Adobe Illustrator 19.1.0, SVG Export Plug-In . SVG Version: 6.00 Build 0)  -->
<svg version="1.1" id="Layer_1" xmlns="http://www.w3.org/2000/svg" xmlns:xlink="http://www.w3.org/1999/xlink" x="0px" y="0px"
	 viewBox="0 0 154.5 280.5" style="enable-background:new 0 0 154.5 280.5;" xml:space="preserve">
<style type="text/css">
	.st0{fill:#FFFFFF;}
	.st1{fill:#67506C;}
	.st2{fill:#211F1F;}
	.st3{fill:#808285;}
	.st4{clip-path:url(#SVGID_2_);}
	.st5{fill:none;stroke:#00B48D;stroke-width:3;stroke-miterlimit:10;}
	.st6{fill:#231F20;}
</style>
<g>
	<g id="XMLID_26_">
		<path class="st0" d="M111.4,106.8L93.2,63.2l-5.4-4.4l2.3-5.7c2.6-0.3,5.3-1.2,7.3-2.9c3.5-2.8,5.9-7.5,5.9-12.7V21.2h-1.6
			l0.1-0.2l-2.9-3.8c-3.4-4.4-8.6-7-14.2-7c-9.9,0-17.9,8-17.9,17.9c0,8.6,6.1,15.8,14.2,17.5l-2.2,5.7L74.7,48l-3.3,5.6
			c-1,1.7-9.3,16.5-10.3,29.3l-16.2,56.3h19.3v22h32.5c8,0,14.6-6.5,14.6-14.5l0.1-8.8l13.8,10.6l13.5-18.5L111.4,106.8z"/>
		<path class="st1" d="M96.7,157.2H68.3l0-30.3c-0.2-2-3.2-29.5-3.2-41.5c0-12.5,9.5-29.1,9.9-29.8l0.9-1.5l14,11.5l18.3,43.6
			l25.2,21.4l-8.9,12.2l-16.9-13l-0.1,16.8C107.3,152.5,102.5,157.2,96.7,157.2z M71.3,154.2h25.4c4.2,0,7.6-3.4,7.6-7.6l0.2-19.1
			L92,117.9l-12.9-25l2.7-1.4l12.6,24.4l29.4,22.7l5.4-7.4l-23.6-20.1L87.4,67.5l-10.7-8.8c-2.3,4.4-8.6,17.2-8.6,26.8
			c0,12,3.1,40.9,3.2,41.2l0,0.2L71.3,154.2z"/>
	</g>
	<path class="st2" d="M85.1,54.4l-2.8-1.1l3-7.7l1.2,0.3c2.4,0.5,4.4,0.1,6-1.1c1.9-1.5,2.9-4.1,2.9-7.2V24.9h3v12.6
		c0,4-1.5,7.5-4.1,9.6c-2,1.6-4.5,2.3-7.3,2L85.1,54.4z"/>
	<path class="st3" d="M83.7,42.1c-7.7,0-13.9-6.2-13.9-13.9s6.2-13.9,13.9-13.9c4.3,0,8.3,2,11,5.4l0.8,1l-0.9,0.9
		c-0.2,0.2-0.4,0.4-0.6,0.6c-1.7,1.9-3.7,4.1-9.2,5.1c0.1,1.1,0.3,2.3,0.5,3.6c0.1,0.9,0.3,1.8,0.4,2.8l-3,0.4
		c-0.1-0.9-0.3-1.8-0.4-2.7c-0.3-1.9-0.6-3.7-0.7-5.2l-0.1-1.4l1.4-0.2c5.2-0.7,6.9-2.3,8.5-4.1c-2-2.1-4.8-3.3-7.8-3.3
		c-6,0-10.9,4.9-10.9,10.9s4.9,10.9,10.9,10.9V42.1z"/>
	<g id="XMLID_31_">
		<g id="XMLID_32_">
			<path class="st0" d="M133.9,147.1l2.1-3.4c0.4-0.7,0.6-1.5,0.4-2.3c-0.2-0.8-0.6-1.5-1.3-1.9l-3.4-2.1l5.9-9.3l3.4,2.1
				c3.2,2,5.4,5.1,6.2,8.8c0.8,3.7,0.2,7.4-1.8,10.6l-2.1,3.4L133.9,147.1z"/>
			<path class="st2" d="M141.9,147.4l-2.5-1.6c1-1.6,1.3-3.5,0.9-5.3c-0.4-1.8-1.5-3.4-3.1-4.4l1.6-2.5c2.3,1.4,3.8,3.7,4.4,6.3
				S143.4,145.1,141.9,147.4z"/>
		</g>
	</g>
	<g id="XMLID_15_">
		<g id="XMLID_16_">
			<path class="st0" d="M44,143.5l4-0.1c1.7,0,3-1.4,3-3.1l-0.1-4l11-0.2l0.1,4c0.2,7.7-6,14.2-13.7,14.3l-4,0.1L44,143.5z"/>
			<path class="st2" d="M48.1,150.4l-0.1-3c3.9-0.1,7-3.3,6.9-7.2l3-0.1C58,145.7,53.6,150.3,48.1,150.4z"/>
		</g>
	</g>
	<polygon class="st1" points="64.7,135.2 50.3,135.2 62.6,92.6 63.4,100.6 54.2,132.2 64.7,132.2 	"/>
	<g>
		<defs>
			<rect id="SVGID_1_" x="3.6" y="163.2" width="132.4" height="116.1"/>
		</defs>
		<clipPath id="SVGID_2_">
			<use xlink:href="#SVGID_1_"  style="overflow:visible;"/>
		</clipPath>
		<g class="st4">
			<polygon class="st0" points="133,268.9 130.2,258.4 107.3,133.2 107.3,133.2 75.1,165.7 83,193.4 105.8,267.1 105.8,267.1 
				108.1,275.7 			"/>
			<path class="st0" d="M81,129.2H70.2v3.5c0,4.1-9.2,33.8-17.5,59.3l-40.9,41.4l-8.6,6.9l16,20.1l8.6-6.9c0,0,48.8-48,49.4-49.6
				c0.8-1.8,10.4-22.3,19.2-41l1.7-3.5L81,129.2z"/>
			
				<rect x="117.6" y="258.1" transform="matrix(0.2618 0.9651 -0.9651 0.2618 345.6215 82.0914)" class="st2" width="3" height="17.8"/>
			<g id="XMLID_30_">
				<path class="st5" d="M98.6,192.4"/>
				<path class="st5" d="M98.6,192.4"/>
			</g>
			<path class="st6" d="M110.5,262.4l-0.4-1.5c-0.1-0.6-15.1-56.7-25.2-89.2l2.9-0.9c9.2,29.6,22.4,78.8,24.8,87.9l6.1-1.7
				L99.5,128.3l3-0.4l19.6,131.4L110.5,262.4z"/>
			<path class="st6" d="M23.2,246.4l-7.3-9L56,194.1c5-15.3,17.6-55.3,17.6-61.3h3c0,7.8-17.1,60.3-17.9,62.6l-0.1,0.3l-38.8,41.8
				l3.7,4.6c18.4-15.7,45-38.6,47.1-40.9c1.4-3.3,16.2-34.8,19.3-41.3l2.7,1.3c-7.5,15.9-18.8,40.1-19.3,41.3
				c-0.2,0.5-0.6,1.6-49.1,42.9L23.2,246.4z M70.7,201.3C70.7,201.3,70.6,201.4,70.7,201.3C70.6,201.4,70.6,201.4,70.7,201.3z"/>
			
				<rect x="6.6" y="245.4" transform="matrix(0.6236 0.7817 -0.7817 0.6236 198.823 80.8156)" class="st2" width="17.7" height="3"/>
		</g>
	</g>
</g>
</svg>
