<?xml version="1.0" encoding="utf-8"?>
<!-- Generator: Adobe Illustrator 20.0.0, SVG Export Plug-In . SVG Version: 6.00 Build 0)  -->
<svg version="1.1" id="Layer_1" xmlns="http://www.w3.org/2000/svg" xmlns:xlink="http://www.w3.org/1999/xlink" x="0px" y="0px"
	 viewBox="0 0 154.5 322" style="enable-background:new 0 0 154.5 322;" xml:space="preserve">
<style type="text/css">
	.st0{fill:#FFFFFF;}
	.st1{fill:none;stroke:#162532;stroke-width:4;stroke-miterlimit:10;}
	.st2{fill:none;stroke:#FFFFFF;stroke-width:3;stroke-miterlimit:10;}
	.st3{fill:none;}
	.st4{fill:none;stroke:#F69679;stroke-width:6;stroke-miterlimit:10;}
	.st5{fill:none;stroke:#162532;stroke-width:6;stroke-miterlimit:10;}
	.st6{fill:none;stroke:#00B48D;stroke-width:6;stroke-miterlimit:10;}
	.st7{clip-path:url(#SVGID_2_);}
	.st8{clip-path:url(#SVGID_4_);fill:#FFFFFF;}
	.st9{clip-path:url(#SVGID_4_);fill:none;stroke:#162532;stroke-width:4;stroke-miterlimit:10;}
	.st10{clip-path:url(#SVGID_6_);}
	.st11{clip-path:url(#SVGID_8_);fill:#FFFFFF;}
	.st12{clip-path:url(#SVGID_8_);fill:none;stroke:#F69679;stroke-width:6;stroke-miterlimit:10;}
	.st13{fill:#162532;}
</style>
<g>
	<path class="st0" d="M103.8,118.3l-1.6-9.9c2.5-3.6,5.2-8.3,5.8-13.7c1.2-10.2-4.6-18.1-10.1-25.6l-0.3-0.4l-7.5-7.1
		c3.1-0.6,8.4-4,8.4-4L121,47.2l12.7-20.5c-4-2-22.2-7.6-29.1-8c-3.8-8-12-13.6-21.5-13.6c-11.4,0-21,8.1-23.2,18.9
		c-1-0.2-1.6-0.5-1.6-0.5c0.2,0.1-10.5-4.3-10.5-4.3l-8,17.8c0.9,0.5,15.7,7.5,25,7.6c-1.1,1.6-2.4,10.2-2.8,13l-2.7,2.4
		c-6.5,5.5-9.5,9.6-9.5,21.6l1.4,4c0,10,2.3,20.6,3.4,24.9c0.7,5.1-2.5,31.6-9,70.6H27v102h27.7l0.6,38H112l2.6-38H134V181h-19.9
		l-5.5-33.2L103.8,118.3z"/>
	<g>
		<polyline class="st1" points="86.6,302 94.5,302 100.1,252.8 		"/>
		<path class="st0" d="M98,38.7c0,7.4-4.8,13.7-13.1,12"/>
		<path class="st2" d="M98,38.7c0,7.4-4.8,13.7-13.1,12"/>
		<path class="st0" d="M74.4,210.5l35,0l-17.3-105c2-2.3,5.9-7.4,6.5-12.4c0.8-6.4-3.5-12.1-8.5-18.9L61.7,84.8
			c0,7.3,1.6,16.2,3.1,22.6c2.8,11.6,6.7,28.5,6.7,28.5l-20.7,74.5l17.5,0"/>
		<path class="st3" d="M74.4,211l35,0L92.1,106c2-2.3,5.9-7.4,6.5-12.4c0.8-6.4-3.5-12.1-8.5-18.9L61.7,85.4
			c0,7.3,1.6,16.2,3.1,22.6c2.8,11.6,6.7,28.5,6.7,28.5L50.8,211l17.5,0"/>
		<polyline class="st1" points="63.9,218.6 69.7,302 79.5,302 89.2,216.7 		"/>
		<path class="st4" d="M61.7,85.4c0,7.3,1.6,16.2,3.1,22.6c2.8,11.6-14,103-14,103l35,0"/>
		<line class="st5" x1="84.9" y1="310.9" x2="68.1" y2="310.9"/>
		<rect x="46" y="216.2" class="st0" width="71.7" height="2.8"/>
		<path class="st4" d="M90,74.6c5.1,6.9,9.3,12.5,8.5,18.9c-0.6,5-4.5,10.2-6.5,12.4l17.3,105l-35,0"/>
		<path class="st1" d="M83.5,183.9l-4.9-52.2c0,0,0.5-32.2,0.9-49.5c0.3-14.5-13.2-14.9-13.2-14.9c-4.2,3.6-6,5.3-6,13.8"/>
		<g>
			<g>
				<rect x="37.5" y="190.4" class="st0" width="86.7" height="81.9"/>
				<rect x="46.5" y="198.2" class="st6" width="68.1" height="66.5"/>
				<path class="st0" d="M70.9,27.8c0-7.6,6.1-13.7,13.7-13.7c7.6,0,13.7,6.1,13.7,13.7C98.4,35.4,70.9,49.2,70.9,27.8"/>
			</g>
		</g>
		<g>
			<defs>
				<path id="SVGID_1_" d="M101.9,33.5l-2.5,33.1l-21.9-9.1l6.1-21.3c8-2.1,13.4-3,16.3-3C100.9,33.3,101.5,33.4,101.9,33.5"/>
			</defs>
			<clipPath id="SVGID_2_">
				<use xlink:href="#SVGID_1_"  style="overflow:visible;"/>
			</clipPath>
			<g class="st7">
				<defs>
					<rect id="SVGID_3_" x="-152.9" y="-356.7" width="1133" height="755.3"/>
				</defs>
				<clipPath id="SVGID_4_">
					<use xlink:href="#SVGID_3_"  style="overflow:visible;"/>
				</clipPath>
				<path class="st8" d="M98,23.4l0,15.3c0,7.4-4.8,13.7-13.1,12l-5.7,14.5L50.1,45l2.6-25.8L98,23.4z"/>
				<path class="st9" d="M98,23.4l0,15.3c0,7.4-4.8,13.7-13.1,12l-5.7,14.5L50.1,45l2.6-25.8L98,23.4z"/>
			</g>
		</g>
		<g>
			<defs>
				<polygon id="SVGID_5_" points="105.4,4.8 105.4,28.4 88.3,29.3 67.4,33.5 64.1,25.5 64.1,4.8 				"/>
			</defs>
			<clipPath id="SVGID_6_">
				<use xlink:href="#SVGID_5_"  style="overflow:visible;"/>
			</clipPath>
			<g class="st10">
				<defs>
					<rect id="SVGID_7_" x="-152.9" y="-356.7" width="1133" height="755.3"/>
				</defs>
				<clipPath id="SVGID_8_">
					<use xlink:href="#SVGID_7_"  style="overflow:visible;"/>
				</clipPath>
				<path class="st11" d="M70.9,27.8c0-7.6,6.1-13.7,13.7-13.7c7.6,0,13.7,6.1,13.7,13.7C98.4,35.4,70.9,49.2,70.9,27.8"/>
				<path class="st12" d="M70.9,27.8c0-7.6,6.1-13.7,13.7-13.7c7.6,0,13.7,6.1,13.7,13.7C98.4,35.4,70.9,49.2,70.9,27.8z"/>
			</g>
		</g>
		<g>
			<path class="st4" d="M55.3,31.4c0,0,9.6,5.2,27-0.5c17.4-5.6,31.1-2.9,35.4-0.6"/>
		</g>
		<g>
			<g>
				<path class="st13" d="M71.5,303.1c1.9,0,1.9-3,0-3C69.6,300.1,69.6,303.1,71.5,303.1L71.5,303.1z"/>
			</g>
		</g>
		<line class="st5" x1="99.9" y1="310.9" x2="89.2" y2="310.9"/>
	</g>
</g>
</svg>
