<?xml version="1.0" encoding="utf-8"?>
<!-- Generator: Adobe Illustrator 19.1.0, SVG Export Plug-In . SVG Version: 6.00 Build 0)  -->
<svg version="1.1" id="Layer_1" xmlns="http://www.w3.org/2000/svg" xmlns:xlink="http://www.w3.org/1999/xlink" x="0px" y="0px"
	 viewBox="0 0 154.5 280.5" style="enable-background:new 0 0 154.5 280.5;" xml:space="preserve">
<style type="text/css">
	.st0{fill:#FFFFFF;}
	.st1{fill:#162532;}
	.st2{fill:#F69679;}
	.st3{fill:none;stroke:#00B48D;stroke-width:3;stroke-miterlimit:10;}
</style>
<g>
	<path class="st0" d="M76.6,261c-0.5-2.2-3.5-54.6-5-69.8l26.2-6.6L96,265.2H77.6L76.6,261z"/>
	<path class="st1" d="M80.7,261.1l-5.2-70.3l3-0.3c1.3,13.4,4.5,67.6,4.5,67.6l5.2,0l2.9-68.8l3-0.3l-2.6,72.1L80.7,261.1z"/>
</g>
<g>
	<rect x="77.2" y="261.2" class="st0" width="21" height="11"/>
	<rect x="80.5" y="265.5" class="st1" width="13.9" height="3"/>
</g>
<g>
	<path class="st0" d="M66.6,261c-0.5-2.2-3.5-54.6-5-69.8l26.2-6.6L86,265.2H67.6L66.6,261z"/>
	<path class="st1" d="M70.7,261.1l-5.2-70.3l3-0.3c1.3,13.4,4.5,67.6,4.5,67.6l5.2,0l2.9-68.8l3-0.3l-2.6,72.1L70.7,261.1z"/>
</g>
<g>
	<rect x="67.2" y="261.2" class="st0" width="21" height="11"/>
	<rect x="70.5" y="265.5" class="st1" width="13.9" height="3"/>
</g>
<g>
	<path class="st0" d="M97.8,99.2c2-2.7,4.5-6.9,5-11.3c0.9-7.4-3.4-13.2-7.8-19.2l-2.6-3.6L85.6,70c-3.3-7.7-11.3-9.8-14.9-9.9
		l-2.1-0.1L67,61.4c-4.3,3.6-7,6.5-7,15.6s3.9,23.5,3.9,23.5c1.3,5.2-4.9,47.2-11.5,83l-1.2,6.7H73h18h21.8L97.8,99.2z"/>
	<path class="st1" d="M83.3,162.2l-4-43.2l0-0.1c0-0.3,0.4-26.8,0.7-40.9c0.2-9.1-6.9-10.5-8.9-10.7c-2.9,2.5-4,3.7-4,9.9h-3
		c0-7.6,1.8-9.4,5.5-12.6l0.4-0.4l0.6,0c0.1,0,12.7,0.5,12.4,13.8c-0.3,13.7-0.7,39.2-0.7,40.9l4,43.1L83.3,162.2z"/>
</g>
<path class="st2" d="M108.1,186.2L93.6,98.2c1.7-2.1,4.8-6.4,5.3-10.6c0.7-5.8-2.9-10.8-7.1-16.4l-0.2-0.4l-2.4,1.8l0.2,0.3
	c4,5.4,7.1,9.6,6.5,14.3c-0.5,4-4,8.3-5,9.5l-0.5,0.7l14.2,86H77.4l0,0H59.7c2.1-12,13.4-75.2,11.2-84.3c-0.6-2.4-2.5-10.7-2.5-18.7
	h-3c0,8,2,16.7,2.6,19.2c1.9,7.6-7.7,63.8-11.6,84.8l-0.3,2h30.7l0,0H108.1z"/>
<g>
	<g>
		<g>
			<path class="st0" d="M101.8,32.9c0-1.6-0.3-3.1-0.7-4.5l-1.2-3.1c-2.8-5.5-8.5-9.2-15-9.2c-9.3,0-16.8,7.6-16.8,16.8
				c0,4.7,1.3,8.5,3.8,11.2c2.2,2.3,5.3,3.6,8.8,3.8L75,62.2l7.8,10.1l5.7-14.8c2.6-0.3,5.1-1.2,7.1-2.9c3.5-2.9,5.5-7.5,5.5-12.7
				v-6C101.2,34.9,101.8,33.9,101.8,32.9z"/>
			<path class="st2" d="M72.5,37.2C72.1,36,72,34.5,72,32.9c0-7.1,5.8-12.8,12.8-12.8s12.8,5.8,12.8,12.8h-3c0-5.4-4.4-9.8-9.8-9.8
				S75,27.5,75,32.9c0,1.7,0.2,3.1,0.7,4.3C75.9,38,72.9,38.9,72.5,37.2z"/>
		</g>
	</g>
</g>
<g>
	<g>
		<path class="st0" d="M70.1,43.2c-7.2,0-11.4-2-12.1-2.4l-3.5-1.9l2.6-4.9l2.6-4.8c0,0,6,3,10.6,3c3.4,0,7.1-0.6,11-1.9
			c6.2-2,12.4-3,18.5-3c6.1,0,11.6,1.1,15.1,2.9l3.5,1.9l-5.1,9.7l-3.5-1.9c-0.8-0.4-4.4-1.6-10.1-1.6c-4.8,0-9.8,0.8-14.9,2.5
			C79.6,42.3,74.7,43.2,70.1,43.2z"/>
		<path class="st2" d="M70.1,39.2c-6.5,0-10-1.9-10.3-2l1.4-2.6l-0.7,1.3l0.7-1.3c0.1,0,7.7,3.9,21.1-0.5c14.2-4.6,26-2.7,30.5-0.4
			l-1.4,2.7c-2.6-1.4-13.3-4.2-28.1,0.6C78.1,38.6,73.7,39.2,70.1,39.2z"/>
	</g>
</g>
<rect x="41.1" y="164.1" class="st0" width="71.7" height="67.7"/>
<rect x="48.6" y="170.5" class="st3" width="56.3" height="55"/>
<g>
	<path class="st1" d="M97.3,38.3v3.6c0,4-1.5,7.5-4.1,9.6c-2,1.6-4.5,2.3-7.3,2l-3.6,9.1l-2.8-1.1l4.5-11.4l1.2,0.3
		c2.4,0.5,4.5,0.1,6-1.2c1.9-1.5,3-4.2,3-7.3v-3.4L97.3,38.3z"/>
</g>
</svg>
