<?xml version="1.0" encoding="utf-8"?>
<!-- Generator: Adobe Illustrator 19.1.0, SVG Export Plug-In . SVG Version: 6.00 Build 0)  -->
<svg version="1.1" id="Layer_1" xmlns="http://www.w3.org/2000/svg" xmlns:xlink="http://www.w3.org/1999/xlink" x="0px" y="0px"
	 viewBox="0 0 154.5 280.5" style="enable-background:new 0 0 154.5 280.5;" xml:space="preserve">
<style type="text/css">
	.st0{fill:#FFFFFF;}
	.st1{fill:#211F1F;}
	.st2{fill:#808285;}
	.st3{fill:#67506C;}
	.st4{clip-path:url(#SVGID_2_);}
	.st5{fill:none;stroke:#00B48D;stroke-width:3;stroke-miterlimit:10;}
	.st6{fill:#231F20;}
	.st7{fill:none;stroke:#67506C;stroke-width:3;stroke-miterlimit:10;}
</style>
<g>
	<path class="st0" d="M111.4,112.7l0-5.8L93.2,63.2l-5.4-4.4l2.3-5.7c2.6-0.3,5.3-1.2,7.3-2.9c3.5-2.8,5.9-7.5,5.9-12.7V21.2h-1.6
		l0.1-0.2l-2.9-3.8c-3.4-4.4-8.6-7-14.2-7c-9.9,0-17.9,8-17.9,17.9c0,8.6,6.1,15.8,14.2,17.5l-2.2,5.7L74.7,48l-3.3,5.6
		C70.4,55.5,61,72.1,61,85.5c0,4,0.3,9.7,0.8,15.5l-15.9,39.5l18.1,8.9l0.2-0.2v12h32.5c8,0,14.6-6.5,14.6-14.5l0-3l19.6-9.8
		L111.4,112.7z"/>
	<path class="st1" d="M85.1,54.4l-2.8-1.1l3-7.7l1.2,0.3c2.4,0.5,4.4,0.1,6-1.1c1.9-1.5,2.9-4.1,2.9-7.2V24.9h3v12.6
		c0,4-1.5,7.5-4.1,9.6c-2,1.6-4.5,2.3-7.3,2L85.1,54.4z"/>
	<path class="st2" d="M83.7,42.1c-7.7,0-13.9-6.2-13.9-13.9s6.2-13.9,13.9-13.9c4.3,0,8.3,2,11,5.4l0.8,1l-0.9,0.9
		c-0.2,0.2-0.4,0.4-0.6,0.6c-1.7,1.9-3.7,4.1-9.2,5.1c0.1,1.1,0.3,2.3,0.5,3.6c0.1,0.9,0.3,1.8,0.4,2.8l-3,0.4
		c-0.1-0.9-0.3-1.8-0.4-2.7c-0.3-1.9-0.6-3.7-0.7-5.2l-0.1-1.4l1.4-0.2c5.2-0.7,6.9-2.3,8.5-4.1c-2-2.1-4.8-3.3-7.8-3.3
		c-6,0-10.9,4.9-10.9,10.9s4.9,10.9,10.9,10.9V42.1z"/>
	<g id="XMLID_23_">
		<g id="XMLID_24_">
			<path class="st0" d="M112.4,147.1l3.6-1.8c0.7-0.4,1.3-1,1.5-1.8c0.3-0.8,0.2-1.6-0.2-2.3l-1.8-3.6l9.8-4.9l1.8,3.6
				c1.7,3.4,1.9,7.2,0.8,10.7c-1.2,3.6-3.7,6.4-7,8.1l-3.6,1.8L112.4,147.1z"/>
			<path class="st1" d="M119.1,151.6l-1.3-2.7c1.7-0.8,2.9-2.3,3.5-4.1c0.6-1.8,0.5-3.7-0.4-5.4l2.7-1.3c1.2,2.4,1.4,5.1,0.5,7.7
				C123.2,148.4,121.5,150.4,119.1,151.6z"/>
		</g>
	</g>
	<path class="st3" d="M71.3,125.7l0,28.5h25.4c4.2,0,7.6-3.4,7.6-7.6l0.2-19.1l0.3-18.5L87.4,67.5l-10.7-8.8
		c-2.3,4.4-8.6,17.2-8.6,26.8l-3,6.4c-0.1-1.5,0-5.2,0-6.4c0-12.5,9.5-29.1,9.9-29.8l0.9-1.5l14,11.5l18.3,43.6l-0.6,20.6l-0.1,16.8
		c0,5.8-4.8,10.6-10.6,10.6H68.3l0-26.8L71.3,125.7z"/>
	<g id="XMLID_20_">
		<g id="XMLID_21_">
			<path class="st0" d="M44,144.3l3.5,1.9c1.5,0.8,3.3,0.2,4.1-1.2l1.9-3.5l9.7,5.2l-1.9,3.5c-3.7,6.8-12.2,9.4-19,5.7l-3.5-1.9
				L44,144.3z"/>
			<path class="st1" d="M44.2,152.4l1.4-2.6c3.4,1.8,7.7,0.6,9.5-2.9l2.6,1.4C55.2,153.1,49.1,155,44.2,152.4z"/>
		</g>
	</g>
	<polygon class="st3" points="111.1,138.8 124.3,132.3 111.1,118 111.1,122.5 119.4,131.4 111.1,135.2 	"/>
	<g>
		<defs>
			<rect id="SVGID_1_" x="1.6" y="163.2" width="132.4" height="116.1"/>
		</defs>
		<clipPath id="SVGID_2_">
			<use xlink:href="#SVGID_1_"  style="overflow:visible;"/>
		</clipPath>
		<g class="st4">
			<g id="XMLID_19_">
				<path class="st5" d="M96.6,192.4"/>
				<path class="st5" d="M96.6,192.4"/>
			</g>
			<g>
				<path class="st0" d="M74.5,124.9l-10.8,2l0.7,3.7c0.7,4-2.8,34.8-6.3,61.4l-32.7,48.1l-7.2,8.3l19.4,16.8l7.2-8.3
					c0,0,39.3-56,39.6-57.8c0.4-1.9,6.2-23.8,11.4-43.8l1-3.9L74.5,124.9z"/>
				<path class="st6" d="M38.9,250.7l-8.8-7.5l31.6-49.8c2.1-16,7.3-57.6,6.2-63.5l3-0.5c1.4,7.6-5.9,62.4-6.2,64.8l0,0.3
					l-30.5,48.2l4.5,3.8c15.2-18.7,37.3-46.1,38.9-48.8c0.8-3.5,5.1-20.8,6.9-27.7l2.9,0.8c-4.5,17-6.7,26.5-6.9,27.7
					c-0.1,0.5-0.3,1.6-40.5,51.1L38.9,250.7z M77.4,197.8C77.4,197.8,77.4,197.9,77.4,197.8C77.4,197.9,77.4,197.8,77.4,197.8z"/>
				
					<rect x="22.6" y="251.1" transform="matrix(0.7551 0.6556 -0.6556 0.7551 173.3344 41.2521)" class="st1" width="17.7" height="3"/>
			</g>
			<g>
				<polygon class="st0" points="128.1,270.1 125.7,259.4 108.3,133.2 108.2,133.2 74.7,164.4 81.4,192.4 100.9,267.1 100.9,267.1 
					102.9,275.8 				"/>
				
					<rect x="112.8" y="258.7" transform="matrix(0.2194 0.9756 -0.9756 0.2194 350.2621 97.3587)" class="st1" width="3" height="17.8"/>
				<path class="st6" d="M105.8,262.6l-0.3-1.5c-0.1-0.6-17.1-75.3-25.8-108.2l2.9-0.8c7.9,30,23.4,97.7,25.5,106.9l6.2-1.4
					l-13.6-129.5l3-0.3L117.5,260L105.8,262.6z"/>
			</g>
		</g>
	</g>
	<polyline class="st7" points="88.1,87.8 62,144 51,138.6 75.1,78.5 	"/>
</g>
</svg>
