<?xml version="1.0" encoding="utf-8"?>
<!-- Generator: Adobe Illustrator 20.0.0, SVG Export Plug-In . SVG Version: 6.00 Build 0)  -->
<svg version="1.1" id="Layer_1" xmlns="http://www.w3.org/2000/svg" xmlns:xlink="http://www.w3.org/1999/xlink" x="0px" y="0px"
	 viewBox="0 0 154.5 322" style="enable-background:new 0 0 154.5 322;" xml:space="preserve">
<style type="text/css">
	.st0{fill:#FFFFFF;}
	.st1{fill:none;stroke:#FFFFFF;stroke-width:3;stroke-miterlimit:10;}
	.st2{fill:none;}
	.st3{fill:none;stroke:#162532;stroke-width:4;stroke-miterlimit:10;}
	.st4{fill:none;stroke:#F69679;stroke-width:6;stroke-miterlimit:10;}
	.st5{fill:none;stroke:#162532;stroke-width:6;stroke-miterlimit:10;}
	.st6{clip-path:url(#SVGID_2_);}
	.st7{clip-path:url(#SVGID_4_);fill:none;stroke:#162532;stroke-width:4;stroke-miterlimit:10;}
	.st8{fill:none;stroke:#00B48D;stroke-width:6;stroke-miterlimit:10;}
	.st9{clip-path:url(#SVGID_6_);}
	.st10{clip-path:url(#SVGID_8_);fill:#FFFFFF;}
	.st11{clip-path:url(#SVGID_8_);fill:none;stroke:#162532;stroke-width:4;stroke-miterlimit:10;}
	.st12{clip-path:url(#SVGID_10_);}
	.st13{clip-path:url(#SVGID_12_);fill:#FFFFFF;}
	.st14{clip-path:url(#SVGID_12_);fill:none;stroke:#F69679;stroke-width:6;stroke-miterlimit:10;}
</style>
<g>
	<path class="st0" d="M104.2,108.9c2.5-3.6,5.2-8.3,5.8-13.7c1.2-10.2-4.6-18.1-10.1-25.6l-0.3-0.4L92.1,62c3.1-0.6,8.4-4,8.4-4
		L123,47.7l12.7-20.5c-4-2-22.2-7.6-29.1-8c-3.8-8-12-13.6-21.5-13.6c-11.4,0-21,8.1-23.2,18.9c-1-0.2-1.6-0.5-1.6-0.5
		c0.2,0.1-10.5-4.3-10.5-4.3l-8,17.8c0.9,0.5,15.7,7.5,25,7.6c-1.1,1.6-2.4,10.2-2.8,13l-2.7,2.4c-6.5,5.5-9.5,9.6-9.5,21.6l1.4,4
		c0,10,2.3,20.4,3.4,24.7c0.4,2.7-2,14.6-2,14.6l-25.6,27l-5.3,17.3L29,181v76.9c-2,3.5-3.3,7-4.9,10.4c-2.8,6.2-5.5,12-8.6,17.5
		L5,308.3l44.8,22.1L71.2,283h22.2c4.1,20,7.7,38,7.7,38H131l-3.9-38h8.9V181h-19.9L104.2,108.9z"/>
	<g>
		<g>
			<path class="st0" d="M98.2,39.2c0,7.4-4.8,13.7-13.1,12"/>
			<path class="st1" d="M98.2,39.2c0,7.4-4.8,13.7-13.1,12"/>
			<path class="st0" d="M74.7,211l35,0l-17.3-105c2-2.3,5.9-7.4,6.5-12.4c0.8-6.4-3.5-12.1-8.5-18.9L62,85.3
				c0,7.3,1.6,16.2,3.1,22.6c2.8,11.6,6.7,28.5,6.7,28.5L51.1,211l17.5,0"/>
			<path class="st2" d="M74.7,211.5l35,0l-17.3-105c2-2.3,5.9-7.4,6.5-12.4c0.8-6.4-3.5-12.1-8.5-18.9L62,85.9
				c0,7.3,1.6,16.2,3.1,22.6c2.8,11.6,6.7,28.5,6.7,28.5l-20.7,74.5l17.5,0"/>
			<path class="st3" d="M84.8,215.6l-1.6,14.1l-39.2,70l-8.7-4.4c8.6-21.5,12.1-46.4,29-65.6l1.1-11.8"/>
			<path class="st3" d="M90,219.1c1.8,17.9,18,83.4,18,83.4l9.7,0l-8.7-85.3"/>
			<path class="st4" d="M62,85.9c0,7.3,1.6,16.2,3.1,22.6c2.8,11.6-14,103-14,103l35,0"/>
			<line class="st5" x1="123.1" y1="311.4" x2="106.3" y2="311.4"/>
			<line class="st5" x1="45.2" y1="309.7" x2="29" y2="301.4"/>
			<rect x="46.2" y="216.7" class="st0" width="71.7" height="2.8"/>
			<path class="st4" d="M90.3,75.1c5.1,6.9,9.3,12.5,8.5,18.9c-0.6,5-4.5,10.2-6.5,12.4l17.3,105l-35,0"/>
			<path class="st3" d="M83.7,184.4l-4.9-52.2c0,0,0.5-32.2,0.9-49.5C80,68.3,66.5,67.9,66.5,67.9c-4.2,3.6-6,5.3-6,13.8"/>
			<g>
				<defs>
					<polygon id="SVGID_1_" points="48.3,176.6 44.9,176.6 32.7,172.7 42.8,141.1 55.6,137.4 					"/>
				</defs>
				<clipPath id="SVGID_2_">
					<use xlink:href="#SVGID_1_"  style="overflow:visible;"/>
				</clipPath>
				<g class="st6">
					<defs>
						
							<rect id="SVGID_3_" x="-165.7" y="-137.7" transform="matrix(0.9926 -0.1217 0.1217 0.9926 -50.5889 28.9775)" width="755.3" height="1133"/>
					</defs>
					<clipPath id="SVGID_4_">
						<use xlink:href="#SVGID_3_"  style="overflow:visible;"/>
					</clipPath>
					<path class="st7" d="M36.1,168.9c1.8,0.5,3.7,0.6,5.4,0.1c3.5-0.9,5.7-3.7,7.5-7.1l20.9-34.6"/>
				</g>
			</g>
			<g>
				<g>
					<rect x="37.7" y="190.9" class="st0" width="86.7" height="81.9"/>
					<rect x="46.7" y="198.7" class="st8" width="68.1" height="66.5"/>
					<path class="st0" d="M71.2,28.3c0-7.6,6.1-13.7,13.7-13.7c7.6,0,13.7,6.1,13.7,13.7C98.6,35.9,71.2,49.7,71.2,28.3"/>
				</g>
			</g>
			<g>
				<defs>
					<path id="SVGID_5_" d="M102.2,34l-2.5,33.1l-21.9-9.1l6.1-21.3c8-2.1,13.4-3,16.3-3C101.1,33.8,101.8,33.9,102.2,34"/>
				</defs>
				<clipPath id="SVGID_6_">
					<use xlink:href="#SVGID_5_"  style="overflow:visible;"/>
				</clipPath>
				<g class="st9">
					<defs>
						<rect id="SVGID_7_" x="-152.7" y="-356.2" width="1133" height="755.3"/>
					</defs>
					<clipPath id="SVGID_8_">
						<use xlink:href="#SVGID_7_"  style="overflow:visible;"/>
					</clipPath>
					<path class="st10" d="M98.2,23.9l0,15.3c0,7.4-4.8,13.7-13.1,12l-5.7,14.5L50.3,45.5L53,19.6L98.2,23.9z"/>
					<path class="st11" d="M98.2,23.9l0,15.3c0,7.4-4.8,13.7-13.1,12l-5.7,14.5L50.3,45.5L53,19.6L98.2,23.9z"/>
				</g>
			</g>
			<g>
				<defs>
					<polygon id="SVGID_9_" points="105.6,5.3 105.6,28.9 88.5,29.8 67.7,34 64.3,26 64.3,5.3 					"/>
				</defs>
				<clipPath id="SVGID_10_">
					<use xlink:href="#SVGID_9_"  style="overflow:visible;"/>
				</clipPath>
				<g class="st12">
					<defs>
						<rect id="SVGID_11_" x="-152.7" y="-356.2" width="1133" height="755.3"/>
					</defs>
					<clipPath id="SVGID_12_">
						<use xlink:href="#SVGID_11_"  style="overflow:visible;"/>
					</clipPath>
					<path class="st13" d="M71.2,28.3c0-7.6,6.1-13.7,13.7-13.7c7.6,0,13.7,6.1,13.7,13.7C98.6,35.9,71.2,49.7,71.2,28.3"/>
					<path class="st14" d="M71.2,28.3c0-7.6,6.1-13.7,13.7-13.7c7.6,0,13.7,6.1,13.7,13.7C98.6,35.9,71.2,49.7,71.2,28.3z"/>
				</g>
			</g>
			<g>
				<path class="st4" d="M55.6,31.9c0,0,9.6,5.2,27-0.5c17.4-5.6,31.1-2.9,35.4-0.6"/>
			</g>
		</g>
	</g>
</g>
</svg>
