<?xml version="1.0" encoding="utf-8"?>
<!-- Generator: Adobe Illustrator 20.0.0, SVG Export Plug-In . SVG Version: 6.00 Build 0)  -->
<svg version="1.1" id="Layer_1" xmlns="http://www.w3.org/2000/svg" xmlns:xlink="http://www.w3.org/1999/xlink" x="0px" y="0px"
	 viewBox="0 0 4195 340.3" style="enable-background:new 0 0 4195 340.3;" xml:space="preserve">
<style type="text/css">
				@keyframes note1 {
		0% {
	    opacity: 0;
	    transform: scaleY(.5) translateY(10px) rotate(20deg);
		}

		20% {
			opacity: 1;
		}

	  45% {
	    opacity: 0;
	    transform: scaleY(1.1) translateY(-10px) translateX(-10px) rotate(-20deg);
	  }

	  100% {
	  	opacity: 0;
	    transform: scaleY(1.1) translateY(-10px) translateX(-10px) rotate(-20deg);
	  }
	}

	@keyframes note2 {
		0% {
	    opacity: 0;
	    transform: scaleY(.5) translateX(0) translateY(0) rotate(-20deg);
		}

		20% {
			opacity: 1;
		}

	  65% {
	    opacity: 0;
	    transform: scaleY(1.1) translateX(5px) translateY(-10px) translateX(10px) rotate(0deg);
	  }

	  100% {
	  	opacity: 0;
	    transform: scaleY(1.1) translateX(5px) translateY(-10px) translateX(10px) rotate(0deg);
	  }
	}

	@keyframes note3 {
		0% {
	    opacity: 0;
	    transform: scaleY(.5) translateY(15px) rotate(0deg);
		}

		20% {
			opacity: 1;
		}

	  35% {
	    opacity: 0;
	    transform: scaleY(1) translateY(0) translateX(-10px) rotate(-20deg);
	  }

	  100% {
	  	opacity: 0;
	    transform: scaleY(1) translateY(0) translateX(-10px) rotate(-20deg);
	  }
	}

	.note1{animation: note1 4s infinite ease-out; transform-origin:bottom;}
	.note2{animation: note2 1s infinite ease-out; transform-origin:bottom;}
	.note3{animation: note3 2s infinite ease-out; transform-origin:bottom;}
	.st0{fill:none;stroke:#56C5D0;stroke-width:6;stroke-miterlimit:10;}
	.st1{fill:#FFFFFF;}
	.st2{fill:none;stroke:#17181B;stroke-width:6;stroke-miterlimit:10;}
	.st3{fill:none;stroke:#17181B;stroke-width:4;stroke-miterlimit:10;}
	.st4{fill:none;stroke:#00B48D;stroke-width:5;stroke-miterlimit:10;}
	.st5{fill:#FFFFFF;stroke:#17181B;stroke-width:4;stroke-miterlimit:10;}
	.st6{fill:none;stroke:#F68D70;stroke-width:6;stroke-linecap:square;stroke-miterlimit:10;}
	.st7{fill:none;stroke:#F68D70;stroke-width:4;stroke-linecap:square;stroke-miterlimit:10;}
	.st8{fill:none;stroke:#56C5D0;stroke-width:5;stroke-miterlimit:10;}
	.st9{fill:none;stroke:#00B48D;stroke-width:2.236;stroke-miterlimit:10;}
</style>
<g>
	<polyline id="XMLID_40_" class="st0" points="2172.5,126.9 2166.2,116.4 2141.5,128 2121.2,115.3 	"/>
	<polygon id="XMLID_39_" class="st1" points="2131.9,109.5 2130.5,134.9 2123.8,133.6 2123.8,108.5 	"/>
	<line id="XMLID_38_" class="st2" x1="2101.6" y1="171.2" x2="2116" y2="171.2"/>
	<path id="XMLID_37_" class="st2" d="M2097.3,226.4c0,33.8,0,100.2,0,100.2h11.1l14.6-162.2"/>
	<line id="XMLID_36_" class="st2" x1="2093.5" y1="335.9" x2="2115.2" y2="335.9"/>
	<path id="XMLID_35_" class="st0" d="M2083.5,97.8c0-14.9,13.4-17.9,13.4-17.9s24.4,17.3,26.1,37.2l-1.7,46.5"/>
	<path id="XMLID_34_" class="st3" d="M2086.9,210.1c5.7,0,10.4-4.6,10.4-10.4"/>
	<g id="XMLID_29_">
		<path id="XMLID_33_" class="st4" d="M2146.9,48l-15-5.2l0.9-2.4c1.2-3.4-0.5-7.1-3.8-8.5c-3.2-1.3-6.7-2.7-7.6-3
			c-8.1-1.9-16.3,3.2-18.2,11.3"/>
	</g>
	
		<rect id="XMLID_28_" x="2091.5" y="162.9" transform="matrix(-1 5.191180e-07 -5.191180e-07 -1 4222.4985 331.5296)" class="st1" width="39.6" height="5.8"/>
	<polyline id="XMLID_27_" class="st0" points="2097.3,99.1 2097.2,192.3 2086.6,192.3 	"/>
	<g id="XMLID_22_">
		<path id="XMLID_25_" class="st5" d="M2108.1,81l5.1-9.6c7.7,3.6,13.8-1.4,15.5-8.7c0.6-2.5,1.5-6.6,2.2-9.6"/>
	</g>
	<line id="XMLID_8_" class="st5" x1="2183.2" y1="91.6" x2="2174.8" y2="112"/>
	<path class="st0" d="M2090.9,72.6h-18.2c-4.2,0-7.7,3.4-7.7,7.7v9c0,4.2,3.4,7.7,7.7,7.7l0,0"/>
	<path class="st6" d="M2083.5,155.3l-23.5-13.2l-16.6,29.5c-2.9,5.2-1.1,11.7,4.1,14.6l28.4,16.6"/>
	<line class="st7" x1="2079.2" y1="170.9" x2="2060.8" y2="160.6"/>
	<line class="st6" x1="2079.2" y1="108.1" x2="2068.3" y2="128"/>
	<circle class="st8" cx="2109.6" cy="52.9" r="7.9"/>
</g>
<g>
	<g class="note1" id="XMLID_1381_">
		<polyline id="XMLID_1382_" class="st9" points="2066,64.9 2069.7,47.7 2049.7,47.7 2046,64.9 		"/>
		<circle id="XMLID_1528_" class="st9" cx="2062.2" cy="64.7" r="3.8"/>
		<circle id="XMLID_1532_" class="st9" cx="2042.2" cy="64.7" r="3.8"/>
		<line id="XMLID_1534_" class="st9" x1="2048.6" y1="52.8" x2="2068.6" y2="52.8"/>
	</g>
	<g class="note2" id="XMLID_59_">
		<polyline id="XMLID_7_" class="st9" points="2050.5,135.2 2054.2,118 2034.3,118 2030.6,135.2 		"/>
		<circle id="XMLID_6_" class="st9" cx="2046.7" cy="135.1" r="3.8"/>
		<circle id="XMLID_5_" class="st9" cx="2026.8" cy="135.1" r="3.8"/>
		<line id="XMLID_4_" class="st9" x1="2034.3" y1="123.1" x2="2054.2" y2="123.1"/>
	</g>
	<g class="note3" id="XMLID_1_">
		<polyline id="XMLID_3_" class="st9" points="2172.3,50.3 2168,50.3 2164.3,67.4 		"/>
		<circle id="XMLID_2_" class="st9" cx="2160.5" cy="67.3" r="3.8"/>
	</g>
</g>
</svg>
