<?xml version="1.0" encoding="utf-8"?>
<!-- Generator: Adobe Illustrator 19.1.0, SVG Export Plug-In . SVG Version: 6.00 Build 0)  -->
<svg version="1.1" id="Layer_1" xmlns="http://www.w3.org/2000/svg" xmlns:xlink="http://www.w3.org/1999/xlink" x="0px" y="0px"
	 viewBox="3041 -126 4195 303" style="enable-background:new 3041 -126 4195 303;" xml:space="preserve">
<style type="text/css">
	@keyframes note1 {
		0% {
	    opacity: 0;
	    transform: scaleY(.5) translateY(10px) rotate(20deg);
		}

		20% {
			opacity: 1;
		}

	  45% {
	    opacity: 0;
	    transform: scaleY(1.1) translateY(-10px) translateX(-10px) rotate(-20deg);
	  }

	  100% {
	  	opacity: 0;
	    transform: scaleY(1.1) translateY(-10px) translateX(-10px) rotate(-20deg);
	  }
	}

	@keyframes note2 {
		0% {
	    opacity: 0;
	    transform: scaleY(.5) translateX(0) translateY(0) rotate(-20deg);
		}

		20% {
			opacity: 1;
		}

	  65% {
	    opacity: 0;
	    transform: scaleY(1.1) translateX(5px) translateY(-10px) translateX(10px) rotate(0deg);
	  }

	  100% {
	  	opacity: 0;
	    transform: scaleY(1.1) translateX(5px) translateY(-10px) translateX(10px) rotate(0deg);
	  }
	}

	@keyframes note3 {
		0% {
	    opacity: 0;
	    transform: scaleY(.5) translateY(15px) rotate(0deg);
		}

		20% {
			opacity: 1;
		}

	  35% {
	    opacity: 0;
	    transform: scaleY(1) translateY(0) translateX(-10px) rotate(-20deg);
	  }

	  100% {
	  	opacity: 0;
	    transform: scaleY(1) translateY(0) translateX(-10px) rotate(-20deg);
	  }
	}
	.st0{fill:none;stroke:#56C5D0;stroke-width:3;stroke-miterlimit:10;}
	.st1{fill:#FFFFFF;}
	.st2{fill:none;stroke:#17181B;stroke-width:3;stroke-miterlimit:10;}
	.st3{fill:none;stroke:#00B48D;stroke-width:3;stroke-miterlimit:10;}
	.st4{fill:#FFFFFF;stroke:#17181B;stroke-width:3;stroke-miterlimit:10;}
	.st5{fill:none;stroke:#F68D70;stroke-width:3;stroke-linecap:square;stroke-miterlimit:10;}
	.st6{fill:none;stroke:#00B48D;stroke-width:2.236;stroke-miterlimit:10;}
	.note1{animation: note1 4s infinite ease-out; transform-origin:bottom;}
	.note2{animation: note2 1s infinite ease-out; transform-origin:bottom;}
	.note3{animation: note3 2s infinite ease-out; transform-origin:bottom;}
</style>
<g>
	<polyline id="XMLID_73_" class="st0" points="5306.2,-9 5300.9,-17.7 5280.5,-8.2 5263.8,-18.6 	"/>
	<polygon id="XMLID_72_" class="st1" points="5272.5,-23.5 5271.4,-2.5 5265.9,-3.5 5265.9,-24.2 	"/>
	<line id="XMLID_71_" class="st2" x1="5247.5" y1="27.6" x2="5259.4" y2="27.6"/>
	<path id="XMLID_70_" class="st2" d="M5244,73.2c0,28,0,82.9,0,82.9l9.2,0l12-134.1"/>
	<line id="XMLID_69_" class="st2" x1="5240.8" y1="163.7" x2="5258.8" y2="163.7"/>
	<path id="XMLID_68_" class="st0" d="M5232.6-33.1c0-12.3,11.1-14.8,11.1-14.8s20.1,14.3,21.5,30.8l-1.4,38.4"/>
	<path id="XMLID_67_" class="st2" d="M5235.4,59.8c4.7,0,8.6-3.8,8.6-8.6"/>
	<g id="XMLID_65_">
		<path id="XMLID_66_" class="st3" d="M5285-74.3l-12.4-4.3l0.7-2c1-2.8-0.4-5.9-3.1-7c-2.6-1.1-5.5-2.3-6.2-2.4
			c-6.7-1.6-13.4,2.6-15,9.3"/>
	</g>
	<rect id="XMLID_64_" x="5239.1" y="20.7" class="st1" width="32.7" height="4.8"/>
	<polyline id="XMLID_63_" class="st0" points="5244,-32.1 5243.9,45 5235.1,45 	"/>
	<g id="XMLID_61_">
		<path id="XMLID_62_" class="st4" d="M5252.9-47l4.2-8c6.4,3,11.4-1.2,12.8-7.2c0.5-2.1,1.3-5.4,1.8-7.9"/>
	</g>
	<line id="XMLID_60_" class="st4" x1="5315" y1="-38.3" x2="5308" y2="-21.4"/>
	<path class="st0" d="M5238.7-54l-15,0c-3.5,0-6.4,2.8-6.4,6.4v7.4c0,3.5,2.8,6.4,6.4,6.4l0,0"/>
	<path class="st5" d="M5232.6,14.4l-19.4-10.9l-13.7,24.4c-2.4,4.3-0.9,9.7,3.4,12l23.5,13.7"/>
	<line class="st5" x1="5229" y1="27.3" x2="5213.8" y2="18.8"/>
	<line class="st5" x1="5229" y1="-24.6" x2="5220" y2="-8.2"/>
	<circle class="st0" cx="5254.1" cy="-70.3" r="6.5"/>
</g>
<g class="music-notes">
	<g class="note1" id="XMLID_1381_">
		<polyline id="XMLID_1382_" class="st6" points="5220.7,-86.1 5224.4,-103.3 5204.4,-103.3 5200.7,-86.1 		"/>
		<circle id="XMLID_1528_" class="st6" cx="5216.9" cy="-86.3" r="3.8"/>
		<circle id="XMLID_1532_" class="st6" cx="5196.9" cy="-86.3" r="3.8"/>
		<line id="XMLID_1534_" class="st6" x1="5203.3" y1="-98.2" x2="5223.3" y2="-98.2"/>
	</g>
	<g class="note2" id="XMLID_59_">
		<polyline id="XMLID_7_" class="st6" points="5210.5,14.2 5214.2,-3 5194.3,-3 5190.6,14.2 		"/>
		<circle id="XMLID_6_" class="st6" cx="5206.7" cy="14.1" r="3.8"/>
		<circle id="XMLID_5_" class="st6" cx="5186.8" cy="14.1" r="3.8"/>
		<line id="XMLID_4_" class="st6" x1="5194.3" y1="2.1" x2="5214.2" y2="2.1"/>
	</g>
	<g class="note3" id="XMLID_1_">
		<polyline id="XMLID_3_" class="st6" points="5256.3,-124 5252,-124 5248.3,-106.9 		"/>
		<circle id="XMLID_2_" class="st6" cx="5244.5" cy="-107" r="3.8"/>
	</g>
</g>
</svg>
