<?xml version="1.0" encoding="utf-8"?>
<!-- Generator: Adobe Illustrator 19.1.0, SVG Export Plug-In . SVG Version: 6.00 Build 0)  -->
<svg version="1.1" id="Layer_1" xmlns="http://www.w3.org/2000/svg" xmlns:xlink="http://www.w3.org/1999/xlink" x="0px" y="0px"
	 viewBox="3041 -126 4195 303" style="enable-background:new 3041 -126 4195 303;" xml:space="preserve">
<style type="text/css">
	.st0{fill:none;stroke:#17181B;stroke-width:3;stroke-miterlimit:10;}
	.st1{fill:none;stroke:#00B288;stroke-width:3;stroke-miterlimit:10;}
	.st2{fill:none;stroke:#56C5D0;stroke-width:3;stroke-miterlimit:10;}
	.st3{clip-path:url(#XMLID_2_);fill:none;stroke:#00B48D;stroke-width:3;stroke-miterlimit:10;}
	.st4{clip-path:url(#XMLID_3_);fill:none;stroke:#F69679;stroke-width:3;stroke-miterlimit:10;}
	.st5{fill:none;stroke:#F68D70;stroke-width:3;stroke-miterlimit:10;}
	.st6{clip-path:url(#XMLID_4_);fill:none;stroke:#17181B;stroke-width:3;stroke-miterlimit:10;}
	.st7{fill:none;stroke:#F69679;stroke-width:3;stroke-miterlimit:10;}
	.st8{fill:none;stroke:#6A817C;stroke-width:3;stroke-miterlimit:10;}
	.st9{fill:none;stroke:#6A817C;stroke-width:3;stroke-linecap:square;stroke-miterlimit:10;}
	.st10{fill:#FFFFFF;stroke:#17181B;stroke-width:3;stroke-miterlimit:10;}
	.st11{fill:#FFFFFF;stroke:#6A817C;stroke-width:3;stroke-miterlimit:10;}
</style>
<g>
	<g>
		<line id="XMLID_628_" class="st0" x1="5743" y1="158.2" x2="5753.5" y2="151"/>
		<path id="XMLID_433_" class="st1" d="M5699.9-30"/>
		<path id="XMLID_432_" class="st1" d="M5695.5-19.6"/>
		<path id="XMLID_431_" class="st2" d="M5703.1,99.7l37.6,50.9l6.4-4.4c-8.9-16.2-17.8-37.6-33.2-51.1c0,0,6.9-22.3,3.9-39.9"/>
		<path id="XMLID_430_" class="st2" d="M5702,56c-1.4,14.3-21.5,99.7-21.5,99.7l-7.8,0l10.3-100.4"/>
		<g id="XMLID_418_">
			<defs>
				<polyline id="XMLID_419_" points="5694,-16.9 5688.6,2.1 5677.2,-13.9 5684.9,-18.1 5696.4,-18.1 				"/>
			</defs>
			<clipPath id="XMLID_2_">
				<use xlink:href="#XMLID_419_"  style="overflow:visible;"/>
			</clipPath>
			<path id="XMLID_420_" class="st3" d="M5694.6-26.6c-4,5.5-7.4,10-6.8,15.1c0.5,4,3.6,8.1,5.2,9.9"/>
		</g>
		<path id="XMLID_417_" class="st0" d="M5651.4,18c0.3-2.8,2.1-5.4,4.9-6.6l27.3,2c3.3,0.2,6.3-1.7,7.4-4.8
			c3-8.3,8.7-24.2,11.3-31.1c1.4-3.9,3.3-6.2,5.1-7.7c4.1-3.3,10.2-0.7,10.9,4.5c0.2,1.2,0.2,2.5,0.2,4.1"/>
		<g id="XMLID_315_">
			<defs>
				<polygon id="XMLID_415_" points="5689.9,-61.9 5706.4,-61.9 5716.7,-49.3 5722.8,-49.3 5722.8,-80.8 5689.9,-80.8 				"/>
			</defs>
			<clipPath id="XMLID_3_">
				<use xlink:href="#XMLID_415_"  style="overflow:visible;"/>
			</clipPath>
			<circle id="XMLID_416_" class="st4" cx="5706.4" cy="-62.4" r="10.9"/>
		</g>
		<line id="XMLID_279_" class="st5" x1="5704.6" y1="-63.8" x2="5696.1" y2="-63.8"/>
		<g id="XMLID_276_">
			<defs>
				<path id="XMLID_277_" d="M5712.1-38.7l-4.9-20.5c-6.4,0-11.1,0-14.6,0l2,27.8L5712.1-38.7z"/>
			</defs>
			<clipPath id="XMLID_4_">
				<use xlink:href="#XMLID_277_"  style="overflow:visible;"/>
			</clipPath>
			<path id="XMLID_278_" class="st6" d="M5708.7-37.9l-2.5-6.3c-6.6,1.4-10.4-3.6-10.4-9.5c0-2.1,0-9.8,0-12.2"/>
		</g>
		<line id="XMLID_275_" class="st0" x1="5670.1" y1="163" x2="5682" y2="163"/>
		<path class="st7" d="M5720-68.8l2.1-2.1c2.2-2.2,2.2-5.7,0-7.9v0c-2.2-2.2-5.7-2.2-7.9,0l-2.1,2.1"/>
		<path class="st8" d="M5725.7,21.4l-26.9,0c-4.9,0-8.9,4-8.9,8.9v18l44.7,0v-18C5734.6,25.4,5730.6,21.4,5725.7,21.4z"/>
		<polyline class="st9" points="5705.4,28.7 5705.4,33.3 5719.1,33.3 5719.1,28.7 		"/>
		<path class="st8" d="M5727.3,13.8v-33.5c0-6.6-2.6-13-7.3-17.7v0"/>
	</g>
	<g>
		<g>
			<line class="st8" x1="5535.3" y1="145.7" x2="5571.7" y2="109.3"/>
			<line class="st8" x1="5608.1" y1="145.7" x2="5571.7" y2="109.3"/>
			<circle class="st10" cx="5535.3" cy="145.7" r="17.3"/>
			<circle class="st11" cx="5535.3" cy="145.7" r="4.9"/>
			<circle class="st10" cx="5608.1" cy="145.7" r="17.3"/>
			<circle class="st11" cx="5608.1" cy="145.7" r="4.9"/>
		</g>
		<g>
			<path class="st2" d="M5567.1,69.1l0-50.4c-27.9,0-50.4,22.6-50.4,50.4"/>
		</g>
		<path class="st8" d="M5609.8,69.1l34.7-34.7c5.7-5.7,13.3-8.8,21.4-8.8"/>
		<path class="st11" d="M5603,111.2l-62.7,0c-13.1,0-23.7-10.6-23.7-23.7V74.7l110.1,0v12.8C5626.7,100.6,5616.1,111.2,5603,111.2z"
			/>
		<line class="st2" x1="5555.6" y1="28.6" x2="5555.6" y2="69.1"/>
	</g>
</g>
</svg>
