<?xml version="1.0" encoding="utf-8"?>
<!-- Generator: Adobe Illustrator 19.1.0, SVG Export Plug-In . SVG Version: 6.00 Build 0)  -->
<svg version="1.1" id="Layer_1" xmlns="http://www.w3.org/2000/svg" xmlns:xlink="http://www.w3.org/1999/xlink" x="0px" y="0px"
	 viewBox="3041 -126 4195 303" style="enable-background:new 3041 -126 4195 303;" xml:space="preserve">
<style type="text/css">
	.st0{fill:#FFFFFF;}
	.st1{fill:#162532;}
	.st2{fill:#F69679;}
	.st3{fill:none;stroke:#00B48D;stroke-width:3;stroke-miterlimit:10;}
</style>
<g>
	<g>
		<g>
			<g>
				<path class="st0" d="M5014.2,42.9l1.6-3.7c0.2-0.5,0.3-1.1,0.2-1.6c-0.1-0.8-1-1.8-2.7-3l-0.1-0.1l-29.7-23.3l6.8-8.7l29.4,23
					c1.7,1.2,6.5,4.6,7.3,10.6c0.3,2.5-0.1,5-1.1,7.3l-1.6,3.7L5014.2,42.9z"/>
				<path class="st1" d="M5022.2,42l-2.8-1.2c0.5-1.2,0.7-2.4,0.5-3.7c-0.2-2.1-1.6-3.9-4.5-5.8l-26.4-20.7l1.9-2.4l26.3,20.7
					c2.2,1.5,5.2,4,5.7,7.8C5023.1,38.6,5022.9,40.4,5022.2,42z"/>
			</g>
		</g>
	</g>
	<g>
		<path class="st0" d="M4991.8-4.9c2-2.7,4.5-6.9,5-11.2c0.9-7.4-3.4-13.1-7.8-19.2l-2.6-3.6l-6.7,4.9c-3.3-7.7-11.3-9.8-14.9-9.9
			l-2.1-0.1l-1.6,1.4c-4.3,3.6-7,6.5-7,15.6s3.9,23.5,3.9,23.5c1.3,5.2-4.9,47.1-11.5,82.9l-1.2,6.6h21.8h18h21.8L4991.8-4.9z"/>
		<path class="st1" d="M4977.3,58.2l-4-43.2l0-0.1c0-0.3,0.4-26.8,0.7-40.9c0.2-9.1-6.9-10.5-8.9-10.7c-2.9,2.5-4,3.7-4,9.9h-3
			c0-7.6,1.8-9.4,5.5-12.6l0.4-0.4l0.6,0c0.1,0,12.7,0.5,12.4,13.8c-0.3,13.7-0.7,39.2-0.7,40.9l4,43.1L4977.3,58.2z"/>
	</g>
	<g>
		<path class="st0" d="M4921.4,147.5l2.4-4.4c2.6-4.6,4.8-9.5,7.2-14.6c5.9-12.7,11.9-25.9,23.3-36.4l25.5,7.2l-43.2,58.5
			L4921.4,147.5z"/>
		<path class="st1" d="M4935.7,152.4l-9-6.1l0.7-1.2c2.6-4.7,4.9-9.7,7.3-14.9c5.9-12.7,11.9-25.8,23.3-36l2-9.1l2.9,0.6l-2.2,10.1
			l-0.4,0.3c-11.1,9.8-17.1,22.7-22.9,35.3c-2.1,4.6-4.3,9.4-6.7,13.9l4.4,3l38.4-52l2.7-11.1l2.9,0.7l-2.8,11.7L4935.7,152.4z"/>
	</g>
	<g>
		<path class="st0" d="M4993.6,156.9c-0.5-2.2-13.5-54.6-15-69.7l26.2-6.7l8.3,80.5h-18.4L4993.6,156.9z"/>
		<path class="st1" d="M4997.7,157.1l-0.3-1.1c-0.5-2.2-13.4-54.4-14.9-69.2l3-0.3c1.3,13.4,12.6,59.7,14.5,67.6l5.2,0l-7.1-68.8
			l3-0.3l7.4,72.1L4997.7,157.1z"/>
	</g>
	<g>
		<rect x="4994" y="157" class="st0" width="21" height="11"/>
		<rect x="4997.5" y="161.5" class="st1" width="13.9" height="3"/>
	</g>
	<g>
		
			<rect x="4923.5" y="142.9" transform="matrix(-0.5644 0.8255 -0.8255 -0.5644 7838.5034 -3827.3113)" class="st0" width="11" height="23.1"/>
		
			<rect x="4921.5" y="152.9" transform="matrix(0.8254 0.5646 -0.5646 0.8254 947.9153 -2755.8979)" class="st1" width="15.1" height="3"/>
	</g>
	<path class="st2" d="M5002.1,82l-14.5-88c1.7-2.1,4.8-6.3,5.3-10.6c0.7-5.8-2.9-10.7-7.1-16.4l-0.2-0.3l-2.4,1.8l0.2,0.3
		c4,5.4,7.1,9.6,6.5,14.3c-0.5,4-4,8.3-5,9.5l-0.5,0.6l14.2,85.9h-27.2l0,0h-17.7c2.1-12,13.4-75.2,11.2-84.3
		c-0.6-2.4-2.5-10.7-2.5-18.7h-3c0,8,2,16.8,2.6,19.3c1.9,7.6-7.7,63.8-11.6,84.7l-0.3,2h30.7l0,0H5002.1z"/>
	<g>
		<g>
			<g>
				<path class="st0" d="M4995.6-71.1c0-1.6-0.2-3.1-0.6-4.5l-1.2-3.1c-2.8-5.5-8.5-9.2-15-9.2c-9.3,0-16.8,7.6-16.8,16.8
					c0,4.7,1.3,8.5,3.8,11.2c2.2,2.3,5.3,3.6,8.8,3.8l-5.6,14.4l7.8,10.1l5.7-14.8c2.6-0.3,5-1.2,7-2.9c3.5-2.9,5.4-7.5,5.4-12.7v-6
					C4995.4-69.1,4995.6-70.1,4995.6-71.1z"/>
				<path class="st2" d="M4966.5-66.8c-0.3-1.3-0.5-2.7-0.5-4.3c0-7.1,5.8-12.8,12.8-12.8s12.8,5.8,12.8,12.8h-3
					c0-5.4-4.4-9.8-9.8-9.8s-9.8,4.4-9.8,9.8c0,1.7,0.2,3.1,0.7,4.3C4969.9-66,4966.9-65.1,4966.5-66.8z"/>
			</g>
		</g>
	</g>
	<g>
		<g>
			<path class="st0" d="M4964.1-60.8c-7.2,0-11.4-2-12.1-2.4l-3.5-1.9l2.6-4.9l2.6-4.8c0,0,6,3,10.6,3c3.4,0,7.1-0.6,11-1.9
				c6.2-2,12.4-3,18.5-3c6.1,0,11.6,1.1,15.1,2.9l3.5,1.9l-5.1,9.7l-3.5-1.9c-0.8-0.4-4.4-1.6-10.1-1.6c-4.8,0-9.8,0.8-14.9,2.5
				C4973.6-61.7,4968.7-60.8,4964.1-60.8z"/>
			<path class="st2" d="M4964.1-64.8c-6.5,0-10-1.9-10.3-2l1.4-2.6l-0.7,1.3l0.7-1.3c0.1,0,7.7,3.9,21.1-0.5
				c14.2-4.6,26-2.7,30.5-0.4l-1.4,2.7c-2.6-1.4-13.3-4.2-28.1,0.6C4972.1-65.4,4967.7-64.8,4964.1-64.8z"/>
		</g>
	</g>
	<rect x="4935.1" y="60.1" class="st0" width="71.7" height="67.7"/>
	<rect x="4942.6" y="66.5" class="st3" width="56.3" height="55"/>
	<g>
		<path class="st1" d="M4991.3-65.7v3.6c0,4-1.5,7.5-4.1,9.6c-2,1.6-4.5,2.3-7.3,2l-3.6,9.1l-2.8-1.1l4.5-11.4l1.2,0.3
			c2.4,0.5,4.5,0.1,6-1.2c1.9-1.5,3-4.2,3-7.3v-3.4L4991.3-65.7z"/>
	</g>
</g>
</svg>
