<?xml version="1.0" encoding="utf-8"?>
<!-- Generator: Adobe Illustrator 20.0.0, SVG Export Plug-In . SVG Version: 6.00 Build 0)  -->
<svg version="1.1" id="Layer_1" xmlns="http://www.w3.org/2000/svg" xmlns:xlink="http://www.w3.org/1999/xlink" x="0px" y="0px"
	 viewBox="0 0 4195 340.3" style="enable-background:new 0 0 4195 340.3;" xml:space="preserve">
<style type="text/css">
	.st0{fill:none;stroke:#00B48D;stroke-width:4;stroke-miterlimit:10;}
	.st1{fill:#FFFFFF;}
	.st2{fill:none;stroke:#211F1F;stroke-width:4;stroke-miterlimit:10;}
	.st3{fill:none;stroke:#F68D70;stroke-width:6;stroke-miterlimit:10;}
	.st4{clip-path:url(#XMLID_2_);fill:none;stroke:#F68D70;stroke-width:6;stroke-miterlimit:10;}
	.st5{fill:none;stroke:#6A817C;stroke-width:4;stroke-miterlimit:10;}
	.st6{clip-path:url(#XMLID_3_);fill:#FFFFFF;stroke:#211F1F;stroke-width:4;stroke-miterlimit:10;}
	.st7{clip-path:url(#XMLID_4_);fill:none;stroke:#6A817C;stroke-width:4;stroke-miterlimit:10;}
</style>
<g>
	<path id="XMLID_84_" class="st0" d="M3646.3,96.6"/>
	<path id="XMLID_83_" class="st0" d="M3651.8,109.7"/>
	<polygon id="XMLID_82_" class="st1" points="3648.6,111.7 3658.1,111.7 3658.1,107.7 3647.5,107.7 	"/>
	<path id="XMLID_79_" class="st2" d="M3644.7,242.7l-3.3,13.7l-47.3,64.1l-8-5.5c11.1-20.2,17.7-44.2,36.8-61l2.5-11.5"/>
	<path id="XMLID_78_" class="st2" d="M3652.6,244c1.8,17.8,17.8,82.8,17.8,82.8h9.7l-8.7-84.7"/>
	<path id="XMLID_77_" class="st3" d="M3624.7,111.6c0,7.2,1.6,16.1,3.1,22.5c2.8,11.5,6.7,28.3,6.7,28.3l-20.6,74l58.2,0l-9.7-72.3"
		/>
	<line id="XMLID_76_" class="st2" x1="3685.5" y1="333.7" x2="3668.8" y2="333.7"/>
	<line id="XMLID_75_" class="st2" x1="3594" y1="330.5" x2="3579" y2="320.2"/>
	<rect id="XMLID_74_" x="3609.1" y="241.6" class="st1" width="71.2" height="2.8"/>
	<g id="XMLID_71_">
		<defs>
			<polyline id="XMLID_72_" points="3653.6,113 3660.4,136.7 3674.6,116.8 3665,111.6 3650.6,111.6 			"/>
		</defs>
		<clipPath id="XMLID_2_">
			<use xlink:href="#XMLID_72_"  style="overflow:visible;"/>
		</clipPath>
		<path id="XMLID_73_" class="st4" d="M3652.8,100.9c5,6.8,9.2,12.4,8.5,18.8c-0.6,5-4.5,10.1-6.4,12.4"/>
	</g>
	<path id="XMLID_69_" class="st2" d="M3696.7,189.6c0.8-1.7,1-3.6,0.8-5.3c-0.4-3.5-2.6-6.7-6.1-8.2l-31.6-24.8
		c0,0-12-33.4-16.4-45.3c-5-13.5-14.1-12.3-14.1-12.3c-4.2,3.5-6,5.2-6,13.7"/>
	<polygon id="XMLID_68_" class="st1" points="3652.8,164.1 3680.1,180.7 3672.1,166 3658.1,155.9 	"/>
	<g>
		<path id="XMLID_67_" class="st5" d="M3634.1,51c4.1,6.7,14.2,8.9,21.5,3.9c0-8.8-6.4-15.3-16-15.3c-9.3,0-17.6,6-17.6,15.3l0,25.2
			"/>
		<g id="XMLID_62_">
			<defs>
				<path id="XMLID_63_" d="M3636.2,84.7L3643,62c6.8,2.4,14.8-1.3,16.6-3.9l-4,34L3636.2,84.7z"/>
			</defs>
			<clipPath id="XMLID_3_">
				<use xlink:href="#XMLID_63_"  style="overflow:visible;"/>
			</clipPath>
			<path id="XMLID_65_" class="st6" d="M3640.9,85.5l2.6-6.6c6.9,1.5,10.9-3.8,10.9-10c0-2.1,0-10.2,0-12.8"/>
		</g>
		<g id="XMLID_59_">
			<defs>
				<path id="XMLID_60_" d="M3631.5,56.6c0.9,1.5,4.7,3.8,6.6,4.5v20.5l-6.6,0V56.6z"/>
			</defs>
			<clipPath id="XMLID_4_">
				<use xlink:href="#XMLID_60_"  style="overflow:visible;"/>
			</clipPath>
			<line id="XMLID_61_" class="st7" x1="3634.9" y1="52.6" x2="3634.9" y2="80.1"/>
		</g>
	</g>
</g>
</svg>
