<?xml version="1.0" encoding="utf-8"?>
<!-- Generator: Adobe Illustrator 19.1.0, SVG Export Plug-In . SVG Version: 6.00 Build 0)  -->
<svg version="1.1" id="Layer_1" xmlns="http://www.w3.org/2000/svg" xmlns:xlink="http://www.w3.org/1999/xlink" x="0px" y="0px"
	 viewBox="3041 -126 4195 303" style="enable-background:new 3041 -126 4195 303;" xml:space="preserve">
<style type="text/css">
	.st0{fill:none;stroke:#00B48D;stroke-width:3;stroke-miterlimit:10;}
	.st1{fill:#FFFFFF;}
	.st2{fill:none;stroke:#F68D70;stroke-width:3;stroke-miterlimit:10;}
	.st3{fill:none;stroke:#211F1F;stroke-width:3;stroke-miterlimit:10;}
	.st4{clip-path:url(#XMLID_2_);fill:none;stroke:#F68D70;stroke-width:3;stroke-miterlimit:10;}
	.st5{fill:none;stroke:#6A817C;stroke-width:3;stroke-miterlimit:10;}
	.st6{clip-path:url(#XMLID_3_);fill:#FFFFFF;stroke:#211F1F;stroke-width:3;stroke-miterlimit:10;}
	.st7{clip-path:url(#XMLID_4_);fill:none;stroke:#6A817C;stroke-width:3;stroke-miterlimit:10;}
</style>
<g>
	<path id="XMLID_200_" class="st0" d="M6651.3-22.8"/>
	<path id="XMLID_199_" class="st0" d="M6655.6-12.6"/>
	<polygon id="XMLID_198_" class="st1" points="6653,-11 6660.5,-11 6660.5,-14.1 6652.2,-14.1 	"/>
	<g id="XMLID_196_">
		<polyline id="XMLID_197_" class="st2" points="6663.9,30.1 6671.5,86.8 6644.2,86.8 		"/>
	</g>
	<path id="XMLID_195_" class="st3" d="M6650,91.7l-2.6,10.7l-37.1,50.3l-6.3-4.3c8.7-15.8,13.9-34.7,28.8-47.8l2-9"/>
	<path id="XMLID_194_" class="st3" d="M6656.2,92.7c1.4,14,14,64.9,14,64.9h7.6l-6.8-66.4"/>
	<path id="XMLID_193_" class="st2" d="M6634.3-11c0,5.7,1.2,12.6,2.4,17.6c2.2,9,5.2,22.2,5.2,22.2l-16.1,58l27.2,0"/>
	<line id="XMLID_192_" class="st3" x1="6682" y1="163" x2="6668.9" y2="163"/>
	<line id="XMLID_191_" class="st3" x1="6610.2" y1="160.5" x2="6598.5" y2="152.5"/>
	<rect id="XMLID_190_" x="6622.1" y="90.8" class="st1" width="55.8" height="2.2"/>
	<g id="XMLID_187_">
		<defs>
			<polyline id="XMLID_188_" points="6657,-9.9 6662.3,8.6 6673.4,-7 6665.9,-11 6654.6,-11 			"/>
		</defs>
		<clipPath id="XMLID_2_">
			<use xlink:href="#XMLID_188_"  style="overflow:visible;"/>
		</clipPath>
		<path id="XMLID_189_" class="st4" d="M6656.4-19.4c3.9,5.4,7.2,9.7,6.7,14.7c-0.5,3.9-3.5,7.9-5,9.7"/>
	</g>
	<path id="XMLID_186_" class="st3" d="M6690.8,50.1c0.6-1.4,0.8-2.8,0.6-4.2c-0.3-2.8-2.1-5.3-4.8-6.4l-24.8-19.5
		c0,0-9.4-26.1-12.9-35.5c-3.9-10.6-11.1-9.6-11.1-9.6c-3.3,2.8-4.7,4.1-4.7,10.8"/>
	<polygon id="XMLID_185_" class="st1" points="6656.3,30.1 6677.7,43.1 6671.5,31.6 6660.5,23.7 	"/>
	<g>
		<path id="XMLID_184_" class="st5" d="M6641.7-58.5c3.2,5.3,11.1,7,16.8,3.1c0-6.9-5-12-12.6-12c-7.3,0-13.8,4.7-13.8,12l0,19.7"/>
		<g id="XMLID_181_">
			<defs>
				<path id="XMLID_182_" d="M6643.3-32.2l5.3-17.7c5.3,1.9,11.6-1,13-3.1l-3.2,26.7L6643.3-32.2z"/>
			</defs>
			<clipPath id="XMLID_3_">
				<use xlink:href="#XMLID_182_"  style="overflow:visible;"/>
			</clipPath>
			<path id="XMLID_183_" class="st6" d="M6647-31.5l2-5.2c5.4,1.2,8.5-3,8.5-7.8c0-1.7,0-8,0-10"/>
		</g>
		<g id="XMLID_178_">
			<defs>
				<path id="XMLID_179_" d="M6639.7-54.2c0.7,1.2,3.6,3,5.2,3.6v16.1l-5.2,0V-54.2z"/>
			</defs>
			<clipPath id="XMLID_4_">
				<use xlink:href="#XMLID_179_"  style="overflow:visible;"/>
			</clipPath>
			<line id="XMLID_180_" class="st7" x1="6642.3" y1="-57.3" x2="6642.3" y2="-35.7"/>
		</g>
	</g>
</g>
</svg>
